<svg width="70" height="51" viewBox="0 0 70 51" fill="none" xmlns="http://www.w3.org/2000/svg">
<path fill-rule="evenodd" clip-rule="evenodd" d="M23.3519 8.57455C21.7276 9.32938 20.897 10.6623 20.897 12.5131C20.897 13.4912 21.2625 14.8799 21.52 14.8799C21.5718 14.8799 22.3193 14.15 23.1808 13.2579C24.0423 12.366 25.5255 11.0854 26.4768 10.4123C28.1154 9.25291 28.1869 9.17499 27.8386 8.93139C26.5579 8.03619 24.8094 7.89709 23.3519 8.57455ZM53.7312 8.55325C53.2885 8.77846 52.8992 9.05228 52.8662 9.16152C52.833 9.27076 53.3623 9.71845 54.0427 10.1561C54.7229 10.594 56.1823 11.8358 57.2858 12.916C59.5382 15.1208 59.5579 15.1237 59.9355 13.3084C60.6428 9.90797 56.8223 6.97968 53.7312 8.55325ZM39.5848 18.422C39.139 18.8667 39.137 18.8849 39.137 22.5377V26.2066L38.2412 27.0521C37.5995 27.6575 37.284 28.1281 37.1291 28.7101C36.5343 30.9472 38.0552 33.0678 40.3673 33.2255C44.0198 33.4744 45.5934 28.6614 42.511 26.6685L41.8775 26.2589L41.8752 22.4811C41.8732 18.9476 41.8494 18.6798 41.5082 18.3391C41.0011 17.833 40.1374 17.8701 39.5848 18.422ZM4.23197 18.8986C3.3415 19.5975 3.73238 21.0586 4.88679 21.3463C5.11497 21.4032 7.99708 21.4258 11.2914 21.3965L17.2809 21.3432L17.7378 20.8128C18.2768 20.1871 18.2159 19.3559 17.593 18.8398C17.2433 18.55 16.643 18.5212 10.9605 18.5212C4.91579 18.5212 4.69691 18.5334 4.23197 18.8986ZM0.889127 28.3511C-0.0945563 28.7546 -0.304133 29.9485 0.472708 30.7239C0.819269 31.0699 1.10691 31.0835 8.00601 31.0835H15.1789L15.5756 30.6622C16.0686 30.1382 16.0898 29.2663 15.6236 28.6914L15.275 28.2615L8.28199 28.2244C4.4359 28.2038 1.1091 28.261 0.889127 28.3511ZM4.51269 38.4232C4.01966 38.9472 3.9985 39.8191 4.46472 40.394L4.8131 40.8239L10.6207 40.8707C16.9215 40.9215 17.1264 40.894 17.5846 39.9401C17.8711 39.3439 17.6088 38.4736 17.0536 38.177C16.863 38.0753 14.251 38.0019 10.8175 38.0019H4.90941L4.51269 38.4232Z" fill="#15882E"/>
<circle cx="40.5" cy="29.5" r="20.5" stroke="#15882E" stroke-width="2"/>
<rect x="33" width="15" height="5" rx="2" fill="#15882E"/>
<rect x="39" y="10" width="8" height="3" rx="1.5" transform="rotate(-90 39 10)" fill="#15882E"/>
</svg>
