<svg width="50" height="50" viewBox="0 0 50 50" fill="none" xmlns="http://www.w3.org/2000/svg">
<g clip-path="url(#clip0_54_1216)">
<path d="M25 37.5C18.1062 37.5 12.5 31.8937 12.5 25C12.5 18.1062 18.1062 12.5 25 12.5C31.8937 12.5 37.5 18.1062 37.5 25C37.5 31.8937 31.8937 37.5 25 37.5ZM25 14.5833C19.2562 14.5833 14.5833 19.2562 14.5833 25C14.5833 30.7437 19.2562 35.4167 25 35.4167C30.7437 35.4167 35.4167 30.7437 35.4167 25C35.4167 19.2562 30.7437 14.5833 25 14.5833Z" fill="#15882E"/>
<path d="M1.60417 31.25C1.12708 31.25 0.697917 30.9208 0.589583 30.4375C0.197917 28.7042 0 26.875 0 25C0 11.2146 11.2146 0 25 0C32.8208 0 40.0417 3.56458 44.8063 9.78333C45.1563 10.2396 45.0688 10.8937 44.6125 11.2437C44.1542 11.5937 43.5042 11.5062 43.1521 11.05C38.7854 5.35208 32.1688 2.08333 25 2.08333C12.3646 2.08333 2.08333 12.3646 2.08333 25C2.08333 26.7229 2.26458 28.3979 2.62083 29.9792C2.74792 30.5417 2.39583 31.0979 1.83333 31.225C1.75625 31.2417 1.67917 31.25 1.60417 31.25Z" fill="#15882E"/>
<path d="M24.9999 50C17.179 50 9.95821 46.4354 5.19363 40.2167C4.84363 39.7604 4.93113 39.1063 5.38738 38.7563C5.84571 38.4084 6.49779 38.4959 6.84779 38.95C11.2145 44.6479 17.8311 47.9167 24.9999 47.9167C37.6353 47.9167 47.9165 37.6354 47.9165 25C47.9165 23.2542 47.7311 21.5813 47.3624 20.0334C47.229 19.4729 47.5749 18.9104 48.1353 18.7792C48.6999 18.6438 49.2582 18.9917 49.3895 19.5521C49.7936 21.2584 49.9999 23.0917 49.9999 25C49.9999 38.7854 38.7853 50 24.9999 50Z" fill="#15882E"/>
<path d="M5.31237 50C4.74153 50 4.27695 49.5396 4.2707 48.9687L4.16653 38.5521C4.16445 38.275 4.27278 38.0063 4.46862 37.8104C4.66445 37.6104 4.93112 37.5 5.2082 37.5H15.6249C16.1999 37.5 16.6665 37.9667 16.6665 38.5417C16.6665 39.1167 16.1999 39.5833 15.6249 39.5833H6.26028L6.35403 48.9479C6.36028 49.5229 5.89987 49.9937 5.32278 50C5.3207 50 5.31653 50 5.31237 50Z" fill="#15882E"/>
<path d="M44.7918 12.5H34.3752C33.8002 12.5 33.3335 12.0333 33.3335 11.4583C33.3335 10.8833 33.8002 10.4167 34.3752 10.4167H43.7502V1.04167C43.7502 0.466667 44.2168 0 44.7918 0C45.3668 0 45.8335 0.466667 45.8335 1.04167V11.4583C45.8335 12.0333 45.3668 12.5 44.7918 12.5Z" fill="#15882E"/>
<path d="M22.9165 30.2083C22.6415 30.2083 22.3749 30.0979 22.179 29.9042L18.5332 26.2583C18.127 25.8521 18.127 25.1917 18.5332 24.7854C18.9395 24.3792 19.5999 24.3792 20.0061 24.7854L22.8603 27.6396L28.8978 20.6729C29.2769 20.2396 29.9332 20.1917 30.3686 20.5688C30.8019 20.9458 30.8499 21.6042 30.4728 22.0396L23.702 29.8521C23.5124 30.0688 23.2415 30.2 22.952 30.2104C22.9415 30.2083 22.929 30.2083 22.9165 30.2083Z" fill="#15882E"/>
</g>
<defs>
<clipPath id="clip0_54_1216">
<rect width="50" height="50" fill="white"/>
</clipPath>
</defs>
</svg>
