<svg width="63" height="57" viewBox="0 0 63 57" fill="none" xmlns="http://www.w3.org/2000/svg">
<g clip-path="url(#clip0_54_1243)">
<path d="M6.04317 56.454C5.74736 56.454 5.4536 56.3618 5.2029 56.1805C4.7359 55.842 4.51775 55.2603 4.64485 54.6989L6.38184 47.0475L0.49109 41.8815C0.0580806 41.5035 -0.107337 40.9048 0.0704406 40.3571C0.248218 39.8104 0.731903 39.4233 1.30458 39.3703L9.09875 38.6627L12.1803 31.4513C12.4075 30.9215 12.925 30.5793 13.4999 30.5793C14.0749 30.5793 14.5923 30.9215 14.8196 31.4501L17.9011 38.6627L25.694 39.3703C26.2679 39.4221 26.7516 39.8104 26.9294 40.3571C27.1072 40.9038 26.9428 41.5035 26.5098 41.8815L20.619 47.0465L22.356 54.6977C22.4833 55.2603 22.265 55.842 21.7982 56.1795C21.3324 56.5169 20.7113 56.5428 20.2208 56.248L13.4999 52.2317L6.779 56.2503C6.55178 56.3852 6.29861 56.454 6.04317 56.454ZM13.4999 50.5015C13.7554 50.5015 14.0083 50.5701 14.2358 50.705L20.5787 54.4987L18.9393 47.277C18.8223 46.763 18.9968 46.2264 19.394 45.8787L24.9561 41.0006L17.5972 40.3324C17.0674 40.284 16.6117 39.9509 16.4047 39.4626L13.4999 32.6573L10.5916 39.4637C10.3869 39.9486 9.9312 40.2817 9.4026 40.3301L2.04267 40.9984L7.60464 45.8764C8.00305 46.2252 8.17732 46.7608 8.05928 47.276L6.42118 54.4975L12.7641 50.705C12.9913 50.5701 13.2445 50.5015 13.4999 50.5015ZM9.03922 38.8022C9.03922 38.8022 9.03922 38.8034 9.03799 38.8045L9.03922 38.8022ZM17.9584 38.7989L17.9596 38.8012C17.9596 38.7999 17.9596 38.7999 17.9584 38.7989Z" fill="#15882E"/>
</g>
<g clip-path="url(#clip1_54_1243)">
<path d="M24.0432 26.454C23.7474 26.454 23.4536 26.3618 23.2029 26.1805C22.7359 25.842 22.5178 25.2603 22.6449 24.6989L24.3818 17.0475L18.4911 11.8815C18.0581 11.5035 17.8927 10.9048 18.0704 10.3571C18.2482 9.81036 18.7319 9.42329 19.3046 9.37035L27.0988 8.66274L30.1803 1.45134C30.4075 0.92151 30.925 0.579346 31.4999 0.579346C32.0749 0.579346 32.5923 0.92151 32.8196 1.4501L35.9011 8.66274L43.694 9.37035C44.2679 9.42206 44.7516 9.81036 44.9294 10.3571C45.1072 10.9038 44.9428 11.5035 44.5098 11.8815L38.619 17.0465L40.356 24.6977C40.4833 25.2603 40.265 25.842 39.7982 26.1795C39.3324 26.5169 38.7113 26.5428 38.2208 26.248L31.4999 22.2317L24.779 26.2503C24.5518 26.3852 24.2986 26.454 24.0432 26.454ZM31.4999 20.5015C31.7554 20.5015 32.0083 20.5701 32.2358 20.705L38.5787 24.4987L36.9393 17.277C36.8223 16.763 36.9968 16.2264 37.394 15.8787L42.9561 11.0006L35.5972 10.3324C35.0674 10.284 34.6117 9.95086 34.4047 9.46264L31.4999 2.65726L28.5916 9.46367C28.3869 9.94859 27.9312 10.2817 27.4026 10.3301L20.0427 10.9984L25.6046 15.8764C26.003 16.2252 26.1773 16.7608 26.0593 17.276L24.4212 24.4975L30.7641 20.705C30.9913 20.5701 31.2445 20.5015 31.4999 20.5015ZM27.0392 8.80221C27.0392 8.80221 27.0392 8.80344 27.038 8.80447L27.0392 8.80221ZM35.9584 8.79891L35.9596 8.80118C35.9596 8.79994 35.9596 8.79994 35.9584 8.79891Z" fill="#15882E"/>
</g>
<g clip-path="url(#clip2_54_1243)">
<path d="M42.0432 56.454C41.7474 56.454 41.4536 56.3618 41.2029 56.1805C40.7359 55.842 40.5178 55.2603 40.6449 54.6989L42.3818 47.0475L36.4911 41.8815C36.0581 41.5035 35.8927 40.9048 36.0704 40.3571C36.2482 39.8104 36.7319 39.4233 37.3046 39.3703L45.0988 38.6627L48.1803 31.4513C48.4075 30.9215 48.925 30.5793 49.4999 30.5793C50.0749 30.5793 50.5923 30.9215 50.8196 31.4501L53.9011 38.6627L61.694 39.3703C62.2679 39.4221 62.7516 39.8104 62.9294 40.3571C63.1072 40.9038 62.9428 41.5035 62.5098 41.8815L56.619 47.0465L58.356 54.6977C58.4833 55.2603 58.265 55.842 57.7982 56.1795C57.3324 56.5169 56.7113 56.5428 56.2208 56.248L49.4999 52.2317L42.779 56.2503C42.5518 56.3852 42.2986 56.454 42.0432 56.454ZM49.4999 50.5015C49.7554 50.5015 50.0083 50.5701 50.2358 50.705L56.5787 54.4987L54.9393 47.277C54.8223 46.763 54.9968 46.2264 55.394 45.8787L60.9561 41.0006L53.5972 40.3324C53.0674 40.284 52.6117 39.9509 52.4047 39.4626L49.4999 32.6573L46.5916 39.4637C46.3869 39.9486 45.9312 40.2817 45.4026 40.3301L38.0427 40.9984L43.6046 45.8764C44.003 46.2252 44.1773 46.7608 44.0593 47.276L42.4212 54.4975L48.7641 50.705C48.9913 50.5701 49.2445 50.5015 49.4999 50.5015ZM45.0392 38.8022C45.0392 38.8022 45.0392 38.8034 45.038 38.8045L45.0392 38.8022ZM53.9584 38.7989L53.9596 38.8012C53.9596 38.7999 53.9596 38.7999 53.9584 38.7989Z" fill="#15882E"/>
</g>
<defs>
<clipPath id="clip0_54_1243">
<rect width="27" height="27" fill="white" transform="translate(0 30)"/>
</clipPath>
<clipPath id="clip1_54_1243">
<rect width="27" height="27" fill="white" transform="translate(18)"/>
</clipPath>
<clipPath id="clip2_54_1243">
<rect width="27" height="27" fill="white" transform="translate(36 30)"/>
</clipPath>
</defs>
</svg>
