<svg width="60" height="60" viewBox="0 0 60 60" fill="none" xmlns="http://www.w3.org/2000/svg">
<g clip-path="url(#clip0_54_1259)">
<path d="M48.5186 21.1845C52.4213 17.9967 51.0732 11.6925 46.1965 10.386C44.9222 10.0446 43.6031 10.1156 42.3938 10.5763L38.5189 3.86471C36.9421 1.13352 33.0314 1.06114 31.3524 3.72409C26.5864 11.2835 20.237 17.7129 12.6988 22.5919C12.2695 22.8692 12.1104 23.4422 12.3644 23.9086C12.4052 23.9832 18.8236 35.0989 18.8661 35.1725C19.1421 35.6505 19.7533 35.8148 20.2321 35.5385C20.7104 35.2624 20.8742 34.6507 20.5981 34.1725L14.5792 23.7472C21.767 18.9421 28.1329 12.5806 33.0443 4.79074C33.9227 3.39733 35.9645 3.44058 36.7868 4.86474L50.6616 28.8967C51.4849 30.3227 50.4978 32.1108 48.8544 32.1748C39.6346 32.5341 30.6077 34.8922 22.3546 39.1133C22.3195 39.1312 12.9623 44.5345 12.3179 44.9065C10.6452 45.8723 8.49893 45.2971 7.5334 43.6245L2.46815 34.8509C1.5025 33.1783 2.07764 31.032 3.75018 30.0664L9.84646 26.5467C10.3247 26.2705 10.4886 25.6589 10.2125 25.1806C9.93634 24.7022 9.32457 24.5385 8.84644 24.8146L2.75016 28.3343C0.122593 29.8512 -0.780929 33.2232 0.736109 35.8509L5.80148 44.6244C7.31865 47.2522 10.6906 48.1554 13.3182 46.6384L13.5488 46.5053L19.8026 57.3372C20.7009 58.8931 22.6872 59.426 24.2439 58.5273L26.4374 57.2609C27.9937 56.3624 28.5259 54.376 27.6274 52.8196L23.1952 45.1427C22.919 44.6645 22.3074 44.5006 21.8291 44.7767C21.3509 45.0529 21.187 45.6645 21.4631 46.1428L25.8954 53.8196C26.2411 54.4185 26.0364 55.183 25.4373 55.5288L23.2439 56.7952C22.645 57.1409 21.8805 56.936 21.5348 56.3371L15.281 45.5052L23.288 40.8823C31.1234 36.8789 39.8401 34.5274 48.9324 34.1732C52.0835 34.0503 53.9682 30.6233 52.3936 27.8966L48.5186 21.1845ZM48.2329 14.2776C49.2202 15.9876 48.8656 18.1097 47.4989 19.4184L43.4132 12.3415C45.2043 11.8162 47.2298 12.5399 48.2329 14.2776ZM58.0139 9.83161L55.4265 11.3255C54.9478 11.6018 54.3364 11.4377 54.0604 10.9595C53.7842 10.4813 53.9482 9.86961 54.4264 9.59348L57.0139 8.09957C57.4925 7.82331 58.1039 7.98744 58.3799 8.46558C58.6561 8.94384 58.4922 9.55548 58.0139 9.83161ZM46.8864 4.13197L47.5174 1.77741C47.6604 1.2439 48.2084 0.927516 48.7423 1.07027C49.2758 1.21327 49.5923 1.76166 49.4493 2.29505L48.8183 4.64961C48.6757 5.18175 48.1287 5.49975 47.5934 5.35675C47.06 5.21375 46.7435 4.66548 46.8864 4.13197ZM59.9656 20.5098C59.8458 20.9565 59.4418 21.2511 59.0002 21.2511C58.8192 21.2511 58.9458 21.2718 56.3861 20.5859C55.8526 20.4429 55.536 19.8946 55.679 19.3611C55.822 18.8276 56.3704 18.5113 56.9038 18.654L59.2584 19.2848C59.7918 19.4279 60.1086 19.9762 59.9656 20.5098Z" fill="#15882E"/>
</g>
<defs>
<clipPath id="clip0_54_1259">
<rect width="60" height="60" fill="white"/>
</clipPath>
</defs>
</svg>
