<svg width="60" height="60" viewBox="0 0 60 60" fill="none" xmlns="http://www.w3.org/2000/svg">
<g clip-path="url(#clip0_54_1158)">
<path d="M43.75 60C34.79 60 27.5 52.71 27.5 43.75C27.5 34.79 34.79 27.5 43.75 27.5C52.71 27.5 60 34.79 60 43.75C60 52.71 52.71 60 43.75 60ZM43.75 30C36.17 30 30 36.17 30 43.75C30 51.33 36.17 57.5 43.75 57.5C51.33 57.5 57.5 51.33 57.5 43.75C57.5 36.17 51.33 30 43.75 30Z" fill="#15882E"/>
<path d="M43.7501 52.5C43.4301 52.5 43.1101 52.3775 42.8651 52.135L35.3651 44.635C34.8776 44.1475 34.8776 43.355 35.3651 42.8675C35.8526 42.38 36.6451 42.38 37.1326 42.8675L43.7476 49.4825L50.3626 42.8675C50.8501 42.38 51.6426 42.38 52.1301 42.8675C52.6176 43.355 52.6176 44.1475 52.1301 44.635L44.6301 52.135C44.3901 52.3775 44.0701 52.5 43.7501 52.5Z" fill="#15882E"/>
<path d="M43.75 51.875C43.06 51.875 42.5 51.315 42.5 50.625V36.25C42.5 35.56 43.06 35 43.75 35C44.44 35 45 35.56 45 36.25V50.625C45 51.315 44.44 51.875 43.75 51.875Z" fill="#15882E"/>
<path d="M25 20.001C24.8525 20.001 24.7075 19.9735 24.5675 19.9235L0.8175 11.1735C0.3275 10.991 0 10.526 0 10.001C0 9.47596 0.3275 9.01096 0.8175 8.82846L24.5675 0.0784619C24.845 -0.0240381 25.1525 -0.0240381 25.4325 0.0784619L49.1825 8.82846C49.6725 9.01096 50 9.47596 50 10.001C50 10.526 49.6725 10.991 49.1825 11.1735L25.4325 19.9235C25.2925 19.9735 25.1475 20.001 25 20.001ZM4.865 10.001L25 17.4185L45.135 10.001L25 2.58346L4.865 10.001Z" fill="#15882E"/>
<path d="M21.55 48.725C21.405 48.725 21.26 48.7 21.1175 48.6475L0.8175 41.1725C0.3275 40.99 0 40.525 0 40V10C0 9.31 0.56 8.75 1.25 8.75C1.94 8.75 2.5 9.31 2.5 10V39.1275L21.9825 46.3025C22.63 46.54 22.9625 47.26 22.7225 47.9075C22.5375 48.4125 22.0575 48.725 21.55 48.725Z" fill="#15882E"/>
<path d="M48.75 22.5C48.06 22.5 47.5 21.94 47.5 21.25V10C47.5 9.31 48.06 8.75 48.75 8.75C49.44 8.75 50 9.31 50 10V21.25C50 21.94 49.44 22.5 48.75 22.5Z" fill="#15882E"/>
<path d="M25 32.575C24.31 32.575 23.75 32.015 23.75 31.325V18.75C23.75 18.06 24.31 17.5 25 17.5C25.69 17.5 26.25 18.06 26.25 18.75V31.325C26.25 32.0175 25.69 32.575 25 32.575Z" fill="#15882E"/>
</g>
<defs>
<clipPath id="clip0_54_1158">
<rect width="60" height="60" fill="white"/>
</clipPath>
</defs>
</svg>
