<svg width="135" height="20" viewBox="0 0 135 20" fill="none" xmlns="http://www.w3.org/2000/svg">
<g clip-path="url(#clip0_54_1270)">
<path d="M9.124 12.8879L9.12391 12.8878L9.11194 12.8948C8.55595 13.2219 8.02956 13.4797 7.51561 13.7315C7.24864 13.8623 6.98503 13.9914 6.72236 14.1278C6.09869 14.4515 5.50009 14.8078 5.01338 15.2962C2.48665 14.1085 1.08723 12.2591 0.673605 10.4034C0.24279 8.47065 0.865058 6.47533 2.49427 5.08379C3.16625 4.51288 3.84996 4.12795 4.55031 3.73365C4.6958 3.65173 4.84201 3.56942 4.98899 3.48494C5.69607 3.07854 6.40513 2.62893 7.02369 1.94786C8.70242 3.46472 10.3931 5.50574 11.1233 7.49318C11.5136 8.55534 11.6149 9.56133 11.3397 10.4542C11.0678 11.3362 10.4059 12.1809 9.124 12.8879Z" stroke="white"/>
<path fill-rule="evenodd" clip-rule="evenodd" d="M10.3935 17.4691C10.8503 17.8051 11.0787 18.029 11.1929 18.5889C8.68026 20.0447 6.51021 18.4769 5.13965 15.9014C6.62442 17.6931 8.68026 18.8129 10.3935 17.4691Z" fill="white"/>
<path fill-rule="evenodd" clip-rule="evenodd" d="M5.02559 15.9013C3.54082 12.9898 3.08397 9.9663 4.91138 7.39073C6.28194 5.59902 6.73879 3.80732 6.96722 1.23174C7.19564 4.36723 6.51036 6.38289 5.25402 8.28658C3.88346 10.4142 4.11189 12.094 5.02559 15.9013Z" fill="white"/>
<path d="M43.7438 10.1902L48.3123 6.15889H46.3707L42.3733 9.7423V-9.53674e-05L41.0027 0.111886L41.1169 15.3414L42.4875 15.2294V11.31L42.8301 10.9741L47.2844 15.3414H49.1118L44.0865 10.5262L43.7438 10.1902ZM19.0738 7.50267C18.9595 7.50267 18.7311 7.39069 18.6169 7.39069C19.9875 6.83078 20.787 5.59898 20.787 4.14322C20.787 0.671794 17.1321 0.671794 15.99 0.671794L12.9062 0.783776L13.0205 15.3414H16.9037C17.0179 15.3414 17.1321 15.3414 17.2464 15.3414C18.5027 15.3414 19.6448 15.0054 20.5585 14.4455C21.5865 13.6617 22.1575 12.6538 22.1575 11.1981C21.9291 9.18239 20.787 7.72663 19.0738 7.50267ZM14.391 2.01557H16.2184C18.7311 2.01557 19.188 3.47133 19.188 4.2552C19.188 6.7188 16.9037 6.83078 16.2184 6.83078L14.391 6.94276V2.01557ZM16.7895 13.9976L14.391 14.1096V8.17456H16.6753C17.8174 8.17456 20.3301 8.5105 20.3301 11.0861C20.3301 11.9819 19.9875 13.9976 16.7895 13.9976ZM80.8631 6.15889L79.6068 6.27087V7.61465C78.9215 6.49484 77.7794 5.82295 76.2946 5.82295C73.4392 5.82295 71.4976 7.83861 71.4976 10.7501C71.4976 13.5497 73.5535 15.6773 76.2946 15.6773C77.6651 15.6773 78.9215 15.0054 79.6068 13.9976L79.721 15.3414L80.9773 15.2294L80.8631 6.15889ZM76.2946 14.5575C74.1245 14.5575 72.9824 12.6538 72.9824 10.7501C72.9824 8.5105 74.353 6.94276 76.4088 6.94276C78.3504 6.94276 79.6068 8.5105 79.6068 10.7501C79.6068 12.9898 78.2362 14.5575 76.2946 14.5575ZM28.2108 5.82295C24.8986 5.82295 23.4139 8.39852 23.4139 10.7501C23.4139 13.2137 25.0128 15.6773 28.2108 15.6773C30.0382 15.6773 31.523 14.7815 32.4367 12.9898C32.4367 12.9898 32.4367 12.9898 32.4367 12.8778C32.4367 12.8778 32.4367 12.8778 32.4367 12.7658L31.4088 12.3179C30.3809 14.5575 28.7819 14.5575 28.2108 14.5575C27.2971 14.5575 26.6118 14.2216 26.0408 13.6617C25.3555 12.9898 25.0128 11.9819 24.8986 10.9741L32.5509 10.8621V10.3022C32.5509 8.5105 31.4088 5.82295 28.2108 5.82295ZM25.8123 9.85428H25.1271C25.3555 8.06258 26.6118 6.94276 28.325 6.94276C30.1524 6.94276 31.0661 8.39852 31.1804 9.7423L25.8123 9.85428ZM35.8631 7.9506L35.7489 6.27087L34.3783 6.38285L34.4925 15.4534H35.8631V10.6382C35.8631 9.29438 36.891 7.27871 38.2616 7.27871C38.6042 7.27871 38.8326 7.39069 39.2895 7.50267L39.6321 6.27087C39.2895 6.15889 38.9469 6.04691 38.49 6.04691C37.8047 6.04691 36.891 6.27087 35.8631 7.9506ZM57.9062 6.27087V7.61465C57.221 6.49484 56.0788 5.82295 54.5941 5.82295C51.7387 5.82295 49.7971 7.83861 49.7971 10.7501C49.7971 13.5497 51.8529 15.6773 54.5941 15.6773C55.9646 15.6773 57.221 15.0054 57.9062 13.9976L58.0205 15.3414L59.2768 15.2294L59.1626 6.15889L57.9062 6.27087ZM54.5941 14.5575C52.424 14.5575 51.2819 12.6538 51.2819 10.7501C51.2819 8.5105 52.6524 6.94276 54.7083 6.94276C56.6499 6.94276 58.0205 8.5105 58.0205 10.7501C57.9062 12.9898 56.5357 14.5575 54.5941 14.5575ZM66.2438 5.82295C64.5306 5.82295 63.6169 6.83078 63.2743 7.50267L63.1601 6.15889L61.7895 6.27087L61.9037 15.3414L63.2743 15.2294V10.5262C63.2743 8.39852 64.5306 6.94276 66.1296 6.94276C67.8428 6.94276 68.0712 8.39852 68.0712 9.63032L68.1854 15.2294H69.556V9.51834C69.4418 8.39852 69.0991 5.82295 66.2438 5.82295Z" fill="white"/>
<path d="M43.6294 10.1902L43.972 9.8543L43.6294 10.1902Z" fill="white"/>
<path d="M89.4289 7.39073C90.6853 6.83082 91.599 5.711 91.599 4.14326C91.599 0.895796 88.5152 0.671833 86.802 0.671833H83.7183V15.1175H87.6015C90 15.2294 92.7411 14.2216 92.7411 10.9741C92.8553 8.95847 91.3705 7.50271 89.4289 7.39073ZM85.3172 1.90363H87.2589C89.6573 1.90363 90.2284 3.13543 90.2284 4.25524C90.2284 6.9428 87.4873 6.9428 87.1447 6.9428H85.3172V1.90363ZM87.7157 14.1096H85.3172V8.1746H87.7157C88.1726 8.1746 91.3705 8.1746 91.3705 11.1981C91.3705 12.5419 90.5711 14.1096 87.7157 14.1096ZM111.015 7.83865C110.102 6.15893 108.731 5.82299 107.703 5.82299C104.848 5.82299 102.906 7.83865 102.906 10.6382C102.906 13.3258 104.733 15.4534 107.703 15.4534C108.959 15.4534 110.33 14.8935 111.015 13.5497V15.1175H112.157V6.15893H111.015V7.83865ZM107.703 14.6695C105.647 14.6695 104.277 12.8778 104.277 10.8622C104.277 8.62252 105.761 7.05478 107.703 7.05478C109.759 7.05478 111.015 8.84649 111.015 10.8622C111.015 13.1018 109.645 14.6695 107.703 14.6695ZM120.381 11.758C120.381 12.8778 120.038 14.6695 117.868 14.6695C115.698 14.6695 115.355 12.8778 115.355 11.758V6.27091H114.099V11.534C114.099 12.3179 114.213 15.5654 117.868 15.5654C121.637 15.5654 121.637 12.3179 121.637 11.534V6.27091H120.381V11.758ZM98.1091 5.93497C95.0254 5.93497 93.4264 8.28658 93.4264 10.7502C93.4264 13.2138 95.0254 15.5654 98.1091 15.5654C100.279 15.5654 101.536 14.3336 102.335 12.8778L101.421 12.4299C100.393 14.5575 98.9086 14.6695 98.2233 14.6695C95.9391 14.6695 94.7969 12.6539 94.9111 10.8622H102.449V10.3022C102.335 8.51054 101.307 5.93497 98.1091 5.93497ZM94.9111 9.85432C95.1396 8.06262 96.3959 6.83082 98.2233 6.83082C100.051 6.83082 101.079 8.39856 101.193 9.85432H94.9111ZM133.744 6.27091L130.774 13.8857L127.348 6.27091H124.949V2.79948H123.693V6.27091H122.208V7.27875H123.693V15.2294H124.949V7.27875H126.434L130.203 15.1175L128.261 19.4847H129.632L135 6.15893H133.744V6.27091Z" fill="white"/>
</g>
<defs>
<clipPath id="clip0_54_1270">
<rect width="135" height="19.5968" fill="white"/>
</clipPath>
</defs>
</svg>
