<svg width="50" height="50" viewBox="0 0 50 50" fill="none" xmlns="http://www.w3.org/2000/svg">
<path d="M24.5 2C15.403 2 8 9.62375 8 18.9969C8 32.315 22.949 46.0662 23.5852 46.6437C23.8473 46.8819 24.1737 47 24.5 47C24.8263 47 25.1527 46.8819 25.4148 46.6456C26.051 46.0662 41 32.315 41 18.9969C41 9.62375 33.597 2 24.5 2ZM24.5 28.25C19.4455 28.25 15.3333 24.0444 15.3333 18.875C15.3333 13.7056 19.4455 9.5 24.5 9.5C29.5545 9.5 33.6667 13.7056 33.6667 18.875C33.6667 24.0444 29.5545 28.25 24.5 28.25Z" fill="#3C3C3C"/>
<path d="M24.5 2C15.403 2 8 9.62375 8 18.9969C8 32.315 22.949 46.0662 23.5852 46.6437C23.8473 46.8819 24.1737 47 24.5 47C24.8263 47 25.1527 46.8819 25.4148 46.6456C26.051 46.0662 41 32.315 41 18.9969C41 9.62375 33.597 2 24.5 2ZM24.5 28.25C19.4455 28.25 15.3333 24.0444 15.3333 18.875C15.3333 13.7056 19.4455 9.5 24.5 9.5C29.5545 9.5 33.6667 13.7056 33.6667 18.875C33.6667 24.0444 29.5545 28.25 24.5 28.25Z" fill="url(#paint0_linear_55_3075)"/>
<defs>
<linearGradient id="paint0_linear_55_3075" x1="23.7992" y1="45.5964" x2="25.4706" y2="2.18532" gradientUnits="userSpaceOnUse">
<stop stop-color="#15882E"/>
<stop offset="0.6236" stop-color="#7FBB43"/>
<stop offset="1" stop-color="#AACA41"/>
</linearGradient>
</defs>
</svg>
