<svg width="50" height="50" viewBox="0 0 50 50" fill="none" xmlns="http://www.w3.org/2000/svg">
<path d="M47.5949 11.3108L33.6442 25.1717L47.5949 39.0327C47.8471 38.5056 48.0001 37.9228 48.0001 37.3006V13.0429C48.0001 12.4206 47.8471 11.8379 47.5949 11.3108Z" fill="#3C3C3C"/>
<path d="M47.5949 11.3108L33.6442 25.1717L47.5949 39.0327C47.8471 38.5056 48.0001 37.9228 48.0001 37.3006V13.0429C48.0001 12.4206 47.8471 11.8379 47.5949 11.3108Z" fill="url(#paint0_linear_55_3099)"/>
<path d="M43.9571 8.99988H6.04327C5.42092 8.99988 4.83829 9.15288 4.31118 9.40507L22.1417 27.1458C23.7183 28.7224 26.2821 28.7224 27.8586 27.1458L45.6892 9.40507C45.1621 9.15288 44.5795 8.99988 43.9571 8.99988Z" fill="#3C3C3C"/>
<path d="M43.9571 8.99988H6.04327C5.42092 8.99988 4.83829 9.15288 4.31118 9.40507L22.1417 27.1458C23.7183 28.7224 26.2821 28.7224 27.8586 27.1458L45.6892 9.40507C45.1621 9.15288 44.5795 8.99988 43.9571 8.99988Z" fill="url(#paint1_linear_55_3099)"/>
<path d="M2.40544 11.3108C2.15325 11.8379 2.00024 12.4206 2.00024 13.0429V37.3006C2.00024 37.9229 2.15325 38.5056 2.40544 39.0327L16.3562 25.1717L2.40544 11.3108Z" fill="#3C3C3C"/>
<path d="M2.40544 11.3108C2.15325 11.8379 2.00024 12.4206 2.00024 13.0429V37.3006C2.00024 37.9229 2.15325 38.5056 2.40544 39.0327L16.3562 25.1717L2.40544 11.3108Z" fill="url(#paint2_linear_55_3099)"/>
<path d="M31.7384 27.0775L29.7643 29.0516C27.1374 31.6785 22.8629 31.6785 20.236 29.0516L18.2619 27.0775L4.31118 40.9384C4.83829 41.1906 5.42092 41.3436 6.04327 41.3436H43.9571C44.5795 41.3436 45.1621 41.1906 45.6892 40.9384L31.7384 27.0775Z" fill="#3C3C3C"/>
<path d="M31.7384 27.0775L29.7643 29.0516C27.1374 31.6785 22.8629 31.6785 20.236 29.0516L18.2619 27.0775L4.31118 40.9384C4.83829 41.1906 5.42092 41.3436 6.04327 41.3436H43.9571C44.5795 41.3436 45.1621 41.1906 45.6892 40.9384L31.7384 27.0775Z" fill="url(#paint3_linear_55_3099)"/>
<defs>
<linearGradient id="paint0_linear_55_3099" x1="24.0233" y1="40.3348" x2="24.6434" y2="9.09913" gradientUnits="userSpaceOnUse">
<stop stop-color="#15882E"/>
<stop offset="0.6236" stop-color="#7FBB43"/>
<stop offset="1" stop-color="#AACA41"/>
</linearGradient>
<linearGradient id="paint1_linear_55_3099" x1="24.0233" y1="40.3348" x2="24.6434" y2="9.09913" gradientUnits="userSpaceOnUse">
<stop stop-color="#15882E"/>
<stop offset="0.6236" stop-color="#7FBB43"/>
<stop offset="1" stop-color="#AACA41"/>
</linearGradient>
<linearGradient id="paint2_linear_55_3099" x1="24.0233" y1="40.3348" x2="24.6434" y2="9.09913" gradientUnits="userSpaceOnUse">
<stop stop-color="#15882E"/>
<stop offset="0.6236" stop-color="#7FBB43"/>
<stop offset="1" stop-color="#AACA41"/>
</linearGradient>
<linearGradient id="paint3_linear_55_3099" x1="24.0233" y1="40.3348" x2="24.6434" y2="9.09913" gradientUnits="userSpaceOnUse">
<stop stop-color="#15882E"/>
<stop offset="0.6236" stop-color="#7FBB43"/>
<stop offset="1" stop-color="#AACA41"/>
</linearGradient>
</defs>
</svg>
