<svg width="50" height="50" viewBox="0 0 50 50" fill="none" xmlns="http://www.w3.org/2000/svg">
<path fill-rule="evenodd" clip-rule="evenodd" d="M22.6634 3.25089C18.2515 4.46422 15.371 9.2276 16.3115 13.7552C16.6419 15.3463 17.2322 16.5612 18.3933 18.0394C19.5192 19.4726 20.048 20.5891 20.3966 22.2678C20.8186 24.3007 20.4662 26.5578 19.4546 28.2997L19.0802 28.9445H24.9794H30.8787L30.3959 27.9558C29.6295 26.3856 29.4649 25.6945 29.4637 24.0437C29.4631 22.9269 29.5665 22.1551 29.8353 21.2715C30.1994 20.0743 30.4519 19.6394 32.1216 17.3359C33.2948 15.7174 33.7997 14.1509 33.8118 12.0927C33.8243 9.96993 33.3817 8.47408 32.2563 6.83533C31.0167 5.03013 29.2699 3.77725 27.2383 3.2361C26.0342 2.9154 23.8576 2.92245 22.6634 3.25089ZM10.7061 31.685C9.18593 32.1608 7.43552 33.6171 6.74646 34.979C6.27699 35.9071 6.00224 37.1878 6.00005 38.4584C5.9982 39.528 6.04175 39.677 6.48953 40.135L6.98102 40.6376H24.9986H43.0162L43.5304 40.1117C44.0424 39.5881 44.0442 39.579 43.9566 38.0913C43.8441 36.1832 43.3726 34.8999 42.3611 33.7493C41.4595 32.724 40.7184 32.2117 39.5554 31.81C38.8076 31.5519 37.3786 31.5252 24.9266 31.5387C17.3365 31.5467 10.9373 31.6126 10.7061 31.685ZM8.54596 44.6939C8.59859 46.182 8.64315 46.3749 9.0013 46.6714C9.38568 46.9895 9.89231 47 24.9986 47C40.1049 47 40.6115 46.9895 40.9959 46.6714C41.354 46.3749 41.3986 46.182 41.4512 44.6939L41.5094 43.045H24.9986H8.48778L8.54596 44.6939Z" fill="#3C3C3C"/>
<path fill-rule="evenodd" clip-rule="evenodd" d="M22.6634 3.25089C18.2515 4.46422 15.371 9.2276 16.3115 13.7552C16.6419 15.3463 17.2322 16.5612 18.3933 18.0394C19.5192 19.4726 20.048 20.5891 20.3966 22.2678C20.8186 24.3007 20.4662 26.5578 19.4546 28.2997L19.0802 28.9445H24.9794H30.8787L30.3959 27.9558C29.6295 26.3856 29.4649 25.6945 29.4637 24.0437C29.4631 22.9269 29.5665 22.1551 29.8353 21.2715C30.1994 20.0743 30.4519 19.6394 32.1216 17.3359C33.2948 15.7174 33.7997 14.1509 33.8118 12.0927C33.8243 9.96993 33.3817 8.47408 32.2563 6.83533C31.0167 5.03013 29.2699 3.77725 27.2383 3.2361C26.0342 2.9154 23.8576 2.92245 22.6634 3.25089ZM10.7061 31.685C9.18593 32.1608 7.43552 33.6171 6.74646 34.979C6.27699 35.9071 6.00224 37.1878 6.00005 38.4584C5.9982 39.528 6.04175 39.677 6.48953 40.135L6.98102 40.6376H24.9986H43.0162L43.5304 40.1117C44.0424 39.5881 44.0442 39.579 43.9566 38.0913C43.8441 36.1832 43.3726 34.8999 42.3611 33.7493C41.4595 32.724 40.7184 32.2117 39.5554 31.81C38.8076 31.5519 37.3786 31.5252 24.9266 31.5387C17.3365 31.5467 10.9373 31.6126 10.7061 31.685ZM8.54596 44.6939C8.59859 46.182 8.64315 46.3749 9.0013 46.6714C9.38568 46.9895 9.89231 47 24.9986 47C40.1049 47 40.6115 46.9895 40.9959 46.6714C41.354 46.3749 41.3986 46.182 41.4512 44.6939L41.5094 43.045H24.9986H8.48778L8.54596 44.6939Z" fill="url(#paint0_linear_55_3062)"/>
<defs>
<linearGradient id="paint0_linear_55_3062" x1="24.193" y1="45.6276" x2="25.5812" y2="3.16366" gradientUnits="userSpaceOnUse">
<stop stop-color="#15882E"/>
<stop offset="0.6236" stop-color="#7FBB43"/>
<stop offset="1" stop-color="#AACA41"/>
</linearGradient>
</defs>
</svg>
