<svg width="50" height="50" viewBox="0 0 50 50" fill="none" xmlns="http://www.w3.org/2000/svg">
<path d="M23.7324 4.63398L23.0641 4L7 14.427L8.02656 15.4536C8.42367 15.8506 17.8307 25.1719 25.2613 25.1719H25.6161L43.1942 13.4531H39.3238C32.851 13.4531 23.8228 4.72102 23.7324 4.63398Z" fill="#212121"/>
<path d="M23.7324 4.63398L23.0641 4L7 14.427L8.02656 15.4536C8.42367 15.8506 17.8307 25.1719 25.2613 25.1719H25.6161L43.1942 13.4531H39.3238C32.851 13.4531 23.8228 4.72102 23.7324 4.63398Z" fill="url(#paint0_linear_55_1809)"/>
<path d="M34.9166 32.1275L26.3256 37.8549H25.2613C20.2855 37.8549 14.8377 34.4599 11.0549 31.529L7 34.1413L8.02656 35.1678C8.42367 35.5649 17.8307 44.9642 25.2613 44.9642H25.6161L43.1942 33.1674H39.3238C37.9347 33.1674 36.4277 32.7545 34.9166 32.1275Z" fill="#212121"/>
<path d="M34.9166 32.1275L26.3256 37.8549H25.2613C20.2855 37.8549 14.8377 34.4599 11.0549 31.529L7 34.1413L8.02656 35.1678C8.42367 35.5649 17.8307 44.9642 25.2613 44.9642H25.6161L43.1942 33.1674H39.3238C37.9347 33.1674 36.4277 32.7545 34.9166 32.1275Z" fill="url(#paint1_linear_55_1809)"/>
<path d="M34.9166 22.7704L26.3256 28.4977H25.2613C20.2855 28.4977 14.8377 25.1027 11.0549 22.1719L7 24.7841L8.02656 25.8107C8.42367 26.2077 17.8307 35.529 25.2613 35.529H25.6161L43.1942 23.8102H39.3238C37.9347 23.8102 36.4277 23.3974 34.9166 22.7704Z" fill="#212121"/>
<path d="M34.9166 22.7704L26.3256 28.4977H25.2613C20.2855 28.4977 14.8377 25.1027 11.0549 22.1719L7 24.7841L8.02656 25.8107C8.42367 26.2077 17.8307 35.529 25.2613 35.529H25.6161L43.1942 23.8102H39.3238C37.9347 23.8102 36.4277 23.3974 34.9166 22.7704Z" fill="url(#paint2_linear_55_1809)"/>
<defs>
<linearGradient id="paint0_linear_55_1809" x1="24.3284" y1="24.5115" x2="24.6662" y2="4.06249" gradientUnits="userSpaceOnUse">
<stop stop-color="#15882E"/>
<stop offset="0.6236" stop-color="#7FBB43"/>
<stop offset="1" stop-color="#AACA41"/>
</linearGradient>
<linearGradient id="paint1_linear_55_1809" x1="24.3284" y1="44.5452" x2="24.4645" y2="31.5665" gradientUnits="userSpaceOnUse">
<stop stop-color="#15882E"/>
<stop offset="0.6236" stop-color="#7FBB43"/>
<stop offset="1" stop-color="#AACA41"/>
</linearGradient>
<linearGradient id="paint2_linear_55_1809" x1="24.3284" y1="35.1123" x2="24.4629" y2="22.2092" gradientUnits="userSpaceOnUse">
<stop stop-color="#15882E"/>
<stop offset="0.6236" stop-color="#7FBB43"/>
<stop offset="1" stop-color="#AACA41"/>
</linearGradient>
</defs>
</svg>
