<svg width="50" height="50" viewBox="0 0 50 50" fill="none" xmlns="http://www.w3.org/2000/svg">
<path fill-rule="evenodd" clip-rule="evenodd" d="M47 25.1094C47 37.0091 37.3534 46.6558 25.4536 46.6558C13.5539 46.6558 3.90723 37.0091 3.90723 25.1094C3.90723 13.2096 13.5539 3.56299 25.4536 3.56299C37.3534 3.56299 47 13.2096 47 25.1094ZM27.2245 16.0076C27.2245 16.9856 26.4317 17.7785 25.4536 17.7785C24.4756 17.7785 23.6827 16.9856 23.6827 16.0076C23.6827 15.0295 24.4756 14.2366 25.4536 14.2366C26.4317 14.2366 27.2245 15.0295 27.2245 16.0076ZM34.7219 22.3776C35.0659 22.3776 35.4024 22.4778 35.6904 22.6659C35.9784 22.854 36.2053 23.1219 36.3436 23.4369C36.4818 23.7519 36.5253 24.1003 36.4687 24.4396L34.7835 34.5503C34.7146 34.9638 34.5012 35.3395 34.1814 35.6104C33.8615 35.8814 33.4559 36.0301 33.0367 36.0301H17.8707C17.4516 36.03 17.0461 35.8812 16.7264 35.6103C16.4066 35.3394 16.1933 34.9639 16.1244 34.5505L14.4392 24.4398C14.3826 24.1004 14.426 23.752 14.5643 23.437C14.7025 23.1219 14.9294 22.854 15.2174 22.6658C15.5055 22.4777 15.842 22.3775 16.186 22.3775C16.53 22.3775 16.8666 22.4777 17.1546 22.6659L20.785 25.037L23.9417 19.857C24.0998 19.5977 24.3219 19.3833 24.5867 19.2346C24.8516 19.0858 25.1502 19.0077 25.454 19.0077C25.7577 19.0077 26.0563 19.0858 26.3212 19.2346C26.586 19.3833 26.8081 19.5977 26.9662 19.857L30.123 25.037L33.7534 22.6659C34.0414 22.4778 34.3779 22.3776 34.7219 22.3776ZM37.8502 22.4529C38.8282 22.4529 39.6211 21.66 39.6211 20.682C39.6211 19.7039 38.8282 18.911 37.8502 18.911C36.8721 18.911 36.0792 19.7039 36.0792 20.682C36.0792 21.66 36.8721 22.4529 37.8502 22.4529ZM14.828 20.682C14.828 21.66 14.0351 22.4529 13.0571 22.4529C12.079 22.4529 11.2861 21.66 11.2861 20.682C11.2861 19.7039 12.079 18.911 13.0571 18.911C14.0351 18.911 14.828 19.7039 14.828 20.682Z" fill="#212121"/>
<path fill-rule="evenodd" clip-rule="evenodd" d="M47 25.1094C47 37.0091 37.3534 46.6558 25.4536 46.6558C13.5539 46.6558 3.90723 37.0091 3.90723 25.1094C3.90723 13.2096 13.5539 3.56299 25.4536 3.56299C37.3534 3.56299 47 13.2096 47 25.1094ZM27.2245 16.0076C27.2245 16.9856 26.4317 17.7785 25.4536 17.7785C24.4756 17.7785 23.6827 16.9856 23.6827 16.0076C23.6827 15.0295 24.4756 14.2366 25.4536 14.2366C26.4317 14.2366 27.2245 15.0295 27.2245 16.0076ZM34.7219 22.3776C35.0659 22.3776 35.4024 22.4778 35.6904 22.6659C35.9784 22.854 36.2053 23.1219 36.3436 23.4369C36.4818 23.7519 36.5253 24.1003 36.4687 24.4396L34.7835 34.5503C34.7146 34.9638 34.5012 35.3395 34.1814 35.6104C33.8615 35.8814 33.4559 36.0301 33.0367 36.0301H17.8707C17.4516 36.03 17.0461 35.8812 16.7264 35.6103C16.4066 35.3394 16.1933 34.9639 16.1244 34.5505L14.4392 24.4398C14.3826 24.1004 14.426 23.752 14.5643 23.437C14.7025 23.1219 14.9294 22.854 15.2174 22.6658C15.5055 22.4777 15.842 22.3775 16.186 22.3775C16.53 22.3775 16.8666 22.4777 17.1546 22.6659L20.785 25.037L23.9417 19.857C24.0998 19.5977 24.3219 19.3833 24.5867 19.2346C24.8516 19.0858 25.1502 19.0077 25.454 19.0077C25.7577 19.0077 26.0563 19.0858 26.3212 19.2346C26.586 19.3833 26.8081 19.5977 26.9662 19.857L30.123 25.037L33.7534 22.6659C34.0414 22.4778 34.3779 22.3776 34.7219 22.3776ZM37.8502 22.4529C38.8282 22.4529 39.6211 21.66 39.6211 20.682C39.6211 19.7039 38.8282 18.911 37.8502 18.911C36.8721 18.911 36.0792 19.7039 36.0792 20.682C36.0792 21.66 36.8721 22.4529 37.8502 22.4529ZM14.828 20.682C14.828 21.66 14.0351 22.4529 13.0571 22.4529C12.079 22.4529 11.2861 21.66 11.2861 20.682C11.2861 19.7039 12.079 18.911 13.0571 18.911C14.0351 18.911 14.828 19.7039 14.828 20.682Z" fill="url(#paint0_linear_55_1779)"/>
<defs>
<linearGradient id="paint0_linear_55_1779" x1="24.5384" y1="45.3117" x2="25.713" y2="3.71199" gradientUnits="userSpaceOnUse">
<stop stop-color="#15882E"/>
<stop offset="0.6236" stop-color="#7FBB43"/>
<stop offset="1" stop-color="#AACA41"/>
</linearGradient>
</defs>
</svg>
