<svg width="50" height="50" viewBox="0 0 50 50" fill="none" xmlns="http://www.w3.org/2000/svg">
<path d="M13.6113 22.805V34.3675H36.3887V22.805C32.8979 21.0645 28.9594 20.1442 25 20.1442C21.0406 20.1442 17.1036 21.0645 13.6113 22.805Z" fill="#212121"/>
<path d="M13.6113 22.805V34.3675H36.3887V22.805C32.8979 21.0645 28.9594 20.1442 25 20.1442C21.0406 20.1442 17.1036 21.0645 13.6113 22.805Z" fill="url(#paint0_linear_55_1797)"/>
<path d="M46.3537 20.3126L49.2958 18.708L24.9999 6L0.704102 18.708L10.7641 24.0138V21.0422C11.5652 20.7371 16.9549 17.2969 24.9999 17.2969C33.1571 17.2969 38.3735 20.7151 39.2358 21.0436V24.0138L43.5065 21.7931V32.6074L41.1411 37.6819C40.7933 38.428 40.9382 39.311 41.5063 39.9069L43.4825 41.9799C44.2706 42.8065 45.5897 42.8065 46.3777 41.9799L48.354 39.9069C48.922 39.311 49.0669 38.428 48.7191 37.6819L46.3537 32.6074V20.3126Z" fill="#212121"/>
<path d="M46.3537 20.3126L49.2958 18.708L24.9999 6L0.704102 18.708L10.7641 24.0138V21.0422C11.5652 20.7371 16.9549 17.2969 24.9999 17.2969C33.1571 17.2969 38.3735 20.7151 39.2358 21.0436V24.0138L43.5065 21.7931V32.6074L41.1411 37.6819C40.7933 38.428 40.9382 39.311 41.5063 39.9069L43.4825 41.9799C44.2706 42.8065 45.5897 42.8065 46.3777 41.9799L48.354 39.9069C48.922 39.311 49.0669 38.428 48.7191 37.6819L46.3537 32.6074V20.3126Z" fill="url(#paint1_linear_55_1797)"/>
<defs>
<linearGradient id="paint0_linear_55_1797" x1="24.5163" y1="33.9239" x2="24.7585" y2="20.1867" gradientUnits="userSpaceOnUse">
<stop stop-color="#15882E"/>
<stop offset="0.6236" stop-color="#7FBB43"/>
<stop offset="1" stop-color="#AACA41"/>
</linearGradient>
<linearGradient id="paint1_linear_55_1797" x1="23.968" y1="42.3287" x2="24.757" y2="6.11799" gradientUnits="userSpaceOnUse">
<stop stop-color="#15882E"/>
<stop offset="0.6236" stop-color="#7FBB43"/>
<stop offset="1" stop-color="#AACA41"/>
</linearGradient>
</defs>
</svg>
