<svg width="50" height="50" viewBox="0 0 50 50" fill="none" xmlns="http://www.w3.org/2000/svg">
<path d="M19.5493 23.4805C19.3266 23.4805 19.1054 23.411 18.9167 23.2745C18.5651 23.0197 18.4008 22.5817 18.4965 22.1591L19.8042 16.3985L15.3692 12.5091C15.0432 12.2245 14.9187 11.7738 15.0525 11.3614C15.1864 10.9498 15.5505 10.6584 15.9817 10.6185L21.8498 10.0858L24.1698 4.6565C24.3408 4.25761 24.7304 4 25.1633 4C25.5962 4 25.9857 4.25761 26.1568 4.65557L28.4768 10.0858L34.344 10.6185C34.776 10.6575 35.1402 10.9498 35.274 11.3614C35.4079 11.7731 35.2841 12.2245 34.9581 12.5091L30.5231 16.3977L31.8309 22.1582C31.9267 22.5817 31.7623 23.0197 31.4109 23.2737C31.0602 23.5278 30.5926 23.5473 30.2233 23.3254L25.1633 20.3016L20.1033 23.3271C19.9322 23.4287 19.7416 23.4805 19.5493 23.4805Z" fill="#212121"/>
<path d="M19.5493 23.4805C19.3266 23.4805 19.1054 23.411 18.9167 23.2745C18.5651 23.0197 18.4008 22.5817 18.4965 22.1591L19.8042 16.3985L15.3692 12.5091C15.0432 12.2245 14.9187 11.7738 15.0525 11.3614C15.1864 10.9498 15.5505 10.6584 15.9817 10.6185L21.8498 10.0858L24.1698 4.6565C24.3408 4.25761 24.7304 4 25.1633 4C25.5962 4 25.9857 4.25761 26.1568 4.65557L28.4768 10.0858L34.344 10.6185C34.776 10.6575 35.1402 10.9498 35.274 11.3614C35.4079 11.7731 35.2841 12.2245 34.9581 12.5091L30.5231 16.3977L31.8309 22.1582C31.9267 22.5817 31.7623 23.0197 31.4109 23.2737C31.0602 23.5278 30.5926 23.5473 30.2233 23.3254L25.1633 20.3016L20.1033 23.3271C19.9322 23.4287 19.7416 23.4805 19.5493 23.4805Z" fill="url(#paint0_linear_55_1786)"/>
<path d="M33.2895 43.4805C33.0668 43.4805 32.8456 43.411 32.6569 43.2745C32.3053 43.0197 32.1411 42.5817 32.2368 42.1591L33.5445 36.3985L29.1095 32.5091C28.7835 32.2245 28.6589 31.7738 28.7928 31.3614C28.9266 30.9498 29.2908 30.6584 29.7219 30.6185L35.59 30.0858L37.91 24.6565C38.0811 24.2576 38.4707 24 38.9035 24C39.3364 24 39.726 24.2576 39.897 24.6556L42.2171 30.0858L48.0842 30.6185C48.5163 30.6575 48.8804 30.9498 49.0143 31.3614C49.1481 31.7731 49.0244 32.2245 48.6984 32.5091L44.2634 36.3977L45.5711 42.1582C45.6669 42.5817 45.5025 43.0197 45.1511 43.2737C44.8004 43.5278 44.3328 43.5473 43.9636 43.3254L38.9035 40.3016L33.8435 43.3271C33.6724 43.4287 33.4818 43.4805 33.2895 43.4805Z" fill="#212121"/>
<path d="M33.2895 43.4805C33.0668 43.4805 32.8456 43.411 32.6569 43.2745C32.3053 43.0197 32.1411 42.5817 32.2368 42.1591L33.5445 36.3985L29.1095 32.5091C28.7835 32.2245 28.6589 31.7738 28.7928 31.3614C28.9266 30.9498 29.2908 30.6584 29.7219 30.6185L35.59 30.0858L37.91 24.6565C38.0811 24.2576 38.4707 24 38.9035 24C39.3364 24 39.726 24.2576 39.897 24.6556L42.2171 30.0858L48.0842 30.6185C48.5163 30.6575 48.8804 30.9498 49.0143 31.3614C49.1481 31.7731 49.0244 32.2245 48.6984 32.5091L44.2634 36.3977L45.5711 42.1582C45.6669 42.5817 45.5025 43.0197 45.1511 43.2737C44.8004 43.5278 44.3328 43.5473 43.9636 43.3254L38.9035 40.3016L33.8435 43.3271C33.6724 43.4287 33.4818 43.4805 33.2895 43.4805Z" fill="url(#paint1_linear_55_1786)"/>
<path d="M6.18551 43.4805C5.9628 43.4805 5.74164 43.4111 5.55289 43.2746C5.2013 43.0198 5.03706 42.5818 5.13275 42.1592L6.44048 36.3986L2.00547 32.5092C1.67947 32.2246 1.55493 31.7739 1.68878 31.3615C1.82262 30.9499 2.18677 30.6585 2.61793 30.6186L8.48599 30.0859L10.806 24.6566C10.9771 24.2577 11.3667 24.0001 11.7995 24.0001C12.2324 24.0001 12.622 24.2577 12.793 24.6556L15.1131 30.0859L20.9802 30.6186C21.4123 30.6575 21.7764 30.9499 21.9103 31.3615C22.0441 31.7731 21.9204 32.2246 21.5944 32.5092L17.1593 36.3978L18.4671 42.1582C18.5629 42.5818 18.3985 43.0198 18.0471 43.2738C17.6964 43.5278 17.2288 43.5474 16.8596 43.3254L11.7995 40.3016L6.7395 43.3271C6.56843 43.4287 6.37782 43.4805 6.18551 43.4805Z" fill="#212121"/>
<path d="M6.18551 43.4805C5.9628 43.4805 5.74164 43.4111 5.55289 43.2746C5.2013 43.0198 5.03706 42.5818 5.13275 42.1592L6.44048 36.3986L2.00547 32.5092C1.67947 32.2246 1.55493 31.7739 1.68878 31.3615C1.82262 30.9499 2.18677 30.6585 2.61793 30.6186L8.48599 30.0859L10.806 24.6566C10.9771 24.2577 11.3667 24.0001 11.7995 24.0001C12.2324 24.0001 12.622 24.2577 12.793 24.6556L15.1131 30.0859L20.9802 30.6186C21.4123 30.6575 21.7764 30.9499 21.9103 31.3615C22.0441 31.7731 21.9204 32.2246 21.5944 32.5092L17.1593 36.3978L18.4671 42.1582C18.5629 42.5818 18.3985 43.0198 18.0471 43.2738C17.6964 43.5278 17.2288 43.5474 16.8596 43.3254L11.7995 40.3016L6.7395 43.3271C6.56843 43.4287 6.37782 43.4805 6.18551 43.4805Z" fill="url(#paint2_linear_55_1786)"/>
<defs>
<linearGradient id="paint0_linear_55_1786" x1="24.7317" y1="22.8729" x2="25.2405" y2="4.06613" gradientUnits="userSpaceOnUse">
<stop stop-color="#15882E"/>
<stop offset="0.6236" stop-color="#7FBB43"/>
<stop offset="1" stop-color="#AACA41"/>
</linearGradient>
<linearGradient id="paint1_linear_55_1786" x1="38.4719" y1="42.8729" x2="38.9808" y2="24.0661" gradientUnits="userSpaceOnUse">
<stop stop-color="#15882E"/>
<stop offset="0.6236" stop-color="#7FBB43"/>
<stop offset="1" stop-color="#AACA41"/>
</linearGradient>
<linearGradient id="paint2_linear_55_1786" x1="11.3679" y1="42.8729" x2="11.8768" y2="24.0662" gradientUnits="userSpaceOnUse">
<stop stop-color="#15882E"/>
<stop offset="0.6236" stop-color="#7FBB43"/>
<stop offset="1" stop-color="#AACA41"/>
</linearGradient>
</defs>
</svg>
