<svg width="15" height="15" viewBox="0 0 15 15" fill="none" xmlns="http://www.w3.org/2000/svg">
<g clip-path="url(#clip0_54_133)">
<path d="M8.96767 4.08948L7.7266 5.33055C9.57819 5.5637 10.3395 7.83599 9.03655 9.13894L5.26973 12.9058C4.39429 13.7812 2.96952 13.7812 2.09407 12.9058C1.21651 12.0276 1.21625 10.608 2.09407 9.73012L3.08518 8.73872C2.90319 8.14085 2.84545 7.40172 2.9631 6.68207L1.11019 8.53499C-0.369444 10.0146 -0.370587 12.41 1.1099 13.8899C2.58907 15.3697 4.98526 15.3701 6.46484 13.8899C11.0974 9.25806 9.79968 10.5555 10.1724 10.1812C12.0024 8.28107 11.3657 5.14065 8.96767 4.08948Z" fill="#307700"/>
<path d="M13.8926 6.46203C15.3691 4.98582 15.3688 2.5836 13.8926 1.10709C12.4163 -0.368621 10.0145 -0.369441 8.53793 1.10709C4.74639 4.89864 4.83038 4.81608 4.83038 4.81608C2.9778 6.74015 3.66185 9.86656 6.03454 10.9075H6.03484L7.17071 9.77167H7.17041C5.31844 9.53721 4.56135 7.26981 5.85557 5.96847C5.85557 5.96847 8.00335 3.8208 9.62728 2.19644C10.5035 1.32023 11.9236 1.31715 12.8029 2.19644C13.6787 3.07218 13.6787 4.49665 12.8029 5.37237L11.9176 6.25769C12.1274 7.02606 12.1478 7.65574 12.0403 8.31433L13.8926 6.46203Z" fill="#307700"/>
<path d="M0.478782 5.54792C0.492346 5.54792 0.506116 5.5473 0.519886 5.54602L1.37782 5.46642C1.61949 5.444 1.7972 5.22993 1.77479 4.98826C1.75238 4.74659 1.53833 4.5687 1.2966 4.59129L0.438675 4.67089C0.197005 4.6933 0.0192899 4.90737 0.041702 5.14904C0.0628836 5.37691 0.254397 5.54792 0.478782 5.54792Z" fill="#307700"/>
<path d="M4.98875 1.77449C5.00254 1.77578 5.01626 1.7764 5.02985 1.7764C5.25423 1.7764 5.44577 1.60536 5.4669 1.37752L5.5465 0.519621C5.56891 0.277951 5.39119 0.0638493 5.14953 0.0414665C4.9078 0.0189958 4.69379 0.196799 4.67135 0.438439L4.59175 1.29634C4.56936 1.53801 4.74708 1.75211 4.98875 1.77449Z" fill="#307700"/>
<path d="M2.16929 2.71164C2.34091 2.88326 2.61914 2.88326 2.79076 2.71164C2.96238 2.54005 2.96238 2.26179 2.79076 2.09017L2.24042 1.53983C2.06883 1.36823 1.79057 1.36823 1.61895 1.53983C1.44733 1.71142 1.44733 1.98968 1.61895 2.1613L2.16929 2.71164Z" fill="#307700"/>
<path d="M14.4802 9.45396L13.6223 9.53356C13.3806 9.55597 13.2029 9.77004 13.2253 10.0117C13.2477 10.2537 13.4623 10.4312 13.7034 10.4087L14.5614 10.3291C14.803 10.3067 14.9807 10.0926 14.9583 9.85093C14.9359 9.60923 14.7215 9.43137 14.4802 9.45396Z" fill="#307700"/>
<path d="M10.0113 13.2256C9.76937 13.203 9.55559 13.3809 9.53317 13.6225L9.45358 14.4804C9.42973 14.7374 9.63161 14.9605 9.89165 14.9605C10.116 14.9605 10.3075 14.7895 10.3287 14.5616L10.4083 13.7037C10.4307 13.462 10.253 13.2479 10.0113 13.2256Z" fill="#307700"/>
<path d="M12.8308 12.2884C12.6592 12.1168 12.3809 12.1168 12.2093 12.2884C12.0377 12.46 12.0377 12.7382 12.2093 12.9098L12.7596 13.4602C12.9313 13.6318 13.2095 13.6318 13.3811 13.4602C13.5527 13.2886 13.5527 13.0103 13.3811 12.8387L12.8308 12.2884Z" fill="#307700"/>
</g>
<defs>
<clipPath id="clip0_54_133">
<rect width="15" height="15" fill="white"/>
</clipPath>
</defs>
</svg>
