<svg width="186" height="27" viewBox="0 0 186 27" fill="none" xmlns="http://www.w3.org/2000/svg">
<g clip-path="url(#clip0_54_178)">
<path fill-rule="evenodd" clip-rule="evenodd" d="M12.9037 18.3601C20.457 14.1944 14.6346 6.01727 9.59909 1.69727C7.86813 4.01155 5.35036 4.47441 2.98996 6.48012C-1.88822 10.6458 -0.786693 18.5144 7.08133 21.9087C8.34021 20.3658 10.5433 19.7487 12.9037 18.3601Z" fill="url(#paint0_linear_54_178)"/>
<path fill-rule="evenodd" clip-rule="evenodd" d="M14.3201 24.0687C14.9496 24.5316 15.2643 24.8401 15.4216 25.6116C11.9597 27.6173 8.96987 25.4573 7.08154 21.9087C9.12723 24.3773 11.9597 25.9201 14.3201 24.0687Z" fill="url(#paint1_linear_54_178)"/>
<path fill-rule="evenodd" clip-rule="evenodd" d="M6.92414 21.9087C4.87845 17.8973 4.24901 13.7316 6.76678 10.183C8.6551 7.71441 9.28454 5.24584 9.59927 1.69727C9.91399 6.01727 8.96982 8.79441 7.23886 11.4173C5.35053 14.3487 5.66526 16.663 6.92414 21.9087Z" fill="white"/>
<path d="M60.269 14.04L66.5635 8.48571H63.8883L58.3807 13.4229V0L56.4924 0.154286L56.6498 21.1371L58.5381 20.9829V15.5829L59.0102 15.12L65.1472 21.1371H67.665L60.7411 14.5029L60.269 14.04ZM26.2792 10.3371C26.1218 10.3371 25.8071 10.1829 25.6498 10.1829C27.5381 9.41143 28.6396 7.71429 28.6396 5.70857C28.6396 0.925715 23.6041 0.925714 22.0305 0.925714L17.7817 1.08L17.9391 21.1371H23.2894C23.4467 21.1371 23.6041 21.1371 23.7614 21.1371C25.4924 21.1371 27.066 20.6743 28.3249 19.9029C29.7411 18.8229 30.5279 17.4343 30.5279 15.4286C30.2132 12.6514 28.6396 10.6457 26.2792 10.3371ZM19.8274 2.77714H22.3452C25.8071 2.77714 26.4366 4.78286 26.4366 5.86286C26.4366 9.25714 23.2894 9.41143 22.3452 9.41143L19.8274 9.56571V2.77714ZM23.132 19.2857L19.8274 19.44V11.2629H22.9746C24.5482 11.2629 28.0102 11.7257 28.0102 15.2743C28.0102 16.5086 27.5381 19.2857 23.132 19.2857ZM111.411 8.48571L109.68 8.64V10.4914C108.736 8.94857 107.162 8.02286 105.117 8.02286C101.183 8.02286 98.5076 10.8 98.5076 14.8114C98.5076 18.6686 101.34 21.6 105.117 21.6C107.005 21.6 108.736 20.6743 109.68 19.2857L109.838 21.1371L111.569 20.9829L111.411 8.48571ZM105.117 20.0571C102.127 20.0571 100.553 17.4343 100.553 14.8114C100.553 11.7257 102.442 9.56571 105.274 9.56571C107.949 9.56571 109.68 11.7257 109.68 14.8114C109.68 17.8971 107.792 20.0571 105.117 20.0571ZM38.868 8.02286C34.3046 8.02286 32.2589 11.5714 32.2589 14.8114C32.2589 18.2057 34.4619 21.6 38.868 21.6C41.3858 21.6 43.4315 20.3657 44.6904 17.8971C44.6904 17.8971 44.6904 17.8971 44.6904 17.7429C44.6904 17.7429 44.6904 17.7429 44.6904 17.5886L43.2741 16.9714C41.8579 20.0571 39.6548 20.0571 38.868 20.0571C37.6091 20.0571 36.665 19.5943 35.8782 18.8229C34.934 17.8971 34.4619 16.5086 34.3046 15.12L44.8477 14.9657V14.1943C44.8477 11.7257 43.2741 8.02286 38.868 8.02286ZM35.5635 13.5771H34.6193C34.934 11.1086 36.665 9.56571 39.0254 9.56571C41.5432 9.56571 42.802 11.5714 42.9594 13.4229L35.5635 13.5771ZM49.4112 10.9543L49.2538 8.64L47.3655 8.79429L47.5229 21.2914H49.4112V14.6571C49.4112 12.8057 50.8274 10.0286 52.7157 10.0286C53.1878 10.0286 53.5026 10.1829 54.132 10.3371L54.6041 8.64C54.132 8.48571 53.6599 8.33143 53.0305 8.33143C52.0863 8.33143 50.8274 8.64 49.4112 10.9543ZM79.7817 8.64V10.4914C78.8376 8.94857 77.264 8.02286 75.2183 8.02286C71.2843 8.02286 68.6091 10.8 68.6091 14.8114C68.6091 18.6686 71.4416 21.6 75.2183 21.6C77.1066 21.6 78.8376 20.6743 79.7817 19.2857L79.9391 21.1371L81.6701 20.9829L81.5127 8.48571L79.7817 8.64ZM75.2183 20.0571C72.2284 20.0571 70.6548 17.4343 70.6548 14.8114C70.6548 11.7257 72.5432 9.56571 75.3756 9.56571C78.0508 9.56571 79.9391 11.7257 79.9391 14.8114C79.7817 17.8971 77.8934 20.0571 75.2183 20.0571ZM91.269 8.02286C88.9086 8.02286 87.6498 9.41143 87.1777 10.3371L87.0203 8.48571L85.132 8.64L85.2894 21.1371L87.1777 20.9829V14.5029C87.1777 11.5714 88.9086 9.56571 91.1117 9.56571C93.4721 9.56571 93.7868 11.5714 93.7868 13.2686L93.9442 20.9829H95.8325V13.1143C95.6751 11.5714 95.2031 8.02286 91.269 8.02286Z" fill="black"/>
<path d="M60.1118 14.04L60.5839 13.5771L60.1118 14.04Z" fill="black"/>
<path d="M123.213 10.1829C124.944 9.4115 126.203 7.86864 126.203 5.70864C126.203 1.23435 121.954 0.925781 119.594 0.925781H115.345V20.8286H120.695C124 20.9829 127.777 19.5944 127.777 15.1201C127.934 12.3429 125.888 10.3372 123.213 10.1829ZM117.548 2.62292H120.223C123.528 2.62292 124.315 4.32007 124.315 5.86292C124.315 9.56578 120.538 9.56578 120.066 9.56578H117.548V2.62292ZM120.853 19.4401H117.548V11.2629H120.853C121.482 11.2629 125.888 11.2629 125.888 15.4286C125.888 17.2801 124.787 19.4401 120.853 19.4401ZM152.954 10.8001C151.695 8.48578 149.807 8.02292 148.391 8.02292C144.457 8.02292 141.782 10.8001 141.782 14.6572C141.782 18.3601 144.3 21.2915 148.391 21.2915C150.122 21.2915 152.01 20.5201 152.954 18.6686V20.8286H154.528V8.48578H152.954V10.8001ZM148.391 20.2115C145.558 20.2115 143.67 17.7429 143.67 14.9658C143.67 11.8801 145.716 9.72007 148.391 9.72007C151.223 9.72007 152.954 12.1886 152.954 14.9658C152.954 18.0515 151.066 20.2115 148.391 20.2115ZM165.858 16.2001C165.858 17.7429 165.386 20.2115 162.396 20.2115C159.406 20.2115 158.934 17.7429 158.934 16.2001V8.64007H157.203V15.8915C157.203 16.9715 157.36 21.4458 162.396 21.4458C167.589 21.4458 167.589 16.9715 167.589 15.8915V8.64007H165.858V16.2001ZM135.173 8.17721C130.924 8.17721 128.721 11.4172 128.721 14.8115C128.721 18.2058 130.924 21.4458 135.173 21.4458C138.162 21.4458 139.893 19.7486 140.995 17.7429L139.736 17.1258C138.32 20.0572 136.274 20.2115 135.33 20.2115C132.183 20.2115 130.609 17.4344 130.767 14.9658H141.152V14.1944C140.995 11.7258 139.579 8.17721 135.173 8.17721ZM130.767 13.5772C131.081 11.1086 132.812 9.4115 135.33 9.4115C137.848 9.4115 139.264 11.5715 139.421 13.5772H130.767ZM184.269 8.64007L180.178 19.1315L175.457 8.64007H172.152V3.85721H170.421V8.64007H168.376V10.0286H170.421V20.9829H172.152V10.0286H174.198L179.391 20.8286L176.716 26.8458H178.604L186 8.48578H184.269V8.64007Z" fill="#99989C"/>
</g>
<defs>
<linearGradient id="paint0_linear_54_178" x1="7.94193" y1="21.2783" x2="8.61769" y2="1.77501" gradientUnits="userSpaceOnUse">
<stop stop-color="#15882E"/>
<stop offset="0.6236" stop-color="#7FBB43"/>
<stop offset="1" stop-color="#AACA41"/>
</linearGradient>
<linearGradient id="paint1_linear_54_178" x1="7.32215" y1="22.1515" x2="12.6356" y2="25.2395" gradientUnits="userSpaceOnUse">
<stop offset="0.016854" stop-color="#4E7E56"/>
<stop offset="0.5" stop-color="#006445"/>
<stop offset="1" stop-color="#004931"/>
</linearGradient>
<clipPath id="clip0_54_178">
<rect width="186" height="27" fill="white"/>
</clipPath>
</defs>
</svg>
