<svg width="30" height="30" viewBox="0 0 30 30" fill="none" xmlns="http://www.w3.org/2000/svg">
<g clip-path="url(#clip0_1015_57)">
<path d="M15.0002 0.00811768C23.2802 0.00811768 29.9921 6.72062 29.9921 15C29.9921 23.2794 23.2796 29.9919 15.0002 29.9919C6.7208 29.9919 0.00830078 23.2794 0.00830078 15C0.00830078 6.72062 6.72018 0.00811768 15.0002 0.00811768ZM22.3846 11.3081C22.2283 10.4725 21.5327 9.84874 20.7333 9.77187C18.8246 9.64937 16.9089 9.54999 14.9971 9.54874C13.0852 9.54749 11.1764 9.64499 9.26768 9.76562C8.46518 9.84312 7.76955 10.4637 7.61393 11.3025C7.43643 12.5106 7.34768 13.7306 7.34768 14.95C7.34768 16.1694 7.43643 17.3894 7.61393 18.5975C7.76955 19.4362 8.46518 20.1312 9.26768 20.2081C11.1771 20.3287 13.0846 20.4519 14.9971 20.4519C16.9083 20.4519 18.8258 20.3444 20.7333 20.2206C21.5327 20.1431 22.2283 19.4275 22.3846 18.5919C22.5633 17.3856 22.6527 16.1675 22.6527 14.9494C22.6527 13.7319 22.5633 12.5144 22.3846 11.3081ZM13.2652 17.1469V12.7L17.4071 14.9237L13.2652 17.1469Z" fill="#99989C"/>
</g>
<defs>
<clipPath id="clip0_1015_57">
<rect width="30" height="30" fill="white"/>
</clipPath>
</defs>
</svg>
