<svg width="129" height="48" viewBox="0 0 129 48" fill="none" xmlns="http://www.w3.org/2000/svg">
<g clip-path="url(#clip0_54_1077)">
<path d="M92.6998 47C87.3998 47 87.8998 38 87.8998 38V19.8C87.8998 11.5 82.8998 9.19995 79.1998 9.19995C75.4998 9.19995 70.2998 11.5 70.2998 19.8C70.2998 29 76.4998 29.5 79.1998 29.5C80.3998 29.5 82.8998 29.2 84.1998 27.4V38C84.1998 38 83.7998 47.4 92.6998 47.4C92.7998 47.4 92.8998 47.2999 92.8998 47.2C92.8998 47.1 92.7998 47 92.6998 47ZM79.1998 28.1C76.0998 28.1 74.2998 25.5 74.2998 19.8C74.2998 14.1 76.0998 10.6 79.1998 10.6C82.2998 10.6 84.0998 14.1 84.0998 19.8C84.1998 25.5 82.2998 28.1 79.1998 28.1Z" fill="#3E3200"/>
<path d="M59.2002 0V29.2H55.7002C55.7002 29.2 55.7002 4.8 55.7002 3.8C55.7002 1.8 56.6002 0 59.2002 0Z" fill="#3E3200"/>
<path d="M63.9998 9.2C67.0998 8.7 66.8998 5.3 66.8998 5C62.9998 5 63.2998 9 63.2998 9.2V29.2H66.7998C66.7998 25.1 66.7998 22.4 66.7998 20.8C66.7998 18.8 66.7998 18.2 66.7998 18.2C66.7998 17 66.7998 15.3 66.7998 13C66.7998 11.2 65.9998 9.5 63.9998 9.2Z" fill="#3E3200"/>
<path d="M33.9002 13C33.9002 13.5 33.9002 17.3 33.9002 21.1C33.9002 25.3 31.7002 27.3 28.9002 27.3C26.2002 27.3 24.0002 25.4 24.0002 21.1C24.0002 21.1 24.0002 13.2 24.0002 13C24.0002 12.8 23.9002 9.19998 20.5002 9.19998V21.1C20.5002 21.1 19.9002 29.5 27.4002 29.5C27.4002 29.5 31.6002 29.8 33.9002 25.9C33.9002 27.8 33.9002 29.2 33.9002 29.2H37.4002V9.09998C34.8002 9.09998 33.9002 11 33.9002 13Z" fill="#3E3200"/>
<path d="M104.7 13C104.7 13.5 104.7 17.3 104.7 21.1C104.7 25.3 102.5 27.3 99.6999 27.3C96.9999 27.3 94.7999 25.4 94.7999 21.1C94.7999 21.1 94.7999 13.2 94.7999 13C94.7999 12.8 94.6999 9.19998 91.1999 9.19998V21.1C91.1999 21.1 90.5999 29.5 98.0999 29.5C98.0999 29.5 102.3 29.8 104.6 25.9C104.6 27.8 104.6 29.2 104.6 29.2H108.1V9.09998C105.6 9.09998 104.7 11 104.7 13Z" fill="#3E3200"/>
<path d="M45.0001 19.3C45.0001 16.6 45.2001 12.9 49.0001 12.9C52.8001 12.9 52.7001 9.19998 52.7001 9.19998C52.7001 9.19998 47.2001 8.19998 45.1001 13.7C45.1001 13.5 45.1001 13.2 45.1001 12.9C45.1001 10.9 44.2001 9.09998 41.6001 9.09998V29.2H45.0001V19.3Z" fill="#3E3200"/>
<path d="M0 24.4C0 24.3 0.1 24.2 0.2 24.2C0.3 24.2 0.4 24.3 0.4 24.4C0.4 28.5 6.6 28.2 6.7 28.2C10.6 28.2 13.1 25.9 13.1 21.6V3.8C13.1 1.8 14.1 0 16.7 0V21.3C16.7 23.9 15.9 26 14.4 27.4C11.7 29.9 7.5 29.5 7.4 29.5C0.6 29.6 0 25.8 0 24.4Z" fill="#3E3200"/>
<path d="M128.3 23.3C128.2 23.3 128.2 23.3 128.1 23.4C126.9 26.3 124.6 28.2999 121.9 28.2999C118 28.2999 114.8 24.1 114.8 18.8H128.5C128.3 13.5 124.5 9.19995 119.9 9.19995C115.1 9.19995 111.3 13.7 111.3 19.3C111.3 25.5 115.4 29.4 120.4 29.4C124.2 29.4 127.1 27 128.4 23.4C128.4 23.4 128.4 23.4 128.4 23.3C128.4 23.4 128.4 23.3 128.3 23.3ZM119.9 10.8C119.9 10.8 125 10.5 125 17.7H114.7C114.8 10.5 119.9 10.8 119.9 10.8Z" fill="#3E3200"/>
</g>
<defs>
<clipPath id="clip0_54_1077">
<rect width="128.5" height="47.3" fill="white"/>
</clipPath>
</defs>
</svg>
