<svg width="172" height="43" viewBox="0 0 172 43" fill="none" xmlns="http://www.w3.org/2000/svg">
<g clip-path="url(#clip0_54_1090)">
<path d="M0.588286 34.3519V37.6429H3.62776V38.1954H0.588286V42.8798H0V33.8234H3.72581V34.3759H0.588286V34.3519Z" fill="black"/>
<path d="M10.7362 34.3519V37.6429H14.462V38.1955H10.7362V42.3513H14.5601V42.9038H10.1479V33.8474H14.5601V34.3999H10.7362V34.3519Z" fill="black"/>
<path d="M21.644 34.3519V37.6429H25.3698V38.1955H21.644V42.3513H25.4678V42.9038H21.0557V33.8474H25.4678V34.3999H21.644V34.3519Z" fill="black"/>
<path d="M32.5761 42.3273H34.9292V42.8798H31.9878V33.8234H32.5761V42.3273Z" fill="black"/>
<path d="M48.2642 33.8235H48.9015L51.6223 38.4118L54.3431 33.8235H54.9804L51.9164 39.0123V42.8799H51.3282V39.0123L48.2642 33.8235Z" fill="black"/>
<path d="M69.8101 38.3397C69.8101 40.886 67.6286 43 65.0303 43C62.432 43 60.2505 40.886 60.2505 38.3397C60.2505 35.7933 62.432 33.6793 65.0303 33.6793C67.604 33.7033 69.8101 35.7933 69.8101 38.3397ZM60.8143 38.3397C60.8143 40.5737 62.7017 42.4475 65.0058 42.4475C67.2854 42.4475 69.1973 40.5497 69.1973 38.3397C69.1973 36.1056 67.2854 34.2318 65.0058 34.2318C62.7017 34.2318 60.8143 36.1056 60.8143 38.3397Z" fill="black"/>
<path d="M81.5513 33.8235H82.1396V39.4687C82.1396 40.4056 82.1396 41.1983 81.5268 41.943C80.914 42.6397 79.958 43 79.0266 43C78.0951 43 77.1392 42.6397 76.5264 41.943C75.9136 41.1983 75.9136 40.3816 75.9136 39.4687V33.8235H76.5019V39.3006C76.5019 40.1173 76.5019 40.9821 76.9676 41.5827C77.4333 42.1592 78.3157 42.4475 79.0266 42.4475C79.7374 42.4475 80.6444 42.1352 81.0856 41.5827C81.5513 40.9821 81.5513 40.1173 81.5513 39.3006V33.8235Z" fill="black"/>
<path d="M93.3171 42.8799H92.6308L89.6158 38.5799H89.3217V42.8799H88.7334V33.8235H89.8855C90.6208 33.8235 91.3562 33.8235 91.9935 34.2799C92.6553 34.7363 92.925 35.457 92.925 36.2257C92.925 37.8112 91.7974 38.628 90.2777 38.6039L93.3171 42.8799ZM90.0816 38.0514C90.6698 38.0514 91.2336 38.0274 91.6994 37.619C92.1406 37.2587 92.3367 36.7302 92.3367 36.1777C92.3367 35.5051 92.018 34.8324 91.3562 34.5442C90.8659 34.3039 90.2531 34.328 89.7139 34.328H89.3217V38.0274H90.0816V38.0514Z" fill="black"/>
<path d="M107.95 42.8799V33.8235H109.789C110.475 33.8235 111.161 33.8715 111.701 34.352C112.264 34.8324 112.46 35.5051 112.46 36.2257C112.46 37.0665 112.142 37.6671 111.406 38.0754C112.558 38.2916 113.318 39.2045 113.318 40.3576C113.318 41.0782 113.024 41.7509 112.46 42.2313C111.799 42.7838 111.112 42.8799 110.303 42.8799H107.95ZM108.514 37.9313H109.543C110.181 37.9313 110.671 37.9553 111.21 37.595C111.75 37.2106 111.897 36.7542 111.897 36.1296C111.897 35.5531 111.676 34.9766 111.137 34.6402C110.671 34.352 110.083 34.352 109.568 34.352H108.538V37.9313H108.514ZM108.514 42.3274H109.936C110.597 42.3274 111.259 42.3514 111.823 41.9671C112.387 41.6067 112.73 41.0302 112.73 40.3576C112.73 39.6849 112.411 39.0363 111.774 38.724C111.21 38.4358 110.45 38.4358 109.838 38.4358H108.538V42.3274H108.514Z" fill="black"/>
<path d="M120.157 34.352V37.6431H123.883V38.1956H120.157V42.3514H123.981V42.904H119.569V33.8475H123.981V34.4H120.157V34.352Z" fill="black"/>
<path d="M131.384 39.9012L130.134 42.8799H129.545L133.418 33.5112L137.267 42.8799H136.678L135.453 39.9012H131.384ZM133.418 34.9766L131.604 39.3487H135.232L133.418 34.9766Z" fill="black"/>
<path d="M148.64 33.8235H149.228V39.4687C149.228 40.4056 149.228 41.1983 148.591 41.943C147.954 42.6397 147.022 43 146.066 43C145.135 43 144.179 42.6397 143.566 41.943C142.929 41.1983 142.929 40.3816 142.929 39.4687V33.8235H143.517V39.3006C143.517 40.1173 143.517 40.9821 143.983 41.5827C144.424 42.1592 145.355 42.4475 146.042 42.4475C146.753 42.4475 147.66 42.1352 148.101 41.5827C148.591 40.9821 148.591 40.1173 148.591 39.3006V33.8235H148.64Z" fill="black"/>
<path d="M157.905 42.88H157.317V34.3521H154.915V33.7996H160.283V34.3521H157.881V42.88H157.905Z" fill="black"/>
<path d="M165.112 33.8235H165.749L168.47 38.4118L171.191 33.8235H171.853L168.789 39.0123V42.8799H168.2V39.0123L165.112 33.8235Z" fill="black"/>
<path d="M5.00042 0L13.2854 18.7855L21.644 0L26.2768 23.638H23.654L20.7126 8.50391H20.6635L13.31 24.5508L5.9809 8.50391H5.93188L2.99045 23.638H0.367676L5.00042 0Z" fill="black"/>
<path d="M34.4635 17.296L31.7182 23.6379H28.9238L39.4639 0.192139L49.7344 23.6379H46.9156L44.2192 17.296H34.4635ZM39.4149 6.02957L35.5175 14.9899H43.2388L39.4149 6.02957Z" fill="black"/>
<path d="M56.6225 21.3319H62.922V23.638H54.0732V1.27319H56.6225V21.3319Z" fill="black"/>
<path d="M69.8099 14.6056C69.8099 16.2631 69.7609 18.1609 70.8149 19.5782C71.8199 20.9475 73.7563 21.7162 75.4231 21.7162C77.0654 21.7162 78.8548 20.9715 79.9088 19.7224C81.1099 18.305 81.0363 16.3352 81.0363 14.5816V1.27319H83.5856V15.2782C83.5856 17.7045 83.414 19.6503 81.5756 21.476C80.0068 23.1335 77.7272 24.0224 75.4231 24.0224C73.2661 24.0224 71.06 23.2296 69.5157 21.7402C67.5058 19.8665 67.2852 17.8246 67.2852 15.2782V1.27319H69.8344V14.6056H69.8099Z" fill="black"/>
<path d="M106.774 18.0408L114.152 0.120117L121.53 18.0408L127.535 1.27319H130.281L121.53 24.7911L114.152 6.77431L106.774 24.7911L98.0229 1.27319H100.768L106.774 18.0408Z" fill="black"/>
<path d="M137.438 23.638H134.889V1.27319H137.438V23.638Z" fill="black"/>
<path d="M146.507 21.3319H152.807V23.638H143.958V1.27319H146.507V21.3319Z" fill="black"/>
<path d="M171.657 21.3319V23.638H155.307L167.759 3.57934H156.876V1.27319H171.975L159.499 21.3319H171.657Z" fill="black"/>
</g>
<defs>
<clipPath id="clip0_54_1090">
<rect width="172" height="43" fill="white"/>
</clipPath>
</defs>
</svg>
