<svg width="145" height="51" viewBox="0 0 145 51" fill="none" xmlns="http://www.w3.org/2000/svg">
<g clip-path="url(#clip0_54_1120)">
<path d="M3.51903 47.7162L0.653153 43.5857H0V50.8826H0.719801V44.9278L3.43905 48.7977H3.58568L6.30493 44.9278V50.8826H7.03806V43.5857H6.3849L3.51903 47.7162Z" fill="black"/>
<path d="M18.8749 43.5468L15.4092 50.8827H16.1823L17.102 48.9021H21.2609L22.1806 50.8827H22.9937L19.528 43.5468H18.8749ZM20.941 48.2246H17.422L19.1948 44.4458L20.941 48.2246Z" fill="black"/>
<path d="M37.5765 43.5857H36.5635L32.0847 48.1202V43.5857H31.3516V50.8826H32.0847V49.0193L33.7776 47.3384L36.7367 50.8826H37.6831L34.3107 46.8302L37.5765 43.5857Z" fill="black"/>
<path d="M46.574 47.5469H50.7328V46.8693H46.574V44.2633H51.1993V43.5857H45.8408V50.8826H51.2527V50.205H46.574V47.5469Z" fill="black"/>
<path d="M75.3528 47.8335C75.3528 49.4102 74.513 50.3223 73.0334 50.3223C71.5271 50.3223 70.674 49.3971 70.674 47.7814V43.5857H69.9409V47.8335C69.9409 49.788 71.1139 50.9868 73.0201 50.9868C74.9129 50.9868 76.0992 49.749 76.0992 47.7684V43.5857H75.3661V47.8335H75.3528Z" fill="black"/>
<path d="M87.736 43.5857H85.0034V50.8695H85.7365V48.2244H87.6027C89.0556 48.2244 90.5352 47.4947 90.5352 45.866V45.8399C90.5352 44.4848 89.4422 43.5857 87.736 43.5857ZM89.8021 45.892V45.9181C89.8021 46.9084 88.9357 47.5599 87.6427 47.5599H85.7499V44.2763H87.7093C89.0156 44.2633 89.8021 44.8757 89.8021 45.892Z" fill="black"/>
<path d="M111.929 43.5857H109.197V50.8695H109.93V48.2244H111.796C113.249 48.2244 114.729 47.4947 114.729 45.866V45.8399C114.729 44.4848 113.622 43.5857 111.929 43.5857ZM111.823 47.5599H109.93V44.2763H111.889C113.209 44.2763 113.995 44.8757 113.995 45.892V45.9181C113.995 46.8953 113.116 47.5599 111.823 47.5599Z" fill="black"/>
<path d="M129.044 45.7226V45.6966C129.044 45.1754 128.831 44.6672 128.471 44.3154C127.991 43.8463 127.245 43.5857 126.352 43.5857H123.206V50.8695H123.939V47.9247H126.165L128.485 50.8695H129.418L126.992 47.8205C128.285 47.599 129.044 46.8172 129.044 45.7226ZM123.939 44.2633H126.325C127.565 44.2633 128.311 44.8105 128.311 45.7226V45.7487C128.311 46.6738 127.525 47.2732 126.285 47.2732H123.939V44.2633Z" fill="black"/>
<path d="M141.215 43.4685C138.855 43.4685 137.456 45.3839 137.456 47.2342V47.2603C137.456 49.3972 139.068 50.9999 141.188 50.9999C143.547 50.9999 144.947 49.0845 144.947 47.2342V47.2082C144.947 45.0842 143.347 43.4685 141.215 43.4685ZM144.2 47.2342V47.2603C144.2 49.0194 142.921 50.3354 141.215 50.3354C139.535 50.3354 138.215 48.9803 138.215 47.2342V47.2082C138.215 45.4491 139.495 44.133 141.201 44.133C142.881 44.133 144.2 45.5012 144.2 47.2342Z" fill="black"/>
<path d="M34.4572 0.130204L33.6174 -9.74443e-05C33.5241 -0.0131276 33.4308 0.0129327 33.3508 0.0650533C33.2842 0.117174 33.2309 0.195355 33.2175 0.286566C33.0443 1.36807 28.9921 26.6856 27.8057 34.3604C25.5397 30.9986 21.2209 24.6269 16.7954 18.1509C13.2364 12.9258 10.4105 8.80828 8.39773 5.94165C4.1589 -0.117369 4.06559 -0.0913085 3.41244 0.0780834L3.26581 0.143234C3.11919 0.182325 2.98589 0.416867 2.97256 0.547169L0.0533647 37.5788C0.0400351 37.6701 0.080024 37.7613 0.133343 37.8264C0.199991 37.8916 0.279969 37.9437 0.373276 37.9437L1.21305 38.0088C1.22637 38.0088 1.2397 38.0088 1.25303 38.0088C1.43965 38.0088 1.58628 37.8655 1.5996 37.6961L4.33218 2.87957C7.82455 7.68769 18.435 23.2196 27.5258 36.6798C27.5524 36.7319 27.5924 36.771 27.6458 36.8101C27.7524 36.9143 27.8057 36.9273 27.8857 36.9404H27.899C27.9257 36.9404 28.1123 36.9404 28.3256 36.9273L28.6988 36.9143C28.8854 36.9143 29.0454 36.771 29.0587 36.6016C29.112 36.0022 32.1645 16.7958 34.7638 0.534139C34.7904 0.338686 34.6572 0.156264 34.4572 0.130204Z" fill="black"/>
<path d="M143.814 33.5134C143.894 33.5394 144 33.5264 144.08 33.4873L144.827 33.0964C145 33.0052 145.067 32.7967 144.973 32.6273L128.218 2.17586C128.178 2.09768 128.071 1.91526 127.938 1.90223C127.925 1.90223 127.925 1.90223 127.911 1.90223C127.765 1.85011 127.338 1.78495 127.072 2.00647C126.992 2.07162 126.938 2.13677 126.898 2.21495L122.326 11.5706L111.223 33.9043C111.183 33.9825 111.169 34.0867 111.209 34.1649C111.236 34.2561 111.303 34.3212 111.382 34.3603L112.142 34.7252C112.196 34.7512 112.236 34.7643 112.302 34.7643C112.342 34.7643 112.382 34.7643 112.409 34.7512C112.502 34.7252 112.569 34.66 112.609 34.5818L123.499 12.6391H132.203L143.6 33.344C143.64 33.4222 143.72 33.4743 143.814 33.5134ZM131.377 11.1276H124.246L127.605 4.27371L131.377 11.1276Z" fill="black"/>
<path d="M85.8297 3.79178H84.99C84.79 3.79178 84.6434 3.94814 84.6434 4.13057C84.6434 5.05571 83.617 14.9326 83.4837 15.7925C83.2704 17.0434 83.1638 18.4507 83.0438 19.9361V20.0013C82.564 26.1255 82.0175 33.0705 74.6328 34.6081C73.6064 34.8166 72.2202 35.025 71.9402 35.025C66.0085 35.025 62.6495 30.2951 62.5028 25.8388C62.4895 24.7964 61.6897 14.5677 61.5431 12.8217C61.5564 12.7565 61.5298 12.6914 61.5298 12.6653C61.4631 12.3265 61.1965 7.36204 60.9699 2.85361C60.9699 2.74937 60.9166 2.65816 60.8366 2.59301C60.77 2.54089 60.6767 2.51483 60.61 2.52786L59.7703 2.56695C59.6769 2.56695 59.5836 2.60604 59.5303 2.68422C59.4637 2.74937 59.437 2.84058 59.437 2.93179C59.7303 8.91263 59.9302 12.2614 60.0102 12.8868V12.9259C60.1168 14.3201 60.9433 24.8876 60.9566 25.8779C61.1965 32.7969 66.795 36.5365 71.9402 36.5365C72.4201 36.5365 73.953 36.302 74.9527 36.0935C83.4704 34.3214 84.0835 26.4512 84.5901 20.1316V20.0795C84.71 18.6201 84.8167 17.2389 85.0166 16.0401C85.1499 15.1801 86.203 5.12086 86.203 4.1436C86.1763 3.93511 86.0297 3.79178 85.8297 3.79178Z" fill="black"/>
<path d="M104.744 17.9034C106.717 16.1704 107.757 13.5514 107.757 11.8183C107.757 6.31962 101.878 3.8439 97.6929 3.8439C97.6129 3.8439 97.533 3.8439 97.453 3.83087C96.9998 3.80481 96.3999 3.75269 96.0001 4.3651L95.9601 4.48237C95.9068 4.61268 95.9068 4.72995 95.9068 4.80813C95.9068 4.82116 95.9068 4.83419 95.9068 4.84722L94.7871 34.556L94.7471 35.5723C94.7604 35.6896 94.7871 35.7678 94.8537 35.8199C94.8937 35.859 94.947 35.859 95.0137 35.859C95.0537 35.859 95.0936 35.859 95.147 35.8459C95.1736 35.8459 95.187 35.8459 95.2003 35.8459C95.2136 35.8459 95.2136 35.8459 95.2269 35.8459L95.8401 35.7938C99.0392 35.5202 101.265 35.3378 101.638 35.3117C104.251 35.1032 106.451 34.0347 108.01 32.2496C109.356 30.699 110.129 28.6403 110.129 26.6076C110.129 23.1937 108.17 20.0143 104.744 17.9034ZM97.6929 5.36842C101.225 5.36842 106.197 7.37507 106.197 11.8183C106.197 13.1735 105.264 15.7274 103.185 17.1737L103.011 17.291C102.918 17.3562 102.865 17.4604 102.865 17.5777V17.7862C102.865 18.3595 103.478 18.9198 103.865 19.1413C106.864 20.9655 108.583 23.7018 108.583 26.6206C108.583 30.9727 105.038 33.5266 101.532 33.8132C100.999 33.8523 97.1597 34.1781 96.3333 34.2432L97.413 5.35539C97.493 5.36842 97.5863 5.36842 97.6929 5.36842Z" fill="black"/>
<path d="M46.7605 8.49548C39.5358 8.49548 34.4839 13.2775 34.4839 20.1053C34.4839 25.7604 39.0026 31.8716 46.294 31.8716C52.7722 31.8716 58.2507 26.451 58.2507 20.0272C58.2507 13.6685 53.0921 8.49548 46.7605 8.49548ZM46.7605 10.007C52.239 10.007 56.6911 14.5024 56.6911 20.0272C56.6911 25.6301 51.9191 30.3601 46.2806 30.3601C39.949 30.3601 36.0301 25.0307 36.0301 20.1053C36.0301 14.1636 40.4422 10.007 46.7605 10.007Z" fill="black"/>
</g>
<defs>
<clipPath id="clip0_54_1120">
<rect width="145" height="51" fill="white"/>
</clipPath>
</defs>
</svg>
