<svg width="168" height="24" viewBox="0 0 168 24" fill="none" xmlns="http://www.w3.org/2000/svg">
<g clip-path="url(#clip0_54_959)">
<path d="M77.84 4.53342C80.1906 4.53342 82.217 5.33918 83.8381 6.92383C85.4592 8.50848 86.2968 10.496 86.2968 12.8058C86.2968 15.1157 85.4592 17.1032 83.8381 18.6879C82.217 20.2725 80.1906 21.0783 77.84 21.0783C75.4894 21.0783 73.4901 20.2725 71.896 18.6879C70.2749 17.1032 69.4644 15.1157 69.4644 12.8058C69.4644 10.496 70.2749 8.50848 71.896 6.92383C73.4901 5.33918 75.5165 4.53342 77.84 4.53342ZM78.5425 23.2001C81.3524 23.2001 83.757 22.2332 85.7024 20.3531C87.6477 18.473 88.6474 16.1363 88.6474 13.4236C88.6474 10.7109 87.6477 8.40105 85.7024 6.52095C83.757 4.64086 81.3524 3.67395 78.5425 3.67395C75.7326 3.67395 73.328 4.64086 71.3556 6.52095C69.4103 8.40105 68.4106 10.7377 68.4106 13.4236C68.4106 16.1363 69.4103 18.473 71.3556 20.3531C73.301 22.26 75.7326 23.2001 78.5425 23.2001Z" fill="#010202"/>
<path d="M74.8952 6.81635C74.8952 8.32042 73.6794 9.52906 72.1664 9.52906C70.6533 9.52906 69.4375 8.32042 69.4375 6.81635C69.4375 5.31227 70.6533 4.10364 72.1664 4.10364C73.6794 4.10364 74.8952 5.31227 74.8952 6.81635Z" fill="#010202"/>
<path d="M74.868 3.70076C74.0034 3.70076 73.436 3.0293 73.436 2.25041C73.436 1.44465 74.0304 0.826904 74.895 0.826904C75.7596 0.826904 76.327 1.47151 76.327 2.25041C76.354 3.0293 75.7866 3.70076 74.868 3.70076Z" fill="#010202"/>
<path d="M12.9957 4.74817V12.5909H2.24236V4.74817H0.27002V22.3942H2.24236V14.3635H12.9957V22.3942H14.995V4.74817H12.9957Z" fill="#010202" stroke="black" stroke-width="1.86667" stroke-miterlimit="10"/>
<path d="M28.8825 4.64075H27.7478L19.5342 22.3942H21.6416L24.3434 16.5122H32.2868L34.9887 22.3942H37.0961L28.8825 4.64075ZM25.127 14.7933L28.2881 7.91749L31.4493 14.7933H25.127Z" fill="#010202" stroke="black" stroke-width="1.86667" stroke-miterlimit="10"/>
<path d="M43.1213 20.6484V4.74817H41.1489V22.3942H51.578V20.6484H43.1213Z" fill="#010202" stroke="black" stroke-width="1.86667" stroke-miterlimit="10"/>
<path d="M57.9539 20.6484V4.74817H55.9546V22.3942H66.4107V20.6484H57.9539Z" fill="#010202" stroke="black" stroke-width="1.86667" stroke-miterlimit="10"/>
<path d="M115.206 4.77515L109.748 18.3118L104.263 4.77515H103.399L97.8871 18.3118L92.4564 4.77515H90.376L97.5358 22.5823H98.3194L103.831 8.80392L109.343 22.5823H110.099L117.259 4.77515H115.206Z" fill="#010202" stroke="black" stroke-width="1.86667" stroke-miterlimit="10"/>
<path d="M123.446 20.6484V14.4172H131.255V12.6446H123.446V6.52083H131.444V4.74817H121.474V22.3942H131.633V20.6484H123.446Z" fill="#010202" stroke="black" stroke-width="1.86667" stroke-miterlimit="10"/>
<path d="M138.577 20.6484V14.4172H146.358V12.6446H138.577V6.52083H146.574V4.74817H136.578V22.3942H146.764V20.6484H138.577Z" fill="#010202" stroke="black" stroke-width="1.86667" stroke-miterlimit="10"/>
<path d="M165.73 4.74817V19.0638L153.248 4.74817H151.654V22.3942H153.626V8.10548L166.163 22.3942H167.73V4.74817H165.73Z" fill="#010202" stroke="black" stroke-width="1.86667" stroke-miterlimit="10"/>
</g>
<defs>
<clipPath id="clip0_54_959">
<rect width="168" height="22.4" fill="white" transform="translate(0 0.800049)"/>
</clipPath>
</defs>
</svg>
