<svg width="75" height="50" viewBox="0 0 75 50" fill="none" xmlns="http://www.w3.org/2000/svg">
<g clip-path="url(#clip0_3_775)">
<path d="M1.05386 16.4614C4.36601 18.8229 10.0368 18.7483 10.0117 15.6411C10.0117 11.7633 0.301104 14.0254 0.276012 6.66756C0.276012 0.130046 8.98294 -0.541105 13.098 2.4915L12.0442 5.84726C9.00803 3.4858 4.03981 3.6598 4.03981 6.44384C4.03981 10.6696 13.8006 8.30815 13.8006 15.2931C13.8257 22.3775 4.3911 22.8498 0 19.8172L1.05386 16.4614Z" fill="black"/>
<path d="M27.3753 9.87414L34.5265 9.84928L34.5516 19.5685C33.1716 20.4634 31.1391 21.5074 28.0026 21.5074C22.6078 21.5074 18.7186 18.7234 18.6935 11.8379V10.3464C18.6684 3.53549 22.5577 0.701737 27.9524 0.67688C30.8129 0.67688 32.5192 1.54689 34.2254 2.44176L33.1465 5.79752C31.917 5.00208 29.8845 4.15692 27.9775 4.15692C24.6654 4.15692 22.4573 5.87209 22.4824 10.3464V11.8379C22.4824 16.4116 24.6905 18.0771 28.0026 18.0771C29.0063 18.0771 29.9849 17.8782 30.7878 17.6297V13.0559H27.4004L27.3753 9.87414Z" fill="black"/>
<path d="M44.0114 21.1594L52.1161 4.43036L42.1044 4.45522V0.975175L56.1057 0.950317V4.43036L48.001 21.1594H44.0114Z" fill="black"/>
<path d="M60.3212 7.28893C60.2961 2.64059 63.3072 0.602275 66.8953 0.602275C73.344 0.577418 74.9247 5.07662 74.9498 10.6198C74.9749 17.7539 72.5912 21.4328 66.6695 21.4577C64.2356 21.4577 62.2533 20.8114 60.5721 19.6182L61.626 16.3122C62.981 17.3313 64.8629 18.0025 66.7949 18.0025C69.9063 18.0025 71.0606 15.815 71.0355 12.8073C69.7558 13.3293 68.4008 13.5033 67.1713 13.5033C63.4075 13.5033 60.3212 11.6638 60.3212 7.28893ZM71.0355 9.47639C71.0355 6.22006 70.3078 4.08232 67.0208 4.08232C65.5403 4.08232 64.085 4.95233 64.085 7.28893C64.085 9.67525 65.7662 10.2967 67.2968 10.2967C68.4761 10.2967 69.6303 10.1973 71.0355 9.47639Z" fill="black"/>
<path d="M0.426525 47.4586C3.28701 49.2732 9.53492 49.0743 9.53492 45.3954C9.53492 41.1448 0.401433 42.9594 0.376341 37.6896C0.376341 33.091 7.22646 33.2899 9.93639 34.9802L9.66038 35.8005C7.22646 34.1102 1.35493 34.0107 1.38002 37.6648C1.38002 42.1888 10.5135 40.25 10.5386 45.4203C10.5386 50.0189 3.26192 50.1681 0.150513 48.2789L0.426525 47.4586Z" fill="black"/>
<path d="M14.3024 34.0356L26.5222 34.0107V34.831H20.9016L20.9267 49.1489H19.923L19.898 34.831H14.2773L14.3024 34.0356Z" fill="black"/>
<path d="M32.1178 49.1241H31.1141L31.089 33.9859H32.0927L32.1178 40.7471L41.1007 40.7223L41.0756 33.9611H42.0793L42.1044 49.0993H41.1007L41.0756 41.5426L32.0927 41.5674L32.1178 49.1241Z" fill="black"/>
<path d="M47.8253 33.9611H48.829L48.8541 48.279L56.7832 48.2541V49.0744L47.8504 49.0993L47.8253 33.9611Z" fill="black"/>
<path d="M61.1492 33.9362H62.2532L68.0244 42.7358L73.7453 33.9114H74.8494L74.8745 49.0496H73.8708L73.8457 35.4525L68.0244 44.4012L62.1528 35.4774L62.1779 49.0744H61.1743L61.1492 33.9362Z" fill="black"/>
<path d="M75 28.2688H0.351318V28.4179H75V28.2688Z" fill="black"/>
</g>
<defs>
<clipPath id="clip0_3_775">
<rect width="75" height="48.7952" fill="white" transform="translate(0 0.602417)"/>
</clipPath>
</defs>
</svg>
