<svg width="156" height="70" viewBox="0 0 156 70" fill="none" xmlns="http://www.w3.org/2000/svg">
<g clip-path="url(#clip0_54_1035)">
<path d="M23.7611 54.2427H13.4333V66.8776C13.4333 68.4751 15.0222 70 16.5389 70H23.6889C25.2778 70 26.7944 68.4025 26.7944 66.8776H16.6111V63.7552H26.9389V57.3651C26.8667 55.8403 25.35 54.2427 23.7611 54.2427ZM23.7611 60.5602H16.6111V57.3651H23.7611V60.5602ZM122.85 54.2427H115.7C114.111 54.2427 112.594 55.8403 112.594 57.3651V66.805C112.594 68.4025 114.183 69.9274 115.7 69.9274H122.85C124.439 69.9274 125.956 68.4025 125.956 66.805V57.3651C125.956 55.8403 124.367 54.2427 122.85 54.2427ZM122.85 66.8776H115.7V57.3651H122.85V66.8776ZM152.894 47.9253V54.2427H145.744C144.156 54.2427 142.639 55.8403 142.639 57.3651V66.805C142.639 68.4025 144.228 69.9274 145.744 69.9274H156V47.9253H152.894ZM152.894 66.8776H145.744V57.3651H152.894V66.8776ZM85.6556 54.2427H78.5056C76.9167 54.2427 75.4 55.8403 75.4 57.3651H85.7278V60.4876H75.4V66.805C75.4 68.4025 76.9889 69.9274 78.5056 69.9274H88.8333V57.3651C88.7611 55.8403 87.1722 54.2427 85.6556 54.2427ZM85.6556 66.8776H78.5056V63.7552H85.6556V66.8776ZM40.3722 54.2427H30.0444V66.8776C30.0444 68.4751 31.6333 70 33.15 70H40.3C41.8889 70 43.4056 68.4025 43.4056 66.8776H33.15V63.7552H43.4778V57.3651C43.4778 55.8403 41.8889 54.2427 40.3722 54.2427ZM40.3722 60.5602H33.2222V57.3651H40.3722V60.5602ZM3.10556 66.8776H10.2556V70H3.10556C1.51667 70 0 68.4025 0 66.8776V54.2427H3.10556V66.8776ZM53.8056 57.3651V60.5602H60.9556C62.5444 60.5602 64.0611 62.1577 64.0611 63.6826V66.805C64.0611 68.5477 62.4722 69.9274 60.9556 69.9274H53.8056C52.2167 69.9274 50.7 68.3299 50.7 66.805H61.0278V63.6826H53.8778C51.5667 63.6826 50.7722 62.8838 50.7722 60.5602V57.3651C50.7722 55.7676 52.3611 54.2427 53.8778 54.2427H61.0278C63.2667 54.2427 64.1333 55.0415 64.1333 57.3651H53.8056ZM70.3444 54.2427H72.15V57.3651H70.3444V70C68.7556 70 67.2389 68.4025 67.2389 66.8776V51.0477H70.3444V54.2427ZM132.239 54.2427H139.389V57.3651H132.239V70H129.133V57.3651C129.133 55.8403 130.65 54.2427 132.239 54.2427ZM105.372 47.9253H109.417V51.0477H105.372V57.3651H108.044V60.4876H105.372V69.9274H102.194V51.0477C102.194 49.5228 103.783 47.9253 105.372 47.9253ZM95.0444 47.9253H99.0889V51.0477H95.0444V57.3651H97.7167V60.4876H95.0444V69.9274H91.8667V51.0477C91.8667 49.5228 93.4556 47.9253 95.0444 47.9253ZM68.4667 0.435685C68.6833 0.363071 68.8278 0.290456 69.2611 0.145228C69.6222 0.0726141 70.1278 0 70.6333 0C71.1389 0 71.5 0.145228 71.9333 0.363071C72.3667 0.580913 72.6556 0.871369 72.8 0.943983C72.9444 1.0166 73.0889 0.871369 73.2333 0.943983C73.2333 1.08921 73.3778 1.16183 73.5222 1.23444C73.8111 1.16183 74.8222 1.0166 75.4 0.943983C75.9778 0.943983 76.7 1.16183 77.4944 1.37967C78.0722 1.59751 78.4333 1.5249 79.3722 1.45228C80.1667 1.37967 80.4556 1.5249 80.9611 1.67012C81.4667 1.81535 82.3333 2.32365 82.55 2.46888C82.55 2.54149 82.7667 2.32365 82.7667 2.46888C82.8389 2.46888 82.9111 2.39627 82.9833 2.46888C82.9833 2.54149 83.2 2.54149 83.4889 2.46888C83.7056 2.32365 83.7056 2.46888 83.9222 2.39627C84.1389 2.32365 84.2111 2.32365 84.6444 2.32365C85.2222 2.32365 85.5111 2.32365 85.8722 2.46888C86.2333 2.61411 87.2444 3.04979 87.6778 3.26763C88.1111 3.48548 88.5444 3.63071 89.05 3.77593C89.6278 3.92116 89.7 4.21162 89.8444 4.50207C89.9167 4.6473 89.9889 4.93776 90.0611 5.1556C90.1333 5.22822 90.2056 5.44606 90.2056 5.59129C90.2778 5.73651 90.2778 5.80913 90.2056 5.88174C89.7 6.02697 89.6278 5.88174 89.4111 5.80913C89.1944 5.73651 88.4722 4.86515 88.2556 4.71992C88.0389 4.57469 87.8944 4.86515 87.8222 4.93776C87.75 5.01037 87.8222 5.08299 87.75 5.1556C87.6056 5.30083 87.5333 5.37344 87.3167 5.44606C87.1722 5.44606 87.1 5.59129 87.0278 5.80913C87.0278 6.02697 86.8111 6.39004 86.6667 6.60788C86.5222 6.6805 86.3778 6.82573 86.2333 7.11618C86.0167 7.26141 85.9444 7.33402 85.5833 7.40664C85.3667 7.55187 84.9333 7.84232 84.5722 7.84232C84.3556 7.84232 84.2833 8.06017 84.2111 8.20539C84.1389 8.35062 84.1389 8.85892 84.1389 9.07676C84.1389 9.36722 84.1389 9.43983 84.1389 10.0207C84.1389 10.529 83.7056 11.473 83.7056 11.473C83.7056 11.473 84.1389 11.6909 84.3556 11.9087C84.5 12.1266 84.7889 12.3444 85.0056 12.7075C85.2944 12.9979 85.2222 12.9979 85.3667 13.361C85.4389 13.6515 85.5111 13.7241 85.7278 14.305C85.8722 14.6681 86.0889 15.1037 86.3056 15.6846C86.5944 16.1203 87.3167 17.4274 87.5333 17.9357C87.75 18.444 87.9667 19.4606 87.9667 19.9689C87.9667 20.4772 87.9667 21.8568 87.9667 22.1473C87.9667 22.4378 87.8222 23.0187 87.8222 23.4544C87.9667 23.5996 88.1111 24.0353 88.2556 24.3983C88.4 24.6888 88.4 24.834 88.9056 25.4876C89.4111 26.1411 89.5555 26.7946 89.6278 27.3029C89.7 27.5207 89.8444 27.9564 89.9167 28.6826C89.9889 29.4087 89.7722 29.7718 89.5556 30.3527C89.3389 30.7884 89.4111 30.7884 89.2667 31.2241C89.1222 31.5871 88.6167 32.3133 88.3278 32.5311C88.1833 32.749 88.3278 33.6203 88.4722 34.056C88.6889 34.3465 88.6167 34.4917 88.6167 34.7095C88.6167 35 88.6167 35.1452 88.6167 35.2905C88.5444 35.4357 88.4 35.4357 88.4 35.6535C88.1833 35.944 88.2556 35.8714 88.1111 35.7261C88.1111 35.8714 87.8222 35.8714 87.5333 36.1618C87.3167 36.4523 87.3167 36.1618 87.2444 36.0166C86.8111 35.7261 86.5944 36.0892 86.3778 36.1618C86.3778 35.944 86.0889 35.7261 85.8722 35.6535C85.2944 35.6535 85.0056 35.0726 85.0778 34.2012C85.15 33.5477 85.6556 33.0394 85.8722 32.4585C85.9444 32.3133 85.9444 32.2407 85.6556 32.0954C85.5111 32.0228 85.2944 32.168 85.15 32.3133C84.9333 33.0394 83.85 33.6203 83.4889 33.9108C83.2 34.5643 82.6944 36.0892 82.6222 36.4523C82.55 36.8154 82.6944 37.1058 82.6222 37.3963C82.4778 37.6141 82.4778 37.832 82.55 38.195C82.6222 38.4855 82.55 39.0664 82.55 39.7925C82.6944 40.3008 82.6222 41.8983 82.6222 42.334C82.6222 42.8423 82.1889 42.9149 81.9722 42.9149C81.6833 43.0602 81.6833 43.1328 81.3944 42.9149C81.3222 43.0602 81.25 42.9876 81.0333 43.278C80.7444 43.4958 80.3833 43.4959 79.95 43.4959C79.4444 43.6411 79.6611 43.4959 79.5889 43.3506C79.5167 43.4232 79.4444 43.4959 79.2278 43.7137C79.2278 43.6411 79.2278 43.5685 79.0833 43.278C79.0111 43.2054 78.9389 43.0602 78.8667 42.8423C78.5056 42.9876 78.65 42.8423 78.65 42.6971C78.65 42.5519 78.5056 42.2614 78.4333 42.1162C78.2889 41.971 78.5778 41.6079 78.7222 41.3174C78.7944 41.0996 78.8667 40.8091 79.0833 40.5913C79.2278 40.3008 79.3 40.0104 79.4444 39.7925C79.5889 39.6473 79.6611 39.4295 79.5167 39.3568C79.1556 39.3568 79.3722 38.9938 79.5889 38.5581C79.7333 38.1224 79.95 37.832 79.95 37.3963C79.8778 37.1058 79.95 36.9606 80.0944 36.4523C80.3111 35.944 80.4556 35.7261 80.6 34.6369C80.6 34.4917 80.6 34.2739 80.6722 33.9834C80.7444 33.6929 80.3111 33.6203 79.6611 33.4025C78.9389 33.9834 77.7833 33.4025 77.4222 33.2573C77.0611 33.112 76.7722 32.749 76.1944 32.6763C74.75 32.3859 74.2444 31.5145 73.8833 31.4419C73.5944 31.6598 73.45 32.3133 73.45 32.6763C73.7389 33.0394 73.7389 34.2012 73.7389 34.4191C73.7389 34.6369 73.5944 35.0726 73.6667 35.4357C73.8111 36.1618 73.8111 36.7427 73.8111 37.0332C73.8111 37.3237 73.6667 37.4689 73.3778 37.832C73.3778 38.3402 73.2333 38.6307 73.0889 39.2842C73.0889 40.0104 72.4389 40.083 72.0778 40.1556C71.8611 40.5913 71.7889 40.3734 71.7167 40.2282C71.4278 40.3734 71.0667 40.5187 70.85 40.5187C70.7056 40.5187 70.7056 40.5187 70.7056 40.5913C70.6333 40.6639 70.4889 40.4461 70.3444 40.3734C70.2722 40.2282 70.2 40.2282 69.9833 40.083C69.8389 40.083 69.7667 39.9378 69.6222 39.7199C69.6222 39.5021 69.55 39.4295 69.4778 39.3568C69.2611 39.5021 69.2611 39.0664 69.2611 38.9938C69.1889 38.9212 69.1167 38.7759 69.2611 38.5581C69.4056 38.1224 69.9833 37.3963 70.2 37.1784C70.3444 36.9606 70.85 36.1618 70.9944 35.5083C71.0667 35.2178 71.1389 34.8548 71.2111 34.5643C71.2111 34.3465 71.2111 34.056 71.2111 34.056C71.2111 34.056 71.2111 34.056 71.0667 34.4191C70.9222 34.7822 70.7056 34.9274 70.5611 35.0726C70.4889 35.1452 70.2722 35.2178 70.2 35.4357C70.0555 35.6535 69.8389 35.7988 69.55 35.8714C69.2611 35.944 69.3333 35.8714 68.9 36.0166C68.4667 36.3071 68.4667 35.944 68.25 35.944C68.0333 36.0892 67.9611 36.0166 67.8167 35.7988C67.6722 35.6535 67.6 35.3631 67.5278 35.2178C67.4556 35.0726 67.3833 35.2178 67.2389 35.0726C66.95 35.2178 67.0944 34.8548 67.0944 34.6369C66.95 34.4917 67.0222 34.2739 67.2389 34.2012C67.4556 33.7656 67.6722 33.6203 67.8889 33.4025C68.25 33.112 68.6833 32.6037 68.8278 32.5311C68.9722 32.3859 69.0444 32.2407 69.0444 32.0954C69.1167 31.8776 69.1167 31.5871 69.2611 31.4419C69.4056 31.2967 69.4056 31.1515 69.4778 30.861C69.4056 30.7158 68.3222 30.7884 67.4556 30.6432C66.5889 30.5705 66.0111 30.2801 65.7944 30.1349C65.7944 29.9896 66.6611 30.0622 67.2389 30.1349C67.6 30.1349 68.9722 30.1349 69.3333 30.1349C69.6222 30.0622 69.4778 29.6266 69.4778 29.1909C69.4778 28.8278 69.4778 28.5373 69.6222 28.2469C69.7667 27.9564 69.6944 28.1017 69.6222 27.666C69.55 27.2303 69.4778 26.9398 69.4778 26.5042C69.4778 26.1411 69.3333 25.1245 69.4778 24.7614C69.55 24.471 69.1167 24.0353 68.6833 23.3817C68.25 22.7282 68.1056 22.0021 68.0333 21.639C68.0333 21.2033 67.8889 20.7676 67.9611 19.5332C68.0333 18.2988 68.25 17.4274 68.4667 16.8465C68.7556 16.1203 69.6222 14.3776 69.9111 14.0871C70.2 13.7241 70.7056 12.7801 70.9222 12.5622C70.7778 12.4896 70.6333 11.9813 70.4889 11.6183C70.3444 11.473 70.0556 10.7469 70.0556 10.529C69.9111 10.166 69.9111 9.51245 69.9111 9.00415C69.9111 8.56846 70.3444 6.97095 70.4167 6.75311C70.3444 6.46266 70.4889 6.31743 70.4889 6.09959C70.4889 5.95436 70.3444 5.95436 70.2722 5.88174C70.1278 5.88174 70.1278 5.73651 69.9833 5.59129C69.9833 5.51867 69.55 5.08299 69.3333 4.86515C69.1167 4.79253 69.0444 4.6473 68.9722 4.42946C68.6111 4.21162 68.6111 3.63071 68.6111 3.55809C68.6111 3.41286 68.6111 3.34025 68.6111 3.19502C68.6833 3.04979 68.5389 2.75934 68.4667 2.75934C68.3944 2.68672 68.25 2.61411 68.3222 2.39627C68.3222 2.10581 68.1778 1.88797 68.1056 1.74274C68.0333 1.67012 68.0333 1.59751 68.0333 1.59751C67.9611 1.67012 67.6722 1.88797 67.3111 2.10581C66.95 2.17842 66.6611 2.39627 66.4444 2.61411C66.3 2.75934 66.0833 2.83195 65.9389 2.90456C65.7222 2.75934 65.8667 2.61411 66.0111 2.39627C66.5167 2.10581 66.8055 1.67012 66.8778 1.45228C66.95 1.16183 67.3111 0.726141 67.3111 0.726141C67.6722 0.653527 68.25 0.508299 68.4667 0.435685Z" fill="#E0468F"/>
</g>
<defs>
<clipPath id="clip0_54_1035">
<rect width="156" height="70" fill="white"/>
</clipPath>
</defs>
</svg>
