<svg width="152" height="55" viewBox="0 0 152 55" fill="none" xmlns="http://www.w3.org/2000/svg">
<path fill-rule="evenodd" clip-rule="evenodd" d="M0 0.563192V1.12638H3.52414H7.04847L7.09673 9.3396L7.14516 17.5528H7.88752H8.62987L8.67831 9.3396L8.72657 1.12638H12.2509H15.775V0.563192V0H7.88752H0V0.563192ZM11.9213 11.9678L11.9705 17.5528H12.62H13.2696L13.3253 14.643L13.3811 11.7332L14.2332 11.2075C15.982 10.1288 18.0409 9.92119 18.9646 10.7303C19.3747 11.0896 19.3983 11.2522 19.4868 14.3297L19.5796 17.5528L20.2756 17.611L20.9715 17.6694V14.4004C20.9715 11.3145 20.948 11.096 20.5502 10.4938C19.8765 9.47345 19.0871 9.16276 17.3917 9.25043C16.1844 9.31294 15.7329 9.43591 14.6543 9.99572L13.3624 10.6661V8.52447V6.38284H12.6172H11.8721L11.9213 11.9678ZM25.704 9.58196C24.6221 10.0057 23.7251 10.7498 23.3372 11.5454C22.3493 13.5714 23.1349 16.0928 25.0643 17.0886C26.562 17.8614 29.3961 17.9037 31.1115 17.1787C31.8166 16.8807 33.0348 15.9871 33.0348 15.7681C33.0348 15.6885 32.7391 15.5674 32.3778 15.4989C31.8286 15.3945 31.6082 15.4632 31.0323 15.9179C29.6296 17.0257 27.8101 17.219 26.2389 16.427C25.274 15.9406 24.4977 14.9037 24.4977 14.1012C24.4977 13.7085 24.5428 13.7043 28.8796 13.7043H33.2618L33.1324 13.0069C32.8353 11.4054 31.7893 10.1375 30.3 9.57389C28.9962 9.08035 26.9751 9.08391 25.704 9.58196ZM29.3408 10.2377C30.2433 10.5599 30.9003 11.1082 31.2893 11.8646C31.8539 12.9624 31.881 12.9534 28.0239 12.9534H24.4977V12.4792C24.4977 11.8137 25.9037 10.4314 26.8333 10.1829C27.8858 9.90129 28.432 9.91331 29.3408 10.2377ZM35.8186 16.051V20.2749H30.9933H26.168V24.7804V29.286H30.9933H35.8186V33.5099V37.7339H40.3655H44.9125V33.5099V29.286H49.8306H54.7487V24.7804V20.2749H49.8306H44.9125V16.051V11.827H40.3655H35.8186V16.051ZM65.3964 12.7617C61.5388 13.7847 58.8192 16.4715 57.791 20.2749C57.3851 21.7762 57.333 25.5162 57.6967 27.0332C58.5813 30.7234 61.0327 33.4001 64.6777 34.656C66.012 35.1156 66.4348 35.1691 68.8534 35.1835C71.1831 35.1974 71.7313 35.1406 72.9364 34.76C75.854 33.8388 78.0204 32.1476 79.2349 29.8428C80.9194 26.6454 80.9989 21.3298 79.4099 18.1115C78.0053 15.2666 75.3175 13.3017 71.8601 12.592C70.2884 12.2695 66.9188 12.3579 65.3964 12.7617ZM71.7374 13.9916C75.0285 14.8465 77.3565 17.2003 78.3355 20.663C78.4673 21.1287 78.5734 22.5282 78.5766 23.8418C78.5816 25.9249 78.525 26.3542 78.0733 27.6651C77.7932 28.4774 77.3253 29.4931 77.0334 29.9222C74.6761 33.3881 69.7502 34.8381 65.4603 33.3291C62.3814 32.2459 60.473 30.0568 59.6684 26.6854C59.2286 24.8418 59.3568 21.4492 59.9281 19.8208C60.9067 17.0311 63.0131 14.9832 65.8465 14.0668C67.2026 13.6281 70.1915 13.59 71.7374 13.9916ZM41.1871 19.08C41.6251 19.643 41.6743 20.68 41.3197 21.8706C41.1172 22.5502 41.0376 22.6215 40.4804 22.6215C39.7184 22.6215 39.5497 22.3328 39.4101 20.79C39.3181 19.7725 39.3576 19.5497 39.7091 19.1016C40.2182 18.4526 40.694 18.4457 41.1871 19.08ZM37.7641 20.5717C38.0102 20.7349 38.4764 21.2857 38.7999 21.7955L39.3882 22.7227L38.9074 23.2091L38.4265 23.6956L37.6327 23.2249C36.3095 22.4406 35.7199 21.5154 36.0218 20.6973C36.2115 20.1837 37.0838 20.1208 37.7641 20.5717ZM44.8789 20.9922C44.9557 21.8025 44.5528 22.4017 43.4673 23.0912C42.4081 23.7641 42.3125 23.769 41.8829 23.1722C41.5509 22.7109 41.5537 22.6859 42.0219 21.8776C42.69 20.7245 43.3472 20.2436 44.1603 20.3126C44.7581 20.3635 44.8252 20.427 44.8789 20.9922ZM37.5138 23.8715C38.1806 24.0736 38.2313 24.1386 38.2313 24.7915C38.2313 25.4807 38.2135 25.4983 37.289 25.7227C35.7533 26.0953 34.3339 25.6427 34.3339 24.7804C34.3339 23.8538 35.9404 23.3946 37.5138 23.8715ZM46.2461 24.2139C46.4313 24.4452 46.5828 24.7001 46.5828 24.7804C46.5828 24.8608 46.4313 25.1157 46.2461 25.347C45.8224 25.8764 44.3911 26.0444 43.3467 25.6874C42.6828 25.4604 42.6162 25.3776 42.6171 24.7829C42.6178 24.1859 42.6822 24.1078 43.3476 23.8957C44.4418 23.5469 45.8347 23.6997 46.2461 24.2139ZM87.969 24.4656C87.5097 24.5944 86.638 24.9719 86.0319 25.3044C84.8736 25.9399 84.6127 25.8871 84.771 25.0498C84.8534 24.6137 84.8138 24.5927 83.9078 24.5927H82.9581V29.7553V34.9179H83.8861H84.814V31.109V27.3004L85.8201 26.6835C87.8013 25.469 89.7529 25.2408 90.9269 26.0863L91.459 26.4695L91.6606 25.8851C91.7714 25.5635 91.8159 25.2252 91.7597 25.133C91.3609 24.4803 89.245 24.1078 87.969 24.4656ZM98.0836 24.3502C96.8088 24.4703 95.1059 25.1405 94.2974 25.8407C93.1228 26.8577 92.5405 28.1502 92.5338 29.7553C92.521 32.8217 94.6998 34.7923 98.3945 35.0557C100.252 35.1882 102.234 34.6842 103.234 33.8247C103.537 33.564 103.558 33.6126 103.557 34.5603C103.554 35.816 102.901 37.3257 102.115 37.8923C101.807 38.1136 101.059 38.4236 100.452 38.5809C98.6693 39.0427 96.7739 38.6558 95.1467 37.4981C94.7529 37.218 94.4372 37.1502 93.8786 37.2259C93.4695 37.2814 93.0866 37.3757 93.0276 37.4354C92.8058 37.6597 93.6612 38.3436 94.9448 38.968C98.3407 40.6202 102.884 40.0056 104.424 37.6858C105.3 36.3655 105.414 35.4524 105.414 29.7461V24.5927H104.486C103.62 24.5927 103.558 24.6241 103.558 25.062C103.558 25.3202 103.524 25.5314 103.481 25.5314C103.438 25.5314 102.997 25.3251 102.501 25.0727C101.715 24.6733 99.5492 24.1628 99.0116 24.2503C98.9095 24.2668 98.4919 24.3119 98.0836 24.3502ZM111.932 24.4191C110.274 24.714 109.111 25.3611 108.481 26.3388C108.07 26.9776 108.23 27.1761 109.219 27.2553C109.865 27.3071 110.01 27.2429 110.333 26.7618C110.902 25.9149 111.783 25.4903 113.178 25.3904C115.443 25.2282 116.669 25.8926 116.868 27.3903C116.924 27.8134 116.926 28.1596 116.872 28.1596C116.101 28.1596 112.552 28.6389 111.322 28.909C108.451 29.54 107.458 30.3707 107.457 32.1423C107.455 33.8527 108.889 34.8537 111.617 35.0471C113.369 35.1712 114.875 34.9025 116.091 34.2485C116.558 33.9971 116.967 33.7915 117 33.7915C117.033 33.7915 117.11 34.045 117.171 34.3547C117.279 34.8989 117.317 34.9179 118.308 34.9179C119.243 34.9179 119.674 34.6881 119.102 34.4959C118.931 34.4384 118.845 33.4337 118.775 30.6788C118.67 26.5145 118.496 25.8137 117.4 25.1315C116.268 24.4273 113.739 24.0979 111.932 24.4191ZM127.314 24.42C126.752 24.5135 125.562 24.9537 124.669 25.3988L123.045 26.2078V25.4001V24.5927H122.114H121.183L121.233 29.7084L121.282 34.824L122.164 34.8813L123.045 34.9386V31.3114V27.6843L124.012 27.0443C125.384 26.1359 126.677 25.6823 127.963 25.6583C129.233 25.6346 129.974 25.9389 130.545 26.718C130.903 27.2071 130.938 27.5423 130.996 31.0828L131.059 34.9179H131.877H132.696V30.9112C132.696 27.0833 132.677 26.8678 132.266 26.0818C131.53 24.6744 129.626 24.0357 127.314 24.42ZM144.388 24.4369C142.281 24.7395 140.347 25.8928 139.632 27.2726C138.812 28.8574 138.951 31.2626 139.943 32.6479C141.149 34.3318 142.907 35.0061 146.058 34.9936C147.815 34.9866 148.38 34.9108 149.254 34.5646C150.276 34.16 152.204 32.6325 151.982 32.4029C151.923 32.3415 151.492 32.238 151.023 32.1731C150.247 32.0655 150.116 32.1072 149.553 32.6413C148.487 33.6528 147.816 33.8854 145.965 33.8854C144.502 33.8854 144.161 33.8187 143.21 33.3462C141.421 32.4575 140.583 30.6803 141.042 28.7457C141.299 27.66 142.123 26.5928 143.089 26.0946C145.08 25.0669 148.318 25.3876 149.57 26.7364C149.93 27.1241 150.062 27.1524 150.83 27.0071C151.302 26.9179 151.729 26.8042 151.778 26.7541C151.947 26.5836 150.608 25.5015 149.672 25.0515C149.158 24.8049 148.156 24.5178 147.444 24.4138C145.987 24.2007 146.035 24.2004 144.388 24.4369ZM135.109 29.7553V34.9386L135.99 34.8813L136.872 34.824V29.7553V24.6866L135.99 24.6293L135.109 24.5721V29.7553ZM101.517 25.8515C101.976 26.0127 102.623 26.3489 102.955 26.5984L103.558 27.0524V29.6614V32.2705L102.915 32.7673C101.636 33.7542 99.1717 34.2308 97.6132 33.7928C94.5049 32.9193 93.3097 29.4358 95.3083 27.0741C96.6268 25.516 99.148 25.0196 101.517 25.8515ZM38.9571 26.3585C39.3218 26.7511 39.3465 26.8676 39.1462 27.2502C38.4096 28.6571 37.3308 29.4987 36.4758 29.3335C35.4096 29.1272 35.9292 27.4913 37.3707 26.517C37.8671 26.1815 38.3328 25.9068 38.4055 25.9068C38.4783 25.9068 38.7264 26.1101 38.9571 26.3585ZM43.3491 26.3944C44.4214 27.0302 44.9125 27.6828 44.9125 28.4725C44.9125 28.9622 44.8154 29.1471 44.4949 29.2682C43.6889 29.5725 42.7715 28.977 42.0028 27.6503C41.5539 26.8753 41.5514 26.8494 41.8829 26.3887C42.3064 25.8006 42.3476 25.8008 43.3491 26.3944ZM41.4249 28.3177C41.6068 29.3074 41.5939 29.5728 41.3373 30.1173C40.9154 31.0122 40.3217 31.165 39.7733 30.5198C39.2975 29.9603 39.2103 28.9385 39.5371 27.7487C39.6998 27.156 39.8132 27.0473 40.3247 26.994C40.6534 26.9598 40.9873 26.9825 41.0669 27.0443C41.1463 27.1061 41.3074 27.6792 41.4249 28.3177ZM116.921 30.8689C116.921 32.588 116.906 32.6501 116.411 32.9999C114.585 34.2884 111.396 34.442 109.931 33.3117C109.409 32.9086 109.312 32.7147 109.312 32.0738C109.312 30.7338 110.572 29.9344 113.395 29.4833C114.638 29.2847 115.522 29.1807 116.411 29.1283L116.921 29.0983V30.8689ZM20.4148 42.3162V51.0627H21.1571H21.8995V47.5897V44.1167L23.709 44.1103C26.1808 44.1017 29.1753 43.8113 30.348 43.4664C31.765 43.0498 33.0374 42.0918 33.5736 41.0377C33.9312 40.3349 34.0245 39.8646 34.0245 38.7664C34.0245 36.9574 33.4906 35.8331 32.2199 34.9665C30.6065 33.8664 29.8933 33.7378 24.9153 33.6496L20.4148 33.5696V42.3162ZM29.2376 35.0208C30.6006 35.379 31.3727 35.8967 31.9977 36.872C32.5521 37.7367 32.6508 39.216 32.2217 40.2273C31.86 41.08 30.856 41.9848 29.8885 42.3301C28.7672 42.7303 25.8943 43.0222 23.7554 42.9533L21.9923 42.8965L21.9422 38.8133L21.8922 34.7302H25.0118C27.2281 34.7302 28.4519 34.8143 29.2376 35.0208ZM35.8186 45.5247V51.0627H36.561H37.3033V48.1762V45.2896L38.6102 44.5949C40.7848 43.439 42.4963 43.4859 43.2414 44.7221C43.5688 45.2654 43.612 45.6696 43.6126 48.1998L43.6133 51.0627H44.3744H45.1355L45.0704 47.9183C45.0138 45.1858 44.9566 44.69 44.6341 44.1351C43.6068 42.3672 40.5611 42.2447 37.9993 43.8682L37.3033 44.3091V42.148V39.9866H36.561H35.8186V45.5247ZM50.569 42.7985C49.4121 42.9727 48.1681 43.5991 47.7757 44.2048C47.3932 44.7954 47.5643 45.0554 48.3355 45.0554C48.7887 45.0554 49.0333 44.9309 49.2562 44.587C49.6567 43.9688 50.6819 43.5535 51.8078 43.5535C53.4275 43.5535 54.3775 44.1963 54.3775 45.2923C54.3775 45.7252 54.3018 45.7502 52.2896 45.982C49.7409 46.2758 48.1929 46.7408 47.4871 47.4249C47.0488 47.8497 46.9539 48.0977 46.9539 48.8197C46.9539 49.9897 47.4378 50.5951 48.668 50.9647C50.3745 51.4772 52.2497 51.2944 54.214 50.4237C54.4254 50.33 54.5438 50.4049 54.6141 50.6766C54.6948 50.989 54.8628 51.0627 55.4934 51.0627C56.1708 51.0627 56.2529 51.0198 56.119 50.7342C56.0344 50.5536 55.9203 49.0963 55.8652 47.4959C55.7987 45.5609 55.6786 44.4141 55.5068 44.0726C54.9966 43.0588 52.727 42.4731 50.569 42.7985ZM62.2045 42.8232C61.763 42.907 60.9906 43.2316 60.4878 43.5445L59.574 44.1133V43.4465C59.574 42.791 59.5625 42.7808 58.878 42.8383L58.1821 42.8965L58.1319 46.9796L58.082 51.0627H58.8279H59.574V48.1043C59.574 44.764 59.4314 45.0905 61.2897 44.1751C62.3717 43.6421 63.5432 43.6153 64.3377 44.1053C64.965 44.4922 65.1416 44.3724 65.1416 43.561C65.1416 42.9633 63.5597 42.5661 62.2045 42.8232ZM70.9314 42.811C70.4921 42.9008 69.678 43.2374 69.1219 43.5591L68.111 44.1443V43.4734C68.111 42.836 68.0797 42.8026 67.4813 42.8026C67.0782 42.8026 66.811 42.9094 66.739 43.0996C66.677 43.2629 66.6263 45.1214 66.6263 47.2297V51.0627H67.3687H68.111V48.1779V45.293L68.8716 44.7839C70.5085 43.6881 71.8703 43.4779 72.694 44.1939L73.2147 44.6465L73.2734 47.8546L73.332 51.0627H74.0621H74.7922V48.1488V45.2348L75.6673 44.6733C77.2695 43.6457 78.6258 43.4719 79.3475 44.2021C79.7957 44.6553 79.8031 44.7156 79.8031 47.8629V51.0627H80.5455H81.2878V47.8653C81.2878 44.4028 81.123 43.5912 80.3335 43.1638C79.0805 42.4855 77.4465 42.6199 75.6851 43.5466L74.6291 44.1019L73.987 43.4523C73.6223 43.0834 73.1561 42.8015 72.9085 42.8C72.6687 42.7986 72.3054 42.7637 72.1012 42.7226C71.8971 42.6815 71.3707 42.7213 70.9314 42.811ZM86.8932 42.8242C85.6549 43.0328 84.9937 43.3772 84.3528 44.1475C83.8829 44.7124 83.8716 44.7648 84.1916 44.892C84.868 45.1612 85.5265 45.0708 85.6453 44.6925C85.8195 44.1372 87.1924 43.5535 88.3244 43.5535C89.9277 43.5535 90.9385 44.2767 90.9385 45.4237C90.9385 45.7248 90.7358 45.7922 89.5001 45.9015C87.4821 46.0802 85.4235 46.5223 84.5772 46.9591C83.8189 47.3504 83.3293 48.1922 83.3293 49.1043C83.3293 49.7976 84.3666 50.789 85.3819 51.0665C86.5621 51.3886 88.9675 51.2071 90.0742 50.7122C90.9678 50.3126 90.9734 50.3124 91.07 50.6865C91.1487 50.9908 91.3228 51.0627 91.9809 51.0627C92.7465 51.0627 93.0258 50.854 92.6088 50.5934C92.4998 50.5253 92.4228 49.4169 92.4221 47.9072C92.4215 46.4936 92.3346 45.0218 92.2289 44.6365C91.9484 43.6151 91.0984 43.0391 89.5345 42.8105C88.0936 42.5998 88.2305 42.5991 86.8932 42.8242ZM98.3366 42.8022C95.5416 43.1602 93.9001 45.0195 94.141 47.5546C94.2659 48.8689 95.0335 49.8954 96.4133 50.5934C97.4541 51.1198 97.6601 51.1559 99.5683 51.1457C101.773 51.1337 102.716 50.8519 103.79 49.8832C104.469 49.272 104.434 49.0647 103.628 48.9119C103.069 48.8057 102.874 48.8614 102.468 49.2449C101.666 50.003 100.869 50.3118 99.7168 50.3107C98.171 50.3092 97.3238 50.0126 96.5074 49.1867C95.374 48.0403 95.2695 46.2414 96.2669 45.0426C97.5894 43.4527 100.513 43.1354 102.157 44.4034C102.776 44.8811 103.81 45.0274 104.03 44.6681C104.374 44.1045 102.097 42.9049 100.403 42.7574C99.8421 42.7084 98.9119 42.7286 98.3366 42.8022ZM105.229 43.0087C105.229 43.1219 105.675 43.8612 106.22 44.6514C106.765 45.4413 107.94 47.1711 108.831 48.4948L110.451 50.9019L110.113 51.7517C109.675 52.8543 108.605 53.9748 107.842 54.1289C107.201 54.2587 105.668 53.982 105.296 53.6692C105.134 53.5335 105.012 53.5864 104.871 53.8543C104.553 54.4541 104.629 54.6 105.368 54.8074C106.476 55.1189 108.378 55.0423 109.227 54.6522C110.507 54.064 110.972 53.3133 113.482 47.7855C113.668 47.377 114.225 46.1645 114.721 45.0908C115.216 44.0174 115.622 43.0585 115.622 42.9601C115.622 42.8615 115.269 42.8069 114.837 42.8388L114.052 42.8965L112.658 46.2287C111.891 48.0613 111.207 49.5609 111.138 49.5609C111.07 49.5609 110.746 49.1173 110.418 48.5753C110.091 48.0333 109.147 46.5125 108.322 45.1962L106.821 42.8026H106.025C105.571 42.8026 105.229 42.891 105.229 43.0087ZM54.3775 47.968C54.3775 49.3566 54.3682 49.3844 53.7777 49.7477C52.7757 50.364 51.3422 50.6024 50.1542 50.3505C48.926 50.0897 48.4386 49.6938 48.4386 48.9562C48.4386 48.1533 48.7545 47.6879 49.5206 47.3624C50.2689 47.0446 52.5867 46.6068 53.6815 46.5765L54.3775 46.5572V47.968ZM90.9385 47.968C90.9385 49.3405 90.923 49.3882 90.3704 49.7282C89.5451 50.2358 87.7777 50.5694 86.7443 50.4126C85.7882 50.2677 84.814 49.4871 84.814 48.8661C84.814 47.6656 87.1463 46.6835 90.2425 46.5803L90.9385 46.5572V47.968Z" fill="#00AEE0"/>
</svg>
