<svg width="157" height="67" viewBox="0 0 157 67" fill="none" xmlns="http://www.w3.org/2000/svg">
<g clip-path="url(#clip0_54_1054)">
<path d="M4.23921 57.6715C7.39199 57.6715 11.333 57.6715 11.3117 60.8377C11.3117 62.8139 9.86309 63.9826 6.81682 63.9401C3.98358 63.8976 2.89715 64.0039 2.89715 62.2189L2.87585 57.6715H4.23921ZM12.036 54.3353C11.9934 51.6579 7.30678 51.5729 5.66649 51.5729H0.489959V51.7004C0.57517 51.7429 0.873406 51.9554 1.04383 52.1891C1.27815 52.5079 1.34206 52.9541 1.34206 53.1453V62.1977C1.34206 62.8139 1.17164 63.2601 0.979919 63.4939C0.702985 63.8339 0.426052 64.0464 0 64.1526V64.2801C1.02252 64.2164 1.6403 64.1951 2.66282 64.1951C3.85577 64.1951 4.55875 64.1951 5.7517 64.2801H7.4772C9.79919 64.2801 13.2076 63.5364 13.2928 60.7739C13.3567 59.0952 11.5673 58.0328 9.58616 57.629L8.45712 57.3953L9.54355 57.0553C10.9282 56.6728 12.0786 55.9503 12.036 54.3353ZM2.89715 57.289V51.9554H4.87829C7.22157 51.9554 10.1826 51.9341 10.1826 54.6541C10.1826 57.6928 6.49729 57.289 3.83446 57.289H2.89715Z" fill="#C18010"/>
<path d="M19.1511 57.0553C19.1724 56.6728 19.7476 53.9741 22.7725 54.0591C24.6898 54.1016 25.9466 55.6741 25.8827 57.1616V57.3953H19.1298L19.1511 57.0553ZM23.0708 64.1314C20.344 64.1527 18.7676 61.6665 19.0659 58.309L19.1085 57.8203H27.7573L27.6295 57.1191C27.31 55.3766 25.201 53.8041 22.7512 53.7191C19.4493 53.6129 17.0634 56.1841 17.106 58.989C17.1486 62.8139 20.131 64.7902 22.879 64.6627C25.7123 64.5564 27.3313 62.9839 27.9704 60.7952L28.0556 60.4977L27.7147 60.3065L27.6508 60.5615C27.0969 62.7714 25.0093 64.1314 23.0708 64.1314Z" fill="#C18010"/>
<path d="M31.7407 64.3013V64.1738C32.1029 64.0463 32.252 63.9613 32.5289 63.4939C32.7419 63.1539 32.8059 62.1764 32.8059 62.0064L32.8272 52.4228C32.8272 51.9128 32.6993 51.2754 32.5289 51.0416C32.3798 50.8504 32.1242 50.6804 32.039 50.6379V50.4679C32.465 50.3829 32.7206 50.3404 33.1254 50.2341C33.4449 50.1491 33.6366 50.0854 33.9562 49.9791L34.0627 50.0216C34.0627 50.1066 34.0627 49.9579 34.0627 50.4466C34.084 51.4453 34.1266 52.8691 34.1266 53.0178L34.3396 62.0276C34.3396 62.3039 34.5527 63.3876 34.6166 63.5364C34.8722 63.9614 35.0426 64.0463 35.3622 64.1526V64.2801C34.6592 64.2376 34.2331 64.2163 33.5301 64.2163C32.8485 64.2588 32.4437 64.2588 31.7407 64.3013Z" fill="#C18010"/>
<path d="M39.1968 64.3013V64.1738C39.5589 64.0463 39.708 63.9613 39.985 63.4939C40.198 63.1539 40.2619 62.1764 40.2619 62.0064L40.2832 52.4228C40.2832 51.9128 40.1554 51.2754 39.985 51.0416C39.8359 50.8504 39.5802 50.6804 39.495 50.6379V50.4679C39.9211 50.3829 40.1767 50.3404 40.5814 50.2341C40.901 50.1491 41.0927 50.0854 41.4122 49.9791L41.5188 50.0216C41.5188 50.1066 41.5188 49.9579 41.5188 50.4466C41.5401 51.4453 41.5827 52.8691 41.5827 53.0178L41.7957 62.0276C41.7957 62.3039 42.0087 63.3876 42.0726 63.5364C42.3283 63.9614 42.4987 64.0463 42.8182 64.1526V64.2801C42.1152 64.2376 41.6892 64.2163 40.9862 64.2163C40.3258 64.2588 39.8998 64.2588 39.1968 64.3013Z" fill="#C18010"/>
<path d="M48.6553 57.0553C48.6766 56.6728 49.2518 53.9741 52.2767 54.0591C54.194 54.1016 55.4508 55.6741 55.3869 57.1616V57.3953H48.6553V57.0553ZM52.5537 64.1314C49.8269 64.1527 48.2505 61.6665 48.5488 58.309L48.5914 57.8203H57.2402L57.1124 57.1191C56.7929 55.3766 54.6839 53.8041 52.2341 53.7191C48.9322 53.6129 46.5463 56.1841 46.5889 58.989C46.6315 62.8139 49.6139 64.7902 52.3619 64.6627C55.1952 64.5564 56.8142 62.9839 57.4533 60.7952L57.5385 60.4977L57.1976 60.3065L57.1337 60.5615C56.6012 62.7714 54.4922 64.1314 52.5537 64.1314Z" fill="#C18010"/>
<path d="M61.9693 64.3014V64.1739C62.2888 64.0464 62.4806 63.7914 62.6723 63.4939C62.7788 63.3026 62.8427 62.3676 62.8427 62.1976V54.994H61.1172L61.4154 54.4628H62.8427L62.8853 53.6128C62.9705 51.9341 63.8226 51.1691 64.0569 50.9779C64.7386 50.4679 65.9103 49.8516 66.8902 49.9366H67.1245L66.6559 51.3816L66.3789 51.3391C66.1659 51.0416 65.7825 50.6804 65.2925 50.7654C64.0782 50.9354 64.0569 52.9966 64.0569 53.1453L64.0995 54.4628H66.0594L65.7824 54.994H64.1209L64.3126 61.7939C64.3552 62.8139 64.696 63.4939 64.8025 63.6214C65.0582 63.9401 65.1647 64.0251 65.4416 64.1526V64.2801C64.8451 64.2376 64.483 64.2164 63.8865 64.2164C63.1409 64.2589 62.7149 64.2589 61.9693 64.3014Z" fill="#C18010"/>
<path d="M75.6456 64.1951C72.8763 64.2589 71.6408 61.6877 71.6195 59.2015C71.5769 56.7153 72.642 54.1441 75.4965 54.0803C78.5428 54.0378 79.5653 56.8428 79.5227 59.3077C79.4588 61.8152 78.5641 64.1314 75.6456 64.1951ZM75.5604 53.7403C72.1733 53.7403 69.617 56.269 69.7448 59.414C69.8726 62.3889 72.9402 64.5989 75.5178 64.5989C78.5002 64.5989 81.0352 62.5377 81.2695 59.6052C81.5039 56.6515 79.0967 53.7191 75.5604 53.7403Z" fill="#C18010"/>
<path d="M96.0537 62.219C96.075 62.7502 96.2028 63.4302 96.3094 63.5577C96.565 63.8764 96.7141 64.0464 97.0336 64.1739V64.3014C96.3946 64.2589 96.0324 64.2377 95.3933 64.2377C94.6477 64.2377 94.2004 64.2377 93.4548 64.3014V64.1739C93.7956 64.0252 94.0087 63.8127 94.1791 63.4939C94.2856 63.3027 94.4134 62.3677 94.4134 62.1977L94.3708 57.7566C94.3495 55.9503 93.327 54.3991 91.218 54.3141C88.8747 54.2291 87.7457 56.6303 87.767 58.8615L87.8096 62.1977C87.8309 62.729 87.8309 63.2602 88.0013 63.5365C88.1931 63.8339 88.4061 64.0252 88.7256 64.1527V64.2802C88.1504 64.2377 87.8096 64.2164 87.2131 64.2164C86.4675 64.2164 86.0415 64.2377 85.2959 64.2802V64.1739C85.6154 64.0252 85.8072 63.8339 85.9989 63.5365C86.2971 63.1115 86.2545 62.3677 86.2545 62.1977L86.2119 56.1416C86.2119 55.9503 86.0628 55.4191 85.8711 55.2066C85.7433 55.0366 85.5089 54.8666 85.4237 54.8241V54.6754C85.8285 54.6116 86.0841 54.5479 86.4888 54.4416C86.7871 54.3779 86.9788 54.3141 87.2557 54.2079L87.3836 54.2716C87.3836 54.3566 87.3836 54.3779 87.4262 54.8879C87.4688 55.4828 87.4475 56.1628 87.5114 56.4603L87.5753 56.6941L87.7883 56.1628C88.1078 55.3978 89.3008 53.7191 91.495 53.8254C94.1791 53.9529 95.7555 55.3128 95.8407 57.6928L96.0537 62.219Z" fill="#C18010"/>
<path d="M104.979 54.3991C105.214 54.3991 105.555 54.4203 105.555 54.6328C105.555 55.0578 105.278 54.9728 105.043 54.9728H103.531L103.637 60.9227C103.659 61.6877 103.85 63.2177 104.362 63.6639C104.617 63.8977 104.83 64.0464 105.15 64.1739V64.3014H104.83C103.637 64.3014 102.785 64.4502 102.487 63.9189C102.38 63.7277 102.125 63.4089 102.125 62.219L102.146 54.9516H100.676V54.6966C101.422 54.4416 101.699 54.2291 102.167 53.7616C102.87 53.0816 103.233 52.0191 103.318 51.5304L103.659 51.5941C103.637 51.6791 103.637 51.5729 103.552 52.0616C103.488 52.3591 103.403 53.6766 103.488 54.3991H104.979Z" fill="#C18010"/>
<path d="M117.164 60.7526C117.164 62.5163 116.014 63.9825 114.097 64.1313C112.393 64.2375 111.242 63.0688 111.115 61.5601C110.859 58.7126 114.203 58.5001 116.653 58.5001H117.164V60.7526ZM116.185 58.0752C113.756 58.0752 109.432 58.4364 109.368 61.3688C109.325 63.43 111.839 64.6413 114.033 64.5563C115.311 64.5138 116.163 64.11 116.909 63.0263L117.377 62.3463C117.377 62.4951 117.484 63.1113 117.633 63.6213C117.697 63.855 117.761 64.0675 117.846 64.3013H119.55V64.2163C119.316 64.0038 119.167 63.77 118.996 63.4938C118.805 63.1751 118.634 61.8151 118.634 61.3688V57.9902C118.634 55.5677 117.569 53.8677 113.99 53.8252C112.478 53.804 111.306 54.1652 110.177 54.6115L109.751 54.7815L110.22 56.5239H110.412L110.539 56.1839C111.008 54.909 112.478 54.1015 114.054 54.1015C116.419 54.1015 117.164 55.7802 117.164 57.7139V58.0752H116.185Z" fill="#C18010"/>
<path d="M123.172 64.3014V64.1739C123.577 64.0676 123.875 63.8764 124.024 63.4939C124.194 63.0902 124.173 62.3889 124.173 62.2189L124.194 56.184C124.194 55.8015 124.173 55.4828 124.003 55.2065C123.854 54.9515 123.449 54.7603 123.364 54.7391V54.5903C123.747 54.5266 123.981 54.4628 124.344 54.3778C124.706 54.2928 124.919 54.2291 125.26 54.1441L125.43 54.1653C125.43 54.2503 125.43 54.2078 125.43 54.7178C125.43 55.4403 125.494 57.119 125.494 57.2678L125.728 62.2614C125.771 62.7714 125.877 63.4301 125.984 63.5576C126.218 63.8764 126.431 64.0889 126.772 64.1951V64.3226C126.048 64.2376 125.622 64.2164 124.897 64.2164C124.258 64.1951 123.832 64.2376 123.172 64.3014ZM124.727 52.4653C123.534 52.5078 123.449 50.7229 124.642 50.6804C125.835 50.6166 125.92 52.4016 124.727 52.4653Z" fill="#C18010"/>
<path d="M141.364 62.219C141.386 62.7502 141.513 63.4302 141.62 63.5577C141.876 63.8764 142.025 64.0464 142.323 64.1739V64.3014C141.684 64.2589 141.322 64.2377 140.683 64.2377C139.937 64.2377 139.49 64.2377 138.744 64.3014V64.1739C139.085 64.0252 139.298 63.8127 139.468 63.4939C139.575 63.3027 139.703 62.3677 139.703 62.1977L139.66 57.7566C139.639 55.9503 138.616 54.3991 136.507 54.3141C134.164 54.2291 133.035 56.6303 133.056 58.8615L133.099 62.1977C133.099 62.729 133.12 63.2602 133.291 63.5365C133.482 63.8339 133.695 64.0252 134.015 64.1527V64.2802C133.44 64.2377 133.099 64.2164 132.524 64.2164C131.778 64.2164 131.352 64.2377 130.606 64.2802V64.1739C130.926 64.0252 131.118 63.8339 131.309 63.5365C131.608 63.1115 131.565 62.3677 131.565 62.1977L131.522 56.1416C131.522 55.9503 131.373 55.4191 131.182 55.2066C131.054 55.0366 130.819 54.8666 130.734 54.8241L130.756 54.6754C131.16 54.6116 131.416 54.5479 131.821 54.4416C132.119 54.3779 132.311 54.3141 132.588 54.2079L132.715 54.2716C132.715 54.3566 132.715 54.3779 132.758 54.8879C132.801 55.4828 132.779 56.1628 132.843 56.4603L132.907 56.6941L133.12 56.1628C133.44 55.3978 134.633 53.7191 136.827 53.8254C139.511 53.9529 141.087 55.3128 141.173 57.6928L141.364 62.219Z" fill="#C18010"/>
<path d="M148.117 57.0553C148.139 56.6728 148.714 53.9741 151.739 54.0591C153.656 54.1016 154.913 55.6741 154.849 57.1616V57.3953H148.117V57.0553ZM152.016 64.1314C149.289 64.1527 147.712 61.6665 148.011 58.309L148.053 57.8203H156.702L156.574 57.1191C156.255 55.3766 154.146 53.8041 151.696 53.7191C148.394 53.6129 146.008 56.1841 146.051 58.989C146.093 62.8139 149.076 64.7902 151.824 64.6627C154.657 64.5564 156.276 62.9839 156.915 60.7952L157 60.4977L156.66 60.3065L156.596 60.5615C156.063 62.7714 153.975 64.1314 152.016 64.1314Z" fill="#C18010"/>
<path d="M156.297 66.6813H0.617676V66.9788H156.297V66.6813Z" fill="#C18010"/>
<path fill-rule="evenodd" clip-rule="evenodd" d="M56.8141 36.4644C56.8141 36.4644 53.7465 26.732 55.7703 18.126C57.794 9.49862 62.6723 8.32989 64.76 8.18114C66.8476 8.03239 70.1282 8.79738 72.2798 11.6661C74.4313 14.5135 75.1343 17.2972 75.1343 17.2972C75.1343 17.2972 76.9451 7.71365 80.2256 3.95247C83.5062 0.191288 88.2567 -0.594948 91.2604 0.382534C94.264 1.36002 96.8204 2.63499 99.2915 7.90489C101.166 11.8998 101.763 17.276 101.187 23.8633C100.463 32.1082 97.992 40.1618 97.4381 41.968C96.8843 43.7742 95.9682 45.7929 95.9682 45.7929C95.9682 45.7929 98.3328 36.8044 98.9506 31.7682C99.4406 27.8158 99.824 26.3496 99.4406 20.1659C99.1849 15.9585 98.5246 11.2411 94.5836 7.54365C91.2604 4.44121 86.659 5.82243 86.659 5.82243C86.659 5.82243 90.8556 5.69494 93.3906 8.54238C95.8617 11.3261 97.3742 14.6835 97.6938 19.7622C98.0133 25.0321 97.8855 29.537 96.4156 35.8694C94.9457 42.2018 93.4971 45.7292 93.4971 45.7292C93.4971 45.7292 96.1813 35.9969 96.0748 29.962C95.9682 23.3109 95.9043 19.7622 94.4984 15.9585C92.6877 11.0711 86.233 7.37365 81.376 14.1098C77.1368 20.0172 76.4338 33.4894 76.3699 34.8281C76.306 36.1456 76.093 39.2056 76.093 39.2056C76.093 39.2056 75.2195 29.027 72.2585 21.5471C70.6821 17.5735 67.5293 15.7885 65.0795 16.5535C62.651 17.3185 60.8616 18.7209 59.6261 23.8421C58.6887 27.7733 58.7314 32.1932 58.7314 33.2344C58.7314 34.2757 59.0083 37.8243 59.0083 37.8243C59.0083 37.8243 57.0911 29.3457 58.4544 21.8234C58.9657 18.9334 60.3716 15.7885 62.5871 14.046C65.5695 11.7298 68.0619 13.1535 68.0619 13.1535C68.0619 13.1535 66.0807 11.6448 63.6309 12.1336C61.2025 12.6223 59.0722 14.7473 57.6023 18.9972C56.6011 21.8871 56.2816 25.6058 56.2816 28.3683C56.3242 31.1307 56.8141 36.4644 56.8141 36.4644Z" fill="#C18010"/>
<path fill-rule="evenodd" clip-rule="evenodd" d="M87.8094 41.8831H64.6748V39.8856H87.8094V41.8831Z" fill="#C18010"/>
<path fill-rule="evenodd" clip-rule="evenodd" d="M89.3431 44.7517H63.29V42.733H89.3431V44.7517Z" fill="#C18010"/>
</g>
<defs>
<clipPath id="clip0_54_1054">
<rect width="157" height="67" fill="white"/>
</clipPath>
</defs>
</svg>
