<svg width="147" height="54" viewBox="0 0 147 54" fill="none" xmlns="http://www.w3.org/2000/svg">
<g clip-path="url(#clip0_54_886)">
<path d="M144.828 23.6072C143.312 23.6072 142.451 23.6072 142.451 21.6162C142.451 16.0903 139.131 15.1557 139.131 15.1557C134.951 14.0587 133.107 19.5034 131.632 22.632C130.484 25.07 130.075 25.4763 129.296 25.4763C128.107 25.4763 127.575 22.9571 126.509 20.0316C125.649 17.6749 124.378 16.1715 122.247 16.5372C119.911 16.9435 119.092 19.0158 118.682 19.097C118.108 19.1783 117.739 16.9029 114.297 16.9842C112.043 17.0248 110.69 18.4876 109.584 21.1693C108.518 23.7697 108.723 23.6478 106.961 22.5508C103.887 20.6411 103.355 24.8262 102.084 25.07C100.814 25.3138 100.568 23.2009 100.568 23.2009C100.486 22.1851 101.388 20.3973 103.027 20.1535C106.264 19.6253 107.535 19.8284 108.068 18.6501C108.518 17.6343 107.125 16.8623 104.215 16.9435C97.4124 17.0654 97.6173 22.1851 97.2485 23.2821C96.8797 24.3792 94.8306 25.3138 94.8306 25.3138C92.4537 26.3296 91.1013 24.8668 91.1013 24.8668C89.708 23.4853 93.0684 24.7449 95.5683 21.2505C97.6583 18.2844 96.8797 14.8713 92.0439 14.9119C86.7983 14.9526 85.8967 19.3408 85.6918 20.2347C85.4869 21.1287 85.7737 21.0068 84.8312 21.0474C84.0935 21.088 84.1345 20.2347 84.1345 20.2347C84.1345 20.2347 83.6017 2.07221 73.5613 4.30698C69.1763 5.28215 67.7829 10.2393 69.873 15.3589C70.8975 17.8781 72.9466 19.7878 74.258 21.1287C75.5694 22.4289 76.3071 23.1603 73.8482 24.0542C71.3893 24.9481 63.5619 26.939 64.8323 36.0812C64.8323 36.0812 65.1601 38.0316 66.4306 39.535C68.0288 41.404 70.8975 42.8668 74.299 41.5666C80.4872 39.2099 82.5772 31.6117 84.0115 25.395C84.0115 25.395 84.0115 24.9887 84.7492 24.9074C85.4869 24.8262 85.7737 24.5417 86.3475 25.4763C87.1261 26.7359 92.2488 30.8397 97.2075 27.1828C97.2075 27.1828 97.8223 26.5733 98.6419 27.1422C98.6419 27.1422 101.511 29.5801 104.461 27.3047C106.305 25.842 106.756 26.3296 107.904 27.4266C109.092 28.5643 110.526 29.1738 111.141 26.7359C111.797 24.298 112.084 20.6004 114.666 20.6004C117.247 20.6004 116.838 27.6298 119.092 27.6298C121.346 27.6298 120.28 21.9413 122.616 21.9413C124.952 21.9413 124.337 28.2799 129.46 28.2799C132.329 28.2799 133.025 23.2009 133.845 25.4763C133.845 25.4763 134.828 29.0925 138.394 29.0925C141.59 29.0925 141.14 25.6388 144.336 25.6388C145.32 25.6388 147 25.5575 147 24.7449C147 23.7291 145.688 23.6072 144.828 23.6072ZM79.4626 28.93C76.6759 38.5598 71.8811 39.9413 69.2583 38.2347C66.8814 36.6907 66.1847 32.6682 71.5532 28.6049C73.1515 27.386 74.4629 26.5327 75.5284 26.0045C77.4545 25.0293 78.9299 24.4605 79.5446 24.8668C80.5281 25.395 79.4626 28.93 79.4626 28.93ZM74.6678 17.4311C71.1024 12.0271 71.8811 9.0203 73.1105 7.43565C73.9301 6.37921 75.1596 5.81036 76.5529 7.02933C77.8643 8.16702 79.2577 10.3205 79.7495 12.8397C81.1429 19.5846 80.4462 26.1264 74.6678 17.4311ZM89.0522 19.0564C89.3391 18.3657 89.9948 17.553 90.7325 17.1467C91.839 16.5779 94.1339 16.8623 93.1094 18.8533C92.3717 20.316 89.9538 20.8036 89.7079 20.8442C89.0113 20.9661 88.3965 20.6817 89.0522 19.0564ZM139.09 23.2009C138.763 23.5666 138.353 23.079 137.369 22.9165C135.279 22.5101 134.009 23.9323 135.074 21.6569C135.402 20.9661 136.222 19.2189 136.673 18.4469C137.123 17.6749 138.148 16.7404 138.886 19.2189C139.582 21.4131 139.459 22.7946 139.09 23.2009Z" fill="black"/>
<path d="M23.8917 8.24774C23.0311 0.974604 14.2611 -0.569414 9.67121 0.812076C8.23687 1.2184 8.8106 -0.406885 7.37626 0.0806992C7.37626 0.0806992 6.47467 0.324491 6.8435 1.54345C6.8435 1.54345 7.04841 2.1123 6.47467 2.72178C5.81897 3.45316 -1.02491 10.1981 0.122562 19.9498C1.43396 31.2861 9.50729 30.5141 11.9252 26.2071C14.0972 22.3064 11.8432 17.2274 14.6709 16.7805C14.7119 16.7398 24.7933 15.7647 23.8917 8.24774ZM9.42532 23.8505C8.27785 28.1574 3.48303 26.1665 2.86831 20.7624C2.29457 15.8459 3.27812 12.1891 5.32719 8.97912C7.37626 5.72855 8.11392 8.65406 8.11392 8.65406C8.11392 8.65406 10.5728 19.5435 9.42532 23.8505ZM14.0972 14.3425C12.4989 14.8708 12.253 14.2613 11.8432 12.1484C10.7777 6.50056 11.2285 8.97912 10.9007 7.06941C10.6138 5.36287 10.163 2.84368 12.5399 2.59989C15.4496 2.31546 19.9165 3.3719 20.3673 6.94752C20.7362 9.87302 16.72 13.4893 14.0972 14.3425Z" fill="black"/>
<path d="M60.0789 25.5169C59.3002 25.7607 58.6035 25.7607 58.0298 25.5982C57.7839 25.5169 57.62 25.3138 57.9478 25.1512C58.1937 25.0293 58.4396 24.8262 58.6035 24.6637C58.6035 24.6637 60.6936 22.9977 60.6936 20.2348C60.6936 17.4718 58.4396 14.8713 54.8742 15.3183C54.1775 15.3995 49.3827 16.1309 49.7925 21.7788C49.7925 21.7788 49.8745 23.1196 50.6122 24.5418C51.1449 25.5576 50.4482 25.8014 49.3418 25.8014C49.3418 25.8014 47.9894 25.9232 48.1123 25.0293C48.1943 24.1354 48.3172 16.6998 39.8751 16.6998C33.1951 16.6998 31.0641 24.5824 26.7201 25.4763C25.3267 25.7607 24.7939 25.1512 25.3267 24.7855C26.4332 24.0948 29.2199 22.5102 29.138 19.0564C29.097 17.0655 27.6217 14.7088 23.8104 15.1558C19.9172 15.6027 18.2369 18.4063 18.5238 22.1038C18.6058 23.3634 18.5648 23.4447 17.8681 23.3634C16.9255 23.2415 15.2453 22.5914 15.0814 23.526C14.9174 24.5418 16.8846 24.9887 18.6467 25.395C19.4254 25.5576 19.4664 25.5576 19.9991 26.2077C21.7203 28.4424 25.6136 30.5553 32.0067 25.4357C32.0476 25.395 32.1706 25.3544 32.0886 25.5169C31.8018 26.4921 30.6953 32.1806 31.5149 36.1219C31.5149 36.1219 32.4165 40.6321 35.572 40.6321C38.6866 40.6321 40.9816 35.7562 39.6292 28.8488C39.6292 28.8488 39.6292 28.6862 39.7111 28.8081C39.8341 28.93 39.7521 28.9707 40.9816 29.0519C41.6782 29.0925 46.1862 29.3363 49.3418 28.93C51.9236 28.605 52.2104 27.6704 54.2595 28.1174C56.4725 28.605 58.5216 28.8081 60.3247 28.4424C62.2509 28.0767 64.136 27.0609 64.2999 25.2731C64.5458 22.7133 61.6771 25.0293 60.0789 25.5169ZM22.0892 22.0226C22.0892 22.0226 21.2696 17.3905 24.1382 17.4718C27.2528 17.5124 22.6629 26.167 22.0892 22.0226ZM35.4081 37.4627C33.1541 37.4627 33.2771 27.4266 35.654 27.0609C37.1293 26.8172 37.1703 32.3431 37.1703 32.3431C37.1703 32.3431 37.6621 37.4627 35.4081 37.4627ZM41.1865 25.9639C39.2604 26.0045 38.5637 23.9323 38.5637 23.9323C38.5637 23.9323 37.0474 19.5034 40.2849 19.7065C43.5224 19.9503 46.678 25.8826 41.1865 25.9639ZM57.2921 21.4537C56.7184 22.8352 55.6119 23.6885 55.284 23.8104C54.9562 23.9323 53.7268 24.7043 53.7268 20.7223C53.7268 16.6998 59.3412 16.4966 57.2921 21.4537Z" fill="black"/>
<path d="M48.7267 52.6998V53.9188H44.8335V47.824H46.2678V52.6998H48.7267Z" fill="black"/>
<path d="M54.5873 53.0655C54.1365 52.4154 53.9316 51.6434 53.9316 50.8713C53.9316 49.2461 54.7513 47.7427 56.5544 47.7427C57.3741 47.7427 58.0298 48.0271 58.5215 48.6772C58.9723 49.2867 59.1772 50.14 59.1772 50.8713C59.1772 51.5621 58.9723 52.4154 58.6035 52.9842C58.1117 53.675 57.4151 54 56.5544 54C55.7348 54 55.0791 53.7156 54.5873 53.0655ZM55.6529 49.5711C55.5299 49.9368 55.4479 50.465 55.4479 50.8307C55.4479 51.6027 55.5709 52.8217 56.5954 52.8217C57.0872 52.8217 57.3741 52.5779 57.538 52.1309C57.7019 51.7652 57.7429 51.237 57.7429 50.8307C57.7429 50.3838 57.7019 49.8555 57.538 49.4492C57.3741 49.0429 57.0872 48.8397 56.6364 48.8397C56.0627 48.8804 55.8168 49.1242 55.6529 49.5711Z" fill="black"/>
<path d="M69.7094 53.9188H68.48L66.103 49.8149V53.9188H64.9556V47.824H66.5129L68.5619 51.3996H68.6029V47.824H69.7094V53.9188Z" fill="black"/>
<path d="M77.4955 47.824C78.3971 47.824 79.1348 47.8646 79.8315 48.5147C80.4872 49.1242 80.774 49.9775 80.774 50.8714C80.774 51.684 80.5281 52.4967 79.9544 53.1061C79.3397 53.7563 78.602 53.9594 77.7004 53.9594H75.6514V47.8646H77.4955V47.824ZM77.1677 52.7811H77.6594C78.2742 52.7811 78.643 52.6592 78.9708 52.131C79.2167 51.7247 79.2987 51.2777 79.2987 50.8307C79.2987 50.3432 79.1348 49.8149 78.8479 49.4493C78.5201 49.0023 78.1512 48.9617 77.6185 48.9617H77.1267V52.7811H77.1677Z" fill="black"/>
<path d="M86.9213 53.0655C86.4705 52.4154 86.2656 51.6434 86.2656 50.8713C86.2656 49.2461 87.0853 47.7427 88.8884 47.7427C89.7081 47.7427 90.3638 48.0271 90.8555 48.6772C91.3063 49.2867 91.5112 50.14 91.5112 50.8713C91.5112 51.5621 91.3063 52.4154 90.9375 52.9842C90.4457 53.675 89.749 54 88.8884 54C88.0688 54 87.4131 53.7156 86.9213 53.0655ZM87.9868 49.5711C87.8229 49.9368 87.7819 50.465 87.7819 50.8307C87.7819 51.6027 87.9049 52.8217 88.9294 52.8217C89.4212 52.8217 89.7081 52.5779 89.872 52.1309C89.9949 51.7652 90.0769 51.237 90.0769 50.8307C90.0769 50.3838 90.0359 49.8555 89.872 49.4492C89.7081 49.0429 89.4212 48.8397 88.9704 48.8397C88.3967 48.8804 88.1508 49.1242 87.9868 49.5711Z" fill="black"/>
<path d="M102.043 53.9188H100.814L98.437 49.8149H98.3961V53.9188H97.2896V47.824H98.8468L100.896 51.3996H100.937V47.824H102.043V53.9188Z" fill="black"/>
</g>
<defs>
<clipPath id="clip0_54_886">
<rect width="147" height="54" fill="white"/>
</clipPath>
</defs>
</svg>
