<svg width="121" height="65" viewBox="0 0 121 65" fill="none" xmlns="http://www.w3.org/2000/svg">
<g clip-path="url(#clip0_54_920)">
<path fill-rule="evenodd" clip-rule="evenodd" d="M39.0988 46.314L40.0607 48.8396C40.0607 48.8396 40.1294 48.9591 39.9233 48.9762H38.1713C38.1713 48.9762 38.0167 48.9932 38.137 48.8226L39.0988 46.314ZM40.868 43.6861C40.679 43.2424 40.1809 43.413 40.0951 43.4472C39.1332 43.7714 38.8755 43.8396 38.6866 43.925C38.2572 44.1468 38.6179 44.5734 38.5664 44.983C38.5664 45.2048 35.3716 52.355 35.3716 52.355C34.9078 53.4301 34.6846 54.198 33.4994 54.4028C33.3448 54.4369 33.3276 54.6246 33.4822 54.6246C33.8944 54.6246 36.7629 54.6417 37.2095 54.6246C37.553 54.6246 37.3812 54.3686 37.2266 54.3345C36.1617 54.1468 36.4193 53.7714 36.4537 53.2082C36.4709 52.9181 36.6255 52.4915 36.7285 52.1843C36.7285 52.1843 37.1923 51.1263 37.4327 50.4267C37.6389 49.8294 38.0167 49.9489 38.0167 49.9489H39.9405C39.9405 49.9489 40.2496 49.7099 40.5245 50.3584C40.7306 50.8533 41.5035 52.8328 41.5035 53.2424C41.5035 53.8396 41.5894 54.0273 40.7649 54.3345C40.6103 54.3857 40.4386 54.6075 40.8852 54.6075H45.4025C45.6773 54.6075 45.8662 54.2833 45.3681 54.2492C44.5093 54.2321 44.4063 53.6519 44.2345 53.1741C44.2517 53.157 40.9539 43.9079 40.868 43.6861Z" fill="#3F2E54"/>
<path fill-rule="evenodd" clip-rule="evenodd" d="M54.3171 44.8975C54.3858 44.6928 54.4029 44.5562 54.9869 44.4368C56.9278 44.0784 57.2542 45.4265 57.3057 46.4504C57.3572 47.2866 57.0481 48.5323 55.4335 48.8054C55.1072 48.8566 54.3686 48.8566 54.2999 48.1057L54.3171 44.8975ZM58.8172 48.976C59.5214 48.4641 59.9165 47.6279 59.968 46.6381C60.0711 44.3344 57.6664 43.43 55.5194 43.3788C54.6434 43.3617 54.2484 43.5153 52.9601 43.5494C51.7234 43.5835 50.2806 43.447 49.9199 43.6859C49.7654 43.7883 49.9715 43.9931 50.1604 44.0102C51.1051 44.1296 51.3628 44.2491 51.3628 45.7849V52.2695C51.3971 53.8224 51.0021 54.1808 50.2463 54.2832C50.0574 54.3173 49.8684 54.488 50.0745 54.6074H54.9354H55.1072C55.485 54.505 55.2617 54.3003 54.9526 54.2832C54.2484 54.1808 54.1453 53.8566 54.1453 52.4914V50.5972C54.1453 50.3242 54.1453 50.034 54.214 49.8975C54.3171 49.6757 54.7293 49.7781 54.8152 49.9146C55.3992 50.8702 58.1989 54.6245 58.9718 54.6245H62.3555C62.4929 54.6245 62.5616 54.4709 62.4242 54.4197C59.9337 53.4982 58.3878 50.7337 57.8725 49.8975C57.7179 49.6586 57.8554 49.4027 58.8172 48.976Z" fill="#3F2E54"/>
<path fill-rule="evenodd" clip-rule="evenodd" d="M70.9088 44.8975C70.9776 44.6928 70.9947 44.5562 71.5787 44.4368C73.5196 44.0784 73.846 45.4265 73.8975 46.4504C73.949 47.2866 73.657 48.5323 72.0253 48.8054C71.6989 48.8566 70.9604 48.8566 70.9088 48.1057V44.8975ZM75.409 48.976C76.1132 48.4641 76.5083 47.6279 76.5598 46.6381C76.6629 44.3344 74.2582 43.43 72.1112 43.3788C71.2352 43.3617 70.8401 43.5153 69.5519 43.5494C68.3152 43.5835 66.8724 43.447 66.5117 43.6859C66.3572 43.7883 66.5633 43.9931 66.7522 44.0102C67.6969 44.1296 67.9545 44.2491 67.9545 45.7849V52.2695C68.0061 53.8224 67.5938 54.1808 66.8381 54.2832C66.6492 54.3173 66.4602 54.488 66.6663 54.6074H71.5444H71.7161C72.094 54.505 71.8707 54.3003 71.5615 54.2832C70.8573 54.1808 70.7714 53.8566 70.7543 52.4914V50.5972C70.7543 50.3242 70.7543 50.034 70.823 49.8975C70.926 49.6757 71.3382 49.7781 71.4241 49.9146C72.0081 50.8702 74.8078 54.6245 75.5808 54.6245H78.9645C79.1019 54.6245 79.1706 54.4709 79.0332 54.4197C76.5426 53.4982 74.9968 50.7337 74.4815 49.8975C74.3097 49.6586 74.4471 49.4027 75.409 48.976Z" fill="#3F2E54"/>
<path fill-rule="evenodd" clip-rule="evenodd" d="M10.9298 47.355C10.9298 47.355 11.1187 47.3038 10.8267 44.6929C10.7924 44.3174 10.947 43.7372 10.4489 43.6007C10.0195 43.4813 9.28088 43.2765 6.97927 43.1229C3.08028 42.8499 0.160323 45.2219 0.143146 48.8055C0.12597 52.5256 2.87416 54.5563 6.18917 54.5905C9.86487 54.6417 11.8745 51.7577 11.9088 51.4164C11.926 51.3311 11.7886 51.1604 11.7199 51.2116C11.1703 51.57 10.0882 53.413 7.20256 53.0888C3.93908 52.7133 3.21768 50.9386 3.08028 48.413C3.01157 47.0137 4.26543 44.1639 6.97927 44.1809C7.7522 44.1809 9.81334 43.7202 10.466 46.9966C10.5691 47.4915 10.7924 47.4574 10.9298 47.355Z" fill="#3F2E54"/>
<path fill-rule="evenodd" clip-rule="evenodd" d="M87.4842 49.3174V52.5427C87.467 53.4983 87.5357 54.1809 88.3774 54.2662C88.9098 54.3174 88.6522 54.6075 88.4632 54.6075C87.948 54.6075 83.8257 54.6075 83.5852 54.6075C83.4306 54.6075 83.3619 54.3003 83.7398 54.2662C84.1177 54.2492 84.7188 54.0102 84.6845 52.5256V45.9215C84.6845 43.7713 84.1692 44.0102 83.5337 43.7884C83.2932 43.7031 83.3447 43.4983 83.6367 43.4983C84.049 43.4983 88.2056 43.4983 88.5319 43.4983C88.9098 43.4983 88.8411 43.7884 88.4289 43.8396C87.3296 43.942 87.5014 45 87.4842 45.9386V49.3174Z" fill="#3F2E54"/>
<path fill-rule="evenodd" clip-rule="evenodd" d="M99.6618 43.2081C95.969 43.2081 93.0318 45.7167 92.9803 48.9248C92.9116 52.3037 95.6083 54.6586 99.6618 54.7951C103.801 54.6586 106.412 52.3549 106.343 48.9248C106.292 45.7337 103.355 43.2081 99.6618 43.2081ZM99.6618 53.8907C96.9652 53.8907 95.7628 51.3992 95.7628 48.9419C95.7628 46.7917 96.4327 44.215 99.6618 44.1296C102.874 44.215 103.561 46.7917 103.561 48.9419C103.561 51.3992 102.359 53.8907 99.6618 53.8907Z" fill="#3F2E54"/>
<path fill-rule="evenodd" clip-rule="evenodd" d="M114.399 52.2013V45.9215C114.416 44.5904 114.399 43.9761 115.344 43.8225C115.773 43.7542 115.704 43.4812 115.344 43.4812C115.138 43.4812 110.637 43.4812 110.637 43.4812C110.637 43.4812 110.431 43.5495 110.569 43.7372C110.74 43.9931 111.874 43.4812 111.771 45.9215V52.5256C111.771 53.9249 111.428 54.1638 110.706 54.2662C110.5 54.3003 110.431 54.5904 110.689 54.5904C110.844 54.5904 119.122 54.5904 119.122 54.5904C119.191 54.5904 119.518 54.5904 119.689 54.3856C120.033 53.9249 120.686 51.7747 120.84 51.314C120.977 50.9215 120.497 51.2286 120.497 51.2286C119.054 52.9522 118.607 53.3106 116.632 53.5495C114.124 53.8737 114.399 53.157 114.399 52.2013Z" fill="#3F2E54"/>
<path fill-rule="evenodd" clip-rule="evenodd" d="M16.804 54.1467C16.6838 54.1637 16.5636 54.2491 16.4262 54.2661C16.0655 54.3003 16.0311 54.6074 16.409 54.6074C16.6838 54.6074 16.804 54.6074 16.804 54.6074C18.1609 54.6074 20.9091 54.6074 21.287 54.6074C21.5618 54.6074 21.5275 54.3003 20.9435 54.2149C20.308 54.1296 20.1534 53.2422 20.1877 52.5426V49.6245C20.1877 49.6245 20.119 49.1808 20.8404 49.0784C20.9091 49.0614 21.6477 49.0614 22.6096 49.0784C23.5715 49.0784 24.5161 49.0784 24.5848 49.0784C25.3062 49.1808 25.2375 49.6245 25.2375 49.6245V52.5426C25.186 53.6859 25.2032 54.0955 24.3444 54.2491C23.8291 54.3515 24.018 54.6074 24.2585 54.6074C24.7738 54.6074 28.8445 54.6074 29.085 54.6074C29.2396 54.6074 29.6003 54.3515 28.7243 54.1979C28.501 54.1637 28.0888 53.9248 28.0888 52.5426V45.9044C27.9342 43.4641 29.1881 43.9249 29.2911 43.7201C29.4114 43.4641 29.2224 43.4641 29.1022 43.4641C27.9342 43.4641 24.7051 43.4812 24.1898 43.4641C23.8463 43.4641 23.915 43.7542 24.1383 43.7713C25.4952 43.8566 25.186 45.0682 25.2547 45.9044V47.5938C25.2547 47.5938 25.1688 47.9351 24.8597 47.901C24.8253 47.901 23.6402 47.901 22.5752 47.901C21.5103 47.901 20.6687 47.901 20.6171 47.901C20.308 47.9351 20.2221 47.5938 20.2221 47.5938V45.9044C20.1877 44.5733 20.3767 43.8395 21.2011 43.7883C21.6821 43.7201 21.5447 43.4641 21.0637 43.4641C19.5007 43.4641 17.0617 43.4641 17.0617 43.4641H16.409C16.0139 43.4641 15.9967 43.703 16.6666 43.8395C16.8727 43.8907 17.5254 43.9419 17.4224 45.9214V52.5426C17.388 53.4982 17.3021 53.8566 16.804 54.1467Z" fill="#3F2E54"/>
<path fill-rule="evenodd" clip-rule="evenodd" d="M69.1227 15.6485C69.1055 15.6143 69.054 15.6143 69.0025 15.6143C68.2811 15.6997 68.0406 16.0068 67.6971 16.4676L67.3879 16.8601C66.7868 17.5597 66.6322 17.6792 66.031 17.901C65.9623 17.9352 65.9108 17.9863 65.8936 18.0375C65.8764 18.1058 65.8764 18.2253 66.031 18.3959C66.323 18.7543 66.1684 19.8635 66.1684 19.8635L66.1341 20.1365C66.0138 20.5973 65.8077 21.058 65.155 21.7577C63.5061 23.5495 60.7407 23.2253 60.7064 23.2253L59.6415 22.9863C56.6185 21.9283 55.7081 19.0785 54.815 15.4607C54.815 15.4437 54.6947 14.8635 54.4027 14.8293C53.1317 14.6758 52.3759 13.4983 52.4275 12.7474C52.479 11.6894 53.1489 11.2799 53.5783 11.0068C53.8531 10.8362 54.334 10.7167 54.3512 10.7167C54.5917 10.5973 54.6089 10.4607 54.626 10.256C54.9352 8.00341 55.5192 6.2116 56.4124 4.74403C57.3742 3.15699 59.2464 1.5529 61.6339 1.75768C64.0557 1.97952 65.344 4.57338 65.5329 5.20478C65.7218 5.87031 65.7047 6.94539 65.5844 7.37201C65.5157 7.62798 65.636 7.66211 65.7562 7.69624L65.8592 7.74744L67.783 8.95904C68.0063 9.0785 68.178 9.0785 68.2811 8.99317C68.3841 8.92491 68.4185 8.77133 68.367 8.58362C67.5253 4.84641 67.9891 3.87372 68.2124 3.3959L68.2983 3.15699C68.3154 3.1058 68.3154 3.03754 68.2639 2.96928C68.2124 2.90102 68.075 2.88396 67.886 2.91809L67.8173 2.93515C67.491 2.98635 66.615 3.12287 65.8249 2.32082C63.6092 0.0170634 61.3591 -0.0170664 60.9469 -1.59373e-06C58.8857 0.0853226 56.9963 1.04095 55.502 2.79863C53.5096 5.10239 52.187 8.05461 51.3969 9.81228L50.8473 11.0068L50.7099 11.2799C50.5209 11.6894 50.2633 12.2355 49.851 12.5939C49.7136 12.7133 49.6621 12.8157 49.6621 12.9181C49.6621 13.0205 49.7308 13.0887 49.7308 13.0887L49.7823 13.1399C50.4866 13.9249 50.6927 14.1809 51.1393 15.1024L51.6545 16.3652C52.2214 17.7986 52.9943 19.7782 54.0249 21.1263C55.1585 22.6109 56.6872 23.7372 58.6109 24.5222C59.8819 25.0512 62.1148 25.2048 63.4031 24.6246C64.8459 23.9761 65.5501 23.0375 66.0654 22.372L66.3058 22.0648C66.8383 21.4164 67.6112 21.2799 67.8002 21.4164C67.8689 21.4676 67.9376 21.4846 67.9891 21.5017C68.1437 21.587 68.2639 21.6041 68.367 21.6041C68.4185 21.6212 68.4529 21.6212 68.5044 21.6041L68.5731 21.5529C68.5903 21.5358 68.6246 21.5188 68.6418 21.5188L68.7105 21.4676C68.3154 19.0956 68.7792 17.3549 69.0197 16.4334C69.1399 15.9898 69.2086 15.7338 69.1227 15.6485Z" fill="#3F2E54"/>
<path fill-rule="evenodd" clip-rule="evenodd" d="M63.5403 11.0069L63.4716 10.9728L63.3342 10.9045L63.2655 10.8874C62.63 10.5803 61.9258 10.1024 60.9467 8.70313C61.3418 8.12293 61.5479 7.71337 61.5651 7.6963C61.8055 7.20142 61.9258 6.75774 62.0288 6.43351C62.1319 6.09221 62.1834 5.87037 62.3208 5.8533C62.5098 5.83624 62.9048 6.07514 62.922 6.07514C62.922 6.07514 62.9907 6.09221 63.0251 6.05808C63.0594 6.04101 63.0594 5.98982 63.0594 5.93863C62.9564 5.30723 62.4239 3.89084 62.4067 3.87378C62.3724 3.87378 61.8399 4.16388 61.359 4.89767C61.359 4.91473 61.3418 4.9318 61.3418 4.94886C61.3418 5.08538 61.651 5.35842 61.7197 5.42668C61.7197 5.42668 61.7197 5.42668 61.7197 5.44374C61.7197 5.49494 61.7368 5.69972 61.7368 5.69972C61.7368 5.92156 61.4792 7.1161 60.7063 8.3277C59.7787 6.91132 59.5726 5.81917 59.6413 5.59733C59.6929 5.54613 60.002 5.2731 60.002 5.13658L59.9677 5.08538L59.71 4.79528C59.5726 4.5905 59.3837 4.33453 58.9886 4.09562H58.9715H58.9371C58.7997 4.14682 58.6451 4.86354 58.4905 5.63146L58.4734 5.75091C58.4046 6.10927 58.4218 6.17753 58.4562 6.21166L58.4734 6.22873H58.5421L58.6623 6.17753C58.8169 6.09221 59.126 5.92156 59.2463 5.98982C59.2635 6.00688 59.2806 6.02395 59.2978 6.05808C59.3837 6.46764 59.7787 7.73043 60.4486 8.80552C59.4696 10.1536 58.5764 10.8021 58.5592 10.8192L58.0955 11.1946C58.0783 11.2117 58.0439 11.2458 58.0439 11.2629V11.2799C58.0955 11.3652 58.5249 11.2629 58.6623 11.2287C58.8512 11.1775 58.9543 11.0751 59.1776 10.8362L59.5211 10.4949C59.9677 10.0683 60.3627 9.60757 60.6719 9.18095C60.6719 9.18095 60.6719 9.18095 60.6719 9.19801C61.3933 10.1707 62.5613 11.1605 62.9564 11.2458C63.1453 11.2799 63.5232 11.297 63.5575 11.1605V11.1434L63.5403 11.0069ZM59.5898 5.58026C59.5898 5.63146 59.5898 5.68265 59.5898 5.75091C59.5898 5.66559 59.5898 5.61439 59.5898 5.58026ZM59.5898 5.75091C59.5898 5.76798 59.5898 5.76798 59.5898 5.78504C59.5898 5.76798 59.5898 5.75091 59.5898 5.75091ZM62.3895 3.90791C62.3724 3.90791 62.3724 3.90791 62.3895 3.90791C62.3724 3.89084 62.3724 3.89084 62.3895 3.90791C62.3895 3.90791 62.3724 3.89084 62.3895 3.90791Z" fill="#3F2E54"/>
<path fill-rule="evenodd" clip-rule="evenodd" d="M62.699 17.355L62.5444 16.9455C62.3727 16.4506 62.2181 16.024 61.3593 14.8465C61.1531 14.5735 61.1531 14.4369 61.1703 14.3857C61.2047 14.3004 61.3421 14.3175 61.4108 14.3175C61.6856 14.3175 62.115 14.3004 62.1665 14.181C62.1837 14.1468 62.1665 14.1127 62.1494 14.0786L61.7543 13.6861L61.3936 13.3277L61.2562 13.14C61.1188 12.9182 60.9127 12.6281 60.7066 12.6451C60.5863 12.6622 60.4317 12.9011 60.3115 13.1059L60.1398 13.3619L59.2809 14.0615C59.2466 14.0956 59.2466 14.1298 59.2638 14.1639C59.3153 14.2834 59.7447 14.3004 59.9852 14.3004C60.071 14.3004 60.2085 14.3004 60.2428 14.3687C60.2772 14.4199 60.26 14.5564 60.0539 14.8294C59.1951 16.0069 59.0405 16.4335 58.8687 16.9284L58.7141 17.338C58.0099 19.0786 58.113 20.6315 58.3363 21.024C58.3706 21.0752 58.3878 21.1093 58.4221 21.1093C58.6282 21.1605 58.7657 21.1434 58.8515 21.0581C58.9374 20.9898 58.9718 20.8704 58.9546 20.7168L58.8859 20.1366L58.8344 18.9762C58.8344 18.8226 58.8515 18.4131 58.9718 18.3448C59.0061 18.3277 59.0405 18.3448 59.0748 18.3789C59.2638 18.5154 59.4527 18.5837 59.5729 18.5325C59.6245 18.5154 59.6416 18.4642 59.6416 18.4131V18.2765C59.6416 18.1741 59.6245 18.0376 59.6245 17.867C59.6245 17.3892 59.676 16.6724 60.0195 15.7339C60.1569 15.3584 60.5348 14.71 60.7237 14.6758C60.7409 14.6758 60.9986 14.8124 61.428 15.7339C61.7715 16.5018 61.8574 17.1503 61.8574 17.6281C61.8574 17.9011 61.8402 18.1059 61.823 18.2424L61.8058 18.4131C61.8058 18.4642 61.823 18.4984 61.8745 18.5325C61.9776 18.5837 62.1665 18.5325 62.3727 18.3789C62.4242 18.3448 62.4585 18.3448 62.4929 18.3448C62.6131 18.4131 62.6303 18.8226 62.6303 18.9762L62.5788 20.1366L62.5101 20.7168C62.4929 20.8875 62.5272 20.9898 62.6131 21.0581C62.699 21.1264 62.8364 21.1434 63.0425 21.1093C63.0769 21.1093 63.1112 21.0752 63.1284 21.024C63.3002 20.6315 63.4032 19.0956 62.699 17.355Z" fill="#3F2E54"/>
<path d="M46.8108 59.8805C46.8108 59.0273 46.6391 58.8567 45.7803 58.7713V58.5495C46.141 58.5836 46.6391 58.6007 47.2403 58.6007C47.8414 58.6007 48.4598 58.4983 49.0953 58.4983C50.3148 58.4983 51.4484 59.0956 51.4484 60.3925C51.4484 61.5358 50.4178 62.0648 49.3701 62.0648C48.9407 62.0648 48.5113 62.0137 48.1162 61.8601V63.5324C48.1162 64.3857 48.1849 64.5904 49.1812 64.6587V64.8464C48.6315 64.8294 48.0819 64.8123 47.5322 64.8123C46.9483 64.8123 46.3643 64.8294 45.7974 64.8464V64.6587C46.7421 64.5904 46.828 64.3857 46.828 63.5324V59.8805H46.8108ZM48.0991 61.57C48.3052 61.6553 48.5972 61.7406 48.8376 61.7406C49.7136 61.7406 50.1602 61.1433 50.1602 60.3072C50.1602 59.4881 49.8167 58.8567 48.9235 58.8567C48.6315 58.8567 48.3739 58.9078 48.0991 59.0102V61.57Z" fill="#3F2E54"/>
<path d="M51.1562 64.6246C51.8776 64.5563 52.0494 64.1809 52.3071 63.5836L54.1964 59.215L54.0247 58.7543C54.4369 58.686 54.8491 58.5665 55.2098 58.413L57.3053 64.0444C57.4599 64.4539 57.9065 64.6246 58.3015 64.6246V64.8464C57.8034 64.8123 57.0477 64.8123 56.5667 64.8123C56.0343 64.8123 55.4846 64.8293 54.9522 64.8464V64.6246C55.6221 64.5734 55.9312 64.4198 55.9312 64.0956C55.9312 63.8567 55.7079 63.3618 55.6221 63.0887L55.2957 62.1502H53.3892L52.891 63.4983C52.8395 63.6689 52.7365 63.8225 52.7365 64.0785C52.7365 64.3857 53.2346 64.5904 53.5781 64.6416V64.8635C53.1659 64.8293 52.7536 64.8293 52.3414 64.8293C51.9635 64.8293 51.5685 64.8464 51.1906 64.8635V64.6246H51.1562ZM55.1239 61.7747L54.3338 59.5392H54.3167L53.475 61.7747H55.1239Z" fill="#3F2E54"/>
<path d="M58.353 58.5666C58.8168 58.5837 59.2634 58.6008 59.8302 58.6008C60.5172 58.6008 61.2043 58.5496 61.96 58.5496C63.2826 58.5496 64.1242 59.3687 64.1242 60.4096C64.1242 61.297 63.5059 61.7578 62.6986 61.9455C63.2482 62.8158 64.3303 64.5052 65.4811 64.6929V64.8636C65.1204 64.8465 64.7597 64.8294 64.399 64.8294C64.0899 64.8294 63.7464 64.8465 63.4372 64.8636C62.6471 64.0103 61.9429 63.0717 61.376 62.0649C61.1527 62.0308 60.8264 61.9967 60.689 61.8943V63.5496C60.689 64.4028 60.7577 64.5564 61.668 64.6417V64.8636C61.2215 64.8465 60.6718 64.8294 60.1222 64.8294C59.5382 64.8294 58.9542 64.8465 58.3874 64.8636V64.6417C59.3321 64.5734 59.418 64.4199 59.418 63.5496V59.8977C59.418 59.1298 59.3492 58.8397 58.3874 58.7714V58.5666H58.353ZM60.6718 61.5018C60.8779 61.6042 61.084 61.6383 61.3245 61.6383C62.1661 61.6383 62.733 61.1434 62.733 60.256C62.733 59.4881 62.2177 58.8738 61.4276 58.8738C61.1699 58.8738 60.9295 58.8909 60.6718 58.9762V61.5018Z" fill="#3F2E54"/>
<path d="M65.3439 58.5496C65.9279 58.5837 66.5119 58.6008 67.0959 58.6008C67.6455 58.6008 68.1952 58.5666 68.762 58.5496V58.7714C67.8688 58.8055 67.6627 59.0615 67.6627 59.8294V63.8738C67.6627 64.3687 67.9547 64.5735 68.7276 64.6246L68.7104 64.8465C68.1608 64.8124 67.594 64.8124 67.0444 64.8124C66.4604 64.8124 65.8936 64.8294 65.3096 64.8465V64.6246C66.0825 64.5905 66.3745 64.3687 66.3745 63.8738V59.8294C66.3745 59.0786 66.1512 58.8055 65.3439 58.7714V58.5496Z" fill="#3F2E54"/>
<path d="M73.8634 60.4437C73.5886 59.5051 72.6782 58.7543 71.7507 58.7543C71.1667 58.7543 70.7201 59.0615 70.7201 59.6587C70.7201 61.041 74.4302 60.8703 74.4302 63.2082C74.4302 64.3004 73.537 65.0171 72.1458 65.0171C71.4931 65.0171 70.8747 64.7441 70.2392 64.7441C70.1361 64.7441 69.8613 64.8123 69.7582 64.8635C69.6552 64.1639 69.5521 63.413 69.3804 62.6792H69.5865C69.8613 63.6349 70.9606 64.5905 71.9396 64.5905C72.7813 64.5905 73.3481 64.3686 73.3481 63.6178C73.3481 62.0649 69.5865 62.2185 69.5865 60.1365C69.5865 58.9591 70.3251 58.4301 71.8022 58.4301C72.5752 58.4301 73.2279 58.7202 73.7088 58.7202H74.0523C74.0351 58.9249 74.018 59.1297 74.018 59.3174C74.018 59.6929 74.0523 60.0853 74.0867 60.4608H73.8634V60.4437Z" fill="#3F2E54"/>
<path d="M37.1575 34.6417C37.1575 33.7884 36.9858 33.6178 36.127 33.5324V33.3106C36.4877 33.3447 36.9858 33.3618 37.5869 33.3618C38.1881 33.3618 38.8064 33.2594 39.442 33.2594C40.6615 33.2594 41.7951 33.8567 41.7951 35.1536C41.7951 36.2969 40.7645 36.826 39.7168 36.826C39.2874 36.826 38.858 36.7748 38.4629 36.6212V38.2935C38.4629 39.1468 38.5316 39.3515 39.5278 39.4198V39.6075C38.9782 39.5905 38.4286 39.5734 37.8789 39.5734C37.2949 39.5734 36.7109 39.5905 36.1441 39.6075V39.4198C37.0888 39.3515 37.1747 39.1468 37.1747 38.2935V34.6417H37.1575ZM38.4457 36.3311C38.6518 36.4164 38.9438 36.5017 39.1843 36.5017C40.0603 36.5017 40.5069 35.9045 40.5069 35.0683C40.5069 34.2492 40.1634 33.6178 39.2702 33.6178C38.9782 33.6178 38.7206 33.669 38.4457 33.7713V36.3311Z" fill="#3F2E54"/>
<path d="M41.5029 39.3857C42.2243 39.3174 42.3961 38.942 42.6537 38.3447L44.5431 33.9761L44.3714 33.5154C44.7836 33.4471 45.1958 33.3277 45.5565 33.1741L47.652 38.8055C47.8066 39.215 48.2532 39.3857 48.6482 39.3857V39.6075C48.1501 39.5734 47.3944 39.5734 46.9134 39.5734C46.381 39.5734 45.8313 39.5905 45.2989 39.6075V39.3857C45.9687 39.3345 46.2779 39.1809 46.2779 38.8567C46.2779 38.6178 46.0546 38.1229 45.9687 37.8498L45.6424 36.9113H43.7358L43.2377 38.2594C43.1862 38.43 43.0831 38.5836 43.0831 38.8396C43.0831 39.1468 43.5813 39.3515 43.9248 39.4027V39.6246C43.5125 39.5905 43.1003 39.5905 42.6881 39.5905C42.3102 39.5905 41.9152 39.6075 41.5373 39.6246V39.3857H41.5029ZM45.4706 36.5358L44.6805 34.3004H44.6634L43.8217 36.5358H45.4706Z" fill="#3F2E54"/>
<path d="M48.6997 33.3276C49.1635 33.3447 49.61 33.3617 50.1769 33.3617C50.8639 33.3617 51.551 33.3105 52.3067 33.3105C53.6293 33.3105 54.4709 34.1297 54.4709 35.1706C54.4709 36.058 53.8526 36.5187 53.0453 36.7065C53.5949 37.5768 54.677 39.2662 55.8278 39.4539V39.6245C55.4671 39.6075 55.1064 39.5904 54.7457 39.5904C54.4366 39.5904 54.093 39.6075 53.7839 39.6245C52.9938 38.7713 52.2895 37.8327 51.7227 36.8259C51.4994 36.7918 51.1731 36.7576 51.0357 36.6553V38.3105C51.0357 39.1638 51.1044 39.3174 52.0147 39.4027V39.6245C51.5681 39.6075 51.0185 39.5904 50.4689 39.5904C49.8849 39.5904 49.3009 39.6075 48.7341 39.6245V39.4027C49.6787 39.3344 49.7646 39.1809 49.7646 38.3105V34.6757C49.7646 33.9078 49.6959 33.6177 48.7341 33.5495V33.3276H48.6997ZM51.0185 36.2628C51.2246 36.3652 51.4307 36.3993 51.6712 36.3993C52.5128 36.3993 53.0796 35.9044 53.0796 35.017C53.0796 34.2491 52.5643 33.6348 51.7742 33.6348C51.5166 33.6348 51.2761 33.6518 51.0185 33.7372V36.2628Z" fill="#3F2E54"/>
<path d="M58.0095 35.9897H58.5076C59.1775 35.9897 59.8302 35.6825 60.0363 34.7952H60.2253C60.2081 35.2388 60.1909 35.6996 60.1909 36.1603C60.1909 36.6211 60.2253 37.0648 60.2253 37.5255H60.0363C59.8302 36.587 59.4523 36.2798 58.5076 36.2798H58.0095V38.4812C58.0095 39.0955 58.1641 39.3344 59.1432 39.3344V39.6074C58.542 39.5904 57.9236 39.5733 57.3225 39.5733C56.79 39.5733 56.2576 39.5904 55.7251 39.6074V39.3344C56.5667 39.3173 56.7213 39.0955 56.7213 38.4812V34.6586C56.7213 33.9419 56.5839 33.6006 55.7251 33.5665V33.2935C56.3778 33.3105 57.0477 33.3446 57.7004 33.3446C58.937 33.3446 60.1737 33.3105 61.4104 33.2935C61.3932 33.5153 61.3932 33.7542 61.3932 33.976C61.3932 34.3685 61.3932 34.761 61.4448 35.1535H61.2558C60.981 34.0784 60.3455 33.6518 59.0916 33.6518H58.0095V35.9897Z" fill="#3F2E54"/>
<path d="M61.7539 33.3105C62.3035 33.3447 62.8875 33.3617 63.4372 33.3617C64.004 33.3617 64.5708 33.3447 65.1376 33.3105L65.1033 33.5324C64.1586 33.5836 64.0727 33.7884 64.0727 34.6416V37.8157C64.0727 38.4983 64.588 39.2321 65.8762 39.2321C67.422 39.2321 67.8171 38.174 67.8171 37.4914V35.1365C67.8171 33.8737 67.5938 33.5324 66.7178 33.5324V33.3105C67.0098 33.3447 67.4736 33.3617 67.9717 33.3617C68.3667 33.3617 68.7618 33.3276 69.1397 33.3105V33.5324C68.298 33.5836 68.2293 33.7884 68.2293 34.6416V37.2525C68.2293 38.8396 67.2675 39.7611 65.6529 39.7611C63.712 39.7611 62.836 38.703 62.836 37.7815V34.6416C62.836 33.959 62.7673 33.5836 61.7539 33.5324V33.3105Z" fill="#3F2E54"/>
<path d="M73.3133 39.5562C72.9354 38.1228 72.0422 36.0409 71.2178 34.4027H71.2006C71.0804 35.4948 70.8055 36.2627 70.8055 37.9692C70.8055 38.8566 70.8742 39.2832 71.8705 39.4368V39.6245C71.4411 39.5904 71.0288 39.5904 70.6166 39.5904C70.17 39.5904 69.7234 39.6074 69.2769 39.6245V39.4197C70.0498 39.3515 70.2044 38.8395 70.3074 38.1569C70.5135 36.8088 70.651 35.4607 70.9086 34.1126C70.7025 33.7713 70.3074 33.6006 69.9296 33.5324V33.3105C70.462 33.3446 71.0117 33.3617 71.5613 33.3617C72.0251 33.3617 72.506 33.3446 72.9697 33.3105V33.5324C72.6778 33.5665 72.4029 33.6518 72.4029 33.9931C72.4029 34.2662 73.2102 35.8361 73.8286 37.4743C74.0862 37.0477 75.3057 34.1638 75.3057 33.8907C75.3057 33.6518 74.7732 33.5494 74.5671 33.5153V33.2935C75.0652 33.3276 75.5634 33.3446 76.0615 33.3446C76.6283 33.3446 77.1951 33.3276 77.7619 33.2935V33.5153C77.1607 33.5665 76.7829 33.7713 76.7829 34.4197C76.7829 34.8293 77.4356 38.5494 77.4871 38.7371C77.6589 39.232 77.8993 39.3173 78.3974 39.4027V39.5904C77.8993 39.5562 77.4184 39.5562 76.9203 39.5562C76.2676 39.5562 75.6149 39.5733 74.9622 39.5904V39.4197C75.5805 39.3003 76.1817 39.2832 76.1817 38.4982C76.1817 38.3105 75.6321 34.8976 75.4947 34.3173H75.4775C74.945 36.0921 73.9144 37.7132 73.5709 39.5392H73.3133V39.5562Z" fill="#3F2E54"/>
<path d="M83.2755 35.2048C83.0007 34.2662 82.0903 33.5154 81.1628 33.5154C80.5788 33.5154 80.1322 33.8226 80.1322 34.4198C80.1322 35.8021 83.8423 35.6314 83.8423 37.9693C83.8423 39.0615 82.9491 39.7782 81.5579 39.7782C80.9052 39.7782 80.2868 39.5051 79.6513 39.5051C79.5482 39.5051 79.2734 39.5734 79.1704 39.6246C79.0673 38.9249 78.9642 38.1741 78.7925 37.4403H78.9986C79.2734 38.3959 80.3727 39.3516 81.3517 39.3516C82.1934 39.3516 82.7602 39.1297 82.7602 38.3789C82.7602 36.826 78.9986 36.9796 78.9986 34.8976C78.9986 33.7202 79.7372 33.1912 81.2143 33.1912C81.9873 33.1912 82.64 33.4813 83.1209 33.4813H83.4644C83.4472 33.686 83.4301 33.8908 83.4301 34.0785C83.4301 34.454 83.4644 34.8464 83.4988 35.2219H83.2755V35.2048Z" fill="#3F2E54"/>
</g>
<defs>
<clipPath id="clip0_54_920">
<rect width="120.714" height="65" fill="white" transform="translate(0.143066)"/>
</clipPath>
</defs>
</svg>
