<svg width="116" height="61" viewBox="0 0 116 61" fill="none" xmlns="http://www.w3.org/2000/svg">
<g clip-path="url(#clip0_54_1038)">
<path d="M67.3415 7.83526C67.4931 7.45305 67.7584 7.14729 68.0615 6.87974C68.5163 6.57398 69.0089 6.57398 69.3879 6.57398C69.6153 6.57398 69.6532 6.34465 69.6532 6.22999H62.7182C62.6803 6.34465 62.7561 6.57398 62.8698 6.57398C63.514 6.57398 63.9688 6.57398 64.4235 6.87974C65.0299 7.37661 65.3709 8.25568 64.9162 9.09653L59.497 22.6648C59.3833 22.8559 59.1939 22.8941 59.1181 22.703L53.1684 8.21746C52.8652 7.26195 54.04 6.53576 54.5705 6.53576C54.8737 6.53576 54.9495 6.53576 55.2148 6.53576C55.4042 6.53576 55.4042 6.19177 55.4042 6.19177H46.3092C46.2713 6.34465 46.3471 6.53576 46.4608 6.53576C47.484 6.53576 48.3556 7.14729 48.9998 8.02636C52.2968 15.1354 55.1769 22.5502 58.4738 29.6592L67.3415 7.83526Z" fill="#C39558"/>
<path d="M58.0571 0.0382205L58.095 0L59.573 1.33772H61.8089V2.02569H65.6364L65.8637 1.33772L66.3564 2.02569L65.4848 4.66291H58.0571V3.97494H64.9921L65.3711 2.71366H61.2025V2.02569H59.2698L58.095 0.955514L58.0571 0.993734V0.0382205ZM50.3642 1.33772L50.5916 2.02569H54.3812V1.33772H56.6171L58.0192 0.0382205V0.993734L56.9203 2.02569H54.9876V2.71366H50.7432L51.2358 3.97494H58.0571V4.66291H50.7432L49.8716 2.02569L50.3642 1.33772Z" fill="#C39558"/>
<path d="M10.7625 60.8089L2.918 41.431C2.69062 40.8959 2.38745 40.3609 2.00849 40.0169C1.62953 39.6347 0.833714 39.1378 0 39.176V38.8703H8.29925V39.2142C7.50343 39.2142 7.04868 39.4053 6.66972 39.52C6.29075 39.6347 6.02548 40.0551 6.10127 40.5902C6.13917 40.9724 6.32865 41.4693 6.55603 41.9661L11.7099 54.2349L16.6743 42.1954C16.8638 41.6986 16.9396 41.2399 16.9396 40.8959C16.9396 39.9404 16.5227 39.176 15.0069 39.176V38.832H21.4492V39.176C20.805 39.176 20.047 39.2142 19.6302 39.5582C19.2512 39.864 18.8344 40.8959 18.4933 41.775L10.9899 60.8089H10.7625Z" fill="#C39558"/>
<path d="M22.6619 43.4568L23.344 41.8898H23.6093L30.4685 57.8277C30.7716 58.4775 31.0748 59.0508 31.3022 59.3566C31.6053 59.7388 32.5148 59.9299 33.1212 59.9299V60.4267H25.8451V59.9681C26.0346 59.9681 26.1104 59.9299 26.1862 59.9681C27.0957 59.8534 27.5504 59.433 27.5504 58.7833C27.5504 58.5157 27.4368 58.1335 27.3231 57.7513L25.883 54.2732H22.624V53.0502H25.2009L22.7376 46.7056L22.624 46.9349V43.4568H22.6619ZM16.8637 57.2162L22.6619 43.4568V46.9349L20.0849 53.0119H22.6619V54.235H19.6681L18.0764 57.7895C18.0385 57.866 17.849 58.2482 17.7733 58.6686C17.7733 59.089 17.9627 59.5477 18.3038 59.7005C18.6449 59.8534 19.0996 59.9299 19.6681 59.9299V60.3885H14.3247V59.9299C14.8174 59.9299 15.2342 59.5859 15.6132 59.2419C15.9921 58.9744 16.409 58.2482 16.8637 57.2162Z" fill="#C39558"/>
<path d="M33.4243 45.0621C33.4243 44.4505 33.4243 43.8772 33.3107 43.5332C33.197 43.1892 32.9696 42.8453 32.7043 42.6924C32.4012 42.5395 31.7948 42.4631 31.1885 42.4248V41.9662H38.2372V42.4248C37.4034 42.4631 37.0245 42.5777 36.7213 42.8835C36.4181 43.1892 36.2287 43.9537 36.2287 44.7563V58.1717C36.2287 58.5157 36.3423 58.7832 36.5697 58.8979C37.0624 59.1654 37.3655 59.089 37.8582 59.089H38.9193C39.6014 59.089 40.3972 59.089 40.8141 59.0508C41.2688 59.0126 41.7236 58.8597 42.2162 58.6303C42.7089 58.401 43.1258 58.0188 43.5426 57.522C43.9216 57.0251 44.3005 56.2989 44.6037 55.4198H45.0206L43.9595 60.3885H31.378L31.3401 59.8916C32.0222 59.8916 32.5906 59.5859 32.8938 59.3183C33.2349 59.089 33.4243 58.4775 33.4243 57.5984V45.0621Z" fill="#C39558"/>
<path d="M46.2714 56.2989V44.7181C46.2714 44.2212 46.2335 43.839 46.1198 43.5714C46.0061 43.3039 45.7787 43.0746 45.4376 42.8835C45.0966 42.7306 44.566 42.463 43.846 42.3866V42.0044H48.962L54.7601 55.2287L60.255 42.0044H65.2573V42.463C64.5752 42.5777 64.1204 42.6541 63.8931 42.7306C63.6278 42.8452 63.4383 43.0363 63.3246 43.3803C63.173 43.7243 63.0972 44.2976 63.0972 45.062V56.9104C63.0972 57.8277 63.0593 58.5921 63.2109 58.9361C63.3625 59.3183 63.4762 59.5858 63.8931 59.7005C64.1204 59.777 64.6131 59.9681 65.2952 60.0063V60.4267H58.2465V60.0445C58.9287 60.0063 59.3834 59.8152 59.6866 59.7005C59.9898 59.5858 60.2171 59.2036 60.3308 58.7832C60.4445 58.401 60.4066 57.6366 60.4066 56.834V45.5971V45.5207L54.1537 60.4267H53.8127L47.5598 45.4825V56.2989C47.5598 57.3691 47.5977 58.2099 47.7493 58.7068C47.863 59.2419 48.0904 59.4712 48.5451 59.7387C48.8104 59.8916 49.2651 59.9681 49.9094 60.0063V60.4267H43.8081V60.0063C44.945 59.9681 45.665 59.433 45.9303 58.8214C46.1577 58.3628 46.2714 57.5219 46.2714 56.2989Z" fill="#C39558"/>
<path d="M86.1 56.1078V44.0683C85.6453 43.495 85.2284 43.0746 84.9253 42.8453C84.5842 42.6542 83.8642 42.272 83.0684 42.272V41.8898H88.2601L98.5679 55.267H98.6058V45.9411C98.6058 44.4123 98.53 43.2657 97.9994 42.8071C97.5826 42.5013 96.7868 42.4249 96.0288 42.4249V41.8898H102.433V42.5395C101.789 42.5777 101.183 42.5395 100.842 42.6924C100.501 42.8453 100.197 43.0746 100.046 43.5715C99.9321 44.0301 99.8942 44.871 99.8942 45.7883V60.7707L99.629 60.809L87.5401 45.5972L87.5022 45.4443V56.0696C87.5022 56.834 87.5022 57.4838 87.5022 57.9806C87.5022 58.4393 87.578 59.089 87.7675 59.3183C87.957 59.5859 88.2601 59.777 88.6391 59.8152C88.9423 59.8534 89.4728 59.8534 90.0034 59.8917V60.3885H83.8263V59.9299C84.5084 59.8917 84.7358 59.8917 85.0011 59.8152C85.2284 59.777 85.5316 59.6241 85.759 59.3948C85.9485 59.2037 86.0243 58.5922 86.1 58.0953C86.1 57.6366 86.1 56.9487 86.1 56.1078Z" fill="#C39558"/>
<path d="M101.524 46.1322V41.8898H115.962V46.094H115.659C115.47 45.2532 115.318 44.9092 114.825 44.1448C114.598 43.8008 114.181 43.5333 113.764 43.3422C113.31 43.151 112.627 43.151 111.945 43.151H110.013V57.4837C110.013 58.0188 110.051 58.5539 110.164 58.8597C110.316 59.2037 110.543 59.5859 110.998 59.7005C111.377 59.777 111.87 59.8534 112.476 59.8534V60.3121H104.935V59.8534C105.806 59.8534 106.45 59.7005 106.791 59.4712C107.133 59.2037 107.36 58.4775 107.36 57.6749V43.1128H105.692C104.972 43.1128 104.29 43.151 103.798 43.2657C103.381 43.3804 102.623 43.5715 102.358 44.2212C102.13 44.7563 102.017 45.0621 101.827 46.094L101.524 46.1322Z" fill="#C39558"/>
<path d="M74.5417 60.0063C76.4365 60.0063 78.0661 59.1654 79.1651 57.6748C80.3019 56.146 80.9841 53.9292 80.9841 51.2538C80.9841 48.693 80.4156 46.4762 79.2787 44.9474C78.1798 43.3421 76.5123 42.5395 74.5796 42.5013V41.5458C77.4597 41.5458 79.8093 42.4248 81.5525 44.2212C83.3336 45.9794 84.2431 48.349 84.2431 51.2538C84.2431 54.1586 83.3715 56.6047 81.5525 58.3246C79.8093 60.0827 77.4597 60.9618 74.5796 61V60.0063H74.5417ZM68.0994 51.2538C68.0994 53.9292 68.6678 56.1078 69.8047 57.6748C70.9416 59.2037 72.4953 60.0445 74.428 60.0445C74.4659 60.0445 74.4659 60.0445 74.5038 60.0445V61.0383C74.4659 61.0383 74.4659 61.0383 74.428 61.0383C71.5858 61.0383 69.2363 60.1592 67.531 58.4393C65.7498 56.6429 64.8403 54.1968 64.8403 51.292C64.8403 48.3873 65.7119 46.0176 67.4173 44.2594C69.1984 42.4631 71.5479 41.584 74.3902 41.584C74.428 41.584 74.428 41.584 74.4659 41.584V42.5395C74.428 42.5395 74.428 42.5395 74.3902 42.5395C72.4574 42.5395 70.9037 43.3421 69.7668 44.9092C68.6678 46.5144 68.0994 48.693 68.0994 51.2538Z" fill="#C39558"/>
</g>
<defs>
<clipPath id="clip0_54_1038">
<rect width="116" height="61" fill="white"/>
</clipPath>
</defs>
</svg>
