<svg width="128" height="30" viewBox="0 0 128 30" fill="none" xmlns="http://www.w3.org/2000/svg">
<g clip-path="url(#clip0_54_956)">
<path d="M54.8674 23.6864C52.9692 25.7725 50.3906 26.8516 47.0241 26.8516H46.9882C43.6575 26.8516 41.0073 25.8085 39.1091 23.6864C37.211 21.6002 36.244 18.7227 36.244 15.018C36.244 11.2772 37.211 8.39975 39.1091 6.2776C41.0073 4.15546 43.6217 3.11237 46.9882 3.11237H47.0241C50.3548 3.11237 52.9692 4.15546 54.9032 6.2776C56.8013 8.36378 57.7325 11.3132 57.7325 15.018C57.7325 18.6867 56.8013 21.5642 54.8674 23.6864ZM61.0274 4.55111C57.84 2.10525 53.399 0.882324 47.5613 0.882324H46.9882C41.2222 0.99023 36.7096 2.24913 33.3788 4.76693C30.0123 7.32069 28.2932 10.8816 28.2932 15.4136C28.2932 19.7658 29.9049 23.1828 33.164 25.5208C36.3872 27.8947 41.0073 29.0816 46.9882 29.0816H47.0241C52.6827 29.0816 57.2311 27.8228 60.6335 25.233C64.0358 22.6433 65.7549 19.2263 65.7549 14.982C65.7907 10.5219 64.1791 6.99697 61.0274 4.55111ZM8.98937 28.5421C9.16844 26.5639 9.3117 24.4417 9.41914 22.2476C9.52658 20.0536 9.5624 17.6077 9.5624 15.018C9.5624 14.1547 9.5624 12.716 9.52658 10.8456C9.49077 8.93927 9.41914 6.78116 9.38332 4.44321H8.34471C6.84051 4.44321 5.37213 4.47918 4.01119 4.55111C2.57862 4.62305 1.2535 4.73096 0 4.87483C0.0358142 4.76693 0.0716284 4.44321 0.107443 4.01159C0.107443 3.6519 0.143257 3.25625 0.143257 3.04044C0.143257 2.75269 0.107443 2.35703 0.0716284 1.88944C0.0358142 1.67363 0.0358142 1.52976 0 1.38588C2.68607 1.49379 5.08562 1.56573 7.16284 1.60169C9.27588 1.67363 11.2815 1.67363 13.1438 1.67363C15.042 1.67363 17.0476 1.67363 19.1606 1.60169C21.3095 1.56573 23.6732 1.49379 26.3234 1.38588C26.2876 1.63766 26.2518 1.88944 26.216 2.17719C26.1802 2.46494 26.1444 2.75269 26.1444 3.04044C26.1444 3.32818 26.1444 3.61593 26.1802 3.90368C26.216 4.19143 26.2518 4.55111 26.2876 4.87483C24.9983 4.73096 23.6732 4.58708 22.2764 4.55111C20.8797 4.44321 19.4113 4.44321 17.9071 4.44321H16.9401C16.8327 5.45033 16.7969 6.56535 16.7969 7.71634C16.7611 8.90331 16.7252 10.7017 16.7252 13.0037C16.7252 17.1041 16.7611 20.2694 16.8327 22.5354C16.9401 24.8014 17.0834 26.8156 17.2625 28.5781C16.4745 28.5062 15.7583 28.4702 15.042 28.4342C14.3615 28.3982 13.681 28.3623 13.0364 28.3623C12.3917 28.3623 11.7471 28.3982 11.0666 28.4342C10.4219 28.4702 9.74147 28.5062 8.98937 28.5421ZM106.691 27.2113C106.977 26.384 107.264 25.5208 107.55 24.6216C107.837 23.7223 108.087 22.7512 108.338 21.7081H109.018C109.448 23.2547 110.272 24.4777 111.561 25.305C112.815 26.1682 114.391 26.5639 116.253 26.5639C117.9 26.5639 119.261 26.2042 120.264 25.4848C121.303 24.7654 121.804 23.7583 121.804 22.5354C121.804 21.6721 121.482 20.9168 120.801 20.2694C120.157 19.6219 118.617 18.7587 116.11 17.6796C112.278 16.061 109.771 14.6583 108.625 13.4353C107.443 12.2484 106.87 10.7737 106.87 8.97524C106.87 6.56535 107.944 4.62305 110.057 3.11237C112.134 1.63766 114.964 0.882324 118.473 0.882324C120.013 0.882324 121.41 1.0262 122.735 1.34992C124.025 1.63766 125.278 2.14122 126.424 2.78866C126.066 3.544 125.744 4.29933 125.493 5.0187C125.206 5.77404 124.992 6.45745 124.777 7.14085H124.24C123.774 5.95389 122.914 5.0187 121.697 4.37127C120.515 3.72384 119.118 3.32818 117.578 3.32818C116.145 3.32818 114.999 3.6519 114.068 4.29933C113.209 4.94677 112.743 5.77404 112.743 6.8531C112.743 7.71634 113.065 8.47168 113.746 9.08315C114.391 9.73058 115.859 10.5219 118.151 11.4571C118.617 11.6729 119.405 11.9606 120.336 12.3203C122.986 13.3634 124.669 14.1907 125.386 14.8021C126.245 15.5215 126.926 16.3128 127.355 17.1761C127.821 18.0393 128.036 19.0464 128.036 20.1615C128.036 22.8591 126.89 25.0172 124.633 26.6718C122.377 28.2903 119.369 29.1176 115.572 29.1176C113.567 29.1176 111.848 28.9737 110.415 28.65C108.947 28.3263 107.729 27.8587 106.691 27.2113ZM71.127 1.38588C71.7717 1.42185 72.4522 1.49379 73.1326 1.49379C73.8489 1.49379 74.601 1.52976 75.3889 1.52976C76.141 1.52976 76.8573 1.49379 77.5378 1.49379C78.2182 1.45782 78.8271 1.38588 79.4717 1.38588C79.1852 3.47206 79.0062 5.66614 78.8987 8.04006C78.7913 10.414 78.7196 13.0037 78.7196 15.8093C78.7196 18.1112 78.7913 19.7298 78.9345 20.701C79.0778 21.6721 79.3643 22.4994 79.7224 23.2547C80.2238 24.3338 81.155 25.1971 82.4443 25.8085C83.7336 26.42 85.3095 26.7077 87.136 26.7077C88.9267 26.7077 90.4667 26.42 91.8276 25.9164C93.1528 25.4129 94.2272 24.6575 95.0151 23.7223C95.6598 22.8951 96.1254 21.8879 96.3761 20.5571C96.6626 19.2982 96.8058 17.1761 96.8058 14.2626C96.8058 11.8168 96.7342 9.51477 96.6626 7.39263C96.5551 5.27048 96.4119 3.25625 96.197 1.38588C96.5909 1.42185 96.9849 1.49379 97.3788 1.49379C97.8086 1.49379 98.2384 1.52976 98.6682 1.52976C99.1337 1.52976 99.5993 1.49379 100.029 1.49379C100.423 1.45782 100.817 1.38588 101.139 1.38588C100.996 3.18431 100.889 4.83886 100.817 6.24163C100.745 7.68038 100.71 8.97524 100.71 10.0183C100.71 10.6298 100.71 11.6009 100.745 12.8958C100.781 14.2266 100.817 15.2338 100.817 15.8452C100.817 18.435 100.566 20.4852 100.137 21.9239C99.671 23.3627 98.883 24.5496 97.7728 25.5567C96.5193 26.7077 94.9435 27.571 92.9737 28.1465C91.0397 28.722 88.7118 29.0097 86.0974 29.0097C83.1606 29.0097 80.6536 28.686 78.5764 28.0386C76.4633 27.3552 74.8517 26.4559 73.8131 25.269C73.0252 24.4057 72.4521 23.2547 72.1298 21.816C71.8075 20.4132 71.6284 18.1832 71.6284 15.1618V11.6369C71.6284 9.11912 71.5568 7.14085 71.521 5.5942C71.4494 4.11949 71.3419 2.68075 71.127 1.38588Z" fill="black"/>
</g>
<defs>
<clipPath id="clip0_54_956">
<rect width="128" height="28.2353" fill="white" transform="translate(0 0.882324)"/>
</clipPath>
</defs>
</svg>
