<svg width="155" height="60" viewBox="0 0 155 60" fill="none" xmlns="http://www.w3.org/2000/svg">
<g clip-path="url(#clip0_54_1000)">
<path d="M139.256 60C92.8251 60 46.4308 60 0 60C0 39.9756 0 19.9878 0 0C43.1507 0 86.3014 0 129.452 0C129.416 0.109622 129.379 0.219245 129.343 0.365408C129.27 0.47503 129.161 0.548112 129.051 0.694275C128.978 0.511571 128.905 0.401949 128.833 0.219245C128.723 0.401949 128.65 0.47503 128.614 0.621194C128.577 0.803898 128.541 0.986602 128.505 1.16931C128.359 1.02314 128.213 0.840438 128.067 0.694275C127.958 0.621194 127.812 0.621194 127.666 0.548112C127.666 0.694275 127.593 0.876979 127.63 0.986602C127.739 1.27893 127.921 1.53471 127.994 1.82704C128.104 2.19245 127.921 2.41169 127.521 2.44823C127.411 2.44823 127.302 2.48477 127.265 2.48477C127.484 2.63094 127.703 2.7771 127.921 2.92326C127.666 3.06943 127.448 3.25213 127.193 3.39829C126.901 3.03289 126.609 2.81364 126.901 2.44823C126.937 2.41169 126.828 2.22899 126.755 2.15591C126.427 1.86358 126.026 1.64434 125.735 1.31547C125.48 1.05968 125.261 0.876979 125.115 1.16931C124.787 1.09622 124.532 0.986602 124.277 0.986602C124.058 0.986602 123.876 1.13276 123.694 1.24239C123.621 1.31547 123.548 1.46163 123.548 1.57125C123.548 1.75396 123.694 1.9732 123.621 2.11937C123.548 2.26553 123.329 2.33861 123.22 2.41169C123.366 2.63094 123.512 2.88672 123.694 3.10597C123.73 3.17905 123.84 3.28867 123.876 3.28867C124.423 3.21559 124.386 3.50792 124.313 3.90987C124.277 4.01949 124.35 4.16565 124.313 4.23873C124.277 4.3849 124.204 4.49452 124.131 4.60414C123.913 4.31181 123.73 4.12911 123.585 3.90987C123.512 4.31181 123.585 4.67722 123.147 4.78685C122.892 4.12911 122.673 3.54446 122.418 2.95981C122.345 2.85018 122.054 2.66748 121.981 2.74056C121.58 2.95981 121.179 3.21559 120.997 3.65408C120.888 3.87333 120.742 3.87333 120.632 3.69062C120.56 3.61754 120.523 3.50792 120.45 3.43484C120.414 3.43484 120.341 3.43484 120.304 3.43484C120.268 3.7637 120.232 4.05603 120.232 4.3849C119.393 4.49452 119.393 4.49452 119.102 4.31181C119.102 4.53106 119.102 4.82339 119.102 5.15225C119.138 5.18879 119.248 5.22533 119.357 5.26188C119.393 5.22533 119.43 5.18879 119.466 5.15225C119.576 4.82339 119.721 4.60414 120.049 5.00609C120.049 5.04263 120.086 5.04263 120.122 5.04263C120.705 4.89647 120.632 5.29842 120.632 5.66382C120.523 5.73691 120.414 5.80999 120.268 5.88307C120.232 5.77345 120.195 5.77345 120.195 5.70037C120.159 5.51766 120.341 5.22533 119.976 5.26188C119.612 5.29842 119.685 5.59074 119.685 5.84653C119.685 6.06577 119.648 6.32156 119.612 6.5408C119.576 6.72351 119.466 6.86967 119.284 7.12546C119.138 6.94275 119.029 6.79659 118.883 6.65043C118.737 6.50426 118.592 6.3581 118.446 6.21194C118.336 6.13885 118.191 6.10231 117.936 5.95615C118.081 6.24848 118.154 6.43118 118.264 6.61389C118.446 6.83313 118.373 6.97929 118.154 7.05237C118.008 7.08892 117.826 7.08892 117.68 7.08892C117.425 7.05237 117.17 7.01583 116.915 6.97929C117.389 7.23508 117.899 7.27162 118.519 7.19854C118.081 7.74665 117.644 7.81973 117.024 7.52741C117.061 7.71011 117.17 7.85627 117.243 8.00244C117.316 8.1486 117.352 8.25822 117.425 8.40438C117.243 8.47747 117.097 8.58709 116.915 8.58709C116.806 8.58709 116.66 8.51401 116.551 8.44093C116.296 8.25822 116.113 8.36784 116.004 8.66017C116.259 8.73325 116.514 8.76979 116.733 8.84287C116.879 8.91596 117.024 9.06212 117.17 9.17174C117.462 9.35445 117.425 10.0122 118.081 9.68331C118.081 9.97564 118.081 10.1583 118.081 10.3776C117.972 10.3776 117.863 10.3776 117.753 10.3776C117.425 10.2314 117.134 10.0853 116.769 9.9391C116.66 10.2314 116.806 10.3776 117.061 10.3776C117.28 10.4141 117.498 10.3776 117.753 10.3776C117.389 10.743 116.988 10.9988 116.441 10.7065C116.441 11.3276 116.441 11.3642 115.749 11.2911C115.858 11.4007 115.968 11.4738 116.077 11.5834C116.077 11.62 116.077 11.6565 116.04 11.7296C115.822 11.7296 115.64 11.6931 115.421 11.6931C115.494 11.7661 115.603 11.8027 115.64 11.8758C115.712 12.0585 115.712 12.2412 115.749 12.4239C115.567 12.4239 115.421 12.4239 115.239 12.4239C115.129 12.4239 115.02 12.3508 114.911 12.3143C114.911 12.3508 114.911 12.3508 114.911 12.3873C115.02 12.4604 115.129 12.497 115.239 12.57C114.911 13.1912 114.4 12.6797 114.145 12.7893C114 13.1181 113.89 13.3374 113.708 13.7028C114 13.5932 114.182 13.5201 114.364 13.4836C114.546 13.4105 114.765 13.3009 114.874 13.7028C114.692 13.7028 114.546 13.7028 114.437 13.7393C114.291 13.7759 114.145 13.849 114.036 13.922C113.927 13.9586 113.817 14.1413 113.781 14.1047C113.672 14.0317 113.562 13.922 113.453 13.8124C113.38 13.7028 113.307 13.5932 113.198 13.3739C113.125 13.6663 113.125 13.7759 113.088 13.9586C112.943 13.9586 112.797 13.8855 112.688 13.9586C112.578 14.0317 112.396 14.2509 112.396 14.2875C112.833 14.7625 112.287 15.0183 112.177 15.3837C112.943 15.3106 112.833 15.9318 112.906 16.3337C113.125 16.2972 113.307 16.151 113.453 16.2241C113.817 16.3337 114.182 16.553 114.437 16.6626C114.692 16.4799 114.911 16.2241 114.984 16.2607C115.202 16.4068 115.384 16.4434 115.603 16.2972C115.676 16.2607 115.785 16.3703 115.968 16.4799C115.712 16.6261 115.53 16.7357 115.312 16.8819C115.457 16.9915 115.53 17.0646 115.64 17.1742C115.494 17.5396 115.348 17.905 115.202 18.2704C114.911 18.0512 114.619 17.6857 114.328 17.6857C113.781 17.6492 114.145 16.8453 113.562 16.9915C113.453 17.2473 113.234 17.3569 112.979 17.1011C112.542 17.5761 112.25 17.5761 111.959 16.9184C111.631 17.3569 111.995 17.7588 111.849 18.1242C112.323 18.1973 112.323 18.1608 112.724 17.7588C112.87 17.6127 113.016 17.3569 113.271 17.5761C113.453 17.7588 113.635 17.9781 113.781 18.2339C114.036 18.6724 114.255 18.7089 114.692 18.4531C114.874 18.3435 115.056 18.3435 115.239 18.2704C115.348 18.1973 115.494 18.1608 115.603 18.0877C115.64 18.2339 115.749 18.38 115.712 18.4531C115.64 18.5993 115.53 18.782 115.384 18.8551C115.275 18.8916 115.093 18.782 114.947 18.7454C114.838 19.0012 114.692 19.3301 114.546 19.6224C114.364 19.9878 114.072 19.9513 113.781 19.7686C113.89 19.5859 113.963 19.4397 114.072 19.2205C113.708 19.257 113.453 19.257 113.125 19.2935C113.161 19.3666 113.234 19.4762 113.344 19.5493C113.526 19.732 113.489 19.8417 113.271 19.9513C112.76 20.1705 112.25 19.8417 112.177 19.2935C112.177 19.1474 112.068 19.0378 111.995 18.9281C111.886 19.0743 111.776 19.2205 111.704 19.3666C111.631 19.5128 111.667 19.6955 111.594 19.7686C111.376 19.9878 111.412 20.134 111.558 20.3532C112.214 20.0609 112.214 20.0609 112.36 20.9013C112.542 20.8283 112.724 20.7552 112.87 20.7186C113.052 20.6821 113.271 20.6821 113.234 20.9379C113.125 21.3764 113.38 21.6322 113.635 21.9245C113.088 22.1803 112.469 21.9976 112.214 21.6687C111.849 21.1937 111.412 21.4495 111.048 21.2667C111.157 21.3764 111.266 21.5225 111.339 21.6322C111.303 21.6687 111.266 21.7052 111.23 21.7783C111.084 21.7052 110.865 21.6322 110.792 21.486C110.574 21.0475 110.173 21.084 109.808 21.011C109.772 21.0475 109.735 21.084 109.699 21.1571C109.881 21.2667 110.063 21.3398 110.282 21.4495C109.553 21.961 109.553 21.961 109.772 22.3264C109.881 22.2168 109.991 22.0706 110.1 21.961C110.136 21.9245 110.282 21.8879 110.319 21.9245C110.355 21.961 110.391 22.0706 110.391 22.1437C110.391 22.4361 110.391 22.6918 110.391 22.9842C110.428 23.0207 110.501 23.0572 110.537 23.0938C111.011 22.1803 111.74 22.3995 112.505 22.5457C112.578 22.9842 112.141 22.8745 111.886 23.0938C112.177 23.0572 112.323 23.0207 112.505 22.9842C112.542 23.0207 112.542 23.0572 112.578 23.0938C112.177 23.4592 111.74 23.8246 111.376 24.1535C111.594 24.4093 111.776 24.592 111.849 24.8112C111.959 25.1766 112.177 25.2497 112.505 25.2132C112.615 25.2132 112.724 25.2132 112.833 25.2132C112.906 25.3593 113.016 25.5055 113.161 25.7613C113.344 25.4689 113.453 25.2862 113.599 25.0305C113.854 25.1401 114.145 25.2862 114.364 25.3959C114.4 25.1035 114.473 24.8843 114.51 24.6285C114.4 24.3727 113.635 24.7747 113.854 24.0804C114.036 23.5323 114.437 24.0073 114.728 23.9342C114.728 24.2996 114.728 24.6285 114.728 24.9208C115.166 24.9574 115.494 24.9939 115.895 25.0305C115.931 24.9574 116.004 24.7381 116.113 24.7381C116.478 24.7381 116.478 24.4823 116.514 24.2266C116.587 24.0073 116.624 23.6784 117.061 23.8977C116.952 24.0804 116.842 24.2266 116.733 24.4093C117.207 24.5554 117.389 24.7747 117.243 25.1035C116.988 25.6151 116.624 25.2862 116.259 25.1766C116.113 25.5055 115.968 25.7978 115.785 26.1632C115.567 26.0901 115.275 26.0171 115.093 25.9805C114.838 26.0536 114.656 26.1267 114.473 26.1998C114.364 26.2363 114.255 26.2363 114.145 26.2728C114.182 26.3459 114.218 26.4921 114.291 26.5286C114.4 26.6017 114.546 26.6382 114.692 26.7113C114.984 26.9671 115.239 26.9671 115.567 26.5652C115.712 26.3459 115.785 26.3459 116.004 26.4921C116.223 26.6017 116.259 27.0037 116.66 26.8575C116.988 26.7479 117.17 26.9306 117.097 27.2594C117.061 27.4787 117.024 27.6248 117.389 27.5883C117.498 27.5518 117.717 27.771 117.753 27.9172C117.79 27.9903 117.608 28.2095 117.498 28.2826C117.352 28.3557 117.17 28.3557 116.988 28.3922C117.061 28.648 117.243 29.0865 117.17 29.123C116.842 29.3057 117.097 29.598 116.915 29.8173C117.134 29.7808 117.316 29.7077 117.462 29.7077C117.571 29.7077 117.717 29.8173 117.753 29.9269C117.863 30.2558 117.972 30.6212 118.081 31.0231C118.3 30.8404 118.446 30.7674 118.592 30.6577C118.701 30.5847 118.81 30.5116 118.92 30.4385C118.992 30.5481 119.102 30.6943 119.211 30.8404C119.029 30.877 118.956 30.9135 118.847 30.9501C118.847 30.9866 118.81 31.0231 118.81 31.0597C118.992 31.1328 119.175 31.2424 119.248 31.2789C119.393 31.6078 119.503 31.9001 119.648 32.1559C119.904 32.0828 120.232 31.754 120.45 32.3386C120.523 31.754 120.815 32.1559 120.997 32.1559C121.143 31.4982 121.689 32.0097 122.017 31.754C121.981 31.6809 121.945 31.6078 121.945 31.5713C122.054 31.4251 122.127 31.3155 122.2 31.2058C122.273 31.1328 122.382 31.0597 122.491 31.0231C122.71 30.9866 122.929 30.9501 123.257 30.9135C123.439 31.0962 123.475 31.352 123.257 31.6809C123.184 31.7905 123.184 31.9732 123.22 32.0828C123.366 32.4117 123.184 32.4482 122.929 32.4482C122.819 32.4482 122.746 32.4482 122.601 32.4482C122.673 32.5944 122.746 32.6675 122.783 32.7406C122.601 32.9233 122.163 32.7406 122.2 33.2156C122.455 33.1791 122.673 32.7771 122.819 33.1791C123.038 33.0694 123.22 32.9598 123.475 32.8502C123.475 32.8136 123.548 32.7406 123.585 32.6309C123.694 32.704 123.803 32.7406 123.876 32.8136C123.985 32.9233 124.058 33.0329 124.168 33.1425C124.313 33.3252 124.423 33.5079 124.569 33.6541C124.532 33.3618 124.678 33.1425 125.079 33.2156C125.37 33.2521 125.625 33.3252 125.953 33.3983C126.172 32.9963 126.172 32.9963 126.609 33.3618C126.865 33.2521 127.083 33.1425 127.302 33.106C127.739 32.9963 128.104 32.4482 127.958 32.0097C128.067 31.9367 128.177 31.8636 128.322 31.827C128.322 31.7905 128.322 31.754 128.322 31.7174C128.177 31.6809 128.031 31.5713 127.885 31.6078C127.739 31.6443 127.593 31.827 127.448 31.9001C127.375 31.9367 127.229 31.9732 127.12 31.9367C127.047 31.9001 126.974 31.754 126.974 31.6443C126.974 31.6078 127.083 31.4616 127.12 31.4616C127.448 31.4982 127.484 31.2424 127.593 31.0597C127.666 30.9135 127.812 30.7674 127.958 30.6212C128.067 30.7308 128.104 30.8039 128.14 30.877C128.359 31.2789 128.541 31.6809 128.76 32.0828C129.051 32.5579 129.379 32.9963 129.634 33.4714C129.889 33.9829 130.108 34.4945 130.327 35.0061C130.582 35.6638 130.837 36.3216 131.056 37.0158C131.274 37.7832 131.566 38.5505 131.566 39.3179C131.602 41.0353 131.493 42.7162 131.42 44.4336C131.347 46.078 131.311 47.6857 131.202 49.3301C131.129 51.011 131.202 52.7284 131.493 54.3727C131.858 56.1998 132.586 57.771 134.226 58.7576C135.247 59.3788 136.413 59.6711 137.616 59.8538C138.162 59.8538 138.709 59.9269 139.256 60ZM70.7395 33.9099C71.031 33.9099 71.2862 33.9099 71.5413 33.9099C73.072 33.9829 73.8373 34.6407 74.056 36.0292C74.1653 36.76 74.2382 37.5274 74.2382 38.2582C74.2382 43.6663 74.2382 49.0743 74.2382 54.4823C74.2382 55.4324 74.2382 56.419 74.2382 57.3691C74.2382 58.1364 74.6026 58.7211 75.3315 59.0134C76.4978 59.525 77.7733 58.6845 77.7733 57.4056C77.7733 54.8477 77.7733 52.2899 77.7733 49.732C77.7733 47.7954 79.1947 46.3703 81.0898 46.3703C83.4587 46.3703 85.8277 46.3703 88.233 46.3703C88.8161 46.3703 88.8161 46.3703 88.8161 46.9549C88.8161 50.6456 88.8161 54.3362 88.8161 58.0633C88.8161 59.1961 88.8161 59.1961 89.9459 59.1961C90.7113 59.1961 91.4766 59.1961 92.2784 59.1961C92.2784 50.609 92.2784 42.0585 92.2784 33.4714C91.2944 33.4714 90.3468 33.4714 89.3993 33.4714C88.8161 33.4714 88.8161 33.4714 88.8161 34.056C88.8161 36.5773 88.8161 39.0987 88.8161 41.5834C88.8161 43.6663 87.3583 45.0914 85.281 45.1279C82.9485 45.1279 80.6525 45.1279 78.32 45.1279C77.8827 45.1279 77.7369 45.0183 77.7369 44.5798C77.7733 41.0719 77.7369 37.5639 77.7369 34.056C77.7369 33.8733 77.7369 33.6906 77.7369 33.4714C75.368 33.4714 73.072 33.4714 70.703 33.4714C70.7395 33.6175 70.7395 33.7272 70.7395 33.9099ZM0.145779 33.9099C0.473783 33.9099 0.765342 33.8733 1.02046 33.9099C2.87914 34.0926 3.38937 34.7868 3.53515 36.1389C3.60804 36.9428 3.68093 37.7832 3.68093 38.5871C3.68093 44.5432 3.68093 50.4994 3.68093 56.4921C3.68093 58.0999 4.66494 59.0865 6.26852 59.0865C6.4143 59.0865 6.59652 59.0865 6.7423 59.0865C7.10675 59.123 7.25253 59.0134 7.25253 58.6114C7.21608 57.2594 7.25253 55.9074 7.25253 54.592C7.25253 52.9842 7.25253 51.4129 7.25253 49.8051C7.28897 48.4531 7.83565 47.7223 8.96544 47.503C9.32989 47.43 9.69433 47.3934 10.0588 47.3934C11.2979 47.3203 12.537 47.3934 13.7762 47.2107C16.218 46.8453 17.858 45.4933 18.6233 43.1181C18.9878 41.9488 19.0607 40.7795 18.9513 39.5737C18.7691 37.1255 17.6029 35.2619 15.3433 34.1656C14.2135 33.6175 12.9744 33.4348 11.7352 33.4348C8.01787 33.3983 4.30049 33.4348 0.583118 33.4348C0.437338 33.4348 0.291559 33.4348 0.145779 33.4348C0.145779 33.6175 0.145779 33.7272 0.145779 33.9099ZM20.3727 41.6931C20.1905 42.0585 20.4091 42.1315 20.7007 42.2046C21.8305 42.4604 22.5594 43.1547 22.8874 44.2509C23.0696 44.9086 23.2154 45.6029 23.2154 46.2972C23.2518 48.38 23.1789 50.4628 23.2518 52.5091C23.2883 53.7515 23.434 54.9939 23.6892 56.1998C23.9443 57.4421 24.5274 58.5749 25.803 59.0865C26.4225 59.3423 27.1514 59.4884 27.8439 59.525C29.411 59.598 30.7959 59.1596 31.8528 57.9172C32.2173 57.4787 32.6182 57.0767 32.9826 56.6382C33.6751 55.7978 34.5497 55.2497 35.6066 55.0305C36.2262 54.9208 36.8458 54.8477 37.5018 54.7381C37.5018 50.3898 37.5018 46.0414 37.5018 41.6931C36.4449 41.6931 35.4244 41.6931 34.3311 41.6931C34.3311 41.8758 34.3311 42.0585 34.3311 42.2412C34.3311 44.9452 34.3311 47.6857 34.3311 50.3898C34.3311 51.0475 34.3311 51.7418 34.2217 52.3995C34.0031 54.0804 33.347 55.5786 32.0715 56.7113C30.4679 58.1364 27.3336 57.9172 26.6412 55.1401C26.4225 54.3362 26.3496 53.4592 26.3132 52.6188C26.2767 49.1474 26.3132 45.676 26.3132 42.2412C26.3132 42.0585 26.3132 41.8758 26.3132 41.6931C24.2723 41.6931 22.3043 41.6931 20.3727 41.6931ZM127.229 56.894C127.229 56.6748 127.229 56.5286 127.229 56.3459C127.229 53.4227 127.229 50.5359 127.229 47.6127C127.229 46.9184 127.156 46.1876 127.047 45.4933C126.682 43.1912 125.516 41.9488 123.257 41.5104C122.345 41.3276 121.361 41.3276 120.45 41.3276C119.175 41.3276 117.972 41.6565 116.842 42.2777C115.858 42.8258 115.129 43.5566 114.838 44.6894C114.765 44.9452 114.838 45.1279 115.02 45.3106C115.53 45.7491 116.004 46.2241 116.478 46.6991C116.952 47.1742 117.243 47.2107 117.826 46.8819C118.336 46.5895 118.592 46.1145 118.664 45.5298C118.701 45.1279 118.701 44.7259 118.737 44.3605C118.847 43.2278 119.831 42.1315 120.888 42.0219C122.236 41.8758 123.147 42.4239 123.585 43.7393C123.657 43.9951 123.767 44.2875 123.803 44.5432C123.913 46.1876 123.985 47.8319 124.058 49.4762C124.095 49.9147 123.913 50.0244 123.512 50.0244C122.273 50.134 121.033 50.2071 119.831 50.4263C118.3 50.6821 116.806 51.1571 115.53 52.1072C113.599 53.5688 113.161 56.7844 115.421 58.5018C116.514 59.3057 117.68 59.6346 119.029 59.5981C120.049 59.5615 120.997 59.2692 121.799 58.5749C122.09 58.2826 122.455 58.0633 122.783 57.8441C123.621 57.2594 124.532 56.9306 125.553 56.9671C126.063 56.894 126.609 56.894 127.229 56.894ZM63.0496 48.2339C64.1065 48.2339 65.1634 48.2339 66.1839 48.2339C67.9697 48.2339 68.8808 47.0646 68.3706 45.3471C67.8603 43.5566 66.5119 42.5335 64.8719 41.8758C63.487 41.3276 62.0292 41.2911 60.5349 41.4373C57.7287 41.6565 55.542 43.3009 54.6673 46.0049C53.9748 48.1973 53.902 50.4263 54.3393 52.6553C54.9953 56.0171 56.9269 58.3191 60.3162 59.2326C62.43 59.8173 64.5803 59.7077 66.6941 59.1596C67.2043 59.0499 67.7146 58.8672 68.1883 58.648C68.3341 58.5749 68.407 58.3557 68.5163 58.2095C68.3706 58.1364 68.1883 58.0268 68.0426 58.0268C67.6781 58.0633 67.3137 58.1364 66.9857 58.246C64.8354 58.7576 62.7945 58.6114 60.9723 57.3325C59.4051 56.1998 58.4576 54.6285 58.0202 52.7649C57.8016 51.961 57.7287 51.084 57.7287 50.2436C57.7287 48.8916 58.3847 48.2704 59.7331 48.2339C60.8265 48.1973 61.9563 48.2339 63.0496 48.2339ZM105.799 48.2339C105.799 48.1973 105.799 48.2339 105.799 48.2339C106.966 48.2339 108.095 48.2339 109.262 48.2339C110.501 48.1973 111.266 47.3569 111.266 46.1145C111.266 45.4202 111.011 44.7625 110.647 44.1778C109.808 42.8989 108.606 42.1315 107.148 41.6931C105.872 41.2911 104.56 41.2546 103.248 41.4373C100.515 41.7661 98.474 43.0451 97.5629 45.7125C96.6518 48.3069 96.6153 50.9744 97.3442 53.6419C97.9638 55.8709 99.3487 57.5883 101.426 58.648C102.665 59.2692 104.014 59.525 105.399 59.5981C107.257 59.6711 109.043 59.4153 110.792 58.7576C111.048 58.648 111.339 58.5384 111.193 58.2095C111.157 58.0999 110.792 58.0268 110.61 58.0633C110.173 58.1364 109.735 58.246 109.298 58.3191C106.455 58.8672 104.014 58.2095 102.191 55.7978C100.989 54.2266 100.442 52.3995 100.406 50.3898C100.369 48.8916 101.062 48.1973 102.556 48.1973C103.649 48.1973 104.706 48.2339 105.799 48.2339ZM42.276 41.6931C42.276 41.9123 42.276 42.095 42.276 42.2777C42.276 45.8222 42.276 49.3666 42.276 52.8745C42.276 54.1535 42.276 55.4324 42.276 56.6748C42.3125 58.0633 42.9685 58.9038 44.1347 59.123C44.4263 59.1596 44.7178 59.123 45.0094 59.1596C45.4103 59.1961 45.5561 59.0499 45.5561 58.648C45.5196 56.0536 45.5196 53.4592 45.5561 50.9013C45.5561 50.0609 45.629 49.2205 45.7383 48.38C45.957 46.9915 46.4308 45.7125 47.3783 44.6529C48.1437 43.7759 48.9819 43.6663 49.9659 44.2875C50.2575 44.4702 50.5126 44.6163 50.8041 44.7625C51.0228 44.8721 51.2415 44.8721 51.4237 44.6529C51.861 44.1778 52.3348 43.7393 52.8086 43.3009C53.0273 43.1181 53.0273 42.9354 52.9179 42.6797C52.4442 41.5469 51.3508 41.0719 49.9659 41.3642C48.6539 41.6565 47.7428 42.497 47.1232 43.6297C46.7223 44.3971 46.4308 45.201 46.1028 46.0049C45.9934 46.2607 45.9205 46.4434 45.5561 46.2607C45.5561 46.1145 45.5561 45.9318 45.5561 45.7491C45.5561 44.5067 45.5561 43.3008 45.5561 42.0585C45.5561 41.8758 45.5925 41.6565 45.301 41.6565C44.2805 41.6931 43.3329 41.6931 42.276 41.6931Z" fill="white"/>
<path d="M117.717 10.3777C117.826 10.3777 117.935 10.3777 118.045 10.3777C118.045 10.1584 118.045 9.97571 118.045 9.68339C117.389 10.0123 117.425 9.35452 117.134 9.17181C116.988 9.06219 116.878 8.91603 116.696 8.84295C116.478 8.73333 116.222 8.69678 115.967 8.66024C116.113 8.36792 116.259 8.2583 116.514 8.441C116.623 8.51408 116.769 8.58716 116.878 8.58716C117.061 8.55062 117.206 8.441 117.389 8.40446C117.316 8.2583 117.279 8.14867 117.206 8.00251C117.134 7.85635 117.024 7.67364 116.988 7.52748C117.571 7.81981 118.045 7.74672 118.482 7.19861C117.899 7.27169 117.352 7.27169 116.878 6.97937C117.134 7.01591 117.389 7.05245 117.644 7.08899C117.79 7.08899 117.972 7.12553 118.118 7.05245C118.336 6.97937 118.409 6.86974 118.227 6.61396C118.118 6.4678 118.045 6.24855 117.899 5.95622C118.154 6.06585 118.3 6.10239 118.409 6.21201C118.555 6.32163 118.701 6.4678 118.847 6.6505C118.956 6.79666 119.102 6.94283 119.247 7.12553C119.393 6.86974 119.503 6.72358 119.575 6.54088C119.648 6.32163 119.648 6.06585 119.648 5.8466C119.648 5.59082 119.575 5.29849 119.94 5.26195C120.304 5.22541 120.122 5.51774 120.159 5.70044C120.159 5.73698 120.195 5.77352 120.231 5.88314C120.341 5.81006 120.487 5.73698 120.596 5.6639C120.632 5.8466 120.632 6.02931 120.669 6.21201C120.705 6.32163 120.778 6.4678 120.887 6.50434C121.215 6.6505 121.179 6.8332 120.96 7.05245C120.887 7.12553 120.924 7.27169 120.924 7.41786C121.033 7.41786 121.179 7.4544 121.288 7.41786C121.434 7.34477 121.543 7.23515 121.58 7.19861C121.434 6.8332 121.361 6.50434 121.179 6.21201C121.07 5.99277 121.033 5.59082 120.632 5.70044C120.632 5.33503 120.705 4.93308 120.122 5.07925C120.086 5.07925 120.049 5.07925 120.049 5.0427C119.721 4.64076 119.575 4.86 119.466 5.18887C119.466 5.22541 119.393 5.26195 119.357 5.29849C119.247 5.26195 119.175 5.18887 119.102 5.18887C119.102 4.86 119.102 4.56767 119.102 4.34843C119.393 4.53113 119.393 4.53113 120.231 4.42151C120.268 4.09264 120.304 3.80032 120.304 3.47145C120.341 3.47145 120.414 3.47145 120.45 3.47145C120.523 3.54453 120.559 3.65415 120.632 3.72724C120.778 3.94648 120.924 3.94648 120.997 3.6907C121.179 3.25221 121.58 2.99642 121.981 2.77717C122.054 2.74063 122.345 2.8868 122.418 2.99642C122.673 3.58107 122.892 4.20227 123.147 4.82346C123.584 4.75038 123.511 4.34843 123.584 3.94648C123.767 4.12918 123.912 4.34843 124.131 4.64076C124.167 4.53113 124.277 4.42151 124.313 4.27535C124.35 4.16573 124.277 4.0561 124.313 3.94648C124.386 3.58107 124.423 3.25221 123.876 3.32529C123.803 3.32529 123.73 3.21566 123.694 3.14258C123.548 2.92334 123.366 2.66755 123.22 2.44831C123.329 2.37523 123.548 2.30214 123.621 2.15598C123.694 2.00982 123.548 1.79057 123.548 1.60787C123.548 1.49825 123.621 1.35208 123.73 1.279C123.912 1.16938 124.131 1.02322 124.313 1.02322C124.568 1.02322 124.823 1.13284 125.151 1.20592C125.334 0.913594 125.516 1.0963 125.771 1.35208C126.063 1.68095 126.463 1.9002 126.791 2.19252C126.864 2.2656 126.974 2.44831 126.937 2.48485C126.646 2.8868 126.937 3.10604 127.229 3.43491C127.447 3.28875 127.703 3.10604 127.958 2.95988C127.739 2.81372 127.484 2.66755 127.302 2.52139C127.302 2.52139 127.411 2.48485 127.557 2.48485C127.958 2.48485 128.14 2.2656 128.031 1.86365C127.958 1.57133 127.775 1.31554 127.666 1.02322C127.63 0.877053 127.666 0.73089 127.703 0.584727C127.848 0.621267 127.994 0.621267 128.104 0.73089C128.286 0.877053 128.395 1.02322 128.541 1.20592C128.577 1.02322 128.577 0.840512 128.65 0.657808C128.687 0.548186 128.76 0.438563 128.869 0.255859C128.942 0.438563 129.015 0.548186 129.088 0.73089C129.197 0.621267 129.27 0.511645 129.379 0.402023C129.233 0.621267 129.16 0.913594 129.416 1.05976C129.707 1.20592 129.962 1.16938 130.144 0.840512C130.181 0.73089 130.327 0.694349 130.4 0.584727C130.509 0.767431 130.545 0.950135 130.655 1.05976C130.764 1.16938 130.946 1.16938 131.092 1.24246C130.764 1.57133 130.764 2.0829 131.056 2.30214C131.675 2.70409 131.42 1.86365 131.821 1.82711C131.857 1.86365 131.967 1.9002 132.04 1.93674C132.258 1.79057 132.331 1.35208 132.696 1.64441C132.878 1.82711 133.024 2.0829 133.169 2.30214C133.461 1.97328 133.862 1.75403 133.716 1.24246C133.716 1.20592 133.898 1.0963 134.117 0.950135C134.08 1.38862 134.008 1.71749 134.408 1.75403C134.664 1.75403 134.919 1.79057 135.137 1.75403C135.429 1.71749 135.648 1.60787 135.429 1.20592C135.356 1.13284 135.392 0.986675 135.356 0.803971C135.611 1.02322 135.83 1.16938 135.976 1.31554C136.194 1.16938 136.413 0.986675 136.522 1.02322C136.668 1.05976 136.777 1.31554 136.96 1.49825C137.032 1.35208 137.105 1.279 137.178 1.16938C137.215 1.16938 137.288 1.16938 137.324 1.16938C137.324 1.279 137.324 1.42516 137.324 1.53479C137.36 1.79057 137.324 2.15598 137.47 2.33869C137.616 2.52139 137.944 2.44831 138.126 2.15598C138.162 2.0829 138.417 2.15598 138.49 2.15598C138.417 2.48485 138.381 2.74063 138.308 3.10604C138.563 2.99642 138.745 2.95988 138.855 2.8868C139.001 2.81372 139.11 2.70409 139.219 2.59447C139.401 2.8868 139.438 3.10604 139.183 3.36183C138.928 3.65415 139.001 3.8734 139.292 4.09264C139.729 3.8734 140.167 3.6907 140.641 3.47145C140.604 3.83686 140.568 4.0561 140.495 4.38497C140.677 4.27535 140.786 4.20227 140.859 4.16573C140.932 4.12918 141.041 4.09264 141.114 4.0561C141.114 4.20227 141.041 4.31189 140.969 4.42151C140.786 4.64076 140.859 4.78692 141.078 4.89654C141.369 5.0427 141.661 4.86 141.697 4.56767C141.697 4.42151 141.734 4.27535 141.77 4.09264C141.807 4.09264 141.88 4.09264 141.916 4.09264C141.916 4.20227 141.989 4.34843 141.953 4.45805C141.88 4.86 142.098 4.78692 142.317 4.71384C142.39 4.6773 142.463 4.64076 142.572 4.56767C142.572 5.11579 142.572 5.11579 142.973 5.70044C143.009 5.95622 143.046 6.21201 143.119 6.54088C143.119 6.54088 142.973 6.61396 142.937 6.72358C142.9 6.8332 142.9 6.97937 142.973 7.05245C143.009 7.12553 143.192 7.16207 143.228 7.12553C143.629 6.79666 144.176 6.61396 144.066 5.91968C144.066 5.8466 144.176 5.73698 144.212 5.6639C144.285 5.73698 144.394 5.77352 144.431 5.88314C144.504 5.95622 144.54 6.06585 144.613 6.21201C144.722 6.06585 144.795 5.95622 144.868 5.81006C144.759 6.43125 144.759 6.4678 145.196 6.61396C145.342 6.90629 145.451 7.08899 145.561 7.30823C145.597 7.34477 145.743 7.30823 145.852 7.27169C145.816 7.19861 145.743 7.08899 145.706 7.01591C145.633 6.90629 145.561 6.79666 145.488 6.68704C145.378 6.50434 145.305 6.32163 145.233 6.13893C145.196 6.13893 145.123 6.10239 145.087 6.10239C145.233 5.95622 145.378 5.73698 145.561 5.6639C145.961 5.51774 146.071 5.26195 145.925 4.89654C145.889 4.82346 145.925 4.71384 145.889 4.49459C146.034 4.6773 146.107 4.75038 146.18 4.82346C146.545 5.26195 146.69 5.26195 147.055 4.78692C147.128 4.6773 147.31 4.6773 147.456 4.60422C147.602 5.91968 147.601 5.91968 148.44 6.43125C148.294 6.61396 148.112 6.79666 148.002 7.01591C147.784 7.30823 147.893 7.52748 148.221 7.60056C148.294 7.60056 148.33 7.6371 148.44 7.71018C148.258 7.74672 148.148 7.74672 148.075 7.81981C147.857 8.07559 147.565 8.33138 147.456 8.66024C147.419 8.73333 147.82 9.02565 148.039 9.17181C148.112 9.20836 148.33 9.17181 148.44 9.09873C148.476 9.06219 148.44 8.87949 148.44 8.76987C148.44 8.66024 148.476 8.55062 148.476 8.441C148.586 8.51408 148.695 8.55062 148.804 8.6237C148.877 8.69678 148.877 8.80641 148.95 8.87949C149.059 8.80641 149.169 8.73333 149.242 8.66024C149.314 8.80641 149.351 8.98911 149.46 9.2449C149.606 9.17181 149.752 9.09873 150.007 8.95257C150.08 9.06219 150.189 9.2449 150.298 9.4276C150.335 9.50068 150.444 9.6103 150.481 9.6103C150.59 9.6103 150.736 9.53722 150.809 9.46414C150.882 9.39106 150.882 9.2449 150.954 9.06219C151.027 9.28144 151.1 9.46414 151.173 9.6103C151.72 9.6103 151.793 9.20836 151.975 8.84295C152.121 9.46414 152.266 10.0488 152.412 10.67C152.558 10.7065 152.74 10.7796 152.886 10.8162C152.339 10.9623 152.303 11.0354 152.594 11.3643C152.594 11.6931 152.522 11.9855 152.631 12.1682C152.74 12.3509 153.032 12.4239 153.25 12.5701C153.25 12.6067 153.25 12.6432 153.25 12.7163C152.959 12.7163 152.667 12.6797 152.339 12.6797C152.23 12.6797 152.121 12.7528 152.011 12.7894C152.048 12.899 152.084 13.0086 152.194 13.1182C152.266 13.1913 152.412 13.2278 152.522 13.3009C152.485 13.3009 152.449 13.3375 152.412 13.3375C152.412 13.5202 152.449 13.7029 152.449 13.9221C152.704 13.8856 152.959 13.849 153.214 13.8125C153.214 13.849 153.287 13.9587 153.36 14.1414C153.506 13.9952 153.615 13.8856 153.761 13.7394C153.761 13.9587 153.797 14.1414 153.761 14.2875C153.724 14.4702 153.761 15.128 153.87 15.3107C153.433 15.3838 153.615 15.6761 153.651 15.8953C153.469 16.0049 153.323 16.078 153.141 16.1876C153.141 16.1511 153.141 16.1146 153.141 16.078C152.922 16.078 152.667 16.0415 152.449 16.1511C152.011 16.3704 151.902 16.7723 152.048 17.2473C152.084 17.43 152.23 17.6127 152.376 17.832C152.522 17.5762 152.631 17.43 152.74 17.2473C153.068 17.43 153.36 17.5762 153.761 17.7954C153.25 17.9051 153.214 18.1609 153.36 18.4166C152.522 18.8551 152.303 18.8551 152.922 19.5494C152.412 19.6225 152.704 19.9514 152.704 20.2071C152.522 20.2802 152.339 20.3898 152.194 20.4629C152.303 20.6822 152.485 20.9014 152.194 21.1207C152.048 21.2303 151.938 21.5591 151.975 21.7053C152.121 21.9976 152.376 21.9246 152.594 21.7419C152.631 21.7053 152.667 21.7419 152.74 21.7419C152.886 22.1803 152.631 22.4361 152.266 22.6554C152.485 22.765 152.667 22.8015 152.813 22.8746C152.85 23.0573 152.886 23.2035 152.922 23.4593C153.178 23.2035 153.323 23.0208 153.506 22.8381C153.542 22.8381 153.578 22.8746 153.615 22.8746C153.542 23.0573 153.506 23.24 153.433 23.4593C153.469 23.4593 153.506 23.4227 153.542 23.4227C153.615 23.642 153.761 23.8612 153.688 24.0439C153.542 24.4459 153.287 24.2266 153.068 24.0805C152.995 24.0439 152.85 24.0439 152.85 24.117C152.813 24.1901 152.777 24.3362 152.813 24.3728C152.886 24.4459 153.032 24.519 153.141 24.5555C153.396 24.7017 153.724 24.7017 153.797 25.1036C153.651 25.0671 153.542 25.0305 153.433 24.9209C153.214 24.7017 152.995 24.6651 152.922 24.994C152.85 25.2132 152.922 25.4325 152.922 25.7248C152.704 25.5421 152.449 25.3594 152.266 25.2132C152.121 25.4325 151.938 25.6152 151.938 25.7613C151.938 25.944 152.121 26.1633 152.303 26.4922C151.938 26.3825 151.647 26.3095 151.355 26.2364C151.1 26.1633 150.845 26.0902 150.699 26.4191C150.626 26.6018 150.517 26.7479 150.444 26.821C150.043 26.6383 149.788 26.4922 149.497 26.3825C149.387 26.346 149.278 26.3095 149.132 26.2729C149.096 26.4191 148.986 26.6018 149.059 26.6749C149.205 26.8576 149.387 27.0037 149.606 27.0768C149.788 27.1499 149.97 27.0768 150.298 27.0768C149.934 27.2961 149.715 27.4422 149.497 27.5518C149.314 27.5153 149.096 27.5153 148.877 27.4788C148.877 27.5518 148.841 27.5884 148.841 27.6615C149.023 27.7711 149.205 27.9172 149.387 28.0269C149.096 28.2827 148.914 28.2827 148.695 27.9172C148.586 27.7345 148.403 27.5518 148.294 27.3691C148.258 27.4057 148.221 27.4057 148.185 27.4422C148.185 27.6249 148.148 27.8442 148.148 28.0269C148.112 28.0269 148.075 27.9903 148.075 27.9903C147.966 27.3326 147.237 27.2961 146.945 26.8576C146.909 26.821 146.727 26.7845 146.654 26.8576C146.399 27.0403 146.144 27.2595 145.889 27.4788C146.18 27.698 146.472 27.9172 146.763 28.173C146.873 27.9172 146.982 27.6615 147.128 27.4057C147.164 27.4057 147.201 27.4057 147.237 27.4422C147.201 27.698 147.273 27.9903 147.164 28.2461C147.018 28.575 147.164 28.7942 147.346 29.05C147.492 28.9404 147.638 28.7942 147.784 28.6846C147.82 28.6481 147.857 28.6481 147.893 28.6115C148.002 28.9769 148.148 29.2327 148.658 28.9039C148.586 29.1962 148.586 29.3423 148.513 29.5616C149.023 29.525 149.242 29.7808 149.169 30.2924C149.169 30.3655 149.205 30.5116 149.242 30.5116C149.788 30.5482 149.46 31.0232 149.679 31.2059C149.205 31.3155 148.768 31.3886 148.294 31.4982C148.403 31.681 148.476 31.8271 148.513 31.9367C148.294 31.9733 148.075 32.0098 147.784 32.0464C147.674 31.9733 147.419 31.9002 147.346 31.754C147.128 31.3521 146.8 31.4982 146.472 31.3886C146.69 31.9367 146.69 31.9367 145.961 32.0829C145.925 32.2656 145.889 32.4483 145.852 32.631C145.816 32.631 145.779 32.631 145.706 32.631C145.67 32.5214 145.633 32.4118 145.597 32.2656C145.488 32.3387 145.415 32.4118 145.342 32.4483C145.233 32.3387 145.16 32.156 145.087 32.156C144.613 32.156 144.649 31.8271 144.577 31.5348C144.54 31.4617 144.504 31.3886 144.467 31.3155C144.394 31.3886 144.321 31.4252 144.285 31.4982C144.212 31.5713 144.212 31.681 144.139 31.754C144.066 31.8271 143.921 31.9367 143.811 31.9002C143.738 31.9002 143.629 31.7175 143.629 31.6079C143.629 31.4252 143.702 31.2059 143.665 31.0232C143.665 30.8771 143.593 30.6943 143.52 30.5482C143.483 30.5116 143.265 30.5116 143.228 30.5847C142.937 30.9501 142.572 31.0598 142.062 30.9136C142.135 31.0963 142.171 31.279 142.208 31.279C142.536 31.2425 142.9 31.2059 143.192 31.1694C143.265 31.3521 143.337 31.4982 143.447 31.7175C143.009 31.5713 142.645 32.0464 142.135 31.5713C141.843 31.279 141.26 31.279 141.224 30.6943C140.276 30.8405 140.276 30.8405 139.985 31.2425C139.839 31.2059 139.693 31.1328 139.547 31.0963C139.511 30.4751 139.474 30.4386 139.001 30.3289C138.928 30.2924 138.709 30.402 138.709 30.4386C138.673 30.5847 138.745 30.7674 138.745 30.9867C138.928 30.8405 139.073 30.7674 139.219 30.6578C139.329 31.2425 139.365 31.8271 140.094 31.9733C140.057 32.0098 140.021 32.0464 140.021 32.0829C139.62 32.156 139.183 32.1925 138.745 32.2656C138.745 32.156 138.782 32.0464 138.782 31.9733C138.563 31.9002 138.381 31.754 138.235 31.7906C138.017 31.8271 137.798 31.9733 137.579 32.1194C136.376 32.7406 135.174 33.3618 133.971 33.983C133.825 34.0561 133.643 34.2753 133.643 34.4581C133.57 35.2985 133.461 36.1389 133.57 36.9428C133.789 38.8064 133.461 40.67 133.607 42.5336C133.789 44.726 133.716 46.955 133.752 49.184C133.789 50.7918 133.789 52.4361 133.935 54.0439C134.117 56.4922 135.684 58.2461 138.017 58.8673C139.329 59.2327 140.641 59.1596 141.953 59.05C142.681 58.9769 143.447 58.8308 144.139 58.5384C145.233 58.1365 145.706 57.1499 145.415 56.0171C145.305 55.5786 145.087 55.1036 144.795 54.7382C144.394 54.2266 143.921 53.8247 143.41 53.4227C142.062 52.363 140.677 51.3399 139.256 50.3533C137.397 49.0013 136.996 46.6627 137.761 44.6529C137.871 44.3971 138.017 44.1414 138.235 43.776C138.563 44.8722 139.001 45.7492 139.693 46.4069C140.495 47.1743 141.369 47.832 142.244 48.4897C143.665 49.5494 145.16 50.4995 146.545 51.5957C147.893 52.6554 148.549 54.0805 148.403 55.871C148.294 57.1133 147.784 58.1 146.763 58.8308C145.597 59.6712 144.212 59.9635 142.827 60.1462C142.244 60.2193 141.661 60.2924 141.041 60.3289C140.458 60.3289 139.875 60.3289 139.292 60.3289C138.745 60.2559 138.199 60.1828 137.652 60.1097C136.449 59.9635 135.32 59.6712 134.263 59.0135C132.623 58.0269 131.857 56.4191 131.529 54.6286C131.201 52.9477 131.128 51.2668 131.238 49.5859C131.311 47.9416 131.384 46.3338 131.456 44.6895C131.529 42.9721 131.639 41.2912 131.602 39.5738C131.602 38.8064 131.311 38.0391 131.092 37.2717C130.91 36.5774 130.618 35.9197 130.363 35.262C130.144 34.7504 129.926 34.2023 129.671 33.7272C129.416 33.2522 129.088 32.8137 128.796 32.3387C128.577 31.9367 128.359 31.5348 128.176 31.1328C128.14 31.0598 128.067 30.9867 127.994 30.8771C127.848 31.0598 127.739 31.1694 127.63 31.3155C127.52 31.4982 127.484 31.754 127.156 31.7175C127.119 31.7175 127.01 31.8271 127.01 31.9002C127.047 32.0098 127.083 32.156 127.156 32.1925C127.229 32.2291 127.375 32.1925 127.484 32.156C127.63 32.0829 127.776 31.9002 127.921 31.8637C128.031 31.8271 128.213 31.9367 128.359 31.9733C128.359 32.0098 128.359 32.0464 128.359 32.0829C128.249 32.156 128.14 32.2291 127.994 32.2656C128.14 32.7041 127.775 33.2522 127.338 33.3618C127.119 33.4349 126.901 33.5445 126.646 33.6176C126.208 33.2522 126.208 33.2522 125.99 33.6542C125.698 33.5811 125.407 33.508 125.115 33.4715C124.714 33.3984 124.568 33.6176 124.605 33.9099C124.495 33.7272 124.35 33.5811 124.204 33.3984C124.131 33.2887 124.022 33.1791 123.912 33.0695C123.839 32.9964 123.73 32.9233 123.621 32.8868C123.584 32.9964 123.511 33.0695 123.511 33.106C123.256 33.2522 123.074 33.3253 122.855 33.4349C122.71 33.033 122.491 33.4349 122.236 33.4715C122.199 32.9964 122.6 33.1791 122.819 32.9964C122.783 32.9233 122.71 32.8137 122.637 32.7041C122.783 32.7041 122.855 32.7041 122.965 32.7041C123.22 32.7041 123.366 32.6676 123.256 32.3387C123.22 32.2291 123.22 32.0464 123.293 31.9367C123.511 31.6079 123.475 31.3521 123.293 31.1694C122.965 31.2059 122.746 31.2059 122.527 31.279C122.418 31.3155 122.309 31.3886 122.236 31.4617C122.127 31.5713 122.054 31.681 121.981 31.8271C121.981 31.8637 122.017 31.9367 122.054 32.0098C121.726 32.2291 121.179 31.754 121.033 32.4118C120.851 32.3752 120.596 31.9733 120.487 32.5945C120.268 32.0464 119.976 32.3752 119.685 32.4118C119.575 32.1194 119.43 31.8637 119.284 31.5348C119.211 31.4982 119.029 31.4252 118.847 31.3155C118.847 31.279 118.883 31.2425 118.883 31.2059C118.992 31.1694 119.102 31.1328 119.247 31.0963C119.138 30.9501 119.065 30.804 118.956 30.6943C118.847 30.7674 118.737 30.8405 118.628 30.9136C118.482 31.0232 118.373 31.0963 118.118 31.279C118.008 30.8405 117.935 30.5116 117.79 30.1828C117.753 30.0732 117.607 29.9635 117.498 29.9635C117.316 29.9635 117.17 30.0366 116.951 30.0732C117.134 29.8539 116.915 29.5616 117.206 29.3789C117.279 29.3423 117.097 28.9039 117.024 28.6481C117.206 28.6115 117.389 28.6115 117.534 28.5384C117.644 28.4654 117.826 28.2461 117.79 28.173C117.717 28.0269 117.535 27.8442 117.425 27.8442C117.097 27.9172 117.134 27.7345 117.134 27.5153C117.17 27.1499 116.988 26.9672 116.696 27.1133C116.295 27.2595 116.259 26.8576 116.04 26.7479C115.822 26.6018 115.749 26.6383 115.603 26.821C115.275 27.223 115.02 27.2595 114.728 26.9672C114.582 26.8941 114.437 26.8576 114.327 26.7845C114.254 26.7479 114.218 26.6018 114.182 26.5287C114.291 26.5287 114.4 26.4922 114.51 26.4556C114.692 26.3825 114.874 26.346 115.129 26.2364C115.311 26.2729 115.603 26.346 115.822 26.4191C116.004 26.0537 116.15 25.7613 116.295 25.4325C116.623 25.5056 117.024 25.871 117.279 25.3594C117.425 25.0671 117.243 24.8113 116.769 24.6651C116.878 24.519 116.988 24.3362 117.097 24.1535C116.66 23.9343 116.587 24.2632 116.55 24.4824C116.478 24.7382 116.478 24.9574 116.15 24.994C116.077 24.994 115.967 25.2498 115.931 25.2863C115.566 25.2498 115.202 25.2132 114.765 25.1767C114.765 24.8844 114.765 24.5555 114.765 24.1901C114.473 24.2632 114.072 23.7881 113.89 24.3362C113.635 25.0305 114.437 24.6651 114.546 24.8844C114.51 25.1401 114.473 25.3594 114.4 25.6517C114.182 25.5421 113.89 25.3959 113.635 25.2863C113.489 25.5421 113.38 25.7248 113.198 26.0171C113.052 25.7613 112.979 25.6152 112.87 25.469C112.76 25.469 112.651 25.469 112.542 25.469C112.214 25.5056 111.995 25.4325 111.886 25.0671C111.813 24.8478 111.594 24.6651 111.412 24.4093C111.776 24.0805 112.214 23.7151 112.614 23.3496C112.578 23.3131 112.578 23.2766 112.542 23.24C112.359 23.2766 112.214 23.3131 111.922 23.3496C112.177 23.0939 112.651 23.24 112.542 22.8015C111.813 22.6554 111.084 22.4361 110.574 23.3496C110.537 23.3131 110.464 23.2766 110.428 23.24C110.428 22.9477 110.428 22.6919 110.428 22.3996C110.428 22.3265 110.428 22.2169 110.355 22.1803C110.282 22.1438 110.173 22.1803 110.136 22.2169C110.027 22.3265 109.918 22.4361 109.808 22.5823C109.626 22.2169 109.626 22.2169 110.318 21.7053C110.1 21.5957 109.918 21.4861 109.735 21.413C109.772 21.3764 109.808 21.3399 109.845 21.2668C110.209 21.3399 110.61 21.3034 110.829 21.7419C110.902 21.888 111.12 21.9246 111.266 22.0342C111.302 21.9976 111.339 21.9611 111.375 21.888C111.266 21.7784 111.157 21.6322 111.084 21.5226C111.448 21.7053 111.886 21.4495 112.25 21.9246C112.505 22.2169 113.125 22.4361 113.671 22.1803C113.416 21.888 113.125 21.6322 113.27 21.1937C113.343 20.938 113.125 20.938 112.906 20.9745C112.724 21.011 112.542 21.0841 112.396 21.1572C112.25 20.3168 112.25 20.3168 111.594 20.6091C111.448 20.3898 111.412 20.2437 111.63 20.0244C111.703 19.9514 111.703 19.7321 111.74 19.6225C111.813 19.4763 111.922 19.3302 112.031 19.184C112.104 19.2936 112.177 19.4398 112.214 19.5494C112.286 20.0975 112.797 20.4264 113.307 20.2071C113.526 20.0975 113.562 19.9879 113.38 19.8052C113.27 19.6956 113.198 19.5859 113.161 19.5494C113.489 19.5129 113.744 19.5129 114.109 19.4763C113.999 19.6956 113.926 19.8417 113.817 20.0244C114.109 20.2071 114.4 20.2802 114.582 19.8783C114.728 19.5859 114.874 19.2571 114.983 19.0013C115.129 19.0378 115.311 19.184 115.421 19.1109C115.566 19.0378 115.712 18.8551 115.749 18.709C115.785 18.5993 115.676 18.4532 115.639 18.3436C115.53 18.4166 115.384 18.4532 115.275 18.5263C115.421 18.1609 115.566 17.7954 115.712 17.43C115.639 17.357 115.53 17.2839 115.384 17.1377C115.603 17.0281 115.785 16.9185 116.04 16.7358C115.858 16.6627 115.749 16.5531 115.676 16.5531C115.421 16.6627 115.275 16.6261 115.056 16.5165C114.983 16.48 114.765 16.7358 114.51 16.9185C114.254 16.8088 113.926 16.6261 113.526 16.48C113.38 16.4434 113.161 16.5531 112.979 16.5896C112.906 16.1876 112.979 15.603 112.25 15.6395C112.359 15.2741 112.906 15.0183 112.469 14.5433C112.469 14.5433 112.614 14.2875 112.76 14.2144C112.87 14.1779 113.015 14.2144 113.161 14.2144C113.198 14.0683 113.234 13.9221 113.27 13.6298C113.38 13.849 113.453 13.9587 113.526 14.0683C113.598 14.1779 113.708 14.2875 113.854 14.3606C113.89 14.3972 114.036 14.2144 114.109 14.1779C114.254 14.1048 114.364 14.0317 114.51 13.9952C114.655 13.9587 114.801 13.9587 114.947 13.9587C114.838 13.5567 114.619 13.7029 114.437 13.7394C114.254 13.8125 114.072 13.849 113.781 13.9587C113.963 13.5933 114.072 13.374 114.218 13.0451C114.473 12.9355 114.983 13.4471 115.311 12.8259C115.166 12.7528 115.056 12.6797 114.983 12.6432C114.983 12.6067 114.983 12.6067 114.983 12.5701C115.093 12.6067 115.202 12.6432 115.311 12.6797C115.494 12.6797 115.639 12.6797 115.822 12.6797C115.785 12.497 115.749 12.3143 115.712 12.1316C115.676 12.0585 115.566 12.022 115.494 11.9489C115.712 11.9855 115.894 11.9855 116.113 11.9855C116.113 11.9489 116.113 11.9124 116.15 11.8393C116.04 11.7662 115.931 11.6566 115.822 11.547C116.55 11.5835 116.55 11.5835 116.514 10.9623C116.951 10.9989 117.352 10.7796 117.717 10.3777ZM131.566 35.737C131.602 35.737 131.639 35.737 131.675 35.737C131.748 35.2985 131.784 34.8235 131.93 34.385C132.185 33.5445 131.821 32.8868 131.384 32.2291C131.019 31.681 130.618 31.0963 130.254 30.5482C130.29 30.5116 130.327 30.5116 130.363 30.4751C130.837 30.8405 131.347 31.2059 131.894 31.6444C131.821 31.2425 131.821 30.6943 131.712 30.6943C131.274 30.5847 130.983 30.2924 130.655 30.0366C130.509 29.927 130.327 29.8905 130.144 29.8539C130.072 29.8174 129.926 29.8174 129.853 29.8539C129.78 29.8905 129.707 30.0366 129.744 30.1097C129.78 30.2559 129.889 30.4386 129.962 30.5847C130.035 30.7309 130.181 30.8771 130.217 31.0232C130.254 31.0963 130.181 31.2059 130.144 31.3155C130.035 31.279 129.926 31.2425 129.853 31.1694C129.598 30.8405 129.343 30.7674 128.942 31.0232C129.16 31.4982 129.343 31.9367 129.561 32.4118C129.744 32.7772 129.889 33.1791 130.144 33.3984C130.837 33.9465 131.165 34.7138 131.42 35.4812C131.493 35.5543 131.529 35.6274 131.566 35.737ZM135.064 30.9501C134.554 31.4252 133.752 31.9002 133.752 32.9964C134.044 32.9599 134.336 32.9964 134.591 32.8868C135.72 32.4118 136.85 31.9002 137.725 30.9867C137.834 30.8771 137.798 30.6943 137.834 30.5116C137.652 30.5116 137.433 30.4386 137.251 30.5116C137.105 30.5482 137.032 30.7674 136.923 30.8771C136.923 30.8405 136.887 30.804 136.887 30.7674C136.704 30.804 136.486 30.804 136.376 30.8405C136.158 30.7309 135.976 30.6213 135.83 30.6213C135.392 30.6944 135.793 31.0963 135.793 31.1328C135.575 31.0963 135.356 31.0232 135.064 30.9501ZM133.242 32.6676C133.716 32.3752 135.247 30.3289 135.392 29.7808C135.028 29.8905 134.664 30.1462 134.299 29.7443C134.226 29.9635 134.226 30.1462 134.226 30.3655C134.226 30.4386 134.263 30.5116 134.263 30.5847C134.19 30.5847 134.08 30.5847 134.008 30.5847C133.935 30.5482 133.862 30.5116 133.752 30.402C133.607 31.1694 132.987 31.8271 133.242 32.6676ZM145.961 28.0269C145.488 27.9903 145.16 27.7711 144.941 27.4057C144.868 27.2961 144.649 27.2595 144.467 27.1864C144.467 27.4057 144.431 27.6249 144.467 27.8076C144.467 27.9172 144.577 27.9903 144.649 28.0634C144.759 28.2096 144.868 28.3192 144.977 28.4654C145.05 28.3557 145.123 28.2461 145.16 28.2096C145.561 28.2096 145.889 28.2096 146.253 28.2096C146.289 28.1365 146.326 28.1 146.362 28.0269C146.18 27.7711 145.998 27.5153 145.779 27.2961C145.743 27.2595 145.597 27.2961 145.488 27.2961C145.524 27.4057 145.488 27.5518 145.561 27.6249C145.67 27.8076 145.816 27.9172 145.961 28.0269ZM113.125 23.0939C112.797 23.3496 112.286 23.2766 112.359 23.7516C112.068 23.8612 111.849 23.9708 111.594 24.0805C111.63 24.117 111.63 24.1535 111.667 24.2266C112.323 24.2632 112.906 24.117 113.489 23.7516C113.343 23.5324 113.27 23.3496 113.125 23.0939ZM127.411 4.20227C127.593 4.0561 127.739 3.94648 127.848 3.80032C127.885 3.72724 127.848 3.50799 127.848 3.50799C127.63 3.47145 127.338 3.39837 127.192 3.50799C127.01 3.61761 126.864 3.8734 126.828 4.09264C126.828 4.31189 127.01 4.53113 127.156 4.71384C127.229 4.6773 127.375 4.64076 127.411 4.56767C127.447 4.45805 127.411 4.34843 127.411 4.20227ZM145.961 7.4544C146.144 7.60056 146.326 7.67364 146.362 7.78326C146.435 8.11213 146.69 8.03905 146.836 7.96597C146.945 7.92943 147.055 7.71018 147.055 7.60056C147.055 6.90628 147.018 6.86974 146.362 7.19861C146.253 7.27169 146.144 7.34477 145.961 7.4544ZM144.431 28.5384C143.921 28.1365 143.884 28.1365 143.629 28.5019C143.52 28.6481 143.374 28.7942 143.265 28.9404C143.192 29.0135 143.119 29.1231 143.155 29.2327C143.192 29.3058 143.301 29.452 143.374 29.452C143.447 29.452 143.593 29.3423 143.629 29.2693C143.665 28.9769 143.775 28.7942 144.103 28.7942C144.176 28.7577 144.285 28.6115 144.431 28.5384ZM113.817 21.6322C113.817 21.6688 113.781 21.7053 113.781 21.7784C113.926 21.9246 114.036 22.1073 114.182 22.2169C114.291 22.29 114.473 22.29 114.619 22.2534C114.692 22.2169 114.765 22.0342 114.728 21.9246C114.655 21.8149 114.546 21.6688 114.4 21.6322C114.218 21.5957 113.999 21.6322 113.817 21.6322ZM148.877 29.6347C148.148 29.8539 148.148 29.8539 148.148 30.0732C148.877 30.2193 148.986 30.1097 148.877 29.6347ZM145.305 28.4288C145.451 28.6846 145.561 28.8673 145.67 29.05C145.779 28.9769 145.961 28.9039 145.961 28.8673C145.925 28.5384 145.779 28.3923 145.305 28.4288ZM140.677 29.8174C140.531 29.7077 140.422 29.5616 140.349 29.5616C140.24 29.5616 140.057 29.7443 140.057 29.7808C140.094 29.927 140.24 30.0366 140.313 30.1828C140.422 30.0732 140.531 29.9635 140.677 29.8174Z" fill="#648455"/>
<path d="M141.005 60.0001C141.588 59.927 142.171 59.8905 142.791 59.8174C144.176 59.6347 145.561 59.3424 146.727 58.5019C147.748 57.7711 148.258 56.7845 148.367 55.5421C148.513 53.7882 147.857 52.3265 146.508 51.2668C145.123 50.1706 143.629 49.2206 142.208 48.1609C141.333 47.5031 140.459 46.8089 139.657 46.078C138.964 45.4203 138.527 44.5433 138.199 43.4471C138.017 43.8125 137.835 44.0683 137.725 44.3241C136.923 46.3338 137.361 48.6359 139.219 50.0244C140.604 51.0476 141.989 52.0707 143.374 53.0939C143.884 53.4958 144.358 53.9343 144.759 54.4093C145.051 54.7748 145.233 55.2498 145.379 55.6883C145.67 56.821 145.196 57.7711 144.103 58.2096C143.411 58.4654 142.645 58.6481 141.916 58.7212C140.604 58.8673 139.256 58.9039 137.98 58.5385C135.611 57.9173 134.081 56.1633 133.898 53.7151C133.789 52.1073 133.753 50.4629 133.716 48.8551C133.68 46.6262 133.753 44.3972 133.57 42.2047C133.425 40.3411 133.716 38.4776 133.534 36.614C133.461 35.8101 133.534 34.9696 133.607 34.1292C133.607 33.9465 133.789 33.7638 133.935 33.6542C135.138 33.033 136.34 32.4118 137.543 31.7906C137.762 31.681 137.98 31.5348 138.199 31.4617C138.345 31.4252 138.527 31.5713 138.746 31.6444C138.746 31.681 138.746 31.7906 138.709 31.9368C139.147 31.8637 139.547 31.8271 139.985 31.7541C140.021 31.7175 140.058 31.681 140.058 31.6444C139.329 31.4983 139.292 30.9136 139.183 30.329C139.001 30.4386 138.891 30.5117 138.709 30.6578C138.673 30.4386 138.636 30.2559 138.673 30.1097C138.673 30.0732 138.855 29.9635 138.964 30.0001C139.438 30.1097 139.475 30.1828 139.511 30.7674C139.657 30.804 139.803 30.8771 139.948 30.9136C140.24 30.5117 140.24 30.5117 141.187 30.3655C141.224 30.9502 141.807 30.9502 142.099 31.2425C142.572 31.7175 142.973 31.2059 143.411 31.3886C143.301 31.1694 143.228 31.0232 143.155 30.8405C142.864 30.8771 142.536 30.9502 142.171 30.9502C142.135 30.9502 142.099 30.804 142.026 30.5847C142.536 30.7309 142.9 30.6213 143.192 30.2559C143.228 30.1828 143.483 30.1828 143.483 30.2193C143.556 30.3655 143.629 30.5482 143.629 30.6944C143.629 30.8771 143.556 31.0963 143.593 31.279C143.593 31.3886 143.702 31.5348 143.775 31.5713C143.884 31.5713 143.994 31.4983 144.103 31.4252C144.176 31.3521 144.176 31.2425 144.249 31.1694C144.285 31.0963 144.358 31.0598 144.431 30.9867C144.467 31.0598 144.54 31.1329 144.54 31.2059C144.613 31.4983 144.613 31.8271 145.051 31.8271C145.123 31.8271 145.196 32.0098 145.306 32.1195C145.379 32.0829 145.451 32.0098 145.561 31.9368C145.597 32.0829 145.634 32.1925 145.67 32.3022C145.707 32.3022 145.743 32.3022 145.816 32.3022C145.852 32.1195 145.889 31.9368 145.925 31.7541C146.654 31.6079 146.654 31.6079 146.436 31.0598C146.764 31.1694 147.092 31.0232 147.31 31.4252C147.383 31.5713 147.675 31.6444 147.748 31.7175C148.039 31.681 148.221 31.6444 148.476 31.6079C148.44 31.5348 148.367 31.3886 148.258 31.1694C148.732 31.0598 149.169 30.9867 149.643 30.8771C149.424 30.6944 149.752 30.1828 149.205 30.1828C149.169 30.1828 149.096 30.0366 149.132 29.9636C149.205 29.452 148.987 29.2327 148.476 29.2327C148.513 29.0135 148.549 28.8308 148.622 28.575C148.148 28.9039 147.966 28.6481 147.857 28.2827C147.784 28.3192 147.748 28.3558 147.748 28.3558C147.602 28.4654 147.456 28.6115 147.31 28.7212C147.164 28.4654 147.019 28.2827 147.128 27.9173C147.237 27.698 147.164 27.4057 147.201 27.1134C147.164 27.1134 147.128 27.1134 147.092 27.0768C146.982 27.3326 146.873 27.5519 146.727 27.8442C146.436 27.5884 146.144 27.3692 145.852 27.1499C146.108 26.9307 146.363 26.7114 146.618 26.5287C146.691 26.4922 146.873 26.4922 146.909 26.5287C147.201 26.9672 147.93 27.0403 148.039 27.6615C148.039 27.6615 148.076 27.698 148.112 27.698C148.112 27.5153 148.148 27.2961 148.148 27.1134C148.185 27.0768 148.221 27.0768 148.258 27.0403C148.404 27.223 148.549 27.3692 148.659 27.5884C148.841 27.9173 149.06 27.9538 149.351 27.698C149.169 27.5519 148.987 27.4422 148.804 27.3326C148.804 27.2595 148.841 27.223 148.841 27.1499C149.06 27.1864 149.278 27.1864 149.46 27.223C149.679 27.0768 149.934 26.9307 150.262 26.748C149.971 26.748 149.752 26.7845 149.57 26.748C149.351 26.6749 149.169 26.5287 149.023 26.346C148.987 26.2729 149.06 26.0902 149.096 25.9441C149.205 25.9806 149.351 25.9806 149.46 26.0537C149.752 26.1633 150.007 26.3095 150.408 26.4922C150.481 26.3826 150.59 26.2364 150.663 26.0902C150.809 25.7614 151.064 25.8344 151.319 25.9075C151.611 25.9806 151.866 26.0537 152.267 26.1633C152.084 25.8344 151.902 25.6517 151.902 25.4325C151.902 25.2863 152.084 25.1036 152.23 24.8844C152.412 25.0305 152.668 25.2132 152.886 25.396C152.886 25.1402 152.85 24.8844 152.886 24.6651C152.959 24.3363 153.178 24.3728 153.396 24.5921C153.469 24.6651 153.615 24.7382 153.761 24.7748C153.724 24.3728 153.36 24.3728 153.105 24.2266C152.996 24.1536 152.85 24.117 152.777 24.0439C152.74 24.0074 152.777 23.8612 152.813 23.7882C152.85 23.7516 152.996 23.7151 153.032 23.7516C153.251 23.8978 153.542 24.0805 153.652 23.7151C153.724 23.5324 153.542 23.3131 153.506 23.0939C153.469 23.0939 153.433 23.1304 153.396 23.1304C153.469 22.9477 153.506 22.765 153.579 22.5458C153.542 22.5458 153.506 22.5092 153.469 22.5092C153.287 22.6919 153.141 22.8746 152.886 23.1304C152.85 22.8381 152.813 22.6919 152.777 22.5458C152.631 22.4727 152.449 22.3996 152.23 22.3265C152.595 22.0707 152.85 21.8515 152.704 21.413C152.668 21.413 152.595 21.413 152.558 21.413C152.34 21.5592 152.048 21.6688 151.939 21.3765C151.866 21.2303 152.012 20.9014 152.157 20.7918C152.485 20.5726 152.267 20.3533 152.157 20.1341C152.34 20.061 152.485 19.9514 152.668 19.8783C152.668 19.6225 152.376 19.2936 152.886 19.2206C152.303 18.5263 152.485 18.5263 153.324 18.0878C153.178 17.7955 153.214 17.5762 153.724 17.4666C153.287 17.2473 152.996 17.0646 152.704 16.9185C152.595 17.1377 152.485 17.2473 152.34 17.5031C152.194 17.2473 152.048 17.1012 152.012 16.9185C151.902 16.48 151.975 16.0415 152.412 15.8223C152.595 15.7126 152.85 15.7857 153.105 15.7492C153.105 15.7857 153.105 15.8223 153.105 15.8588C153.251 15.7857 153.433 15.6761 153.615 15.5665C153.579 15.3472 153.36 15.0549 153.834 14.9818C153.724 14.7991 153.688 14.1414 153.724 13.9587C153.761 13.8125 153.724 13.6298 153.724 13.4106C153.579 13.5567 153.469 13.6664 153.324 13.8125C153.251 13.6298 153.214 13.5202 153.178 13.4836C152.923 13.5202 152.668 13.5567 152.412 13.5933C152.412 13.4106 152.376 13.2279 152.376 13.0086C152.412 13.0086 152.449 12.9721 152.485 12.9721C152.376 12.899 152.23 12.8625 152.157 12.7894C152.084 12.7163 152.048 12.5701 151.975 12.4605C152.084 12.424 152.194 12.3509 152.303 12.3509C152.595 12.3509 152.886 12.3874 153.214 12.3874C153.214 12.3509 153.214 12.3143 153.214 12.2413C152.996 12.1316 152.704 12.022 152.595 11.8393C152.485 11.6566 152.558 11.3643 152.558 11.0354C152.267 10.7065 152.303 10.6335 152.85 10.4873C152.704 10.4508 152.522 10.3777 152.376 10.3411C152.23 9.75648 152.084 9.13529 151.939 8.5141C151.756 8.87951 151.647 9.28145 151.137 9.28145C151.064 9.13529 150.991 8.95259 150.918 8.73334C150.882 8.91605 150.845 9.06221 150.772 9.13529C150.7 9.20837 150.554 9.28145 150.444 9.28145C150.372 9.28145 150.299 9.17183 150.262 9.09875C150.153 8.91605 150.044 8.76988 149.971 8.62372C149.716 8.76988 149.57 8.84296 149.424 8.91605C149.351 8.66026 149.278 8.5141 149.205 8.33139C149.132 8.40447 149.023 8.47756 148.914 8.55064C148.877 8.44102 148.841 8.33139 148.768 8.29485C148.695 8.22177 148.549 8.18523 148.44 8.11215C148.44 8.22177 148.404 8.33139 148.404 8.44102C148.404 8.55064 148.476 8.73334 148.404 8.76988C148.294 8.84296 148.112 8.91605 148.003 8.84296C147.784 8.6968 147.383 8.40447 147.42 8.33139C147.565 8.03907 147.82 7.74674 148.039 7.49095C148.112 7.41787 148.221 7.41787 148.404 7.38133C148.294 7.34479 148.221 7.30825 148.185 7.27171C147.82 7.19863 147.748 6.97938 147.966 6.68706C148.112 6.50435 148.258 6.32165 148.404 6.1024C147.565 5.59083 147.565 5.59083 147.42 4.27536C147.274 4.34845 147.092 4.34845 147.019 4.45807C146.654 4.9331 146.508 4.9331 146.144 4.49461C146.071 4.42153 145.998 4.34845 145.852 4.16574C145.852 4.38499 145.852 4.49461 145.889 4.56769C146.035 4.96964 145.925 5.18888 145.524 5.33505C145.342 5.40813 145.196 5.62737 145.051 5.77354C145.087 5.77354 145.16 5.81008 145.196 5.81008C145.269 5.99278 145.379 6.17549 145.451 6.35819C145.524 6.46781 145.597 6.57743 145.67 6.68706C145.707 6.76014 145.78 6.86976 145.816 6.94284C145.707 6.94284 145.561 7.01592 145.524 6.97938C145.379 6.79668 145.306 6.57743 145.16 6.28511C144.723 6.13895 144.723 6.1024 144.832 5.48121C144.759 5.62737 144.686 5.70046 144.577 5.88316C144.504 5.737 144.467 5.62737 144.395 5.55429C144.322 5.48121 144.249 5.40813 144.176 5.33505C144.139 5.40813 144.03 5.51775 144.03 5.59083C144.139 6.28511 143.556 6.46781 143.192 6.79668C143.155 6.83322 142.973 6.76014 142.937 6.7236C142.9 6.61398 142.864 6.46781 142.9 6.39473C142.937 6.28511 143.083 6.21203 143.083 6.21203C143.046 5.84662 143.01 5.62737 142.937 5.37159C142.499 4.78694 142.499 4.78694 142.536 4.23882C142.427 4.27536 142.354 4.34845 142.281 4.38499C142.062 4.45807 141.843 4.53115 141.916 4.1292C141.953 4.01958 141.88 3.87342 141.88 3.76379C141.843 3.76379 141.771 3.76379 141.734 3.76379C141.698 3.90996 141.698 4.05612 141.661 4.23882C141.625 4.56769 141.333 4.75039 141.042 4.56769C140.823 4.45807 140.75 4.3119 140.932 4.09266C141.005 4.01958 141.078 3.90996 141.078 3.72725C141.005 3.76379 140.896 3.80033 140.823 3.83687C140.75 3.87342 140.641 3.9465 140.459 4.05612C140.495 3.72725 140.531 3.47147 140.604 3.1426C140.131 3.36184 139.73 3.54455 139.256 3.76379C138.964 3.58109 138.891 3.3253 139.147 3.03298C139.402 2.77719 139.365 2.55795 139.183 2.26562C139.037 2.37524 138.928 2.48486 138.819 2.55795C138.673 2.63103 138.527 2.66757 138.272 2.77719C138.345 2.41178 138.381 2.11946 138.454 1.82713C138.381 1.82713 138.126 1.75405 138.09 1.82713C137.907 2.11946 137.616 2.19254 137.434 2.00983C137.288 1.82713 137.324 1.49826 137.288 1.20594C137.288 1.09631 137.288 0.986692 137.288 0.840528C137.251 0.840528 137.179 0.840528 137.142 0.840528C137.069 0.950151 136.996 1.05977 136.923 1.1694C136.778 0.986692 136.668 0.767447 136.486 0.694365C136.34 0.657825 136.158 0.877069 135.939 0.986692C135.794 0.877069 135.611 0.694365 135.32 0.47512C135.356 0.657825 135.32 0.767447 135.393 0.877069C135.611 1.24248 135.393 1.3521 135.101 1.42518C134.846 1.46172 134.591 1.46172 134.372 1.42518C133.971 1.38864 134.044 1.05977 134.081 0.621284C133.862 0.767447 133.68 0.877069 133.68 0.91361C133.862 1.46172 133.425 1.64443 133.133 1.97329C132.987 1.75405 132.878 1.49826 132.659 1.31556C132.295 1.02323 132.222 1.46172 132.003 1.60789C131.93 1.57134 131.821 1.5348 131.785 1.49826C131.384 1.5348 131.639 2.41178 131.019 1.97329C130.691 1.75405 130.728 1.27902 131.056 0.91361C130.91 0.840529 130.728 0.840529 130.618 0.730906C130.509 0.621284 130.473 0.475121 130.363 0.255876C130.254 0.365498 130.145 0.402039 130.108 0.511661C129.962 0.840529 129.671 0.91361 129.379 0.730906C129.124 0.584743 129.197 0.292417 129.343 0.0731717C129.379 -0.0364507 129.416 -0.146073 129.452 -0.292236C137.98 -0.292236 146.472 -0.292236 155 -0.292236C155 19.6956 155 39.6834 155 59.7078C150.335 60.0001 145.67 60.0001 141.005 60.0001ZM145.415 39.5372C142.755 40.5238 141.515 43.1548 142.354 45.0914C144.504 44.5799 145.78 42.3143 145.415 39.5372ZM140.058 44.9818C141.443 43.8125 141.115 41.4374 140.021 40.2681C138.746 41.8028 138.782 43.9952 140.058 44.9818ZM142.281 36.9063C140.896 38.1121 140.604 40.2315 141.661 41.145C142.937 40.3046 143.192 38.4776 142.281 36.9063ZM140.058 36.6505C140.677 35.0427 139.183 33.3618 137.907 32.9964C137.579 34.7504 138.563 36.4313 140.058 36.6505Z" fill="white"/>
<path d="M70.7393 33.9099C70.7393 33.7272 70.7393 33.6176 70.7393 33.4714C73.0717 33.4714 75.3678 33.4714 77.7731 33.4714C77.7731 33.6907 77.7731 33.8734 77.7731 34.0561C77.7731 37.564 77.7731 41.0719 77.7731 44.5798C77.7731 45.0183 77.9189 45.1279 78.3562 45.1279C80.6887 45.0914 82.9847 45.1279 85.3172 45.1279C87.3946 45.1279 88.8159 43.7029 88.8524 41.5835C88.8524 39.0622 88.8524 36.5409 88.8524 34.0561C88.8524 33.4714 88.8523 33.4714 89.4355 33.4714C90.383 33.4714 91.3306 33.4714 92.3146 33.4714C92.3146 42.0585 92.3146 50.6091 92.3146 59.1962C91.5493 59.1962 90.7475 59.1962 89.9821 59.1962C88.8523 59.1962 88.8524 59.1962 88.8524 58.0634C88.8524 54.3728 88.8524 50.6821 88.8524 46.955C88.8524 46.3703 88.8523 46.3703 88.2692 46.3703C85.9003 46.3703 83.5314 46.3703 81.126 46.3703C79.1945 46.3703 77.8096 47.7954 77.8096 49.7321C77.8096 52.2899 77.8096 54.8478 77.8096 57.4057C77.8096 58.7211 76.534 59.525 75.3678 59.0135C74.6753 58.7211 74.3109 58.1365 74.2744 57.3691C74.2744 56.4191 74.2744 55.4325 74.2744 54.4824C74.2744 49.0744 74.2744 43.6663 74.2744 38.2583C74.2744 37.5275 74.2015 36.7601 74.0922 36.0293C73.91 34.6407 73.1082 33.983 71.5775 33.9099C71.2495 33.9099 71.0308 33.9099 70.7393 33.9099Z" fill="#648455"/>
<path d="M0.145996 33.9098C0.145996 33.7271 0.145996 33.6175 0.145996 33.4348C0.32822 33.4348 0.437555 33.4348 0.583334 33.4348C4.30071 33.4348 8.01809 33.4348 11.7355 33.4348C12.9746 33.4348 14.2137 33.6175 15.3435 34.1656C17.6031 35.2253 18.7329 37.0889 18.9515 39.5737C19.0609 40.7795 18.988 41.9854 18.6235 43.1181C17.8582 45.4933 16.1817 46.8453 13.7764 47.2107C12.5737 47.3934 11.2981 47.3569 10.059 47.3934C9.69455 47.4299 9.3301 47.4299 8.96565 47.503C7.83586 47.7223 7.28919 48.4531 7.25274 49.8051C7.2163 51.4129 7.25274 52.9841 7.25274 54.5919C7.25274 55.9439 7.25274 57.296 7.25274 58.6114C7.25274 59.0134 7.10697 59.123 6.74252 59.0865C6.59674 59.0499 6.41451 59.0865 6.26873 59.0865C4.66516 59.0865 3.68115 58.0999 3.68115 56.4921C3.68115 50.5359 3.68115 44.5798 3.68115 38.5871C3.68115 37.7832 3.60826 36.9427 3.53537 36.1388C3.38959 34.7868 2.87936 34.0926 1.02067 33.9098C0.729114 33.9098 0.474 33.9098 0.145996 33.9098ZM7.2163 39.5371C7.25274 39.5371 7.25274 39.5371 7.2163 39.5371C7.2163 41.0353 7.2163 42.5335 7.2163 43.9951C7.25274 45.4933 7.79942 46.151 9.22077 46.1876C10.2412 46.1876 11.2981 46.1145 12.2821 45.9318C14.1408 45.5664 15.3435 44.3605 15.6351 42.4604C15.7808 41.4372 15.8173 40.341 15.708 39.2813C15.5257 36.9793 13.995 35.3715 11.7355 34.8599C10.387 34.5676 9.03854 34.6407 7.69008 34.6041C7.28919 34.6041 7.14341 34.6772 7.17986 35.1157C7.25275 36.6139 7.2163 38.0755 7.2163 39.5371Z" fill="#648455"/>
<path d="M20.3728 41.6931C22.3408 41.6931 24.2724 41.6931 26.3133 41.6931C26.3133 41.8758 26.3133 42.0585 26.3133 42.2412C26.3133 45.7126 26.2769 49.184 26.3133 52.6188C26.3133 53.4593 26.4226 54.2997 26.6413 55.1401C27.3338 57.9172 30.468 58.173 32.0716 56.7114C33.3472 55.5421 34.0032 54.0805 34.2218 52.3996C34.2947 51.7418 34.3312 51.0476 34.3312 50.3898C34.3312 47.6858 34.3312 44.9452 34.3312 42.2412C34.3312 42.0585 34.3312 41.9124 34.3312 41.6931C35.3881 41.6931 36.4085 41.6931 37.5019 41.6931C37.5019 46.0415 37.5019 50.3533 37.5019 54.7382C36.8823 54.8478 36.2263 54.9209 35.6067 55.0305C34.5498 55.2498 33.6752 55.7979 32.9827 56.6383C32.6183 57.0768 32.2174 57.4787 31.8529 57.9172C30.796 59.1596 29.4111 59.6347 27.844 59.525C27.1515 59.4885 26.4591 59.3423 25.8031 59.0865C24.5275 58.575 23.9444 57.4422 23.6893 56.1998C23.4342 54.994 23.2884 53.7516 23.2519 52.5092C23.179 50.4264 23.2519 48.3435 23.2155 46.2973C23.2155 45.603 23.0697 44.9087 22.8875 44.251C22.5595 43.1547 21.8306 42.4605 20.7008 42.2047C20.4092 42.1681 20.1906 42.0585 20.3728 41.6931Z" fill="#648455"/>
<path d="M127.229 56.894C126.609 56.894 126.063 56.894 125.48 56.894C124.459 56.894 123.548 57.1863 122.71 57.771C122.382 58.0268 122.054 58.246 121.726 58.5018C120.924 59.2326 120.013 59.4884 118.956 59.5249C117.644 59.5615 116.441 59.2326 115.348 58.4287C113.088 56.7113 113.526 53.5322 115.457 52.0341C116.733 51.0475 118.227 50.5724 119.758 50.3532C120.96 50.1705 122.2 50.0609 123.439 49.9512C123.84 49.9147 124.022 49.8051 123.985 49.4031C123.876 47.7588 123.803 46.1144 123.73 44.4701C123.73 44.2143 123.621 43.922 123.512 43.6662C123.074 42.3507 122.163 41.8026 120.815 41.9488C119.758 42.0584 118.774 43.1546 118.664 44.2874C118.628 44.6894 118.628 45.0913 118.591 45.4567C118.519 46.0414 118.263 46.5164 117.753 46.8087C117.17 47.1376 116.879 47.101 116.405 46.626C115.931 46.151 115.421 45.676 114.947 45.2375C114.765 45.0548 114.692 44.9086 114.765 44.6163C115.056 43.4835 115.822 42.7527 116.769 42.2046C117.899 41.5834 119.102 41.2545 120.377 41.2545C121.325 41.2545 122.272 41.2545 123.184 41.4372C125.443 41.8757 126.609 43.1181 126.974 45.4202C127.083 46.1144 127.156 46.8453 127.156 47.5395C127.192 50.4628 127.156 53.3495 127.156 56.2728C127.229 56.5286 127.229 56.6747 127.229 56.894ZM124.058 53.0207C124.058 52.3264 124.058 51.6321 124.058 50.9744C124.058 50.7551 124.022 50.609 123.73 50.6455C122.564 50.7186 121.398 50.8282 120.304 51.2302C118.154 51.9975 117.243 53.4226 117.535 55.6881C117.753 57.4056 119.138 58.4287 120.815 58.0998C122.054 57.844 122.928 57.0767 123.621 56.0535C123.912 55.6151 124.058 55.1766 124.022 54.665C124.022 54.1169 124.058 53.5688 124.058 53.0207Z" fill="#648455"/>
<path d="M63.0496 48.2339C61.9198 48.2339 60.7901 48.2339 59.6967 48.2339C58.3483 48.2704 57.6922 48.8916 57.6922 50.2436C57.6922 51.0841 57.7651 51.9245 57.9838 52.7649C58.4576 54.592 59.3687 56.1998 60.9358 57.3325C62.7581 58.6115 64.799 58.7942 66.9492 58.2461C67.3137 58.173 67.6417 58.0634 68.0061 58.0268C68.1519 58.0268 68.3341 58.1364 68.4799 58.2095C68.3706 58.3557 68.2977 58.6115 68.1519 58.648C67.6781 58.8307 67.1679 59.0134 66.6577 59.1596C64.5439 59.7077 62.3936 59.8173 60.2798 59.2327C56.9269 58.3191 54.9589 56.0536 54.3029 52.6553C53.8655 50.4263 53.9384 48.1608 54.6309 46.0049C55.5055 43.3009 57.6558 41.6565 60.4985 41.4373C61.9927 41.3277 63.4505 41.3277 64.8354 41.8758C66.4755 42.5335 67.8239 43.5567 68.3341 45.3472C68.8444 47.0646 67.9697 48.2339 66.1475 48.2339C65.1634 48.2339 64.1065 48.2339 63.0496 48.2339ZM60.6807 47.3569C60.6807 47.3204 60.6807 47.3204 60.6807 47.2838C61.7376 47.2838 62.7945 47.3204 63.8514 47.2838C64.8719 47.2107 65.455 46.6261 65.4186 45.7856C65.3821 45.0183 65.1634 44.324 64.7261 43.7028C63.0861 41.1815 59.806 41.6565 58.6763 43.7394C58.0931 44.7625 57.9109 45.8953 57.8016 47.0646C57.7651 47.3569 57.9109 47.3934 58.166 47.3934C59.0043 47.3569 59.8425 47.3569 60.6807 47.3569Z" fill="#648455"/>
<path d="M105.8 48.2339C104.706 48.2339 103.649 48.2339 102.556 48.2339C101.062 48.2339 100.369 48.9282 100.406 50.4264C100.442 52.3996 100.989 54.2266 102.192 55.8344C104.014 58.2461 106.456 58.8673 109.298 58.3557C109.736 58.2826 110.173 58.1365 110.61 58.0999C110.793 58.0634 111.157 58.1365 111.193 58.2461C111.339 58.5749 111.048 58.6846 110.793 58.7942C109.043 59.4154 107.257 59.7077 105.399 59.6346C104.014 59.5616 102.665 59.3058 101.426 58.6846C99.3124 57.6249 97.9639 55.944 97.3444 53.6785C96.6155 51.0475 96.6519 48.3435 97.563 45.7491C98.5106 43.0817 100.515 41.8027 103.248 41.4739C104.56 41.3277 105.872 41.3642 107.148 41.7296C108.569 42.1681 109.808 42.9355 110.647 44.2144C111.048 44.7991 111.266 45.4203 111.266 46.1511C111.303 47.3935 110.501 48.2339 109.262 48.2704C108.096 48.2339 106.929 48.1974 105.8 48.2339C105.8 48.2339 105.8 48.1974 105.8 48.2339ZM100.552 47.3204C100.697 47.3569 100.77 47.3569 100.843 47.3569C102.556 47.3569 104.232 47.3935 105.945 47.3569C106.456 47.3569 106.966 47.2108 107.476 47.0281C107.95 46.8454 108.168 46.4434 108.168 45.9318C108.168 44.4702 107.512 43.3374 106.346 42.5335C104.852 41.5104 102.738 41.9124 101.681 43.4105C100.807 44.5433 100.624 45.8953 100.552 47.3204Z" fill="#648455"/>
<path d="M42.2763 41.693C43.3332 41.693 44.3172 41.693 45.2648 41.693C45.5563 41.693 45.5199 41.9122 45.5199 42.0949C45.5199 43.3373 45.5199 44.5432 45.5199 45.7856C45.5199 45.9683 45.5199 46.1144 45.5199 46.2971C45.8843 46.4433 45.9572 46.2606 46.0665 46.0414C46.3945 45.2375 46.6861 44.4336 47.087 43.6662C47.7066 42.5334 48.6177 41.693 49.9297 41.4007C51.3146 41.1083 52.4079 41.6199 52.8817 42.7161C52.9911 42.9719 52.9546 43.1546 52.7724 43.3373C52.2986 43.7758 51.8248 44.2143 51.3875 44.6893C51.2053 44.9086 50.9866 44.9086 50.7679 44.799C50.4764 44.6528 50.2213 44.4701 49.9297 44.3239C48.9457 43.7393 48.1074 43.8489 47.3421 44.6893C46.3945 45.749 45.9208 47.028 45.7021 48.4165C45.5563 49.2569 45.5199 50.0974 45.5199 50.9378C45.4834 53.5322 45.4834 56.1266 45.5199 58.6845C45.5199 59.123 45.4105 59.2691 44.9732 59.196C44.6816 59.1595 44.3901 59.196 44.0985 59.1595C42.9323 58.9403 42.2763 58.0998 42.2398 56.7113C42.2034 55.4323 42.2398 54.1534 42.2398 52.911C42.2398 49.3666 42.2398 45.8221 42.2398 42.3142C42.2763 42.0949 42.2763 41.9122 42.2763 41.693Z" fill="#648455"/>
<path d="M115.166 18.1242C114.984 18.1973 114.765 18.1973 114.619 18.3069C114.182 18.5627 114 18.5262 113.708 18.0877C113.562 17.8684 113.417 17.6127 113.198 17.4299C112.943 17.1742 112.797 17.4299 112.651 17.6127C112.25 18.0511 112.25 18.0511 111.777 17.9781C111.922 17.6127 111.558 17.2107 111.886 16.7722C112.214 17.3934 112.469 17.4299 112.906 16.9549C113.161 17.2107 113.344 17.1011 113.489 16.8453C114.073 16.7357 113.708 17.5396 114.255 17.5396C114.583 17.5761 114.874 17.9415 115.166 18.1242Z" fill="#648455"/>
<path d="M117.717 10.3776C117.498 10.3776 117.28 10.4141 117.025 10.3776C116.769 10.341 116.624 10.2314 116.733 9.93909C117.061 10.0853 117.389 10.2314 117.717 10.3776Z" fill="#648455"/>
<path d="M131.566 35.7369C131.53 35.6638 131.493 35.5542 131.457 35.4811C131.165 34.6772 130.874 33.9464 130.181 33.3983C129.89 33.179 129.78 32.7405 129.598 32.4117C129.379 31.9732 129.161 31.4982 128.979 31.0231C129.343 30.7673 129.598 30.8404 129.89 31.1693C129.963 31.2424 130.072 31.2789 130.181 31.3155C130.218 31.2058 130.291 31.0962 130.254 31.0231C130.181 30.877 130.072 30.7308 129.999 30.5846C129.926 30.4385 129.817 30.2923 129.78 30.1096C129.78 30.0365 129.853 29.9269 129.89 29.8538C129.963 29.8173 130.072 29.8173 130.181 29.8538C130.363 29.8904 130.546 29.9269 130.691 30.0365C131.019 30.2923 131.311 30.5846 131.748 30.6943C131.858 30.7308 131.858 31.2424 131.931 31.6443C131.384 31.2058 130.874 30.8404 130.4 30.475C130.363 30.5116 130.327 30.5116 130.291 30.5481C130.655 31.0962 131.056 31.6809 131.42 32.229C131.858 32.8867 132.222 33.5444 131.967 34.3849C131.821 34.8234 131.785 35.2619 131.712 35.7369C131.639 35.7369 131.603 35.7369 131.566 35.7369Z" fill="white"/>
<path d="M135.064 30.9501C135.356 31.0231 135.575 31.0962 135.793 31.1693C135.793 31.1328 135.392 30.7308 135.83 30.6577C135.976 30.6212 136.158 30.7674 136.376 30.877C136.486 30.877 136.668 30.8404 136.887 30.8039C136.887 30.8404 136.923 30.877 136.923 30.9135C137.032 30.7674 137.105 30.5846 137.251 30.5481C137.433 30.475 137.652 30.5481 137.834 30.5481C137.798 30.6943 137.834 30.9135 137.725 31.0231C136.85 31.9367 135.757 32.4848 134.591 32.9233C134.336 33.0329 134.044 32.9963 133.752 33.0329C133.752 31.9367 134.554 31.4616 135.064 30.9501Z" fill="white"/>
<path d="M133.243 32.6674C132.987 31.7904 133.607 31.1692 133.753 30.4019C133.862 30.475 133.935 30.548 134.008 30.5846C134.081 30.6211 134.19 30.5846 134.263 30.5846C134.263 30.5115 134.227 30.4384 134.227 30.3653C134.227 30.1826 134.227 29.9999 134.299 29.7441C134.664 30.1461 135.028 29.8903 135.393 29.7807C135.211 30.3653 133.716 32.3751 133.243 32.6674Z" fill="white"/>
<path d="M145.962 28.0268C145.816 27.9172 145.634 27.8076 145.525 27.6614C145.452 27.5883 145.452 27.4421 145.452 27.3325C145.561 27.3325 145.707 27.296 145.743 27.3325C145.962 27.5518 146.144 27.8076 146.326 28.0633C146.29 28.1364 146.253 28.173 146.217 28.246C145.889 28.246 145.525 28.246 145.124 28.246C145.124 28.2826 145.051 28.3922 144.941 28.5018C144.832 28.3557 144.723 28.246 144.613 28.0999C144.541 28.0268 144.468 27.9172 144.431 27.8441C144.395 27.6248 144.431 27.4056 144.431 27.2229C144.577 27.296 144.832 27.3325 144.905 27.4421C145.16 27.8076 145.488 27.9903 145.962 28.0268Z" fill="white"/>
<path d="M113.125 23.0939C113.271 23.3497 113.343 23.5324 113.453 23.7516C112.906 24.117 112.287 24.2266 111.631 24.2266C111.594 24.1901 111.594 24.1536 111.558 24.0805C111.776 23.9709 112.031 23.8612 112.323 23.7516C112.287 23.2766 112.833 23.3497 113.125 23.0939Z" fill="white"/>
<path d="M127.411 4.20225C127.411 4.31187 127.448 4.45803 127.411 4.56765C127.375 4.64074 127.265 4.67728 127.156 4.71382C127.047 4.49457 126.828 4.27533 126.828 4.09262C126.828 3.90992 127.01 3.61759 127.193 3.50797C127.375 3.39835 127.63 3.47143 127.849 3.50797C127.849 3.50797 127.921 3.72722 127.849 3.8003C127.739 3.94646 127.593 4.05608 127.411 4.20225Z" fill="white"/>
<path d="M145.962 7.45436C146.144 7.34473 146.253 7.27165 146.363 7.23511C146.982 6.90624 147.019 6.90624 147.055 7.63706C147.055 7.78322 146.946 7.96593 146.837 8.00247C146.691 8.07555 146.436 8.14863 146.363 7.81976C146.363 7.6736 146.144 7.60052 145.962 7.45436Z" fill="white"/>
<path d="M120.596 5.62735C121.034 5.51772 121.034 5.91967 121.143 6.13892C121.289 6.43124 121.398 6.76011 121.544 7.12552C121.507 7.16206 121.398 7.30822 121.252 7.34476C121.143 7.38131 120.997 7.34476 120.888 7.34476C120.888 7.23514 120.851 7.05244 120.924 6.97936C121.143 6.76011 121.179 6.57741 120.851 6.43124C120.742 6.3947 120.669 6.24854 120.633 6.13892C120.633 5.99275 120.633 5.81005 120.596 5.62735C120.633 5.62735 120.596 5.62735 120.596 5.62735Z" fill="white"/>
<path d="M144.431 28.5383C144.285 28.6114 144.176 28.7576 144.103 28.7576C143.738 28.7576 143.666 28.9768 143.629 29.2326C143.629 29.3057 143.483 29.4153 143.374 29.4153C143.301 29.4153 143.155 29.3057 143.155 29.1961C143.155 29.123 143.228 29.0134 143.265 28.9037C143.374 28.7576 143.556 28.6114 143.629 28.4652C143.884 28.1364 143.921 28.0998 144.431 28.5383Z" fill="white"/>
<path d="M113.817 21.6322C113.999 21.6322 114.218 21.5957 114.4 21.6322C114.51 21.6687 114.655 21.7784 114.728 21.9245C114.765 21.9976 114.692 22.2169 114.619 22.2534C114.473 22.2899 114.291 22.2899 114.182 22.2169C114.036 22.1072 113.927 21.9245 113.781 21.7784C113.781 21.7053 113.781 21.6687 113.817 21.6322Z" fill="white"/>
<path d="M148.877 29.6346C148.987 30.1462 148.841 30.2193 148.148 30.0731C148.148 29.8539 148.148 29.8539 148.877 29.6346Z" fill="white"/>
<path d="M145.306 28.4287C145.779 28.4287 145.962 28.5749 145.962 28.8672C145.962 28.9403 145.779 29.0134 145.67 29.0499C145.561 28.8672 145.451 28.6845 145.306 28.4287Z" fill="white"/>
<path d="M140.677 29.8173C140.531 29.9635 140.422 30.0731 140.313 30.1827C140.203 30.0731 140.094 29.9269 140.058 29.7808C140.058 29.7442 140.24 29.5615 140.349 29.5615C140.422 29.5615 140.531 29.7077 140.677 29.8173Z" fill="white"/>
<path d="M145.415 39.5371C145.78 42.3142 144.54 44.5797 142.354 45.0913C141.479 43.1547 142.718 40.5603 145.415 39.5371Z" fill="#648455"/>
<path d="M140.057 44.9817C138.745 43.9951 138.745 41.8027 140.021 40.2679C141.151 41.4373 141.479 43.8124 140.057 44.9817Z" fill="#648455"/>
<path d="M142.281 36.9062C143.192 38.4775 142.937 40.3045 141.661 41.145C140.604 40.2315 140.896 38.1121 142.281 36.9062Z" fill="#648455"/>
<path d="M140.058 36.6504C138.563 36.4677 137.579 34.7503 137.907 32.9963C139.183 33.3252 140.677 35.0061 140.058 36.6504Z" fill="#648455"/>
<path d="M7.21631 39.5371C7.21631 38.0755 7.21631 36.5773 7.21631 35.1157C7.21631 34.6772 7.36209 34.6041 7.72654 34.6041C9.075 34.6407 10.4235 34.5676 11.7719 34.8599C14.0315 35.3715 15.5257 36.9793 15.7444 39.2813C15.8173 40.341 15.8173 41.4007 15.6715 42.4604C15.38 44.3605 14.2137 45.5298 12.3186 45.9318C11.2981 46.151 10.2777 46.2241 9.25722 46.1876C7.83587 46.1876 7.25275 45.4933 7.25275 43.9951C7.21631 42.5335 7.25275 41.0353 7.21631 39.5371C7.25275 39.5371 7.25275 39.5371 7.21631 39.5371Z" fill="white"/>
<path d="M124.058 53.0207C124.058 53.5688 124.022 54.1169 124.058 54.6285C124.095 55.1401 123.912 55.5786 123.657 56.0171C122.965 57.0402 122.09 57.8075 120.851 58.0633C119.175 58.4287 117.79 57.4056 117.571 55.6516C117.279 53.3861 118.191 51.9245 120.341 51.1937C121.434 50.7917 122.6 50.6821 123.767 50.609C124.022 50.609 124.095 50.7186 124.095 50.9379C124.022 51.6321 124.058 52.3264 124.058 53.0207Z" fill="white"/>
<path d="M60.6809 47.3569C59.8427 47.3569 59.0044 47.3569 58.1298 47.3569C57.8746 47.3569 57.7289 47.2838 57.7653 47.028C57.8746 45.8587 58.0933 44.7625 58.64 43.7028C59.7698 41.6565 63.0498 41.145 64.6898 43.6663C65.0907 44.324 65.3458 45.0183 65.3823 45.7491C65.4187 46.553 64.8356 47.1742 63.8152 47.2473C62.7583 47.3204 61.7014 47.2473 60.6445 47.2473C60.6809 47.3204 60.6809 47.3569 60.6809 47.3569Z" fill="white"/>
<path d="M100.551 47.3203C100.624 45.8952 100.843 44.5432 101.645 43.3739C102.702 41.9123 104.815 41.4738 106.31 42.4969C107.476 43.3008 108.168 44.3971 108.132 45.8952C108.132 46.4068 107.913 46.8453 107.439 46.9915C106.966 47.1742 106.419 47.3203 105.909 47.3203C104.196 47.3569 102.519 47.3203 100.806 47.3203C100.733 47.3569 100.661 47.3569 100.551 47.3203Z" fill="white"/>
</g>
<defs>
<clipPath id="clip0_54_1000">
<rect width="155" height="60" fill="white"/>
</clipPath>
</defs>
</svg>
