<svg width="160" height="34" viewBox="0 0 160 34" fill="none" xmlns="http://www.w3.org/2000/svg">
<path fill-rule="evenodd" clip-rule="evenodd" d="M130.486 2.6616C128.67 6.57665 127.119 9.90986 125.409 13.5786C124.585 15.3441 123.448 17.7864 122.882 19.0059C122.316 20.2256 121.832 21.2212 121.808 21.2186C121.783 21.216 120.669 19.705 119.332 17.8608C117.995 16.0166 116.785 14.3507 116.643 14.1587L116.385 13.8097L117.084 13.592C120.625 12.4886 122.288 8.2857 120.565 4.79344C119.597 2.83072 117.751 1.68231 115.071 1.37618C114.653 1.32837 113.1 1.28892 111.621 1.2885L108.932 1.28783V12.227V23.1662H110.584H112.235V18.6892V14.2121H112.568H112.901L114.151 16.0072C114.839 16.9945 115.72 18.2584 116.11 18.8159C116.5 19.3734 117.339 20.5803 117.975 21.4979L119.131 23.1662L121.802 23.1642L124.473 23.1623L124.843 22.3406C125.047 21.8887 125.598 20.6922 126.069 19.6817L126.923 17.8444L131.626 17.8458L136.329 17.8471L137.473 20.4856L138.617 23.124L140.426 23.1468C141.862 23.165 142.226 23.1476 142.191 23.0623C142.147 22.9572 140.485 19.2589 139.845 17.8444C139.064 16.118 135.362 7.87491 132.94 2.47044C132.347 1.14634 131.836 0.0349301 131.805 0.000718745C131.775 -0.0335771 131.181 1.16382 130.486 2.6616ZM2.2839 0.696772C2.01434 0.731237 1.77196 0.780991 1.74545 0.807431C1.66652 0.886244 2.29212 1.85016 2.98615 2.71896C4.73329 4.90646 6.98078 6.32746 9.56431 6.87814C10.3482 7.04514 10.7262 7.07352 12.1747 7.07386C13.1063 7.07403 14.0493 7.04337 14.2702 7.00578L14.6721 6.93727L14.5341 6.66788C14.2466 6.10682 13.3668 4.98139 12.5422 4.12002C10.2195 1.69338 7.54947 0.592957 4.0573 0.623114C3.35158 0.629196 2.55355 0.662392 2.2839 0.696772ZM21.914 0.770603C21.6535 0.889625 21.4586 1.0976 21.071 1.66956C20.223 2.9206 18.9778 4.13649 17.4824 5.17348C16.7077 5.71073 16.4512 6.29333 16.6683 7.02259C16.7989 7.46125 17.0101 7.6873 17.7642 8.19532C18.8563 8.93107 20.1754 10.2676 21.0122 11.4865C21.4566 12.1337 21.6702 12.349 22.008 12.4897C22.7276 12.7897 23.4911 12.5111 23.9721 11.7731C24.7838 10.5279 26.0694 9.1986 27.2097 8.42576C28.107 7.81756 28.4437 7.47063 28.5621 7.03196C28.7629 6.28827 28.4832 5.6744 27.7238 5.19198C26.602 4.47937 25.3036 3.24497 24.5209 2.14725C24.3447 1.90017 24.0857 1.53913 23.9453 1.3451C23.466 0.682582 22.6262 0.445046 21.914 0.770603ZM93.3071 0.993101C91.2348 1.37542 89.7159 2.0137 88.2097 3.13516C85.3979 5.22881 83.7646 8.35641 83.635 11.8951C83.5834 13.3043 83.6924 14.1917 84.0818 15.5349C85.5531 20.6096 90.586 23.9721 96.0009 23.4981C100.016 23.1468 103.336 20.9478 105.208 17.4002C106.037 15.8293 106.378 14.5277 106.451 12.6588C106.508 11.2079 106.413 10.3752 106.042 9.0593C105.601 7.49622 104.795 6.04144 103.638 4.72121C101.89 2.72732 99.6133 1.47865 96.8439 0.995468C95.9512 0.8397 94.1451 0.838516 93.3071 0.993101ZM33.22 12.2366V23.1853L36.7558 23.1433C41.3205 23.0891 42.1792 22.9593 44.1026 22.0325C46.7092 20.7766 48.7641 18.4549 49.6041 15.8171C49.9417 14.7571 50.0659 14.0441 50.1275 12.8124C50.2999 9.36231 49.0688 6.14517 46.811 4.14613C44.9001 2.45422 42.9361 1.64075 40.1222 1.37568C39.6098 1.32745 37.8472 1.28791 36.2053 1.28791L33.22 1.28783V12.2366ZM52.6986 12.227V23.1662H59.3467H65.9948V21.6035V20.0407H60.9981H56.0014V16.7463V13.4519H60.8711H65.7407V12.0588V10.6656L60.8923 10.6438L56.0438 10.622L56.0216 7.47544L55.9994 4.32884H60.9971H65.9948V2.80833V1.28783H59.3467H52.6986V12.227ZM68.7895 12.2278V23.183L72.3253 23.1432C75.5285 23.107 75.9408 23.0862 76.708 22.9221C80.5099 22.109 82.6356 18.5388 81.4964 14.8797C81.0956 13.5922 80.0263 12.3315 78.8164 11.7202C78.4486 11.5344 78.131 11.3719 78.1105 11.3592C78.09 11.3466 78.2447 11.1565 78.4542 10.9369C79.4302 9.91408 79.8284 8.87262 79.8153 7.37788C79.8021 5.8904 79.2541 4.40605 78.3016 3.278C77.7384 2.61101 77.119 2.16465 76.3269 1.85481C75.1785 1.40558 74.7229 1.3527 71.6478 1.31114L68.7895 1.27254V12.2278ZM144.163 12.227V23.1662H145.815H147.466V18.309V13.4519H152.124H156.782V18.309V23.1662H158.391H160V12.227V1.28783H158.391H156.782V5.97682V10.6657L152.145 10.6439L147.508 10.622L147.486 5.95494L147.465 1.28783H145.814H144.163V12.227ZM23.7248 4.17527C24.6511 4.62196 25.2592 5.58757 25.2592 6.61188C25.2592 8.96132 22.3716 10.1362 20.7104 8.46267C19.7295 7.47443 19.6597 5.90645 20.5504 4.86854C20.846 4.52414 21.5379 4.09831 21.9934 3.98048C22.4183 3.87058 23.2983 3.96958 23.7248 4.17527ZM96.2289 4.03563C97.4023 4.13041 99.0326 4.80003 100.117 5.63267C102.25 7.26967 103.412 10.072 103.165 12.9864C102.996 14.9812 102.161 16.7337 100.695 18.1688C99.3792 19.4575 97.7941 20.1945 95.9127 20.3924C90.9231 20.9173 86.6893 16.888 86.9379 11.851C87.1187 8.18569 89.3762 5.2653 92.8118 4.25188C93.4621 4.06005 94.703 3.90977 95.255 3.95589C95.4413 3.97152 95.8796 4.00734 96.2289 4.03563ZM73.8286 4.33222C75.1174 4.47844 75.9881 5.0118 76.4143 5.91625C76.645 6.40568 76.7726 7.26789 76.7044 7.87669C76.4909 9.78518 75.3181 10.6643 72.9854 10.6643H72.0924V7.51067C72.0924 5.77611 72.1178 4.33163 72.1489 4.30071C72.2306 4.21919 72.9513 4.23271 73.8286 4.33222ZM39.2872 4.4139C42.6507 4.66985 44.8535 6.07354 46.0902 8.74903C47.2906 11.3457 46.9753 14.7613 45.3333 16.9478C44.6319 17.8818 43.4307 18.8388 42.3926 19.2905C41.244 19.7904 39.6749 20.0407 37.6906 20.0407H36.4382V12.1848V4.32884L37.3063 4.32901C37.7837 4.32918 38.6752 4.36736 39.2872 4.4139ZM115.206 4.5358C116.401 4.78584 117.38 5.45469 117.727 6.25921C118.301 7.59201 118.001 9.34389 117.051 10.2C116.271 10.9029 115.15 11.2301 113.378 11.2719L112.278 11.2978L112.255 7.80109L112.233 4.30426L113.448 4.36322C114.116 4.39557 114.907 4.47329 115.206 4.5358ZM132.203 8.3624C132.438 8.90827 133.149 10.5303 133.781 11.9668C134.414 13.4033 134.932 14.6102 134.932 14.6489C134.932 14.6874 133.442 14.719 131.622 14.719C129.802 14.719 128.325 14.6866 128.34 14.6472C128.567 14.0715 131.677 7.36985 131.718 7.36985C131.749 7.36985 131.967 7.81654 132.203 8.3624ZM5.77641 8.00568C4.58102 8.1916 3.35853 8.67157 2.1628 9.42439C1.71877 9.704 0.63805 10.5805 0.286165 10.9463L0 11.2438L0.402359 11.5242C0.623653 11.6785 1.01797 11.9628 1.27872 12.156L1.75273 12.5073L2.22106 12.1094C2.97277 11.4707 3.51342 11.1088 4.12395 10.8356C6.48043 9.78104 8.93769 9.90124 11.6697 11.2047C12.1838 11.45 13.5163 12.2307 14.6306 12.9397C17.4955 14.7622 18.7643 15.3662 20.651 15.8055C23.0323 16.3598 25.1845 16.1349 27.2007 15.1208C28.3341 14.5508 29.3656 13.7903 30.1125 12.9744L30.3501 12.7146L29.6044 12.1714C29.1941 11.8727 28.8118 11.5997 28.7548 11.5649C28.6906 11.5258 28.3732 11.7258 27.9223 12.0898C25.5146 14.0325 22.6592 14.396 19.5427 13.1567C18.4509 12.7225 17.6076 12.2561 15.647 11.0021C12.5405 9.01512 11.0858 8.3782 8.70802 7.9642C8.0377 7.84746 6.66912 7.8668 5.77641 8.00568ZM7.47621 11.4036C7.31411 11.4848 7.0664 11.7138 6.92573 11.9124C5.73821 13.5885 4.59973 14.7472 3.18856 15.7159C2.24469 16.3638 1.99714 16.9022 2.26027 17.7347C2.37461 18.0967 2.4753 18.2399 2.74173 18.4196C4.31171 19.4791 5.51387 20.6367 6.53048 22.0681C6.96629 22.6817 7.1886 22.9153 7.47477 23.0606C8.19183 23.4247 8.96192 23.2146 9.44176 22.524C10.5079 20.9894 11.5445 19.9116 12.8238 19.007C13.9865 18.185 14.1649 17.9489 14.1649 17.2321C14.1649 16.612 13.8996 16.2244 13.1364 15.7299C11.9713 14.9748 10.6543 13.6273 9.5561 12.0664C9.02569 11.3126 8.18938 11.0461 7.47621 11.4036ZM76.1152 13.7027C77.6528 14.197 78.3133 14.884 78.5447 16.2297C78.7245 17.276 78.4102 18.303 77.7141 18.9429C76.8499 19.7376 75.6986 20.038 73.511 20.0396L72.0924 20.0407V16.7366V13.4325L73.8074 13.4723C75.2853 13.5066 75.6043 13.5385 76.1152 13.7027ZM8.75112 14.6726C9.25782 14.741 10.0433 15.2574 10.3633 15.7326C11.0336 16.7281 11.0145 17.8966 10.3125 18.8479C9.33319 20.1746 7.33554 20.3028 6.25363 19.1083C5.47466 18.2484 5.29673 17.1241 5.77971 16.1146C6.02404 15.6042 6.44706 15.1653 6.96629 14.8839C7.2196 14.7466 8.05769 14.5548 8.23664 14.5931C8.3065 14.6081 8.53804 14.6438 8.75112 14.6726ZM22.8879 17.3729C19.9236 17.8376 17.7038 19.1224 15.6508 21.5612C14.872 22.4864 14.2217 23.5241 14.3692 23.6064C14.6366 23.7557 16.5303 23.847 17.5855 23.7616C19.9249 23.5721 21.4784 23.0564 23.2293 21.8883C24.1634 21.2651 24.8877 20.6029 25.7282 19.6036C26.3691 18.8417 27.2071 17.6609 27.2071 17.5197C27.2071 17.3968 26.6966 17.344 25.0898 17.3004C24.0812 17.2729 23.3778 17.2961 22.8879 17.3729ZM120.385 28.1912C120.139 28.2601 119.819 28.3781 119.673 28.4535C119.182 28.7069 118.618 29.3147 118.376 29.8521C118.167 30.3183 118.147 30.4413 118.179 31.1075C118.209 31.7291 118.259 31.9353 118.493 32.4092C119.001 33.4394 119.989 34 121.297 34C122.787 34 123.868 33.2579 124.31 31.933C124.528 31.2773 124.449 30.2629 124.135 29.6874C123.827 29.1233 123.28 28.6177 122.68 28.3439C122.089 28.074 121.049 28.0048 120.385 28.1912ZM70.1871 28.3402C70.1668 28.3983 70.0902 28.8069 70.0167 29.2482C69.8239 30.406 69.3003 33.3957 69.2505 33.623C69.2085 33.8145 69.2156 33.8162 69.9512 33.7919L70.6944 33.7675L70.9196 32.2709C71.0435 31.4478 71.1591 30.7317 71.1765 30.6795C71.194 30.6273 71.4947 31.3008 71.8448 32.1762L72.4813 33.7675H72.8091H73.1368L73.6173 32.6272C74.2998 31.0076 74.4612 30.6535 74.4995 30.6923C74.5182 30.7111 74.6195 31.4202 74.7247 32.2681L74.9161 33.8098H75.6509H76.3858L76.2315 32.8172C76.1468 32.2714 75.9543 31.0156 75.8038 30.0267L75.5302 28.2287L74.7762 28.2527L74.022 28.2768L73.4579 29.6863C73.1476 30.4615 72.8714 31.118 72.8442 31.1452C72.817 31.1723 72.7113 30.9752 72.6095 30.7071C72.5075 30.4391 72.2498 29.773 72.0366 29.2271L71.6492 28.2346H70.9366C70.4426 28.2346 70.2127 28.2669 70.1871 28.3402ZM81.5776 31.0222V33.8098H82.2975H83.0174V31.0222V28.2346H82.2975H81.5776V31.0222ZM88.4375 31.0222V33.8098H90.0889H91.7404V33.2185V32.6272H90.8511H89.9619V30.4309V28.2346H89.1997H88.4375V31.0222ZM97.4992 30.9505C96.917 32.4417 96.4279 33.6952 96.4124 33.7359C96.3968 33.7765 96.7325 33.8098 97.1581 33.8098H97.932L98.138 33.3452L98.344 32.8806H99.3899H100.436L100.594 33.3452L100.752 33.8098H101.549C102.151 33.8098 102.335 33.7841 102.303 33.7042C102.28 33.6461 101.814 32.4392 101.268 31.0222C100.721 29.6051 100.255 28.3983 100.233 28.3402C100.203 28.2657 99.951 28.2353 99.3745 28.2368L98.5579 28.239L97.4992 30.9505ZM107.239 31.0222V33.8098H108.006H108.773L108.756 32.1414C108.747 31.2239 108.761 30.4731 108.786 30.4731C108.832 30.4731 109.118 30.8313 110.668 32.824L111.431 33.8039L112.169 33.8068L112.908 33.8098L112.932 31.0222L112.955 28.2345L112.216 28.2346H111.476L111.454 29.9379L111.431 31.6411L110.833 30.8882C110.504 30.474 109.897 29.7076 109.483 29.1849L108.732 28.2346H107.985H107.239V31.0222ZM121.744 29.5067C122.142 29.617 122.64 30.0447 122.792 30.4057C123.411 31.8852 121.504 33.3126 120.308 32.2647C119.33 31.4084 119.569 29.9638 120.758 29.5409C121.158 29.3986 121.332 29.3926 121.744 29.5067ZM99.9507 31.6346C99.9546 31.7619 99.872 31.7824 99.3567 31.7824C98.6679 31.7824 98.6936 31.9083 99.1331 30.6893L99.3901 29.9763L99.6681 30.7315C99.821 31.1469 99.9481 31.5533 99.9507 31.6346Z" fill="#AC1427"/>
</svg>
