<svg width="112" height="38" viewBox="0 0 112 38" fill="none" xmlns="http://www.w3.org/2000/svg">
<g clip-path="url(#clip0_54_997)">
<path d="M96.6201 28.8828C93.8072 22.3353 91.1165 16.0937 88.4258 9.82157C87.7531 8.29178 87.0804 6.73139 86.5912 5.14041C86.0408 3.42704 86.7135 2.53977 88.5175 2.3256C88.9456 2.2644 89.3736 2.3256 89.7711 2.23381C90.0157 2.17262 90.1992 1.86666 90.4132 1.65249C90.1686 1.46891 89.9546 1.28534 89.71 1.16295C89.5877 1.10176 89.4042 1.16295 89.2513 1.16295C81.3933 1.16295 73.5047 1.16295 65.6466 1.16295C65.2186 1.16295 64.7599 1.16295 64.3319 1.16295C64.2707 1.31593 64.2095 1.43832 64.1178 1.5913C64.4236 1.83606 64.6682 2.14202 65.0045 2.2644C65.4326 2.41738 65.9218 2.38679 66.3499 2.47857C68.2456 2.81513 68.9183 3.51883 69.1323 5.41577C69.1935 5.84411 69.224 6.24186 69.224 6.6702C69.224 15.0535 69.2546 23.4061 69.224 31.7894C69.224 34.8795 68.6125 35.5221 65.5855 35.981C65.402 36.0116 65.2186 36.0422 65.0045 36.0728C64.2707 36.1034 64.0872 36.4705 64.3624 37.1742C69.4075 37.1742 74.4831 37.1742 79.5281 37.1742C79.8645 36.1952 79.2835 36.134 78.6109 36.0422C75.064 35.5527 74.6665 35.0937 74.5748 31.514C74.5748 31.3304 74.5748 31.1469 74.5748 30.9327C74.5748 23.0696 74.5748 15.1758 74.5748 7.31271C74.5748 6.51722 74.636 5.72173 74.7277 4.92624C74.9112 3.58002 75.7061 2.84572 77.0515 2.60096C78.2439 2.38679 79.0695 2.9987 79.6505 3.88598C80.4148 5.07922 81.0875 6.33365 81.6379 7.61867C85.888 17.4399 90.1075 27.2612 94.3575 37.0824C94.5104 37.419 94.8773 37.6332 95.1219 37.9085C95.3665 37.6332 95.7334 37.3884 95.8557 37.0518C98.8216 29.2193 101.726 21.3868 104.692 13.5849C105.762 10.7394 106.894 7.89403 108.086 5.07922C108.667 3.70241 109.646 2.72334 111.174 2.44798C111.939 2.295 112.092 1.92785 111.816 1.28534C108.27 1.28534 104.753 1.28534 101.268 1.28534C100.809 2.41738 101.604 2.3256 102.246 2.38679C104.57 2.63155 105.334 3.67181 104.815 5.9359C104.692 6.45603 104.539 6.97616 104.356 7.46569C102.185 13.4625 100.045 19.4593 97.8738 25.4866C97.5069 26.4963 97.1399 27.5365 96.6201 28.8828ZM31.7684 26.6493C25.8061 34.8184 14.0649 33.8087 8.92809 28.0261C4.34169 22.7942 4.58629 14.0744 9.60076 9.27085C15.3491 3.733 26.2035 3.64122 31.7378 11.5349C33.1137 10.4947 34.4897 9.42382 35.9267 8.32238C35.4375 7.67986 35.1012 7.19033 34.7037 6.73139C34.2145 6.15007 33.6947 5.56875 33.1443 5.04862C28.3744 0.734613 22.6567 -0.642199 16.4498 0.275676C8.86694 1.34653 3.42441 5.50756 1.10063 12.82C-1.31488 20.4077 0.183346 27.506 6.17625 32.9826C12.322 38.6122 19.6909 39.01 27.3043 36.5011C30.8817 35.3079 33.6641 32.952 35.8961 29.8006C34.4897 28.7298 33.1443 27.6895 31.7684 26.6493ZM40.3908 36.9601C46.6589 36.9601 52.7741 36.9601 59.0422 36.9601C59.0422 35.5221 58.9811 34.1758 59.0728 32.799C59.1034 31.9423 58.8587 31.667 57.972 31.6976C54.3335 31.7282 50.7255 31.7282 47.087 31.6976C46.6895 31.6976 46.292 31.667 45.7416 31.6364C45.7416 21.3256 45.7416 11.1372 45.7416 0.97938C43.8765 0.97938 42.1337 0.97938 40.3602 0.97938C40.3908 13.0035 40.3908 24.9359 40.3908 36.9601Z" fill="#00A19A"/>
</g>
<defs>
<clipPath id="clip0_54_997">
<rect width="112" height="38" fill="white"/>
</clipPath>
</defs>
</svg>
