<svg width="163" height="24" viewBox="0 0 163 24" fill="none" xmlns="http://www.w3.org/2000/svg">
<g clip-path="url(#clip0_54_865)">
<path d="M0 23.4351V0H19.394C27.7137 0 36.3534 2.49638 36.3534 6.54949C36.3534 10.3782 30.7606 11.2337 30.7606 11.2337C30.7606 11.2337 38.9272 12.6081 38.9272 16.8015C38.9272 22.1729 28.1033 23.4211 23.9713 23.4211H8.59793V20.5741H22.0513C30.7327 20.5741 31.2892 17.7832 31.2892 16.8015C31.2892 15.5252 29.3693 13.0569 21.6896 13.0569H10.5318V10.2239C10.5318 10.2239 9.55789 10.2239 19.1993 10.2239C28.8406 10.2239 28.7293 6.7879 28.7293 6.7879C28.7293 6.7879 29.3832 3.12748 18.4897 3.12748C7.61014 3.12748 7.61014 7.43303 7.61014 7.43303V23.4351H0Z" fill="black"/>
<path d="M83.0438 15.3008H55.817V13.2251H77.2979C77.2979 13.2251 75.2667 9.74703 64.4149 9.74703C50.1824 9.74703 50.0711 15.6093 50.0711 15.6093C50.0711 15.6093 49.5285 21.0368 63.3437 21.0368C77.1449 21.0368 79.2596 16.563 79.2596 16.563H82.9742C82.9742 16.563 81.2908 23.7857 63.4271 23.7857C46.426 23.7857 42.6279 18.3161 42.6279 15.5953C42.6279 14.1788 44.3809 7.41895 64.4288 7.41895C82.6821 7.41895 83.0438 15.3008 83.0438 15.3008Z" fill="black"/>
<path d="M87.0923 0.588989V7.90983C87.0923 13.2251 101.436 14.4874 101.436 14.4874V23.4351H109.018V14.5154C109.018 14.5154 123.696 13.2812 123.696 7.92385C123.696 3.18354 123.696 0.603014 123.696 0.603014H116.114C116.114 0.603014 116.114 7.88178 116.114 7.92385C116.114 7.97995 115.724 11.6684 105.192 11.6684C94.6607 11.6684 94.6885 7.96593 94.6885 7.92385V0.588989H87.0923Z" fill="black"/>
<path d="M129.303 7.90974V17.6148C129.303 17.769 130.277 23.7295 145.845 23.7295C161.413 23.7295 162.428 17.6148 162.428 17.6148V7.85364H155.347V16.8574C155.347 16.9135 155.486 21.0788 146.039 21.0788C136.607 21.0788 136.342 16.8855 136.342 16.8574V7.85364L129.303 7.90974Z" fill="black"/>
</g>
<defs>
<clipPath id="clip0_54_865">
<rect width="162.429" height="23.7857" fill="white"/>
</clipPath>
</defs>
</svg>
