<svg width="178" height="35" viewBox="0 0 178 35" fill="none" xmlns="http://www.w3.org/2000/svg">
<g clip-path="url(#clip0_54_872)">
<path d="M148.145 35C98.7778 35 49.3672 35 0 35C0 23.3333 0 11.6667 0 0C59.3188 0 118.681 0 178 0C178 7.08642 178 14.1728 178 21.3025C177.87 21.3025 177.739 21.2593 177.652 21.2593C176.914 21.1728 176.175 20.9136 175.566 20.5247C174.871 20.0494 174.306 19.4444 173.785 18.7963C173.046 17.8457 172.351 16.8519 171.655 15.9012C171.177 15.2099 170.699 14.4753 170.221 13.7407C170.308 13.6975 170.352 13.6543 170.395 13.6111C170.786 13.3086 171.177 13.0926 171.525 12.7469C172.438 11.9259 173.176 10.9753 173.654 9.80864C173.958 9.03086 174.176 8.16667 174.219 7.34568C174.263 6.74074 174.219 6.1358 174.089 5.53086C173.828 4.3642 173.35 3.32716 172.524 2.46296C171.786 1.68519 170.873 1.16667 169.83 0.950617C168.831 0.734568 167.875 0.604938 166.875 0.604938C165.311 0.604938 163.746 0.648148 162.225 0.648148C161.226 0.648148 160.183 0.691358 159.183 0.691358C159.14 0.691358 159.096 0.691358 159.096 0.691358C159.096 8.25309 159.096 15.7716 159.096 23.3333C160.313 23.3333 161.486 23.3333 162.703 23.3333C162.703 20.2654 162.703 17.1975 162.703 14.1296C162.79 14.1296 162.877 14.1296 162.964 14.1296C164.007 14.1296 165.006 14.1296 166.049 14.1296C166.223 14.1296 166.31 14.216 166.354 14.3025C167.223 15.6852 168.048 17.0247 168.961 18.4074C169.83 19.7469 170.786 21 171.959 22.0802C172.481 22.5556 173.046 22.9012 173.654 23.1173C174.697 23.5062 175.827 23.5926 176.914 23.5062C177.218 23.5062 177.392 23.3333 177.522 23.0309C177.609 22.858 177.609 22.6852 177.696 22.4691C177.783 22.1235 177.913 21.821 178.043 21.4753C178.043 26.0123 178.043 30.5062 178.043 35.0432C169.7 35.0432 161.356 35.0432 153.012 35.0432C153.056 35.0432 153.056 35 153.099 35C154.186 34.9568 155.272 34.9136 156.358 34.8704C156.619 34.8704 156.923 34.8272 157.184 34.8272C157.923 34.7407 158.618 34.6543 159.357 34.6111C159.965 34.5679 160.53 34.4815 161.139 34.4383C161.921 34.3086 162.703 34.179 163.485 34.0926C164.224 33.963 165.006 33.8765 165.745 33.7037C167.092 33.4012 168.396 33.142 169.7 32.7963C170.96 32.4938 172.177 32.1482 173.394 31.7161C174.48 31.3704 175.566 30.9383 176.653 30.5494C177.044 30.4198 177.435 30.2037 177.783 30.0309C177.435 30.0741 177.087 30.1605 176.74 30.2469C175.914 30.4198 175.088 30.5926 174.263 30.7222C173.654 30.8519 173.002 30.9383 172.394 31.0247C171.873 31.1111 171.395 31.1543 170.873 31.1975C170.308 31.284 169.743 31.3704 169.178 31.4136C168.657 31.4568 168.092 31.5 167.57 31.5432C166.701 31.6296 165.832 31.7161 165.006 31.7593C164.528 31.8025 164.05 31.8457 163.529 31.8457C162.79 31.8889 162.051 31.9321 161.312 31.9321C160.791 31.9321 160.226 31.9753 159.705 31.9753C158.097 31.9753 156.489 31.9321 154.881 31.9321C154.272 31.9321 153.664 31.8889 153.056 31.8889C152.447 31.8889 151.839 31.8457 151.23 31.8457C150.926 31.8457 150.622 31.8025 150.318 31.8025C149.536 31.7593 148.753 31.6728 147.928 31.6296C147.45 31.5864 146.972 31.5864 146.45 31.5432C145.711 31.4568 145.016 31.3704 144.277 31.3272C143.625 31.2407 143.017 31.1975 142.365 31.1543C141.67 31.0679 140.931 30.9815 140.236 30.8951C139.497 30.8086 138.802 30.7222 138.063 30.679C137.194 30.5926 136.368 30.5062 135.499 30.463C134.891 30.4198 134.282 30.3765 133.674 30.3333C132.935 30.2901 132.153 30.2469 131.414 30.2037C130.719 30.1605 130.023 30.1173 129.328 30.1173C128.633 30.0741 127.937 30.0741 127.242 30.0741C125.721 30.0741 124.157 30.1173 122.636 30.1173C122.071 30.1173 121.462 30.1605 120.897 30.1605C120.854 30.1605 120.854 30.1605 120.811 30.1605C120.028 30.2037 119.29 30.2901 118.507 30.3333C118.116 30.3765 117.682 30.3765 117.291 30.4198C116.595 30.5062 115.9 30.5926 115.248 30.679C114.509 30.7654 113.814 30.8519 113.075 31.0247C111.902 31.284 110.729 31.5864 109.555 31.8889C108.208 32.2346 106.904 32.7531 105.688 33.4444C105.47 33.5741 105.253 33.7037 105.079 33.8333C105.427 33.7901 105.731 33.6605 106.035 33.6173C107.208 33.4012 108.338 33.2284 109.512 33.0556C110.294 32.9691 111.12 32.9259 111.945 32.8827C112.771 32.8395 113.64 32.7963 114.466 32.7963C115.77 32.7963 117.073 32.8395 118.377 32.8395C119.072 32.8395 119.768 32.8827 120.463 32.8827C120.767 32.8827 121.115 32.9259 121.419 32.9259C122.375 32.9691 123.331 33.0123 124.331 33.0556C124.722 33.0556 125.113 33.0988 125.504 33.0988C125.721 33.0988 125.982 33.142 126.199 33.142C126.981 33.1852 127.764 33.2716 128.546 33.3148C128.937 33.358 129.372 33.358 129.763 33.4012C130.415 33.4444 131.023 33.5309 131.675 33.5741C132.066 33.6173 132.457 33.6173 132.848 33.6605C133.37 33.7037 133.891 33.7901 134.413 33.8333C134.934 33.8765 135.456 33.9198 135.934 33.963C136.542 34.0494 137.15 34.1358 137.759 34.179C138.367 34.2654 138.932 34.3086 139.541 34.3519C140.279 34.4383 141.018 34.5247 141.8 34.6111C142.496 34.6975 143.191 34.7407 143.886 34.784C144.582 34.8272 145.32 34.8704 146.016 34.9136C146.624 34.9568 147.276 34.9568 147.884 34.9568C148.015 34.9568 148.102 35 148.145 35ZM130.023 0.604938C129.502 1.55556 129.024 2.50617 128.502 3.5C127.851 4.75309 127.199 6.00617 126.547 7.25926C125.895 8.51235 125.243 9.76543 124.591 11.0185C123.939 12.2716 123.288 13.5679 122.636 14.821C122.158 15.7284 121.68 16.6358 121.202 17.5864C121.158 17.5 121.115 17.4136 121.071 17.3704C120.463 16.1605 119.898 14.9506 119.29 13.7407C118.855 12.8765 118.464 12.0123 118.029 11.1049C117.377 9.72222 116.682 8.38272 116.03 7C115.596 6.1358 115.161 5.2284 114.77 4.3642C114.205 3.15432 113.597 1.98765 113.032 0.777778C112.988 0.648148 112.901 0.604938 112.771 0.604938C111.771 0.604938 110.772 0.604938 109.816 0.604938C109.729 0.604938 109.686 0.604938 109.599 0.604938C109.555 1.03704 109.512 1.46914 109.512 1.90123C109.468 2.41975 109.468 2.98148 109.425 3.5C109.381 4.40741 109.338 5.31482 109.294 6.22222C109.251 6.69753 109.251 7.17284 109.208 7.64815C109.164 8.55556 109.121 9.41975 109.077 10.3272C109.034 10.8457 109.034 11.321 108.99 11.8395C108.947 12.7037 108.903 13.6111 108.86 14.4753C108.816 14.9938 108.816 15.5123 108.773 16.0309C108.729 16.8951 108.686 17.7593 108.643 18.6667C108.599 19.1852 108.556 19.7037 108.556 20.2222C108.512 20.9568 108.512 21.6914 108.469 22.4259C108.469 22.6852 108.425 22.9444 108.425 23.2037C109.599 23.2037 110.729 23.2037 111.945 23.2037C111.945 22.2531 111.945 21.3457 111.945 20.4383C111.945 19.358 111.989 18.2778 111.989 17.1975C111.989 16.1605 112.032 15.0802 112.032 14.0432C112.032 12.9198 112.076 11.7963 112.076 10.716C112.076 9.41975 112.119 8.12346 112.119 6.82716C112.119 6.78395 112.119 6.74074 112.119 6.69753C112.163 6.78395 112.206 6.87037 112.25 6.91358C112.597 7.69136 112.988 8.42593 113.336 9.2037C113.727 10.0679 114.162 10.8889 114.596 11.7531C115.248 13.0926 115.9 14.4321 116.552 15.8148C116.943 16.5926 117.334 17.4136 117.725 18.1914C118.507 19.7901 119.29 21.3889 120.072 23.0309C120.115 23.0741 120.246 23.1605 120.289 23.1605C120.593 23.1173 120.897 23.0741 121.158 23.0309C121.332 22.9877 121.593 23.0309 121.723 22.7716C122.332 21.5617 122.94 20.3519 123.548 19.142C124.244 17.7593 124.939 16.4198 125.634 15.037C126.33 13.6543 127.068 12.2716 127.764 10.8457C128.416 9.50617 129.111 8.20988 129.763 6.87037C129.85 6.69753 129.937 6.5679 130.023 6.39506C130.067 6.91358 130.067 7.38889 130.11 7.8642C130.154 8.94444 130.154 10.0247 130.154 11.1049C130.154 12.1852 130.197 13.2654 130.197 14.3457C130.197 15.7716 130.241 17.1975 130.241 18.6235C130.241 20.0926 130.284 21.6049 130.284 23.0741C130.284 23.1173 130.284 23.1605 130.284 23.2037C131.501 23.2037 132.718 23.2037 133.978 23.2037C133.935 22.9444 133.935 22.7284 133.935 22.5123C133.891 21.9074 133.891 21.3025 133.891 20.6975C133.891 20.179 133.848 19.6173 133.848 19.0988C133.848 18.4938 133.804 17.9321 133.804 17.3272C133.804 16.7654 133.761 16.2037 133.761 15.642C133.761 14.9506 133.717 14.3025 133.717 13.6111C133.717 13.1358 133.674 12.6605 133.674 12.1852C133.674 11.5802 133.63 10.9321 133.63 10.3272C133.63 9.80864 133.587 9.24691 133.587 8.7284C133.587 8.12346 133.543 7.51852 133.543 6.91358C133.543 6.35185 133.5 5.83333 133.5 5.27161C133.5 4.58025 133.457 3.9321 133.457 3.24074C133.457 2.37654 133.413 1.46914 133.413 0.604938C133.413 0.604938 133.413 0.561728 133.413 0.518519C132.196 0.604938 131.11 0.604938 130.023 0.604938ZM40.7192 0.604938C41.1973 1.38272 41.6318 2.16049 42.1099 2.89506C43.1963 4.66667 44.2393 6.39506 45.3257 8.16667C46.3252 9.85185 47.3682 11.4938 48.3677 13.179C48.5415 13.4383 48.6284 13.7407 48.6284 14.0432C48.585 16.9815 48.585 19.9198 48.585 22.9012C48.585 22.9444 48.585 23.0309 48.585 23.0741C48.585 23.1605 48.585 23.2037 48.585 23.2901C49.8018 23.2901 50.9751 23.2901 52.1919 23.2901C52.1919 23.2037 52.1919 23.0741 52.1919 22.9877C52.1919 19.9198 52.1919 16.8086 52.1919 13.7407C52.1919 13.4815 52.2354 13.3086 52.4092 13.0926C53.5825 11.4506 54.7559 9.76543 55.9292 8.12346C57.0156 6.61111 58.1021 5.05556 59.1885 3.54321C59.2754 3.41358 59.3623 3.41358 59.4927 3.41358C61.8828 3.41358 64.2295 3.41358 66.6196 3.41358C66.7065 3.41358 66.7935 3.41358 66.8804 3.41358C66.8804 10.0247 66.8804 16.6358 66.8804 23.2469C68.0972 23.2469 69.314 23.2469 70.5742 23.2469C70.5742 16.6358 70.5742 10.0247 70.5742 3.41358C70.7046 3.41358 70.7915 3.41358 70.8784 3.41358C73.79 3.41358 76.6582 3.41358 79.5698 3.41358C79.7871 3.41358 79.874 3.37037 79.8306 3.15432C79.8306 2.37654 79.8306 1.59877 79.8306 0.820988C79.8306 0.734568 79.8306 0.691358 79.8306 0.604938C79.4829 0.604938 79.1353 0.604938 78.8311 0.604938C71.6606 0.604938 64.4902 0.604938 57.3633 0.604938C57.1895 0.604938 57.1025 0.648148 56.9722 0.777778C56.3638 1.7284 55.7554 2.67901 55.1904 3.62963C54.3213 5.01235 53.4521 6.43827 52.583 7.8642C52.0181 8.77161 51.4966 9.6358 50.9316 10.5432C50.8882 10.5 50.8447 10.4568 50.8013 10.4136C50.3232 9.6358 49.8887 8.85802 49.4541 8.12346C48.7153 6.91358 48.02 5.7037 47.2812 4.49383C46.5425 3.24074 45.8037 2.03086 45.0649 0.777778C45.0215 0.691358 44.9346 0.604938 44.8477 0.604938C43.4136 0.604938 42.0664 0.604938 40.7192 0.604938ZM79.7437 12.0556C79.7871 12.4444 79.7871 12.8333 79.8306 13.2222C79.9175 13.784 79.9609 14.3457 80.0913 14.9074C80.3521 16.0741 80.7866 17.1543 81.395 18.1481C82.1338 19.4444 83.1333 20.5247 84.3066 21.4753C85.1323 22.1235 86.0449 22.642 87.0444 23.0309C88.4351 23.5926 89.9126 23.8519 91.3901 23.8951C91.6943 23.8951 91.9985 23.8519 92.3027 23.8519C92.7373 23.8086 93.1284 23.8086 93.563 23.7654C94.6494 23.5926 95.6924 23.2901 96.7354 22.858C98.0825 22.2963 99.2993 21.4753 100.342 20.4383C100.646 20.179 100.907 19.8765 101.125 19.5741C101.559 18.9691 102.037 18.3642 102.385 17.716C102.863 16.8951 103.167 16.0309 103.428 15.1235C103.688 14.2593 103.819 13.3519 103.862 12.4877C103.906 11.321 103.862 10.1111 103.602 8.94444C103.297 7.60494 102.776 6.30864 102.037 5.14198C101.429 4.19136 100.69 3.41358 99.8643 2.67901C99.2993 2.2037 98.6909 1.81481 98.0391 1.42593C97.2134 0.993827 96.3877 0.648148 95.4751 0.432099C94.606 0.216049 93.6934 0.0432099 92.7808 0.0432099C92.2158 0.0432099 91.6509 0.0432099 91.0859 0.0864198C90.4775 0.12963 89.8691 0.216049 89.3042 0.345679C88.0874 0.604938 86.9575 1.03704 85.8711 1.64198C85.0454 2.11728 84.2632 2.6358 83.5679 3.32716C83.0898 3.75926 82.6553 4.27778 82.2642 4.7963C81.4385 5.79012 80.8735 6.91358 80.439 8.12346C79.9609 9.37654 79.7002 10.6728 79.7437 12.0556ZM19.1211 0.604938C19.1211 8.16667 19.1211 15.6852 19.1211 23.2469C20.3379 23.2469 21.5112 23.2469 22.7715 23.2469C22.7715 19.7901 22.7715 16.3333 22.7715 12.8765C26.8999 12.8765 30.9849 12.8765 35.1133 12.8765C35.1133 16.3333 35.1133 19.7901 35.1133 23.2469C36.3301 23.2469 37.5469 23.2469 38.7637 23.2469C38.7637 15.6852 38.7637 8.16667 38.7637 0.604938C37.5469 0.604938 36.3301 0.604938 35.0698 0.604938C35.0698 3.71605 35.0698 6.82716 35.0698 9.93827C30.9414 9.93827 26.8564 9.93827 22.728 9.93827C22.728 6.82716 22.728 3.71605 22.728 0.604938C21.5112 0.604938 20.2944 0.604938 19.1211 0.604938ZM143.625 3.41358C147.406 3.41358 151.187 3.41358 154.968 3.41358C154.968 2.46296 154.968 1.55556 154.968 0.604938C149.97 0.604938 144.973 0.604938 139.975 0.604938C139.975 8.16667 139.975 15.6852 139.975 23.2469C145.016 23.2469 150.057 23.2469 155.098 23.2469C155.098 22.3827 155.098 21.5185 155.098 20.6543C155.098 20.3519 155.098 20.3519 154.794 20.3519C151.187 20.3519 147.537 20.3519 143.93 20.3519C143.843 20.3519 143.712 20.3519 143.625 20.3519C143.625 17.9753 143.625 15.642 143.625 13.2654C147.059 13.2654 150.448 13.2654 153.838 13.2654C153.838 12.358 153.838 11.4506 153.838 10.5432C150.405 10.5432 147.015 10.5432 143.625 10.5432C143.625 8.16667 143.625 5.79012 143.625 3.41358ZM0.043457 0.604938C0.043457 8.16667 0.043457 15.7284 0.043457 23.2469C1.2168 23.2469 2.43359 23.2469 3.60693 23.2469C3.60693 20.3951 3.60693 17.5864 3.60693 14.7346C4.30225 14.7346 4.91064 14.7346 5.5625 14.7346C6.1709 14.7346 6.7793 14.7346 7.3877 14.6914C8.12646 14.6481 8.82178 14.5617 9.51709 14.3889C10.7339 14.1296 11.8203 13.6111 12.7764 12.7901C13.6021 12.0556 14.2974 11.1914 14.7319 10.1543C15.0361 9.37654 15.2534 8.59877 15.2969 7.77778C15.3838 6.74074 15.2534 5.7037 14.9058 4.70988C14.4277 3.45679 13.689 2.41975 12.5156 1.64198C11.8638 1.20988 11.125 0.907407 10.3428 0.777778C9.47363 0.648148 8.60449 0.475309 7.73535 0.432099C6.60547 0.388889 5.47559 0.432099 4.3457 0.475309C3.52002 0.561728 2.60742 0.604938 1.69482 0.604938C1.17334 0.604938 0.608398 0.604938 0.043457 0.604938Z" fill="white"/>
<path d="M178 21.432C177.87 21.7777 177.783 22.0802 177.652 22.4258C177.609 22.5987 177.565 22.8147 177.479 22.9876C177.392 23.2468 177.174 23.4197 176.87 23.4629C175.74 23.5493 174.654 23.4629 173.611 23.074C172.959 22.8579 172.394 22.4691 171.916 22.037C170.743 20.9567 169.787 19.7036 168.917 18.3641C168.005 17.0246 167.179 15.6419 166.31 14.2592C166.223 14.1295 166.136 14.0863 166.006 14.0863C164.963 14.0863 163.963 14.0863 162.92 14.0863C162.833 14.0863 162.747 14.0863 162.66 14.0863C162.66 17.1542 162.66 20.2221 162.66 23.29C161.443 23.29 160.27 23.29 159.053 23.29C159.053 15.7715 159.053 8.20979 159.053 0.648065C159.096 0.648065 159.14 0.648065 159.14 0.648065C160.139 0.648065 161.182 0.604855 162.182 0.604855C163.746 0.604855 165.311 0.561646 166.832 0.561646C167.831 0.561646 168.831 0.691275 169.787 0.907324C170.83 1.12337 171.742 1.64189 172.481 2.41967C173.307 3.28387 173.828 4.3209 174.045 5.48757C174.176 6.09251 174.219 6.69745 174.176 7.30239C174.132 8.16658 173.915 8.98757 173.611 9.76535C173.133 10.932 172.394 11.8826 171.481 12.7036C171.134 13.0061 170.743 13.2653 170.352 13.5678C170.308 13.611 170.221 13.6542 170.178 13.6974C170.656 14.432 171.09 15.1666 171.612 15.8579C172.307 16.8518 173.002 17.8456 173.741 18.753C174.263 19.4011 174.784 20.0061 175.523 20.4814C176.175 20.9135 176.87 21.1295 177.609 21.216C177.739 21.216 177.87 21.2592 177.957 21.2592C178 21.3456 178 21.3888 178 21.432ZM162.66 11.1913C162.79 11.1913 162.833 11.1913 162.92 11.1913C164.007 11.1913 165.093 11.1913 166.18 11.1913C166.832 11.1913 167.44 11.1049 168.048 10.8456C168.657 10.5863 169.178 10.2407 169.613 9.72214C170.178 9.03078 170.308 8.16658 170.352 7.30239C170.352 6.78387 170.308 6.26535 170.221 5.79004C169.96 4.53695 169.222 3.75918 167.961 3.4135C167.136 3.19745 166.267 3.15424 165.397 3.15424C164.963 3.15424 164.528 3.19745 164.094 3.19745C163.616 3.19745 163.181 3.24066 162.703 3.24066C162.703 3.24066 162.66 3.24066 162.66 3.28387C162.66 5.96288 162.66 8.55547 162.66 11.1913Z" fill="#0D2B7F"/>
<path d="M148.145 35C148.058 35 148.015 34.9568 147.928 34.9568C147.319 34.9568 146.667 34.9136 146.059 34.9136C145.32 34.8704 144.625 34.8272 143.93 34.784C143.234 34.7408 142.539 34.6543 141.844 34.6111C141.105 34.5247 140.366 34.4383 139.584 34.3519C138.976 34.2655 138.411 34.2222 137.802 34.179C137.194 34.0926 136.585 34.0062 135.977 33.963C135.456 33.9198 134.934 33.8766 134.456 33.8334C133.935 33.7901 133.413 33.7037 132.892 33.6605C132.5 33.6173 132.109 33.6173 131.718 33.5741C131.066 33.5309 130.458 33.4445 129.806 33.4013C129.415 33.358 128.98 33.3148 128.589 33.3148C127.807 33.2716 127.025 33.1852 126.243 33.142C126.025 33.142 125.765 33.0988 125.547 33.0988C125.156 33.0988 124.765 33.0556 124.374 33.0556C123.418 33.0124 122.462 32.9692 121.462 32.9259C121.158 32.9259 120.811 32.8827 120.506 32.8827C119.811 32.8827 119.116 32.8395 118.42 32.8395C117.117 32.8395 115.813 32.7963 114.509 32.7963C113.684 32.7963 112.814 32.8395 111.989 32.8827C111.163 32.9259 110.381 32.9692 109.555 33.0556C108.382 33.2284 107.252 33.4013 106.079 33.6173C105.774 33.6605 105.47 33.7901 105.123 33.8334C105.34 33.7037 105.514 33.5309 105.731 33.4445C106.948 32.7531 108.251 32.2778 109.599 31.8889C110.772 31.5864 111.945 31.284 113.119 31.0247C113.814 30.8519 114.553 30.7655 115.292 30.679C115.987 30.5926 116.639 30.5062 117.334 30.4198C117.725 30.3766 118.16 30.3334 118.551 30.3334C119.333 30.2901 120.072 30.2037 120.854 30.1605C120.897 30.1605 120.897 30.1605 120.941 30.1605C121.506 30.1605 122.114 30.1173 122.679 30.1173C124.2 30.1173 125.765 30.0741 127.286 30.0741C127.981 30.0741 128.676 30.1173 129.372 30.1173C130.067 30.1605 130.762 30.1605 131.458 30.2037C132.196 30.2469 132.979 30.2901 133.717 30.3334C134.326 30.3766 134.934 30.4198 135.542 30.463C136.412 30.5494 137.237 30.5926 138.106 30.679C138.845 30.7655 139.541 30.8087 140.279 30.8951C140.975 30.9815 141.713 31.0679 142.409 31.1543C143.061 31.2408 143.669 31.284 144.321 31.3272C145.06 31.4136 145.755 31.5 146.494 31.5432C146.972 31.5864 147.45 31.5864 147.971 31.6296C148.753 31.6729 149.536 31.7593 150.361 31.8025C150.666 31.8457 150.97 31.8457 151.274 31.8457C151.882 31.8457 152.491 31.8889 153.099 31.8889C153.708 31.8889 154.316 31.9321 154.924 31.9321C156.532 31.9321 158.14 31.9753 159.748 31.9753C160.27 31.9753 160.834 31.9321 161.356 31.9321C162.095 31.8889 162.833 31.8889 163.572 31.8457C164.05 31.8025 164.528 31.8025 165.05 31.7593C165.919 31.6729 166.788 31.5864 167.614 31.5432C168.135 31.5 168.7 31.4568 169.222 31.4136C169.787 31.3704 170.352 31.284 170.917 31.1975C171.438 31.1111 171.916 31.0679 172.438 31.0247C173.046 30.9383 173.698 30.8519 174.306 30.7222C175.132 30.5494 175.958 30.4198 176.783 30.2469C177.131 30.1605 177.479 30.0741 177.826 30.0309C177.435 30.2037 177.087 30.3766 176.696 30.5494C175.61 30.9383 174.523 31.3704 173.437 31.7161C172.22 32.105 170.96 32.4506 169.743 32.7963C168.439 33.142 167.092 33.4445 165.789 33.7037C165.05 33.8766 164.268 33.963 163.529 34.0926C162.747 34.2222 161.964 34.3519 161.182 34.4383C160.617 34.5247 160.009 34.5679 159.4 34.6111C158.662 34.6975 157.966 34.784 157.228 34.8272C156.967 34.8704 156.663 34.8704 156.402 34.8704C155.315 34.9136 154.229 34.9568 153.143 35C153.099 35 153.099 35.0432 153.056 35.0432C151.361 35 149.753 35 148.145 35Z" fill="#0D2B7F"/>
<path d="M130.023 0.60498C131.11 0.60498 132.196 0.60498 133.283 0.60498C133.283 0.64819 133.283 0.64819 133.283 0.6914C133.283 1.5556 133.326 2.463 133.326 3.3272C133.326 4.01856 133.37 4.66671 133.37 5.35807C133.37 5.9198 133.413 6.43831 133.413 7.00004C133.413 7.60498 133.457 8.20992 133.457 8.81486C133.457 9.33337 133.5 9.8951 133.5 10.4136C133.5 11.0186 133.543 11.6667 133.543 12.2716C133.543 12.747 133.587 13.2223 133.587 13.6976C133.587 14.3889 133.63 15.0371 133.63 15.7284C133.63 16.2902 133.674 16.8519 133.674 17.4136C133.674 18.0186 133.717 18.5803 133.717 19.1852C133.717 19.7037 133.761 20.2655 133.761 20.784C133.761 21.3889 133.804 21.9939 133.804 22.5988C133.804 22.8149 133.848 23.0741 133.848 23.2902C132.587 23.2902 131.414 23.2902 130.154 23.2902C130.154 23.247 130.154 23.2037 130.154 23.1605C130.154 21.6914 130.11 20.1791 130.11 18.7099C130.11 17.284 130.067 15.8581 130.067 14.4321C130.067 13.3519 130.023 12.2716 130.023 11.1914C130.023 10.1112 129.98 9.03091 129.98 7.95066C129.98 7.47535 129.937 7.00004 129.893 6.48152C129.806 6.65436 129.719 6.78399 129.632 6.95683C128.98 8.29634 128.285 9.59263 127.633 10.9321C126.938 12.3149 126.243 13.6976 125.504 15.1235C124.809 16.5062 124.113 17.8457 123.418 19.2284C122.81 20.4383 122.201 21.6482 121.593 22.8581C121.462 23.1173 121.245 23.0741 121.028 23.1173C120.724 23.1605 120.419 23.2037 120.159 23.247C120.072 23.247 119.941 23.2037 119.941 23.1173C119.159 21.5186 118.377 19.9198 117.595 18.2778C117.204 17.5 116.812 16.6791 116.421 15.9013C115.77 14.5618 115.118 13.2223 114.466 11.8395C114.031 10.9754 113.64 10.1544 113.206 9.29017C112.858 8.51239 112.467 7.77782 112.119 7.00004C112.076 6.91362 112.032 6.87041 111.989 6.78399C111.989 6.87041 111.989 6.87041 111.989 6.91362C111.989 8.20992 111.945 9.50622 111.945 10.8025C111.945 11.926 111.902 13.0494 111.902 14.1297C111.902 15.1667 111.858 16.247 111.858 17.284C111.858 18.3642 111.815 19.4445 111.815 20.5247C111.815 21.4321 111.815 22.3395 111.815 23.2902C110.598 23.2902 109.468 23.2902 108.295 23.2902C108.295 23.0309 108.338 22.7716 108.338 22.5124C108.382 21.7778 108.382 21.0433 108.425 20.3087C108.469 19.7902 108.469 19.2716 108.512 18.7531C108.556 17.8889 108.599 17.0247 108.643 16.1173C108.686 15.5988 108.686 15.0803 108.729 14.5618C108.773 13.6976 108.816 12.7902 108.86 11.926C108.903 11.4074 108.903 10.9321 108.947 10.4136C108.99 9.50622 109.034 8.64202 109.077 7.73461C109.121 7.2593 109.121 6.78399 109.164 6.30868C109.208 5.40128 109.251 4.49387 109.294 3.58646C109.338 3.06794 109.338 2.50621 109.381 1.9877C109.425 1.5556 109.425 1.1235 109.468 0.6914C109.555 0.6914 109.599 0.6914 109.686 0.6914C110.685 0.6914 111.685 0.6914 112.641 0.6914C112.771 0.6914 112.858 0.73461 112.901 0.86424C113.466 2.07412 114.075 3.24078 114.64 4.45066C115.074 5.31486 115.509 6.22226 115.9 7.08646C116.552 8.46918 117.247 9.80868 117.899 11.1914C118.333 12.0556 118.725 12.9198 119.159 13.8272C119.768 15.0371 120.333 16.247 120.941 17.4568C120.984 17.5433 121.028 17.5865 121.071 17.6729C121.549 16.7223 122.027 15.8149 122.505 14.9074C123.157 13.6544 123.809 12.3581 124.461 11.105C125.113 9.85189 125.765 8.59881 126.417 7.34572C127.068 6.09263 127.72 4.83955 128.372 3.58646C129.024 2.54942 129.545 1.59881 130.023 0.60498Z" fill="#0D2B7F"/>
<path d="M40.7192 0.60498C42.1099 0.60498 43.4136 0.60498 44.7607 0.60498C44.8477 0.60498 44.9346 0.6914 44.978 0.77782C45.7168 2.03091 46.4556 3.24078 47.1943 4.49387C47.9331 5.70375 48.6284 6.91362 49.3672 8.1235C49.8018 8.90128 50.2798 9.67905 50.7144 10.4136C50.7578 10.4568 50.8013 10.5 50.8447 10.5433C51.4097 9.63584 51.9746 8.77165 52.4961 7.86424C53.3652 6.43831 54.2344 5.0556 55.1035 3.62967C55.7119 2.67905 56.3203 1.72844 56.8853 0.77782C56.9722 0.64819 57.1025 0.60498 57.2764 0.60498C64.4468 0.60498 71.6172 0.60498 78.7441 0.60498C79.0483 0.60498 79.396 0.60498 79.7437 0.60498C79.7437 0.6914 79.7437 0.77782 79.7437 0.82103C79.7437 1.59881 79.7437 2.37659 79.7437 3.15436C79.7437 3.37041 79.6567 3.41362 79.4829 3.41362C76.5713 3.41362 73.7031 3.41362 70.7915 3.41362C70.7046 3.41362 70.6177 3.41362 70.4873 3.41362C70.4873 10.0247 70.4873 16.6358 70.4873 23.247C69.2271 23.247 68.0537 23.247 66.7935 23.247C66.7935 16.6358 66.7935 10.0247 66.7935 3.41362C66.7065 3.41362 66.6196 3.41362 66.5327 3.41362C64.1426 3.41362 61.7959 3.41362 59.4058 3.41362C59.2754 3.41362 59.1885 3.41362 59.1016 3.54325C58.0151 5.0556 56.9287 6.61115 55.8423 8.1235C54.6689 9.76547 53.4956 11.4507 52.3223 13.0926C52.1919 13.3087 52.105 13.4815 52.105 13.7408C52.105 16.8087 52.105 19.9198 52.105 22.9877C52.105 23.0741 52.105 23.1605 52.105 23.2902C50.8882 23.2902 49.7148 23.2902 48.498 23.2902C48.498 23.2037 48.498 23.1605 48.498 23.0741C48.498 23.0309 48.498 22.9445 48.498 22.9013C48.498 19.963 48.5415 17.0247 48.5415 14.0433C48.5415 13.6976 48.4546 13.4383 48.2808 13.1791C47.2813 11.4939 46.2383 9.85189 45.2388 8.16671C44.1523 6.3951 43.1094 4.66671 42.0229 2.8951C41.6318 2.16054 41.1973 1.38276 40.7192 0.60498Z" fill="#0D2B7F"/>
<path d="M79.7437 12.0556C79.7437 10.6728 79.9609 9.37654 80.439 8.08025C80.8735 6.87037 81.4385 5.74691 82.2642 4.75309C82.6987 4.23457 83.1333 3.75926 83.5679 3.28395C84.2632 2.6358 85.0454 2.07407 85.8711 1.59877C86.9575 0.993827 88.0874 0.561728 89.3042 0.302469C89.9126 0.17284 90.4775 0.0864198 91.0859 0.0432099C91.6509 0 92.2158 0 92.7808 0C93.6934 0 94.6059 0.17284 95.4751 0.388889C96.3442 0.604938 97.2134 0.950617 98.0391 1.38272C98.6909 1.7284 99.2993 2.16049 99.8643 2.6358C100.733 3.37037 101.472 4.14815 102.037 5.09877C102.776 6.26543 103.297 7.56173 103.602 8.90123C103.862 10.0679 103.906 11.2346 103.862 12.4444C103.819 13.3519 103.645 14.2161 103.428 15.0802C103.167 15.9877 102.863 16.8519 102.385 17.6728C101.994 18.321 101.559 18.9259 101.125 19.5309C100.907 19.8333 100.603 20.1358 100.342 20.3951C99.2993 21.4321 98.0825 22.2099 96.7353 22.8148C95.7358 23.2469 94.6494 23.5494 93.563 23.7222C93.1719 23.8086 92.7373 23.8086 92.3027 23.8086C91.9985 23.8086 91.6943 23.8519 91.3901 23.8519C89.9126 23.8086 88.4351 23.5062 87.0444 22.9877C86.0449 22.5988 85.1323 22.0802 84.3066 21.4321C83.1333 20.5247 82.1338 19.4012 81.395 18.1049C80.7866 17.0679 80.3521 15.9877 80.0913 14.8642C79.9609 14.3025 79.874 13.7407 79.8306 13.179C79.7437 12.8333 79.7437 12.4444 79.7437 12.0556ZM83.6982 11.4938C83.7417 12.0988 83.8286 12.7037 83.8721 13.2654C84.0459 14.4321 84.437 15.5123 85.002 16.5494C85.5234 17.5 86.2187 18.3642 87.0444 19.0556C87.8267 19.7037 88.6958 20.179 89.6084 20.5247C90.6079 20.8704 91.6509 21 92.7373 20.9136C93.5195 20.8272 94.2583 20.6543 94.9971 20.3519C96.2139 19.7901 97.2134 19.0123 98.0391 17.9321C99.2124 16.3333 99.7773 14.5617 99.8643 12.5741C99.8643 12.0556 99.8643 11.537 99.7773 11.0185C99.6904 10.3704 99.5601 9.67901 99.3428 9.03086C99.1255 8.20988 98.7344 7.47531 98.3433 6.74074C97.8652 5.87654 97.2568 5.09877 96.5181 4.49383C95.3882 3.54321 94.041 3.0679 92.5635 2.98148C91.8682 2.93827 91.1294 3.02469 90.3906 3.0679C89.5215 3.11111 88.7393 3.41358 88.0005 3.80247C87.0879 4.27778 86.2622 4.92593 85.6103 5.7037C84.9585 6.48148 84.4805 7.34568 84.1763 8.25309C83.8721 9.29012 83.6982 10.3704 83.6982 11.4938Z" fill="#0D2B7F"/>
<path d="M19.1211 0.60498C20.3379 0.60498 21.5112 0.60498 22.728 0.60498C22.728 3.71609 22.728 6.78399 22.728 9.93831C26.8564 9.93831 30.9414 9.93831 35.0698 9.93831C35.0698 6.8272 35.0698 3.71609 35.0698 0.60498C36.3301 0.60498 37.5034 0.60498 38.7637 0.60498C38.7637 8.16671 38.7637 15.6852 38.7637 23.247C37.5469 23.247 36.3301 23.247 35.1133 23.247C35.1133 19.7902 35.1133 16.3334 35.1133 12.8766C30.9849 12.8766 26.8999 12.8766 22.7715 12.8766C22.7715 16.3334 22.7715 19.7902 22.7715 23.247C21.5547 23.247 20.3379 23.247 19.1211 23.247C19.1211 15.7284 19.1211 8.16671 19.1211 0.60498Z" fill="#0D2B7F"/>
<path d="M143.625 3.41362C143.625 5.79017 143.625 8.16671 143.625 10.5433C147.015 10.5433 150.448 10.5433 153.838 10.5433C153.838 11.4507 153.838 12.3581 153.838 13.2655C150.448 13.2655 147.059 13.2655 143.625 13.2655C143.625 15.642 143.625 17.9753 143.625 20.3519C143.712 20.3519 143.843 20.3519 143.93 20.3519C147.537 20.3519 151.187 20.3519 154.794 20.3519C155.098 20.3519 155.098 20.3519 155.098 20.6544C155.098 21.5186 155.098 22.3828 155.098 23.247C150.057 23.247 145.016 23.247 139.975 23.247C139.975 15.7284 139.975 8.16671 139.975 0.60498C144.973 0.60498 149.927 0.60498 154.968 0.60498C154.968 1.51239 154.968 2.46301 154.968 3.41362C151.187 3.41362 147.406 3.41362 143.625 3.41362Z" fill="#0D2B7F"/>
<path d="M0.0439453 0.604988C0.608887 0.604988 1.13037 0.604988 1.69531 0.604988C2.60791 0.604988 3.52051 0.561778 4.43311 0.561778C5.56299 0.561778 6.69287 0.475359 7.82275 0.518568C8.69189 0.561778 9.56104 0.734618 10.4302 0.864248C11.2124 0.993877 11.9077 1.29635 12.603 1.72845C13.7329 2.46301 14.5151 3.50005 14.9932 4.79635C15.3408 5.79017 15.4712 6.82721 15.3843 7.86425C15.3408 8.68524 15.1235 9.46301 14.8193 10.2408C14.3848 11.2778 13.6895 12.142 12.8638 12.8766C11.9077 13.6976 10.8213 14.2161 9.60449 14.4754C8.90918 14.605 8.17041 14.6914 7.4751 14.7778C6.8667 14.821 6.2583 14.821 5.6499 14.821C4.99805 14.821 4.34619 14.821 3.69434 14.821C3.69434 17.6729 3.69434 20.4815 3.69434 23.3334C2.47754 23.3334 1.3042 23.3334 0.130859 23.3334C0.0439453 15.7284 0.0439453 8.16672 0.0439453 0.604988ZM3.65088 11.9692C4.25928 12.0124 4.86768 12.0988 5.47607 12.0988C6.17139 12.0988 6.82324 12.0124 7.51855 11.9692C8.34424 11.8828 9.12647 11.6667 9.82178 11.2346C10.3867 10.8889 10.8213 10.3704 11.082 9.80869C11.3862 9.16054 11.4731 8.5124 11.5166 7.82104C11.5601 7.04326 11.4731 6.26548 11.2124 5.4877C10.8647 4.5803 10.2129 3.93215 9.25684 3.58647C8.43115 3.284 7.56201 3.284 6.69287 3.24079C5.9541 3.19758 5.25879 3.24079 4.52002 3.284C4.21582 3.284 3.95508 3.32721 3.65088 3.37042C3.65088 6.22227 3.65088 9.07412 3.65088 11.9692Z" fill="#0D2B7F"/>
<path d="M162.66 11.1913C162.66 8.55553 162.66 5.91973 162.66 3.32714L162.703 3.28393C163.181 3.28393 163.616 3.24072 164.094 3.24072C164.528 3.24072 164.963 3.19751 165.397 3.19751C166.267 3.24072 167.092 3.24072 167.961 3.45677C169.222 3.75924 169.96 4.58023 170.221 5.83331C170.308 6.35183 170.395 6.87035 170.352 7.34566C170.308 8.20986 170.178 9.03084 169.613 9.76541C169.222 10.2839 168.657 10.6296 168.048 10.8889C167.44 11.1481 166.832 11.1913 166.18 11.2345C165.093 11.2345 164.007 11.2345 162.92 11.2345C162.877 11.1913 162.79 11.1913 162.66 11.1913Z" fill="white"/>
<path d="M83.6982 11.4938C83.6982 10.3704 83.8721 9.29014 84.2197 8.25311C84.5239 7.30249 85.002 6.43829 85.6538 5.70372C86.3057 4.88274 87.1313 4.2778 88.0439 3.80249C88.7827 3.4136 89.6084 3.15434 90.4341 3.06792C91.1729 3.02471 91.8682 2.93829 92.6069 2.9815C94.0845 3.06792 95.4316 3.54323 96.5615 4.49385C97.3003 5.142 97.9087 5.91977 98.3867 6.74076C98.8213 7.47533 99.169 8.2099 99.3862 9.03089C99.5601 9.67903 99.6904 10.3272 99.8208 11.0185C99.9077 11.5371 99.9512 12.0556 99.9077 12.5741C99.8208 14.5185 99.2559 16.3334 98.0825 17.9321C97.2568 19.0124 96.2573 19.8334 95.0405 20.3519C94.3452 20.6543 93.563 20.8272 92.7808 20.9136C91.6943 21 90.6514 20.8704 89.6519 20.5247C88.6958 20.179 87.8267 19.7037 87.0879 19.0556C86.2622 18.321 85.5669 17.5 85.0454 16.5494C84.4805 15.5124 84.0894 14.4321 83.9155 13.2655C83.8286 12.6605 83.7852 12.0988 83.6982 11.4938Z" fill="white"/>
<path d="M3.65039 11.9692C3.65039 9.07413 3.65039 6.17907 3.65039 3.32722C3.95459 3.28401 4.25879 3.28401 4.51953 3.2408C5.2583 3.19759 5.95361 3.15438 6.69238 3.19759C7.56152 3.2408 8.43066 3.2408 9.25635 3.54326C10.2124 3.88894 10.8208 4.53709 11.2119 5.4445C11.5161 6.17907 11.5596 6.95685 11.5161 7.77783C11.4727 8.46919 11.3857 9.16055 11.0815 9.76549C10.7773 10.3704 10.3862 10.8457 9.82129 11.1914C9.12598 11.6235 8.34375 11.8396 7.51807 11.926C6.82275 11.9692 6.1709 12.0556 5.47559 12.0556C4.86719 12.0988 4.25879 12.0124 3.65039 11.9692Z" fill="white"/>
</g>
<defs>
<clipPath id="clip0_54_872">
<rect width="178" height="35" fill="white"/>
</clipPath>
</defs>
</svg>
