<svg width="178" height="48" viewBox="0 0 178 48" fill="none" xmlns="http://www.w3.org/2000/svg">
<g clip-path="url(#clip0_3_844)">
<path d="M176.6 2.7V27.7L177.2 29.6H174.7L175.3 27.7V2.6C175.3 2 174.9 1.3 174.2 0.5L175.2 0C175.8 0.1 176.6 1.5 176.6 2.7Z" fill="#020202"/>
<path d="M174 13.4L162.2 36.8H160.9C162.6 34.8 165.3 29.6 165.3 29.6L158.9 13.4H161.8L161.3 14.7L166.2 27.5C169.7 22.2 172 14.5 172 14.5L171.3 13.4H174Z" fill="#020202"/>
<path d="M89.2 15.8C88.1 14.1 85.7 14.2 85.2 16.1V28.1L85.7 29.7H83L83.5 28.1V16.2L82.6 15.2L84.2 14L85.1 14.9C85.9 13.5 88.7 12.2 90.4 14.3L89.2 15.8Z" fill="#020202"/>
<path d="M60.8 15.2C61.6 16.3 61.8 17.6 61.9 19V28.4L62.3 29.6H59.8L60.4 28.3V19.1C60.4 17.3 59 14.9 56.1 14.9C53.7 14.9 51.4 16 51.2 19.1V28.3L51.8 29.5H49.1L49.8 28.3V16.3L49 15L50.8 14.1L51.7 15.7C54 13.7 58.4 12.8 60.8 15.2Z" fill="#020202"/>
<path d="M152.6 13.1C156.5 13.1 158 17.5 158.1 18.8H147.4C146.8 20.7 146.9 23.1 147.5 24.9C148.1 26.3 149.4 28.1 151 28.6C152.5 29.1 153.7 29.1 155.2 28.4C156.5 27.8 157.1 26.4 158.2 25.4C157.8 27 156.4 28.5 154.9 29.2C152.6 30.1 149.8 29.7 148 28.1C145.4 25.8 145 22.1 146.1 18.8C146.5 16.5 149.4 13.1 152.6 13.1ZM152 13.9C149.9 13.9 147.8 16.7 147.4 17.9H155.8C155.9 16.8 154.4 13.9 152 13.9Z" fill="#020202"/>
<path d="M130.5 1.20001C130.8 2.60001 131.5 3.60001 132.5 5.10001C128.7 1.50001 123.4 0.40001 118.3 1.70001C113 2.70001 108.9 8.70001 108.1 13.8C107.3 20.3 109.6 26.1 114.4 29.8C118.2 32.2 123 33.8 127.5 32.1C129.1 31.4 130.8 30.1 131.6 28.5C132.2 24.6 132.3 20.9 131.1 17.2H134.7C133.5 21.3 133.3 25.6 134.7 29.8H133C131.7 30.8 130.7 31.6 128.7 32.6C123.7 34.8 117.1 33.7 112.7 31C106.5 26.9 104.8 20 106.4 12.9C107.9 6.70001 114.2 1.30001 120.4 0.60001C124.1 -0.29999 126.6 1.60001 130.5 1.20001Z" fill="#020202"/>
<path d="M2.89998 2.60005V28.9H14.3C13 29.7 12.2 30.2 10.9 31.4C9.99998 30.6 8.99998 29.9 7.79998 29.8H0.0999756L0.799976 27.5V2.60005L0.299976 0.300049H3.49998L2.89998 2.60005Z" fill="#020202"/>
<path d="M47 21.5C47 26 43.1001 29.7001 38.4001 29.7001C33.6001 29.7001 29.8 26 29.8 21.5C29.8 17 33.7001 13.3 38.4001 13.3C43.1001 13.3 47 17 47 21.5ZM33.6 15.6C31.7 17.3 30.6 22.3 33.3 25.7C36 29.1 40.5 29.8 43.1 27.3C46 24.4 45.3001 20 43.2001 17.3C40.7001 14.1 36.2 13.3 33.6 15.6Z" fill="#020202"/>
<path d="M81 21.5C81 26 77.1001 29.7001 72.4001 29.7001C67.6001 29.7001 63.8 26 63.8 21.5C63.8 17 67.7001 13.3 72.4001 13.3C77.2001 13.3 81 17 81 21.5ZM67.6 15.6C65.7 17.3 64.6001 22.3 67.3001 25.7C70.0001 29.1 74.5 29.8 77.1 27.3C80 24.4 79.3 20 77.2 17.3C74.7 14.1 70.2 13.3 67.6 15.6Z" fill="#020202"/>
<path d="M144 15.8C142.9 14.1 140.5 14.2 140 16.1V28.1L140.5 29.7H137.8L138.3 28.1V16.2L137.4 15.2L139 14L139.9 14.9C140.7 13.5 143.5 12.2 145.2 14.3L144 15.8Z" fill="#020202"/>
<path d="M22.7 13.2C26.6 13.2 28.1 17.6 28.2 18.9H17.6C17 20.8 17.1 23.2 17.7 25C18.3 26.4 19.6 28.2 21.2 28.7C22.7 29.2 23.9 29.2 25.4 28.5C26.7 27.9 27.3 26.5 28.4 25.5C28 27.1 26.6 28.5999 25.1 29.2999C22.8 30.1999 20 29.8 18.2 28.2C15.6 25.9 15.2 22.2 16.3 18.9C16.6 16.5 19.5 13.2 22.7 13.2ZM22.1 13.9C20 13.9 17.9 16.7 17.5 17.9H26C26 16.8 24.5 13.9 22.1 13.9Z" fill="#020202"/>
<path d="M72.9 39.2999H76.3C77.9 39.2999 78.7 40.1999 78.7 41.5999C78.7 43.0999 77.9 43.8999 76.3 43.8999H73.9V47.0999H72.9V39.2999ZM73.9 43.0999H75.9C77.1 43.0999 77.6 42.5999 77.6 41.6999C77.6 40.7999 77.1 40.2999 75.9 40.2999H73.9V43.0999Z" fill="#020202"/>
<path d="M81.5 39.2999H82.7L85.8 47.1999H84.6L83.7 44.7999H80.4L79.5 47.1999H78.4L81.5 39.2999ZM80.7 43.8999H83.4L82.1 40.1999L80.7 43.8999Z" fill="#020202"/>
<path d="M86.7001 39.2999H90.4001C91.9001 39.2999 92.8001 40.0999 92.8001 41.3999C92.8001 42.2999 92.4001 43.0999 91.4001 43.3999C92.3001 43.5999 92.5001 44.1999 92.6001 44.9999C92.7001 45.7999 92.6001 46.5999 93.1001 47.1999H91.9001C91.6001 46.8999 91.8001 45.9999 91.6001 45.2999C91.5001 44.4999 91.3001 43.8999 90.3001 43.8999H87.7001V47.2999H86.7001V39.2999ZM90.0001 42.9999C91.0001 42.9999 91.8001 42.6999 91.8001 41.5999C91.8001 40.7999 91.4001 40.2999 90.4001 40.2999H87.8001V42.9999H90.0001Z" fill="#020202"/>
<path d="M94.5 39.2999H95.5V47.1999H94.5V39.2999Z" fill="#020202"/>
<path d="M102.1 41.6C102 40.5 101.2 40 100.2 40C99.3 40 98.4 40.3 98.4 41.3C98.4 42.3 99.7 42.4 100.9 42.7C102.2 43 103.4 43.4 103.4 45C103.4 46.7 101.8 47.3 100.3 47.3C98.5 47.3 97.1 46.4 97.1 44.5H98.1C98.1 45.8 99.2 46.4 100.4 46.4C101.3 46.4 102.4 46.1 102.4 45C102.4 43.9 101.1 43.7 99.9 43.5C98.6 43.2 97.4 42.9 97.4 41.4C97.4 39.8 98.8 39.1 100.2 39.1C101.8 39.1 103 39.9 103.1 41.6H102.1Z" fill="#020202"/>
<path d="M70 43.1H0V43.8H70V43.1Z" fill="#020202"/>
<path d="M176 43.3H106V44H176V43.3Z" fill="#020202"/>
</g>
<defs>
<clipPath id="clip0_3_844">
<rect width="177.2" height="47.4" fill="white"/>
</clipPath>
</defs>
</svg>
